<svg width="17" height="16" viewBox="0 0 17 16" fill="none" xmlns="http://www.w3.org/2000/svg">
<path d="M7.19173 6.86921C7.495 7.40554 6.81674 7.57176 6.49847 7.60236C6.01614 7.64945 5.9163 7.37022 6.01051 7.01942C6.04142 6.89383 6.11004 6.78083 6.20705 6.69576C6.30407 6.61068 6.42479 6.55764 6.55284 6.54384C6.67902 6.53222 6.80589 6.55659 6.91891 6.61414C7.03192 6.6717 7.12648 6.76011 7.19173 6.86921V6.86921Z" fill="black"/>
<path d="M9.08509 5.87695C8.7326 8.58542 13.4847 8.02178 13.3942 10.1774C13.8629 9.5653 14.0645 7.90218 12.6845 7.04613C11.455 6.28285 9.85288 6.70051 9.08509 5.87695Z" fill="black"/>
<path d="M11.8223 4.85476C11.7913 4.82604 11.7595 4.79778 11.7285 4.76953C11.7599 4.79825 11.7913 4.82839 11.8223 4.85476Z" fill="black"/>
<path d="M12.9269 6.82985L12.9241 6.82562C12.8812 6.74556 12.8323 6.66891 12.7778 6.5963C12.6176 6.37827 12.3878 6.22204 12.1268 6.15368C11.953 6.10862 11.7753 6.08056 11.5962 6.06986C11.4147 6.05668 11.2296 6.04914 11.0426 6.03926C10.6676 6.01854 10.2837 5.97993 9.9087 5.87257C9.81495 5.84573 9.72121 5.81653 9.63074 5.78122C9.58387 5.76427 9.54027 5.7459 9.49387 5.72613C9.44746 5.70635 9.40012 5.68375 9.35325 5.65973C9.17692 5.56271 9.01359 5.44356 8.86717 5.30517C8.57843 5.03536 8.35156 4.72929 8.12422 4.43264C7.90991 4.13484 7.6799 3.84877 7.43518 3.57565C7.19373 3.30808 6.90834 3.08414 6.59146 2.9136C6.26333 2.74758 5.90693 2.64533 5.54102 2.61224C5.92062 2.57083 6.30461 2.61788 6.66317 2.74973C7.02499 2.89084 7.35575 3.10184 7.63674 3.37082C7.8202 3.54365 7.99243 3.72814 8.15235 3.92315C9.34294 3.68771 10.3085 3.89678 11.0505 4.30267L11.0674 4.31115C11.3036 4.43983 11.5249 4.59427 11.7274 4.77167C11.7597 4.79992 11.7916 4.82817 11.8211 4.85689C11.9792 5.00277 12.1263 5.16015 12.2613 5.32777L12.2716 5.34142C12.7099 5.89894 12.9264 6.47858 12.9269 6.82985Z" fill="black"/>
<path d="M12.9266 6.82787L12.9238 6.82227L12.9266 6.82787Z" fill="black"/>
<path d="M5.60223 2.96094C5.90597 3.0052 6.2158 3.12669 6.41548 3.35836C6.61516 3.59003 6.68875 3.89138 6.74641 4.17815C6.79328 4.4004 6.83031 4.62689 6.9175 4.83737C6.95968 4.94002 7.02156 5.02996 7.07312 5.12696C7.11577 5.20748 7.19358 5.27999 7.22358 5.36616C7.22894 5.37853 7.23095 5.39211 7.22938 5.40551C7.22782 5.41891 7.22274 5.43166 7.21467 5.44245C7.10874 5.56017 6.82281 5.42926 6.715 5.37652C6.52861 5.28373 6.36169 5.15585 6.2233 4.99982C5.79066 4.51718 5.56707 3.82264 5.58066 3.19025C5.58366 3.11348 5.59086 3.03692 5.60223 2.96094Z" fill="black"/>
<path d="M10.6816 8.40234C10.0253 10.242 13.0018 11.4762 11.8867 13.3465C13.0309 12.8719 13.5741 11.4381 13.0993 10.3004C12.684 9.30171 11.4559 8.93773 10.6816 8.40234Z" fill="black"/>
<path d="M6.74414 10.8083C6.92297 10.6729 7.1185 10.5613 7.32584 10.4763C7.53562 10.392 7.75325 10.3289 7.97551 10.288C8.41659 10.2037 8.85298 10.183 9.21954 10.0346C9.40065 9.96359 9.5673 9.85986 9.71124 9.72856C9.85057 9.59852 9.95724 9.43715 10.0225 9.25768C10.0893 9.06833 10.1165 8.86713 10.1022 8.66674C10.0856 8.45148 10.0371 8.23991 9.95826 8.03906C10.1217 8.20977 10.2406 8.41832 10.3046 8.64624C10.3687 8.87415 10.3758 9.11441 10.3253 9.34574C10.2679 9.59061 10.1441 9.81473 9.96764 9.99319C9.79293 10.1661 9.58227 10.2979 9.35078 10.3793C9.12988 10.4571 8.89952 10.5047 8.66596 10.5206C8.44097 10.5394 8.22347 10.5446 8.00973 10.5573C7.57758 10.5755 7.15076 10.6601 6.74414 10.8083V10.8083Z" fill="black"/>
<path d="M10.9432 14.0425C10.8771 14.0952 10.811 14.1512 10.7383 14.2002C10.6652 14.2486 10.5886 14.2914 10.5091 14.3283C10.3436 14.4094 10.1617 14.4508 9.97758 14.4493C9.47885 14.4399 9.12636 14.0669 8.92011 13.6455C8.77949 13.3583 8.68246 13.048 8.51559 12.7744C8.27701 12.3831 7.86874 12.0681 7.39063 12.1265C7.19563 12.151 7.01283 12.239 6.90455 12.409C6.61956 12.853 7.02876 13.4751 7.55046 13.387C7.59484 13.3802 7.63826 13.3682 7.67984 13.3512C7.72127 13.3335 7.75995 13.3099 7.79468 13.2811C7.86755 13.2201 7.92249 13.1403 7.95358 13.0503C7.98785 12.9565 7.99548 12.8549 7.97561 12.757C7.95421 12.6546 7.89403 12.5646 7.8078 12.506C7.90806 12.5532 7.9862 12.6376 8.02576 12.7414C8.0668 12.8483 8.07735 12.9646 8.05623 13.0772C8.03576 13.1945 7.98427 13.3041 7.90717 13.3945C7.86621 13.4411 7.81886 13.4815 7.76655 13.5146C7.7147 13.5473 7.65916 13.5737 7.60109 13.5932C7.48336 13.6337 7.35802 13.6467 7.23454 13.6314C7.06116 13.6066 6.89763 13.5353 6.76111 13.4251C6.59987 13.2971 6.47987 13.1294 6.33409 12.9853C6.16698 12.8092 5.96981 12.6646 5.75192 12.5583C5.60167 12.492 5.44442 12.443 5.28319 12.4123C5.2021 12.3953 5.12007 12.3831 5.03804 12.3727C5.00054 12.369 4.8168 12.328 4.79102 12.352C5.04456 12.1176 5.32094 11.9093 5.61599 11.7305C5.91894 11.5499 6.24422 11.4101 6.58346 11.3147C6.93519 11.2152 7.30307 11.1869 7.66577 11.2313C7.85248 11.2539 8.03534 11.3014 8.20951 11.3726C8.392 11.4458 8.56044 11.5503 8.70731 11.6815C8.85267 11.8191 8.97014 11.9836 9.05323 12.166C9.12825 12.3368 9.18422 12.5154 9.2201 12.6986C9.32697 13.2462 9.2876 14.0952 10.0015 14.2204C10.0387 14.2277 10.0762 14.233 10.114 14.2365L10.2307 14.2393C10.3109 14.2335 10.3907 14.2221 10.4693 14.2049C10.6321 14.1664 10.7909 14.112 10.9432 14.0425V14.0425Z" fill="black"/>
<path d="M6.79606 13.4463L6.77734 13.4316L6.79606 13.4463Z" fill="black"/>
<path d="M6.15459 5.7168C6.1286 5.81716 6.0832 5.91139 6.021 5.99415C5.90522 6.14509 5.75198 6.26282 5.57664 6.33553C5.41893 6.4038 5.25192 6.44792 5.08118 6.46644C5.04415 6.47114 5.00572 6.47397 4.96869 6.47679C4.86055 6.48092 4.75657 6.51972 4.67197 6.5875C4.58737 6.65529 4.5266 6.7485 4.49854 6.85349C4.4857 6.90573 4.47615 6.95873 4.46995 7.01218C4.45308 7.15061 4.45027 7.2947 4.43527 7.46892C4.39854 7.7654 4.31316 8.05371 4.18262 8.32215C4.01293 8.68095 3.82263 8.97007 3.86669 9.38349C3.89575 9.65189 4.03262 9.83176 4.21449 10.0173C4.54261 10.3544 5.27711 10.5051 5.11306 11.3357C5.01415 11.8316 4.19574 12.3519 3.04546 12.5336C3.15983 12.5162 2.89875 12.0741 2.88234 12.0458C2.75906 11.8518 2.62407 11.6691 2.5261 11.4586C2.33392 11.0504 2.24486 10.5781 2.32361 10.1308C2.40658 9.6599 2.75344 9.29921 3.04171 8.93946C3.38483 8.51144 3.74482 7.95063 3.8245 7.395C3.84325 7.26033 3.85638 7.09175 3.88637 6.92412C3.91498 6.73841 3.97289 6.55847 4.05793 6.39109C4.11598 6.28132 4.19241 6.1824 4.28386 6.09868C4.33155 6.05423 4.36301 5.99499 4.3732 5.93045C4.3834 5.86591 4.37175 5.7998 4.34011 5.7427L2.50642 2.42963L5.14024 5.69467C5.17024 5.73251 5.20815 5.76325 5.2513 5.78471C5.29444 5.80617 5.34176 5.81783 5.3899 5.81887C5.43803 5.8199 5.4858 5.81028 5.52982 5.79069C5.57384 5.7711 5.61303 5.74201 5.64461 5.7055C5.67797 5.66642 5.69689 5.61697 5.69817 5.5655C5.69945 5.51403 5.68301 5.46369 5.65163 5.42298C5.47961 5.20214 5.29774 4.97706 5.12149 4.75575L4.4587 3.93172L3.12843 2.28649L1.31445 0L3.29905 2.1391L4.7151 3.71182L5.42149 4.50007C5.65585 4.76517 5.89022 5.02179 6.12459 5.30055L6.16303 5.34764L6.17146 5.42062C6.18289 5.51959 6.17718 5.61979 6.15459 5.7168Z" fill="black"/>
<path d="M6.76233 13.4223C6.63505 13.3236 6.52181 13.2077 6.42578 13.0781C6.52881 13.2015 6.64134 13.3166 6.76233 13.4223V13.4223Z" fill="black"/>
</svg>
