<svg width="257" height="37" viewBox="0 0 257 37" fill="none" xmlns="http://www.w3.org/2000/svg">
<path fill-rule="evenodd" clip-rule="evenodd" d="M119.559 0.59657C113.606 2.09636 110.816 6.76371 112.508 12.3907C113.233 14.8019 115.463 17.2343 118.616 19.0534C124.298 22.3316 125.971 23.6592 126.943 25.6594C127.754 27.3281 127.824 27.8859 127.415 29.3983C126.456 32.9488 123.95 34.907 120.366 34.907C116.708 34.907 114.139 32.855 113.566 29.4747C113.336 28.1153 113.052 27.6813 112.395 27.6813C111.611 27.6813 111.529 28.0408 111.529 31.4839V35.2859L113.908 36.0942C117.624 37.356 122.909 37.2052 126.062 35.7474C132.205 32.9072 134.56 27.2698 131.802 22.0022C130.771 20.0319 128.183 17.8326 123.75 15.1582C119.09 12.347 117.013 10.3021 116.709 8.22381C116.241 5.03004 119.113 2.38677 123.04 2.39806C126.115 2.40664 127.434 3.13465 128.524 5.42339C129.207 6.85634 129.695 7.33001 130.503 7.34265C131.397 7.3562 131.53 7.18959 131.302 6.34282C131.152 5.78418 131.026 4.38333 131.023 3.22992C131.019 1.76536 130.807 1.05269 130.321 0.867081C128.996 0.360378 121.266 0.166188 119.559 0.59657ZM0.0390625 1.93966C0.0390625 2.58953 0.341355 2.84288 1.1168 2.84288C3.3049 2.84288 3.42228 3.47425 3.66475 16.5718C3.8764 28.0141 3.9548 28.9278 4.86938 30.6168C6.17961 33.0361 7.95665 34.6459 10.6895 35.8901C12.5617 36.7423 13.7437 36.923 17.4877 36.9307C21.5493 36.9383 22.2894 36.8073 24.6167 35.6684C26.0447 34.9697 27.8236 33.66 28.5696 32.7582C31.1561 29.6317 31.4298 28.1208 31.723 15.3579C32.0054 3.06784 32.0439 2.86814 34.1432 2.84963C34.6317 2.84556 34.9363 2.49604 34.9363 1.93966C34.9363 1.08658 34.634 1.03645 29.4977 1.03645C24.4209 1.03645 24.0592 1.09468 24.0592 1.91119C24.0592 2.56602 24.4263 2.82119 25.5217 2.92731C27.9287 3.15989 28.1241 4.08488 28.1313 15.2929C28.139 26.6558 27.7511 28.8419 25.3178 31.1429C23.0554 33.283 21.2548 34.0038 18.172 34.0038C13.7442 34.0038 10.6061 31.9427 9.57733 28.3587C9.23108 27.1534 9.10373 22.7208 9.19437 15.0363L9.32988 3.52027L10.9161 3.01043C11.7885 2.72999 12.5681 2.17132 12.6487 1.76848C12.7784 1.12133 12.0564 1.03645 6.41709 1.03645C0.341353 1.03645 0.0390625 1.07935 0.0390625 1.93966ZM42.1876 1.93966C42.1876 2.63875 42.4899 2.84288 43.526 2.84288C45.8337 2.84288 47.1335 3.72987 47.6552 5.66049C47.952 6.75835 48.0798 12.0015 47.9928 19.495C47.8374 32.8747 47.6538 33.75 44.8865 34.3014C43.9742 34.4834 43.5473 34.8384 43.5473 35.4151C43.5473 36.2027 43.9905 36.2618 49.8922 36.2618C55.6901 36.2618 56.2372 36.1923 56.2372 35.4521C56.2372 34.8759 55.6566 34.4879 54.2213 34.1054C52.4388 33.6303 52.1506 33.371 51.7309 31.8667C51.1929 29.9361 51.0656 9.59625 51.5918 9.65496C51.7785 9.67574 53.5365 11.5557 55.4984 13.8323C57.4599 16.1088 62.8269 22.0867 67.4247 27.1167C74.6212 34.9891 75.9672 36.2618 77.098 36.2618H78.4114L78.5415 20.2519C78.6335 8.88454 78.8234 4.09069 79.1955 3.71992C79.4842 3.4327 80.4019 3.05877 81.2349 2.88896C82.1191 2.70877 82.75 2.30546 82.75 1.92115C82.75 1.38193 81.6201 1.23965 76.5183 1.13669C70.5183 1.01566 70.2867 1.045 70.2867 1.92699C70.2867 2.59717 70.5836 2.84288 71.3944 2.84288C72.0039 2.84288 73.0744 3.33288 73.7737 3.93217L75.0454 5.02145L75.1882 15.8997C75.2693 22.0416 75.156 26.7781 74.9289 26.7781C74.7078 26.7781 73.3241 25.4065 71.8539 23.7297C70.3841 22.0528 66.1983 17.4298 62.5522 13.4557C58.9061 9.48152 54.9229 5.07787 53.701 3.67021L51.4785 1.11052L46.833 1.07348C42.4772 1.03871 42.1876 1.0929 42.1876 1.93966ZM89.7748 1.93966C89.7748 2.62836 90.0771 2.84288 91.0478 2.84288C91.748 2.84288 92.7166 3.13098 93.2006 3.48323C94.0309 4.08794 94.0884 4.86747 94.2221 17.3702C94.3894 32.9823 94.252 33.8574 91.5704 34.2846C90.2198 34.5001 89.7748 34.7805 89.7748 35.4164C89.7748 36.2049 90.2316 36.2618 96.5729 36.2618C103.069 36.2618 103.371 36.2216 103.371 35.3586C103.371 34.716 103.069 34.4553 102.325 34.4553C101.749 34.4553 100.883 34.1673 100.398 33.815C99.565 33.2081 99.512 32.4273 99.3874 18.9301C99.2596 5.10367 99.2827 4.65883 100.18 3.7642C100.689 3.25749 101.615 2.84288 102.238 2.84288C103.069 2.84288 103.371 2.60217 103.371 1.93966C103.371 1.07664 103.069 1.03645 96.5729 1.03645C90.077 1.03645 89.7748 1.07664 89.7748 1.93966ZM137.23 1.93966C137.377 2.4992 137.849 2.84288 138.469 2.84288C139.019 2.84288 139.916 3.31572 140.461 3.89423C141.015 4.48132 144.113 11.9053 147.483 20.7166L153.513 36.4876L155.095 36.6227L156.676 36.7577L160.913 25.5583C163.243 19.3988 165.394 13.8716 165.693 13.2754C166.206 12.2548 166.32 12.4102 167.682 15.9852C168.476 18.0716 170.592 23.5888 172.382 28.2458L175.638 36.7134H177.072C177.862 36.7134 178.611 36.4434 178.738 36.1133C178.865 35.7836 180.948 30.4487 183.365 24.2585C185.784 18.0688 188.462 11.2112 189.318 9.01996C191.267 4.03015 191.657 3.41415 193.211 2.87448C193.901 2.63468 194.466 2.12305 194.466 1.73738C194.466 1.14306 193.641 1.03645 189.028 1.03645C183.892 1.03645 183.589 1.08658 183.589 1.93966C183.589 2.59404 183.892 2.84288 184.685 2.84288C186.447 2.84288 187.215 3.31977 187.215 4.41402C187.215 5.32717 178.583 28.7565 178.051 29.2862C177.724 29.6118 169.929 7.84763 169.647 5.82262C169.374 3.85542 170.214 2.84288 172.119 2.84288C172.863 2.84288 173.166 2.5823 173.166 1.93966C173.166 1.07529 172.863 1.03645 166.141 1.03645C159.418 1.03645 159.116 1.07529 159.116 1.93966C159.116 2.4545 159.418 2.84288 159.818 2.84288C161.233 2.84288 163.109 4.20491 163.591 5.58322C164.283 7.5608 163.754 9.56588 159.679 20.409L156.217 29.6205L155.472 27.8605C155.062 26.8927 152.927 21.1817 150.73 15.1699C146.412 3.35948 146.348 2.84288 149.201 2.84288C150.203 2.84288 150.505 2.63378 150.505 1.93966C150.505 1.07664 150.203 1.03645 143.749 1.03645C137.217 1.03645 137.002 1.06625 137.23 1.93966ZM229.015 2.24646C229.015 2.24646 229.015 2.86298 229.091 3.03453C229.167 3.20608 229.654 3.27051 229.654 3.27051C229.956 3.35162 230.244 3.42282 230.515 3.49005L230.516 3.49018L230.516 3.49026C231.886 3.82946 232.848 4.06773 233.232 4.96693C233.492 5.5744 233.508 7.68659 233.512 19.0099C233.515 30.95 233.513 32.4131 233.193 33.202C232.797 34.1806 232.039 34.7001 230.289 35.1913C230.289 35.1913 229.515 35.4067 229.307 35.5992C229.098 35.7918 229.059 36.2218 229.059 36.2218C229.059 36.2218 229.043 36.6211 229.221 36.8127C229.4 37.0044 229.876 36.913 229.876 36.913L234.411 36.925L241.933 36.9858C241.933 36.9858 242.241 37.0264 242.4 36.823C242.56 36.6195 242.519 36.2207 242.519 36.2207C242.519 36.2207 242.519 35.7943 242.321 35.6022C242.123 35.41 241.354 35.2299 241.354 35.2299C239.655 34.8118 238.784 34.267 238.398 33.3823C238.112 32.7248 238.081 30.9496 238.038 27.2527V21.8325C238.228 21.9396 238.401 22.061 238.585 22.1893C239.452 22.796 240.537 23.5558 244.594 23.6732C249.508 23.8154 252.464 21.6289 254.222 19.0893C255.98 16.5498 256.662 12.56 255.372 8.30972C254.082 4.05947 250.297 1.48741 244.977 1.22152C242.203 1.08294 238.168 1.21978 235.913 1.3221C235.683 1.33255 235.471 1.34215 235.281 1.35043C233.232 1.43983 230.777 1.63573 229.554 1.7521L229.55 1.75242C229.217 1.7841 229.184 1.78723 229.091 1.90547C228.998 2.02411 229.015 2.24646 229.015 2.24646ZM248.984 18.8958C250.961 17.0376 250.994 14.1309 250.994 12.274C250.8 9.36241 249.626 3.763 242.981 3.763C241.427 3.68318 238.248 3.95131 238.16 6.10662C238.064 6.48732 238.021 9.15059 238.046 13.2379L238.085 19.7615L238.761 20.1178L238.798 20.1371C239.165 20.3308 239.641 20.5824 240.474 20.7454C243.116 21.2628 247.008 20.7539 248.984 18.8958ZM207.405 1.59943C207.897 1.41291 208.221 1.28832 208.221 1.28832C208.221 1.28832 208.957 0.986002 209.195 1.28832C209.268 1.38145 209.534 2.06968 210.195 3.77546C210.325 4.11039 210.47 4.48454 210.632 4.90111C211.617 7.43934 213.033 11.0827 213.777 12.9975C214.522 14.9123 215.995 18.7014 217.051 21.4178C218.107 24.1341 219.462 27.6188 220.062 29.1615C220.663 30.7042 221.43 32.3084 221.645 32.601C221.75 32.7446 221.858 32.9233 221.976 33.119C222.44 33.8873 223.062 34.9184 224.311 35.12C224.311 35.12 225.29 35.2819 225.434 35.4352C225.579 35.5886 225.612 35.8671 225.612 35.8671V36.3904C225.612 36.3904 225.596 36.5243 225.515 36.638C225.435 36.7516 225.139 36.72 225.139 36.72L217.597 36.7206L212.231 36.7592C212.231 36.7592 212.044 36.782 211.933 36.6906C211.822 36.5992 211.765 36.3683 211.765 36.3683V35.9741C211.765 35.9741 211.719 35.6776 211.933 35.4198C212.147 35.162 213.009 35.132 213.009 35.132C214.633 34.9912 215.278 33.6073 215.61 32.895C215.635 32.8418 215.658 32.7924 215.679 32.7475C216.033 32.0112 215.905 31.5314 214.307 27.5951C213.253 24.9971 212.893 24.2675 212.637 24.2027C212.457 24.1572 209.65 24.1404 206.399 24.1653L200.488 24.2103L200.135 25.1819C199.112 27.9922 198.205 30.784 198.068 31.5387C197.789 33.0745 198.178 34.7826 200.436 35.0796C200.436 35.0796 201.274 35.1948 201.497 35.3633C201.72 35.5319 201.799 35.9638 201.799 35.9638V36.3618C201.799 36.3618 201.756 36.5512 201.602 36.6787C201.449 36.8062 201.05 36.7598 201.05 36.7598H195.408L189.95 36.8219C189.95 36.8219 189.717 36.8164 189.545 36.7251C189.373 36.6338 189.345 36.4506 189.345 36.4506V36.0724C189.345 36.0724 189.316 35.8268 189.619 35.5266C189.923 35.2264 190.744 35.146 190.744 35.146C192.236 34.9057 193.081 33.3177 193.567 32.4039C193.603 32.3364 193.637 32.2726 193.669 32.2133C193.862 31.8574 194.731 29.7808 195.601 27.5988C196.471 25.4168 197.447 22.9758 197.77 22.1742C198.87 19.4488 199.914 16.8377 201.496 12.8633C202.364 10.6813 203.65 7.46057 204.353 5.70607L205.63 2.51598L207.405 1.59943ZM206.939 9.35369C207.213 10.0437 207.632 11.082 207.87 11.6609C208.109 12.2398 208.776 13.8793 209.352 15.3042C209.929 16.7292 210.638 18.4633 210.927 19.1578C211.217 19.8525 211.454 20.4536 211.454 20.4937C211.454 20.5341 209.281 20.5669 206.626 20.5669C203.578 20.5669 201.799 20.5085 201.799 20.4082C201.799 20.3209 201.901 19.9749 202.026 19.6391C202.224 19.1051 203.215 16.2702 205.402 9.97454C205.74 9.00249 206.053 8.14507 206.098 8.06929C206.252 7.81004 206.442 8.09891 206.939 9.35369Z" fill="black"/>
</svg>
