<svg width="257" height="256" viewBox="0 0 257 256" fill="none" xmlns="http://www.w3.org/2000/svg">
<rect x="0.0390625" width="256" height="256" fill="white"/>
<path d="M96.4347 64.2768C94.3434 63.9524 94.2552 63.9143 95.2394 63.7631C97.1254 63.473 101.579 63.8683 104.648 64.5981C111.812 66.3011 118.331 70.6637 125.29 78.4117L127.139 80.4701L129.784 80.0449C140.926 78.2544 152.26 79.6774 161.741 84.057C164.349 85.2619 168.461 87.6603 168.975 88.2766C169.138 88.473 169.439 89.7374 169.642 91.0866C170.347 95.7544 169.994 99.3323 168.567 102.005C167.79 103.459 167.746 103.92 168.268 105.164C168.686 106.157 169.848 106.892 170.999 106.891C173.355 106.888 175.891 103.079 177.066 97.78L177.532 95.6751L178.457 96.7224C183.528 102.468 187.512 110.304 188.196 115.881L188.374 117.336L187.522 116.014C186.054 113.739 184.58 112.19 182.693 110.941C179.29 108.69 175.693 107.923 166.164 107.421C157.559 106.968 152.689 106.233 147.859 104.658C139.643 101.979 135.501 98.4114 125.74 85.6058C121.405 79.918 118.726 76.7711 116.06 74.2368C110.004 68.4784 104.053 65.4584 96.4347 64.2768Z" fill="black"/>
<path d="M170.916 76.9763C171.132 73.1649 171.649 70.651 172.688 68.3552C173.099 67.4465 173.485 66.7027 173.544 66.7027C173.604 66.7027 173.425 67.3735 173.147 68.1931C172.391 70.4212 172.267 73.4687 172.788 77.0144C173.448 81.5132 173.824 82.1623 178.579 87.022C180.809 89.3014 183.403 92.1762 184.344 93.4105L186.054 95.6547L184.344 94.0508C182.253 92.0895 177.444 88.2644 176.381 87.7176C175.669 87.3509 175.563 87.3572 175.124 87.7946C174.719 88.1975 174.634 88.803 174.577 91.6654C174.49 96.1267 173.882 98.9901 172.414 101.853C171.621 103.402 171.495 103.071 172.214 101.323C172.75 100.018 172.805 99.4446 172.801 95.1259C172.792 86.4485 171.762 84.3624 165.721 80.7887C164.19 79.8834 161.668 78.5778 160.117 77.8872C158.565 77.1965 157.333 76.595 157.378 76.5501C157.549 76.3798 163.441 78.0995 165.812 79.0117C169.339 80.3686 169.922 80.5444 170.35 80.3807C170.637 80.271 170.776 79.4347 170.916 76.9763Z" fill="black"/>
<path d="M100.497 91.8209C96.2514 85.9757 93.6246 77.0138 94.1933 70.3144L94.3691 68.2413L95.3355 68.4176C97.1504 68.7486 100.28 69.9133 101.745 70.8033C105.766 73.2453 107.506 76.4605 109.277 84.7164C109.796 87.1346 110.477 89.8712 110.79 90.7976C111.294 92.2889 113.199 95.7721 114.748 98.0343C115.864 99.6636 115.123 100.436 112.657 100.213C108.89 99.873 103.788 96.3519 100.497 91.8209Z" fill="black"/>
<path d="M165.766 135.323C145.925 127.335 138.937 120.4 138.937 108.7C138.937 106.979 138.996 105.57 139.068 105.57C139.14 105.57 139.908 106.138 140.774 106.833C144.797 110.06 149.303 111.438 161.776 113.258C169.115 114.328 173.245 115.193 177.056 116.457C189.166 120.473 196.658 128.624 198.445 139.725C198.964 142.951 198.66 149 197.818 152.188C197.153 154.706 195.125 159.245 194.588 159.419C194.439 159.468 194.292 158.896 194.254 158.118C194.05 153.95 191.943 149.891 188.406 146.851C184.383 143.395 178.979 140.643 165.766 135.323Z" fill="black"/>
<path d="M151.837 138.642C151.588 137.163 151.157 135.273 150.879 134.444L150.372 132.935L151.313 133.991C152.614 135.451 153.642 137.32 154.514 139.81C155.179 141.71 155.254 142.275 155.249 145.362C155.244 148.393 155.161 149.029 154.546 150.739C153.578 153.436 152.376 155.348 150.359 157.4C146.735 161.089 142.075 163.131 135.351 163.978C134.182 164.125 130.775 164.373 127.78 164.529C120.232 164.922 115.264 165.733 110.801 167.3C110.159 167.525 109.586 167.662 109.528 167.604C109.347 167.424 112.386 165.613 114.897 164.404C118.436 162.699 121.96 161.768 129.854 160.454C133.754 159.804 137.781 159.016 138.804 158.702C148.461 155.741 153.426 148.1 151.837 138.642Z" fill="black"/>
<path d="M160.932 154.795C158.296 149.128 157.691 143.657 159.135 138.554C159.289 138.009 159.538 137.562 159.687 137.562C159.837 137.562 160.459 137.899 161.07 138.31C162.284 139.127 164.721 140.505 171.212 144.044C179.311 148.46 183.929 151.879 187.07 155.786C189.82 159.208 191.522 163.104 192.341 167.856C192.805 170.548 192.533 177.024 191.843 179.735C189.665 188.281 184.604 194.993 177.385 198.911C176.327 199.484 175.377 199.955 175.275 199.958C175.172 199.96 175.557 198.98 176.131 197.78C178.56 192.703 178.836 187.765 177 182.269C175.876 178.904 173.584 174.797 168.956 167.857C163.575 159.788 162.256 157.641 160.932 154.795Z" fill="black"/>
<path d="M86.4067 185.371C93.7696 179.154 102.931 174.738 111.276 173.382C114.872 172.798 120.864 173.03 124.194 173.882C129.532 175.248 134.307 178.308 136.791 181.954C139.218 185.517 140.259 188.622 141.343 195.53C141.771 198.255 142.236 200.992 142.377 201.611C143.191 205.192 144.775 208.054 146.739 209.491C149.857 211.773 155.227 211.915 160.509 209.855C161.405 209.505 162.184 209.263 162.238 209.318C162.43 209.508 159.77 211.288 157.894 212.226C155.369 213.487 153.361 213.975 150.693 213.975C145.855 213.975 141.839 211.514 138.487 206.495C137.828 205.508 136.346 202.55 135.193 199.922C131.655 191.851 129.907 189.393 125.799 186.702C122.223 184.36 117.612 183.941 114.143 185.642C109.586 187.876 108.315 193.699 111.579 197.39C112.876 198.856 115.295 200.121 117.273 200.367C120.973 200.828 124.153 198.013 124.153 194.277C124.153 191.851 123.221 190.467 120.873 189.407C117.668 187.961 114.222 189.652 114.238 192.663C114.245 193.947 114.805 194.754 116.092 195.336C116.918 195.71 116.937 195.74 116.263 195.6C113.322 194.99 112.633 191.444 114.998 189.09C117.837 186.264 123.709 187.511 125.725 191.368C126.572 192.988 126.67 196.215 125.932 198.164C124.279 202.525 119.46 204.819 114.571 203.571C111.243 202.721 109.887 201.801 105.874 197.667C98.9012 190.484 96.1941 189.092 86.141 187.523L84.2146 187.222L86.4067 185.371Z" fill="black"/>
<path fill-rule="evenodd" clip-rule="evenodd" d="M33.8241 24.4645C57.1114 52.7285 93.0139 96.734 94.7963 99.1977C96.2679 101.232 95.7141 103.061 93.1929 104.494C91.7909 105.291 88.9084 106.099 87.4652 106.099C85.8329 106.099 83.9939 105.313 82.6548 104.042C81.7084 103.145 77.8882 97.4402 69.0694 83.7566C62.3216 73.2863 56.6747 64.6007 56.5206 64.4553C56.1644 64.119 56.1705 64.1303 68.3813 85.9787C76.0487 99.6979 78.6371 104.548 78.6371 105.197C78.6371 106.516 78.2771 107.21 76.6495 109.025C73.9363 112.052 72.7235 115.453 71.8479 122.491C70.8664 130.382 68.1064 135.955 60.4577 145.494C55.9803 151.078 55.2477 152.102 54.118 154.352C52.695 157.187 52.3037 158.774 52.1451 162.353C51.9775 166.137 52.3039 168.581 53.46 172.199C54.4721 175.366 55.5285 177.458 58.2292 181.641C60.5599 185.251 61.9019 187.933 61.9019 188.983C61.9019 189.818 62.0613 189.819 65.6729 189.003C74.316 187.052 81.3341 183.619 85.2812 179.412C87.724 176.808 88.2975 175.371 88.3161 171.802C88.3283 169.469 88.2462 168.98 87.6153 167.637C86.5884 165.452 84.7188 163.635 80.5983 160.818C75.1992 157.127 72.8932 154.156 72.2562 150.07C71.7337 146.717 72.3399 144.351 75.3267 138.091C78.4182 131.612 79.1843 128.85 79.7025 122.319C80.0372 118.1 80.5008 116.435 81.7131 115.1C82.9776 113.707 84.1158 113.235 87.245 112.808C92.3466 112.111 95.5951 110.791 98.2652 108.33C100.582 106.196 101.551 104.139 101.7 101.043L101.813 98.6959L100.518 97.1867C95.8304 91.7209 30.6848 20.168 30.3963 20.168C30.3347 20.168 31.8773 22.1015 33.8241 24.4645ZM64.5333 166.634C65.5932 164.757 65.0301 162.344 63.2572 161.166C61.5821 160.052 58.9799 160.576 58.9799 162.028C58.9799 162.471 59.2248 162.793 59.7768 163.077C60.7063 163.555 60.7738 164.093 60.0425 165.192C59.3019 166.306 59.3616 167.284 60.2111 167.949C61.5802 169.021 63.5183 168.432 64.5333 166.634Z" fill="black"/>
<path fill-rule="evenodd" clip-rule="evenodd" d="M105.032 114.039C102.637 114.774 100.309 117.312 99.5884 119.974C99.1487 121.598 99.3982 124.446 100.057 125.325C101.121 126.746 102.149 127.12 104.935 127.101C110.389 127.063 115.131 124.724 115.682 121.799C116.134 119.402 114.051 116.08 111.183 114.622C109.703 113.87 106.555 113.571 105.032 114.039ZM111.408 119.024C112.249 117.829 111.881 116.537 110.451 115.664C107.726 114 103.607 115.377 103.607 117.95C103.607 119.231 105.755 120.629 107.724 120.629C109.035 120.629 110.829 119.847 111.408 119.024Z" fill="black"/>
</svg>
