<svg width="257" height="256" viewBox="0 0 257 256" fill="none" xmlns="http://www.w3.org/2000/svg">
<path d="M91.9024 48.6661C89.595 48.3082 89.4977 48.2662 90.5836 48.0993C92.6645 47.7793 97.578 48.2154 100.964 49.0205C108.869 50.8995 116.062 55.7129 123.739 64.2614L125.779 66.5325L128.697 66.0634C140.99 64.0879 153.496 65.6579 163.956 70.4899C166.833 71.8193 171.37 74.4655 171.937 75.1455C172.118 75.3622 172.449 76.7572 172.674 78.2459C173.451 83.3959 173.062 87.3434 171.487 90.2918C170.63 91.8963 170.582 92.4048 171.158 93.7779C171.618 94.8736 172.901 95.6846 174.171 95.6828C176.77 95.6793 179.568 91.4774 180.864 85.6308L181.379 83.3084L182.399 84.4639C187.994 90.8032 192.389 99.4486 193.144 105.602L193.341 107.207L192.4 105.748C190.782 103.238 189.155 101.53 187.073 100.152C183.319 97.6677 179.349 96.8223 168.836 96.2683C159.342 95.768 153.968 94.957 148.64 93.2195C139.575 90.2638 135.005 86.3274 124.236 72.1988C119.453 65.9234 116.496 62.4513 113.556 59.6552C106.873 53.3018 100.307 49.9698 91.9024 48.6661Z" fill="black"/>
<path d="M174.079 62.6777C174.317 58.4725 174.888 55.6989 176.034 53.1659C176.488 52.1632 176.913 51.3426 176.979 51.3426C177.045 51.3426 176.847 52.0827 176.54 52.9871C175.707 55.4454 175.57 58.8077 176.144 62.7197C176.873 67.6833 177.288 68.3995 182.534 73.7613C184.994 76.2762 187.857 79.4481 188.894 80.8098L190.781 83.2859L188.894 81.5163C186.587 79.3524 181.281 75.1321 180.109 74.5288C179.323 74.1242 179.206 74.1312 178.722 74.6137C178.275 75.0583 178.181 75.7263 178.119 78.8845C178.022 83.8066 177.351 86.966 175.732 90.125C174.856 91.8336 174.718 91.4689 175.511 89.5404C176.103 88.1005 176.163 87.4674 176.158 82.7025C176.149 73.1285 175.013 70.8269 168.347 66.884C166.658 65.8851 163.876 64.4446 162.164 63.6827C160.452 62.9207 159.092 62.257 159.142 62.2074C159.331 62.0196 165.831 63.9169 168.448 64.9233C172.339 66.4204 172.982 66.6144 173.455 66.4339C173.771 66.3128 173.925 65.3901 174.079 62.6777Z" fill="black"/>
<path d="M96.3845 79.056C91.7002 72.6069 88.8019 62.7191 89.4294 55.3275L89.6234 53.0401L90.6897 53.2347C92.692 53.6 96.1445 54.885 97.7611 55.8669C102.198 58.5612 104.118 62.1085 106.072 71.2175C106.644 73.8856 107.395 76.9048 107.741 77.927C108.297 79.5723 110.399 83.4154 112.108 85.9114C113.339 87.709 112.521 88.5608 109.8 88.3152C105.645 87.94 100.016 84.0552 96.3845 79.056Z" fill="black"/>
<path d="M168.397 127.053C146.506 118.239 138.796 110.588 138.796 97.6794C138.796 95.7797 138.861 94.2254 138.941 94.2254C139.02 94.2254 139.867 94.8523 140.823 95.6187C145.262 99.1791 150.233 100.7 163.994 102.707C172.092 103.889 176.649 104.843 180.853 106.237C194.214 110.668 202.481 119.661 204.452 131.909C205.025 135.468 204.689 142.143 203.76 145.66C203.027 148.439 200.79 153.446 200.196 153.638C200.032 153.692 199.87 153.061 199.828 152.203C199.603 147.604 197.279 143.126 193.376 139.772C188.938 135.959 182.975 132.923 168.397 127.053Z" fill="black"/>
<path d="M153.029 130.715C152.754 129.082 152.279 126.998 151.971 126.083L151.413 124.418L152.45 125.583C153.886 127.194 155.021 129.257 155.982 132.003C156.716 134.099 156.799 134.723 156.793 138.129C156.788 141.473 156.696 142.174 156.018 144.061C154.95 147.037 153.623 149.146 151.398 151.411C147.399 155.481 142.258 157.734 134.839 158.669C133.549 158.831 129.791 159.104 126.486 159.276C118.159 159.709 112.678 160.604 107.753 162.333C107.045 162.582 106.412 162.733 106.348 162.669C106.149 162.471 109.502 160.472 112.272 159.138C116.177 157.257 120.064 156.23 128.775 154.78C133.077 154.063 137.521 153.194 138.649 152.848C149.304 149.581 154.781 141.15 153.029 130.715Z" fill="black"/>
<path d="M163.064 148.537C160.155 142.284 159.487 136.247 161.081 130.617C161.251 130.016 161.525 129.523 161.69 129.523C161.855 129.523 162.541 129.895 163.215 130.348C164.555 131.25 167.244 132.77 174.405 136.674C183.342 141.547 188.437 145.319 191.902 149.63C194.936 153.405 196.814 157.704 197.718 162.947C198.23 165.917 197.93 173.062 197.168 176.053C194.765 185.482 189.181 192.888 181.216 197.21C180.049 197.843 179.001 198.363 178.888 198.365C178.775 198.368 179.2 197.286 179.833 195.963C182.512 190.362 182.817 184.913 180.792 178.849C179.551 175.136 177.022 170.605 171.916 162.948C165.98 154.045 164.524 151.676 163.064 148.537Z" fill="black"/>
<path d="M80.8383 182.272C88.962 175.413 99.0698 170.54 108.277 169.044C112.245 168.399 118.855 168.655 122.53 169.596C128.419 171.103 133.688 174.479 136.428 178.501C139.106 182.433 140.255 185.858 141.451 193.48C141.923 196.487 142.436 199.506 142.591 200.19C143.49 204.14 145.238 207.298 147.404 208.883C150.844 211.402 156.769 211.558 162.596 209.285C163.586 208.899 164.444 208.632 164.505 208.692C164.716 208.902 161.781 210.867 159.711 211.901C156.925 213.292 154.71 213.83 151.767 213.83C146.429 213.83 141.998 211.115 138.3 205.579C137.572 204.489 135.937 201.225 134.665 198.326C130.761 189.421 128.833 186.709 124.3 183.74C120.355 181.157 115.268 180.694 111.44 182.571C106.413 185.036 105.01 191.46 108.611 195.532C110.042 197.15 112.711 198.546 114.893 198.817C118.976 199.325 122.484 196.219 122.484 192.097C122.484 189.421 121.456 187.894 118.866 186.725C115.329 185.129 111.527 186.995 111.545 190.317C111.553 191.734 112.17 192.624 113.591 193.267C114.502 193.679 114.523 193.711 113.78 193.557C110.535 192.884 109.774 188.972 112.384 186.374C115.516 183.256 121.994 184.632 124.219 188.888C125.154 190.676 125.262 194.236 124.447 196.386C122.624 201.198 117.307 203.728 111.913 202.352C108.24 201.414 106.745 200.399 102.317 195.838C94.6237 187.913 91.6369 186.377 80.5452 184.646L78.4198 184.314L80.8383 182.272Z" fill="black"/>
<path fill-rule="evenodd" clip-rule="evenodd" d="M22.823 4.74044C48.5163 35.9247 88.1281 84.4767 90.0947 87.195C91.7184 89.4394 91.1073 91.4573 88.3257 93.0387C86.7788 93.9179 83.5985 94.8088 82.0062 94.8088C80.2052 94.8088 78.1762 93.9415 76.6988 92.5401C75.6545 91.5497 71.4398 85.2559 61.7097 70.1585C54.2648 58.6064 48.0345 49.0235 47.8645 48.863C47.4715 48.4919 47.4782 48.5045 60.9506 72.6101C69.4101 87.7469 72.2659 93.0982 72.2659 93.8138C72.2659 95.2695 71.8688 96.0346 70.0731 98.0376C67.0795 101.377 65.7413 105.13 64.7753 112.895C63.6924 121.601 60.6473 127.75 52.2083 138.275C47.2684 144.436 46.46 145.565 45.2136 148.048C43.6435 151.175 43.2118 152.927 43.0368 156.875C42.8519 161.05 43.2121 163.747 44.4876 167.739C45.6042 171.233 46.7698 173.541 49.7496 178.156C52.3211 182.139 53.8018 185.099 53.8018 186.256C53.8018 187.178 53.9776 187.179 57.9624 186.279C67.4984 184.126 75.2416 180.338 79.5965 175.697C82.2917 172.824 82.9245 171.238 82.945 167.301C82.9585 164.726 82.8679 164.187 82.1718 162.706C81.0387 160.295 78.9761 158.29 74.4298 155.182C68.4729 151.11 65.9286 147.831 65.2258 143.323C64.6493 139.624 65.3181 137.014 68.6135 130.107C72.0244 122.958 72.8697 119.911 73.4415 112.705C73.8108 108.05 74.3222 106.214 75.6598 104.74C77.0549 103.203 78.3108 102.683 81.7633 102.211C87.3919 101.442 90.976 99.9857 93.9221 97.2709C96.4777 94.9159 97.5472 92.6466 97.7113 89.2306L97.8359 86.6413L96.4077 84.9761C91.2357 78.9457 19.3593 0 19.041 0C18.973 0 20.675 2.13334 22.823 4.74044ZM56.705 161.599C57.8744 159.528 57.2531 156.866 55.2971 155.565C53.4489 154.336 50.5779 154.915 50.5779 156.517C50.5779 157.005 50.8481 157.361 51.4571 157.674C52.4826 158.202 52.557 158.795 51.7502 160.008C50.9331 161.236 50.999 162.316 51.9363 163.05C53.4468 164.233 55.5852 163.582 56.705 161.599Z" fill="black"/>
<path fill-rule="evenodd" clip-rule="evenodd" d="M101.388 103.569C98.7456 104.381 96.177 107.181 95.3819 110.118C94.8968 111.909 95.1721 115.052 95.8986 116.022C97.0724 117.59 98.2075 118.003 101.281 117.981C107.299 117.939 112.53 115.358 113.138 112.132C113.637 109.487 111.339 105.822 108.174 104.213C106.541 103.383 103.068 103.053 101.388 103.569ZM108.423 109.07C109.35 107.751 108.945 106.326 107.366 105.362C104.361 103.527 99.8157 105.046 99.8157 107.885C99.8157 109.299 102.186 110.841 104.358 110.841C105.804 110.841 107.783 109.978 108.423 109.07Z" fill="black"/>
</svg>
