<svg width="641" height="92" viewBox="0 0 641 92" fill="none" xmlns="http://www.w3.org/2000/svg">
<path fill-rule="evenodd" clip-rule="evenodd" d="M298.839 0.67502C283.958 4.4245 276.983 16.0929 281.213 30.1605C283.024 36.1883 288.599 42.2694 296.481 46.8171C310.687 55.0127 314.87 58.3317 317.299 63.3322C319.327 67.5039 319.502 68.8984 318.48 72.6795C316.082 81.5559 309.818 86.4512 300.858 86.4512C291.712 86.4512 285.29 81.3212 283.857 72.8704C283.281 69.4721 282.572 68.3869 280.93 68.3869C278.969 68.3869 278.764 69.2858 278.764 77.8935V87.3984L284.713 89.4192C294.001 92.5737 307.213 92.1967 315.097 88.5522C330.455 81.4518 336.341 67.3582 329.448 54.1893C326.87 49.2634 320.401 43.7653 309.316 37.0792C297.666 30.0511 292.475 24.9389 291.713 19.7432C290.544 11.7587 297.725 5.15053 307.541 5.17875C315.228 5.2002 318.528 7.02023 321.253 12.7421C322.959 16.3245 324.18 17.5086 326.201 17.5403C328.435 17.5741 328.768 17.1576 328.198 15.0407C327.823 13.6441 327.508 10.1419 327.5 7.25841C327.489 3.597 326.96 1.81533 325.744 1.3513C322.433 0.0845388 303.107 -0.400937 298.839 0.67502ZM0.0390625 4.03276C0.0390625 5.65742 0.794794 6.2908 2.73341 6.2908C8.20367 6.2908 8.49712 7.86924 9.1033 40.6131C9.63242 69.2191 9.82843 71.5032 12.1149 75.7258C15.3905 81.7739 19.8331 85.7986 26.6652 88.909C31.3458 91.0395 34.3007 91.4912 43.6607 91.5104C53.8149 91.5296 55.6651 91.2021 61.4832 88.3547C65.0534 86.6081 69.5005 83.3339 71.3655 81.0792C77.8317 73.263 78.516 69.4856 79.2491 37.5784C79.955 6.85321 80.0513 6.35396 85.2995 6.30767C86.5209 6.29751 87.2823 5.42371 87.2823 4.03276C87.2823 1.90004 86.5265 1.77472 73.6859 1.77472C60.9937 1.77472 60.0896 1.9203 60.0896 3.96157C60.0896 5.59865 61.0073 6.23657 63.7459 6.50189C69.7634 7.08334 70.2517 9.3958 70.2698 37.4158C70.2891 65.8231 69.3192 71.2885 63.236 77.0409C57.5799 82.3913 53.0784 84.1934 45.3715 84.1934C34.3019 84.1934 26.4568 79.0405 23.8848 70.0806C23.0191 67.0672 22.7008 55.9857 22.9274 36.7743L23.2662 7.98428L27.2317 6.70969C29.4128 6.00857 31.3616 4.6119 31.5633 3.60481C31.8874 1.98693 30.0824 1.77472 15.9842 1.77472C0.794791 1.77472 0.0390625 1.88198 0.0390625 4.03276ZM105.411 4.03276C105.411 5.78048 106.166 6.2908 108.757 6.2908C114.526 6.2908 117.775 8.50829 119.08 13.3349C119.822 16.0795 120.141 29.1873 119.924 47.9211C119.535 81.3706 119.076 83.5588 112.158 84.9373C109.877 85.3923 108.81 86.2797 108.81 87.7214C108.81 89.6905 109.918 89.8381 124.672 89.8381C139.167 89.8381 140.535 89.6645 140.535 87.814C140.535 86.3734 139.083 85.4035 135.495 84.4472C131.039 83.2595 130.318 82.6114 129.269 78.8506C127.924 74.024 127.606 23.1743 128.921 23.321C129.388 23.373 133.783 28.0729 138.688 33.7643C143.592 39.4557 157.009 54.4004 168.503 66.9755C186.495 86.6566 189.86 89.8381 192.687 89.8381H195.97L196.296 49.8136C196.526 21.395 197 9.41034 197.93 8.48341C198.652 7.76535 200.947 6.83053 203.029 6.40602C205.24 5.95554 206.817 4.94726 206.817 3.98647C206.817 2.63842 203.992 2.28273 191.238 2.02532C176.237 1.72274 175.658 1.7961 175.658 4.00108C175.658 5.67654 176.401 6.2908 178.428 6.2908C179.952 6.2908 182.628 7.51581 184.376 9.01402L187.555 11.7373L187.912 38.933C188.115 54.2877 187.832 66.129 187.264 66.129C186.711 66.129 183.252 62.6999 179.577 58.5079C175.902 54.3158 165.437 42.7582 156.322 32.8228C147.207 22.8874 137.249 11.8783 134.194 8.35914L128.638 1.95989L117.024 1.86731C106.135 1.78037 105.411 1.91585 105.411 4.03276ZM224.379 4.03276C224.379 5.75452 225.134 6.2908 227.561 6.2908C229.312 6.2908 231.733 7.01106 232.943 7.89169C235.019 9.40345 235.163 11.3523 235.497 42.6092C235.915 81.6395 235.572 83.8273 228.868 84.8953C225.491 85.4339 224.379 86.1351 224.379 87.7247C224.379 89.696 225.521 89.8381 241.374 89.8381C257.614 89.8381 258.37 89.7379 258.37 87.5803C258.37 85.9737 257.614 85.3221 255.753 85.3221C254.314 85.3221 252.148 84.602 250.938 83.7214C248.854 82.204 248.722 80.2519 248.41 46.5089C248.091 11.9428 248.149 10.8307 250.393 8.5941C251.664 7.32734 253.979 6.2908 255.537 6.2908C257.614 6.2908 258.37 5.68903 258.37 4.03276C258.37 1.8752 257.614 1.77472 241.374 1.77472C225.134 1.77472 224.379 1.8752 224.379 4.03276ZM343.018 4.03276C343.385 5.43162 344.564 6.2908 346.114 6.2908C347.49 6.2908 349.731 7.4729 351.094 8.91918C352.479 10.3869 360.225 28.9469 368.648 50.9752L383.726 90.4027L387.679 90.7405L391.632 91.078L402.223 63.0795C408.049 47.6808 413.427 33.8625 414.175 32.3722C415.456 29.8206 415.742 30.2092 419.146 39.1466C421.133 44.3626 426.422 58.1558 430.898 69.7983L439.037 90.9673H442.623C444.596 90.9673 446.469 90.2923 446.788 89.467C447.105 88.6428 452.311 75.3055 458.356 59.83C464.402 44.3556 471.098 27.2115 473.237 21.7335C478.109 9.25898 479.085 7.71898 482.969 6.3698C484.695 5.77029 486.108 4.49122 486.108 3.52704C486.108 2.04125 484.045 1.77472 472.512 1.77472C459.671 1.77472 458.916 1.90004 458.916 4.03276C458.916 5.66871 459.671 6.2908 461.655 6.2908C466.059 6.2908 467.98 7.48304 467.98 10.2187C467.98 12.5015 446.399 71.075 445.069 72.3993C444.252 73.2133 424.765 18.8027 424.06 13.7402C423.376 8.82216 425.477 6.2908 430.24 6.2908C432.1 6.2908 432.856 5.63936 432.856 4.03276C432.856 1.87181 432.1 1.77472 415.294 1.77472C398.488 1.77472 397.732 1.87181 397.732 4.03276C397.732 5.31984 398.488 6.2908 399.488 6.2908C403.026 6.2908 407.714 9.69589 408.92 13.1417C410.65 18.0856 409.326 23.0983 399.139 50.2061L390.485 73.235L388.621 68.835C387.596 66.4155 382.261 52.138 376.767 37.1085C365.971 7.58231 365.811 6.2908 372.944 6.2908C375.449 6.2908 376.205 5.76806 376.205 4.03276C376.205 1.8752 375.449 1.77472 359.316 1.77472C342.984 1.77472 342.446 1.84923 343.018 4.03276ZM572.476 4.79889C572.476 4.79889 572.475 6.3402 572.665 6.76907C572.855 7.19795 574.073 7.35903 574.073 7.35903C574.83 7.562 575.549 7.74017 576.228 7.90841C579.653 8.75639 582.058 9.35206 583.019 11.6001C583.669 13.1188 583.709 18.3992 583.717 46.7076C583.725 76.5578 583.72 80.2157 582.921 82.1879C581.93 84.6344 580.035 85.9332 575.661 87.1612C575.661 87.1612 573.726 87.6996 573.205 88.181C572.684 88.6624 572.586 89.7374 572.586 89.7374C572.586 89.7374 572.545 90.7356 572.991 91.2148C573.437 91.6939 574.627 91.4653 574.627 91.4653L585.966 91.4955L604.772 91.6473C604.772 91.6473 605.54 91.749 605.939 91.2404C606.337 90.7317 606.236 89.7347 606.236 89.7347C606.236 89.7347 606.236 88.6686 605.74 88.1883C605.245 87.708 603.323 87.2577 603.323 87.2577C599.077 86.2125 596.897 84.8503 595.933 82.6386C595.217 80.9949 595.141 76.5569 595.033 67.3147V53.764C595.508 54.0317 595.942 54.3354 596.4 54.6561C598.568 56.1729 601.282 58.0723 611.422 58.3658C623.707 58.7213 631.097 53.255 635.492 46.9061C639.887 40.5572 641.592 30.5827 638.368 19.9571C635.143 9.33143 625.682 2.90126 612.38 2.23655C605.446 1.89008 595.358 2.23219 589.721 2.48798L589.718 2.48809L589.718 2.48812C589.143 2.51419 588.615 2.53815 588.141 2.55883C583.019 2.78232 576.881 3.27207 573.822 3.56298L573.814 3.5638C572.981 3.643 572.899 3.65082 572.666 3.94641C572.433 4.24301 572.476 4.79889 572.476 4.79889ZM622.399 46.4222C627.341 41.7767 627.423 34.5101 627.423 29.8678C626.937 22.5888 624.004 8.59026 607.391 8.59026C603.506 8.39069 595.559 9.06104 595.339 14.4493C595.098 15.4011 594.991 22.0592 595.053 32.2776L595.151 48.5866L596.842 49.4773L596.933 49.5255C597.85 50.0099 599.041 50.6387 601.123 51.0463C607.728 52.3397 617.457 51.0677 622.399 46.4222ZM518.451 3.18455C519.681 2.71825 520.492 2.40679 520.492 2.40679C520.492 2.40679 522.331 1.65099 522.925 2.40679C523.108 2.63958 523.775 4.35998 525.427 8.62391C525.751 9.46141 526.114 10.397 526.518 11.4388C528.982 17.7844 532.52 26.8928 534.382 31.6798C536.244 36.4668 539.927 45.9396 542.567 52.7305C545.206 59.5214 548.594 68.2332 550.095 72.0899C551.596 75.9466 553.514 79.9572 554.051 80.6887C554.314 81.0476 554.584 81.4944 554.879 81.9838C556.038 83.9044 557.594 86.4823 560.717 86.9862C560.717 86.9862 563.163 87.3908 563.525 87.7742C563.887 88.1576 563.969 88.8539 563.969 88.8539V90.1622C563.969 90.1622 563.928 90.4969 563.726 90.7811C563.525 91.0652 562.786 90.9863 562.786 90.9863L543.93 90.9876L530.516 91.0841C530.516 91.0841 530.048 91.1412 529.771 90.9127C529.495 90.6842 529.351 90.1069 529.351 90.1069V89.1213C529.351 89.1213 529.235 88.3802 529.771 87.7356C530.307 87.0911 532.462 87.0163 532.462 87.0163C536.522 86.664 538.134 83.2045 538.964 81.4235C539.026 81.2906 539.083 81.1671 539.137 81.0549C540.021 79.2142 539.702 78.0147 535.707 68.1739C533.071 61.6789 532.172 59.8548 531.531 59.6928C531.082 59.5791 524.064 59.537 515.936 59.5994L501.159 59.7119L500.275 62.1408C497.72 69.1665 495.45 76.1461 495.108 78.0329C494.412 81.8723 495.383 86.1427 501.029 86.8851C501.029 86.8851 503.123 87.1731 503.681 87.5945C504.24 88.0159 504.435 89.0956 504.435 89.0956V90.0906C504.435 90.0906 504.329 90.5641 503.945 90.8829C503.56 91.2017 502.563 91.0856 502.563 91.0856H488.459L474.814 91.2408C474.814 91.2408 474.231 91.2272 473.801 90.9989C473.37 90.7706 473.301 90.3126 473.301 90.3126V89.3671C473.301 89.3671 473.227 88.7532 473.987 88.0027C474.747 87.2521 476.798 87.051 476.798 87.051C480.528 86.4505 482.641 82.4804 483.857 80.1958C483.946 80.0271 484.031 79.8676 484.112 79.7194C484.594 78.8296 486.767 73.6382 488.941 68.1832C491.116 62.7282 493.557 56.6255 494.365 54.6216C497.113 47.8081 499.725 41.2803 503.678 31.3443C505.849 25.8894 509.063 17.8374 510.82 13.4512L514.014 5.47593L518.451 3.18455ZM517.287 22.5703C517.971 24.2952 519.019 26.891 519.615 28.3382C520.211 29.7854 521.878 33.8842 523.32 37.4467C524.761 41.0091 526.533 45.3443 527.257 47.0806C527.98 48.8173 528.572 50.32 528.572 50.4204C528.572 50.5212 523.142 50.6034 516.504 50.6034C508.884 50.6034 504.435 50.4572 504.435 50.2066C504.435 49.9884 504.691 49.1234 505.003 48.2838C505.499 46.9487 507.975 39.8615 513.444 24.1224C514.289 21.6922 515.072 19.5487 515.185 19.3592C515.57 18.7111 516.043 19.4333 517.287 22.5703Z" fill="black"/>
</svg>
