<svg width="601" height="601" viewBox="0 0 601 601" fill="none" xmlns="http://www.w3.org/2000/svg">
<rect x="0.0390625" y="0.988281" width="600" height="600" fill="white"/>
<path d="M226.336 151.767C221.809 151.064 221.618 150.982 223.749 150.654C227.832 150.026 237.473 150.882 244.116 152.462C259.626 156.149 273.74 165.593 288.805 182.367L292.807 186.823L298.532 185.902C322.653 182.026 347.191 185.107 367.714 194.588C373.36 197.196 382.263 202.388 383.375 203.722C383.729 204.148 384.38 206.885 384.82 209.806C386.345 219.911 385.582 227.656 382.491 233.442C380.809 236.59 380.715 237.587 381.846 240.282C382.749 242.432 385.265 244.023 387.757 244.019C392.857 244.013 398.347 235.768 400.891 224.296L401.901 219.739L403.903 222.006C414.881 234.445 423.504 251.408 424.986 263.483L425.372 266.631L423.526 263.769C420.35 258.844 417.159 255.492 413.073 252.788C405.707 247.914 397.918 246.255 377.291 245.168C358.662 244.187 348.118 242.595 337.663 239.186C319.875 233.387 310.908 225.663 289.779 197.941C280.394 185.627 274.593 178.815 268.823 173.329C255.711 160.862 242.828 154.325 226.336 151.767Z" fill="#FF007A"/>
<path d="M387.577 179.259C388.045 171.008 389.164 165.566 391.414 160.596C392.304 158.628 393.139 157.018 393.267 157.018C393.396 157.018 393.009 158.47 392.407 160.245C390.772 165.068 390.503 171.666 391.63 179.341C393.06 189.081 393.873 190.486 404.167 201.006C408.995 205.941 414.611 212.165 416.647 214.837L420.348 219.695L416.647 216.223C412.12 211.977 401.709 203.696 399.409 202.512C397.867 201.719 397.638 201.732 396.687 202.679C395.81 203.551 395.626 204.862 395.504 211.059C395.315 220.717 393.998 226.916 390.821 233.114C389.103 236.467 388.832 235.751 390.387 231.967C391.548 229.142 391.666 227.9 391.657 218.55C391.639 199.765 389.409 195.249 376.33 187.512C373.017 185.552 367.558 182.726 364.199 181.231C360.84 179.736 358.172 178.434 358.269 178.336C358.639 177.968 371.394 181.691 376.528 183.665C384.164 186.603 385.425 186.983 386.352 186.629C386.974 186.392 387.275 184.581 387.577 179.259Z" fill="#FF007A"/>
<path d="M235.131 211.395C225.94 198.742 220.253 179.34 221.484 164.837L221.865 160.349L223.957 160.731C227.886 161.447 234.66 163.969 237.832 165.895C246.537 171.182 250.305 178.142 254.139 196.015C255.262 201.25 256.736 207.175 257.414 209.18C258.505 212.409 262.629 219.949 265.983 224.847C268.398 228.374 266.793 230.045 261.455 229.563C253.301 228.827 242.256 221.204 235.131 211.395Z" fill="#FF007A"/>
<path d="M376.428 305.572C333.475 288.277 318.347 273.266 318.347 247.937C318.347 244.209 318.475 241.16 318.632 241.16C318.788 241.16 320.45 242.39 322.325 243.893C331.035 250.88 340.788 253.863 367.79 257.803C383.679 260.121 392.621 261.993 400.869 264.729C427.085 273.423 443.306 291.068 447.174 315.101C448.298 322.084 447.639 335.18 445.816 342.081C444.377 347.533 439.987 357.359 438.823 357.736C438.5 357.841 438.183 356.603 438.101 354.92C437.659 345.895 433.099 337.11 425.44 330.528C416.732 323.046 405.033 317.089 376.428 305.572Z" fill="#FF007A"/>
<path d="M346.274 312.756C345.735 309.554 344.802 305.464 344.2 303.668L343.103 300.402L345.139 302.687C347.956 305.849 350.183 309.895 352.069 315.284C353.509 319.398 353.671 320.621 353.66 327.305C353.649 333.867 353.469 335.242 352.14 338.944C350.043 344.782 347.441 348.922 343.075 353.365C335.228 361.35 325.141 365.772 310.584 367.606C308.053 367.924 300.678 368.461 294.194 368.798C277.854 369.648 267.1 371.403 257.437 374.796C256.047 375.285 254.807 375.581 254.681 375.455C254.29 375.066 260.869 371.144 266.304 368.527C273.966 364.835 281.594 362.821 298.684 359.975C307.127 358.569 315.845 356.863 318.059 356.184C338.966 349.774 349.713 333.232 346.274 312.756Z" fill="#FF007A"/>
<path d="M365.964 347.725C360.257 335.457 358.947 323.612 362.073 312.566C362.408 311.385 362.945 310.419 363.269 310.419C363.592 310.419 364.939 311.147 366.261 312.037C368.891 313.807 374.166 316.789 388.217 324.45C405.752 334.01 415.75 341.413 422.548 349.871C428.502 357.278 432.187 365.713 433.96 376C434.964 381.827 434.376 395.848 432.881 401.716C428.166 420.216 417.209 434.749 401.581 443.229C399.291 444.471 397.236 445.491 397.013 445.495C396.791 445.5 397.625 443.379 398.867 440.781C404.125 429.791 404.723 419.101 400.749 407.202C398.315 399.917 393.353 391.027 383.334 376.003C371.685 358.534 368.83 353.885 365.964 347.725Z" fill="#FF007A"/>
<path d="M204.627 413.918C220.567 400.46 240.4 390.898 258.465 387.964C266.251 386.699 279.221 387.201 286.431 389.046C297.987 392.004 308.325 398.628 313.702 406.52C318.956 414.234 321.21 420.955 323.557 435.911C324.483 441.81 325.49 447.735 325.795 449.076C327.557 456.827 330.987 463.022 335.237 466.134C341.988 471.074 353.612 471.382 365.047 466.921C366.988 466.164 368.673 465.641 368.792 465.759C369.206 466.171 363.448 470.025 359.386 472.054C353.92 474.785 349.573 475.84 343.798 475.84C333.325 475.84 324.63 470.512 317.375 459.649C315.947 457.511 312.738 451.107 310.243 445.419C302.583 427.946 298.8 422.624 289.905 416.799C282.165 411.73 272.182 410.822 264.673 414.504C254.808 419.341 252.056 431.947 259.121 439.936C261.929 443.111 267.166 445.85 271.447 446.383C279.458 447.379 286.342 441.285 286.342 433.197C286.342 427.946 284.324 424.949 279.242 422.656C272.303 419.524 264.843 423.185 264.879 429.704C264.894 432.484 266.105 434.23 268.891 435.491C270.679 436.3 270.721 436.364 269.263 436.061C262.895 434.741 261.403 427.064 266.523 421.968C272.67 415.85 285.381 418.55 289.745 426.901C291.579 430.408 291.792 437.394 290.193 441.612C286.615 451.054 276.183 456.019 265.599 453.317C258.394 451.477 255.46 449.486 246.772 440.537C231.676 424.987 225.815 421.974 204.052 418.576L199.882 417.925L204.627 413.918Z" fill="#FF007A"/>
<path fill-rule="evenodd" clip-rule="evenodd" d="M90.7937 65.5787C141.207 126.766 218.931 222.032 222.79 227.365C225.975 231.769 224.776 235.728 219.318 238.831C216.283 240.556 210.043 242.305 206.919 242.305C203.385 242.305 199.404 240.603 196.505 237.853C194.456 235.91 186.186 223.56 167.094 193.937C152.487 171.271 140.262 152.468 139.928 152.153C139.157 151.425 139.17 151.449 165.605 198.748C182.204 228.448 187.807 238.948 187.807 240.352C187.807 243.208 187.028 244.71 183.504 248.64C177.631 255.192 175.005 262.555 173.11 277.793C170.985 294.874 165.01 306.94 148.451 327.591C138.759 339.679 137.173 341.895 134.727 346.767C131.646 352.903 130.799 356.339 130.456 364.087C130.093 372.279 130.8 377.57 133.302 385.402C135.493 392.259 137.78 396.787 143.627 405.842C148.673 413.657 151.578 419.465 151.578 421.737C151.578 423.544 151.923 423.546 159.742 421.781C178.453 417.556 193.646 410.124 202.191 401.018C207.479 395.381 208.721 392.268 208.761 384.544C208.787 379.491 208.61 378.433 207.244 375.527C205.021 370.796 200.973 366.863 192.053 360.764C180.365 352.774 175.372 346.342 173.993 337.495C172.862 330.237 174.175 325.116 180.641 311.564C187.333 297.536 188.992 291.559 190.114 277.42C190.838 268.285 191.842 264.682 194.466 261.79C197.204 258.775 199.668 257.754 206.442 256.828C217.486 255.32 224.519 252.462 230.299 247.135C235.314 242.515 237.412 238.062 237.734 231.359L237.979 226.279L235.176 223.012C225.028 211.179 83.9975 56.2773 83.373 56.2773C83.2396 56.2773 86.579 60.4632 90.7937 65.5787ZM157.275 373.356C159.569 369.292 158.35 364.068 154.512 361.516C150.886 359.105 145.252 360.241 145.252 363.383C145.252 364.342 145.783 365.04 146.978 365.655C148.99 366.69 149.136 367.855 147.553 370.234C145.949 372.644 146.079 374.763 147.918 376.202C150.882 378.523 155.077 377.247 157.275 373.356Z" fill="#FF007A"/>
<path fill-rule="evenodd" clip-rule="evenodd" d="M244.948 259.493C239.764 261.086 234.724 266.581 233.164 272.342C232.212 275.858 232.752 282.023 234.178 283.928C236.481 287.003 238.708 287.814 244.739 287.771C256.546 287.689 266.81 282.625 268.003 276.294C268.982 271.105 264.474 263.913 258.264 260.756C255.06 259.128 248.245 258.481 244.948 259.493ZM258.751 270.286C260.572 267.699 259.775 264.903 256.679 263.012C250.781 259.411 241.863 262.391 241.863 267.962C241.863 270.735 246.514 273.761 250.777 273.761C253.614 273.761 257.497 272.069 258.751 270.286Z" fill="#FF007A"/>
</svg>
