<svg width="961" height="240" viewBox="0 0 961 240" fill="none" xmlns="http://www.w3.org/2000/svg">
<path fill-rule="evenodd" clip-rule="evenodd" d="M3.75893 4.70717C27.7387 34.1049 54.0679 71.0374 58.3265 77.011C58.5536 77.3295 58.7179 77.56 58.8158 77.6966C61.0859 80.866 62.96 83.222 64.3832 85.0112L64.3834 85.0114L64.3834 85.0114C67.5429 88.9832 68.4803 90.1618 66.5951 91.2444C65.0744 92.1174 63.5057 92.4053 61.9404 92.4053C60.1699 92.4053 58.1752 91.5441 56.7228 90.1525C55.6962 89.1691 48.6716 78.864 39.1062 63.8726C31.7874 52.4016 25.6624 42.8859 25.4953 42.7266C25.109 42.3581 25.1156 42.3706 38.36 66.307C46.6763 81.3375 52.365 92.4447 52.365 93.1553C52.365 94.6007 51.9745 95.3605 50.2092 97.3494C47.2664 100.666 45.9508 104.392 45.0012 112.103C43.9366 120.747 40.943 126.854 32.6468 137.304C27.7905 143.422 26.9959 144.543 25.7705 147.009C24.2271 150.114 23.8026 151.853 23.6306 155.774C23.4488 159.92 23.8029 162.598 25.0568 166.561C26.1546 170.031 27.3004 172.323 30.2297 176.906C32.7577 180.86 34.2133 183.799 34.2133 184.949C34.2133 185.864 34.3862 185.865 38.3035 184.972C47.6781 182.833 55.2902 179.073 59.5714 174.464C62.221 171.611 62.8431 170.036 62.8632 166.127C62.8765 163.57 62.7874 163.035 62.1032 161.564C60.9893 159.169 58.9615 157.179 54.4922 154.093C48.6361 150.049 46.1349 146.794 45.444 142.317C44.8773 138.644 45.5348 136.052 48.7744 129.194C52.1275 122.095 52.9585 119.07 53.5206 111.914C53.8836 107.291 54.3864 105.468 55.7014 104.005C57.0729 102.479 58.3075 101.962 61.7015 101.493C67.2349 100.73 70.7583 99.2839 73.6545 96.5882C76.1669 94.2497 77.2183 91.9963 77.3796 88.6042L77.5021 86.0331L76.0981 84.3797C71.0136 78.3916 0.353897 0 0.0409978 0C-0.0258464 0 1.64729 2.11837 3.75893 4.70717ZM37.0675 160.465C38.2171 158.408 37.6063 155.765 35.6833 154.473C33.8664 153.253 31.044 153.828 31.044 155.418C31.044 155.903 31.3096 156.256 31.9084 156.568C32.9165 157.092 32.9897 157.681 32.1965 158.885C31.3932 160.105 31.458 161.177 32.3794 161.905C33.8644 163.08 35.9665 162.434 37.0675 160.465ZM71.6691 48.3245C69.4007 47.9691 69.3051 47.9274 70.3725 47.7617C72.4182 47.4439 77.2485 47.877 80.5772 48.6765C88.3481 50.5422 95.4192 55.3218 102.967 63.8104L104.972 66.0655L107.841 65.5997C119.926 63.638 132.22 65.197 142.503 69.9951C145.332 71.3152 149.792 73.9428 150.349 74.618C150.526 74.8332 150.853 76.2185 151.073 77.6966C151.837 82.8105 151.455 86.7304 149.906 89.6581C149.064 91.2513 149.017 91.7562 149.583 93.1197C150.035 94.2077 151.296 95.0129 152.545 95.0112C155.1 95.0077 157.85 90.8353 159.125 85.0297L159.631 82.7236L160.634 83.871C166.134 90.1659 170.455 98.7506 171.197 104.861L171.39 106.454L170.466 105.006C168.874 102.514 167.276 100.817 165.228 99.4487C161.538 96.9821 157.635 96.1427 147.301 95.5926C137.967 95.0958 132.685 94.2905 127.447 92.5652C118.534 89.6303 114.042 85.7214 103.455 71.692C98.7531 65.4606 95.8468 62.0129 92.9558 59.2364C86.3866 52.9277 79.9318 49.6191 71.6691 48.3245ZM152.454 62.2377C152.689 58.0621 153.25 55.3079 154.377 52.7927C154.823 51.7971 155.241 50.9822 155.305 50.9822C155.37 50.9822 155.176 51.7171 154.874 52.6151C154.055 55.0562 153.92 58.3949 154.485 62.2794C155.201 67.2082 155.609 67.9194 160.766 73.2435C163.185 75.7408 165.999 78.8904 167.019 80.2426L168.874 82.7013L167.019 80.9442C164.751 78.7954 159.535 74.6047 158.383 74.0056C157.61 73.6039 157.495 73.6108 157.019 74.0899C156.58 74.5314 156.487 75.1947 156.426 78.3307C156.331 83.2184 155.672 86.3555 154.08 89.4924C153.219 91.189 153.083 90.8269 153.862 88.9119C154.444 87.4821 154.503 86.8535 154.499 82.122C154.49 72.6152 153.372 70.3297 146.819 66.4145C145.16 65.4227 142.424 63.9923 140.741 63.2356C139.059 62.479 137.722 61.82 137.77 61.7708C137.956 61.5842 144.347 63.4683 146.919 64.4676C150.745 65.9542 151.376 66.1469 151.841 65.9675C152.152 65.8473 152.303 64.9311 152.454 62.2377ZM69.2379 54.9392C68.6211 62.2789 71.4703 72.0973 76.0753 78.5011C79.6451 83.4652 85.1788 87.3227 89.2641 87.6953C91.939 87.9392 92.7429 87.0933 91.5327 85.3084C89.8527 82.8299 87.7863 79.0138 87.2394 77.38C86.8998 76.365 86.1616 73.3669 85.5989 70.7176C83.678 61.6726 81.7899 58.1502 77.4286 55.4748C75.8393 54.4997 72.4453 53.2237 70.4769 52.8611L69.4287 52.6678L69.2379 54.9392ZM146.869 126.161C125.348 117.409 117.768 109.812 117.768 96.9937C117.768 95.1074 117.833 93.564 117.911 93.564C117.99 93.564 118.822 94.1865 119.761 94.9475C124.125 98.4829 129.012 99.993 142.541 101.986C150.501 103.16 154.981 104.107 159.114 105.492C172.249 109.892 180.376 118.821 182.314 130.984C182.877 134.518 182.547 141.145 181.634 144.638C180.913 147.397 178.713 152.369 178.13 152.56C177.968 152.613 177.809 151.987 177.768 151.135C177.547 146.568 175.262 142.122 171.425 138.791C167.062 135.004 161.2 131.99 146.869 126.161ZM130.721 125.198C131.023 126.107 131.491 128.176 131.76 129.797C133.484 140.159 128.099 148.531 117.624 151.775C116.515 152.118 112.147 152.982 107.917 153.693C99.3544 155.133 95.5327 156.153 91.6935 158.021C88.9708 159.346 85.6744 161.33 85.8703 161.527C85.9334 161.591 86.5549 161.441 87.251 161.194C92.0926 159.477 97.4807 158.588 105.667 158.158C108.916 157.988 112.611 157.716 113.879 157.555C121.172 156.627 126.227 154.389 130.158 150.348C132.345 148.099 133.649 146.004 134.7 143.05C135.366 141.176 135.456 140.48 135.461 137.16C135.467 133.777 135.386 133.158 134.664 131.077C133.719 128.349 132.604 126.302 131.192 124.701L130.172 123.545L130.721 125.198ZM141.626 147.494C138.766 141.285 138.11 135.291 139.676 129.701C139.844 129.103 140.113 128.614 140.276 128.614C140.438 128.614 141.112 128.983 141.775 129.433C143.092 130.329 145.735 131.838 152.775 135.715C161.561 140.553 166.57 144.299 169.976 148.58C172.959 152.328 174.805 156.597 175.693 161.803C176.197 164.752 175.902 171.848 175.153 174.817C172.791 184.18 167.301 191.534 159.471 195.826C158.324 196.454 157.294 196.97 157.182 196.973C157.071 196.975 157.489 195.902 158.111 194.587C160.745 189.025 161.045 183.615 159.054 177.594C157.834 173.907 155.348 169.408 150.328 161.804C144.492 152.964 143.061 150.611 141.626 147.494ZM87.7664 167.858C78.7151 169.343 68.7784 174.181 60.7922 180.992L58.4146 183.02L60.5041 183.35C71.4081 185.069 74.3443 186.594 81.9078 194.464C86.2604 198.992 87.7304 200 91.3406 200.931C96.6432 202.298 101.87 199.786 103.663 195.008C104.464 192.873 104.357 189.338 103.438 187.563C101.252 183.336 94.8833 181.97 91.8036 185.066C89.2384 187.645 89.9858 191.53 93.1762 192.198C93.9066 192.352 93.8858 192.319 92.9901 191.91C91.5938 191.272 90.9873 190.388 90.9795 188.981C90.9617 185.682 94.6992 183.83 98.1762 185.414C100.722 186.575 101.733 188.091 101.733 190.749C101.733 194.842 98.2843 197.926 94.2707 197.422C92.1254 197.152 89.5018 195.766 88.0949 194.16C84.555 190.117 85.934 183.737 90.8764 181.289C94.639 179.426 99.6405 179.885 103.519 182.45C107.975 185.398 109.87 188.092 113.708 196.934C114.958 199.813 116.566 203.054 117.281 204.136C120.917 209.633 125.273 212.329 130.52 212.329C133.414 212.329 135.591 211.795 138.33 210.414C140.365 209.387 143.25 207.436 143.042 207.227C142.983 207.168 142.139 207.433 141.166 207.816C135.437 210.073 129.613 209.918 126.231 207.417C124.101 205.843 122.383 202.707 121.5 198.785C121.347 198.106 120.843 195.108 120.379 192.122C119.203 184.554 118.074 181.152 115.441 177.248C112.747 173.254 107.568 169.902 101.778 168.405C98.1656 167.471 91.6673 167.217 87.7664 167.858ZM75.0896 109.345C75.8713 106.429 78.3964 103.648 80.9941 102.842C82.6459 102.33 86.0602 102.657 87.6656 103.481C90.7767 105.079 93.0353 108.718 92.5452 111.345C91.9474 114.548 86.8047 117.111 80.889 117.153C77.8674 117.174 76.7515 116.764 75.5976 115.208C74.8834 114.244 74.6128 111.124 75.0896 109.345ZM86.8712 104.623C88.4227 105.58 88.8218 106.995 87.9096 108.304C87.2812 109.206 85.3358 110.063 83.9142 110.063C81.7784 110.063 79.4484 108.531 79.4484 107.128C79.4484 104.309 83.9165 102.8 86.8712 104.623ZM550.571 112.695C545.745 96.6425 553.704 83.3274 570.686 79.0487C575.556 77.8209 597.609 78.3749 601.387 79.8204C602.775 80.35 603.379 82.3831 603.392 86.5612C603.401 89.8517 603.76 93.8481 604.188 95.4418C604.838 97.8575 604.458 98.3328 601.909 98.2941C599.603 98.2581 598.209 96.9068 596.262 92.8188C593.153 86.2894 589.388 84.2125 580.615 84.1881C569.415 84.1559 561.22 91.6967 562.554 100.808C563.423 106.737 569.347 112.571 582.641 120.591C595.29 128.22 602.673 134.494 605.614 140.115C613.48 155.143 606.763 171.225 589.238 179.328C580.242 183.487 565.165 183.917 554.565 180.317L547.777 178.011V167.165C547.777 157.342 548.011 156.317 550.25 156.317C552.123 156.317 552.932 157.555 553.589 161.433C555.225 171.076 562.553 176.93 572.99 176.93C583.214 176.93 590.361 171.344 593.099 161.215C594.265 156.9 594.064 155.309 591.751 150.549C588.979 144.842 584.206 141.055 567.995 131.703C559 126.513 552.639 119.574 550.571 112.695ZM232.791 85.457C230.579 85.457 229.716 84.7343 229.716 82.8803C229.716 80.426 230.579 80.3036 247.912 80.3036C264 80.3036 266.059 80.5458 265.69 82.392C265.459 83.5412 263.236 85.135 260.747 85.9351L256.221 87.3895L255.835 120.243C255.576 142.165 255.94 154.811 256.927 158.249C259.862 168.474 268.815 174.354 281.447 174.354C290.241 174.354 295.378 172.298 301.832 166.192C308.774 159.628 309.881 153.391 309.859 120.975C309.838 89.0003 309.281 86.3614 302.414 85.6979C299.289 85.3952 298.242 84.6672 298.242 82.7991C298.242 80.4697 299.273 80.3036 313.757 80.3036C328.41 80.3036 329.272 80.4466 329.272 82.8803C329.272 84.4676 328.403 85.4647 327.009 85.4763C321.021 85.5291 320.911 86.0988 320.105 121.16C319.269 157.57 318.488 161.881 311.109 170.8C308.981 173.373 303.906 177.109 299.832 179.103C293.193 182.352 291.081 182.725 279.494 182.704C268.813 182.682 265.441 182.166 260.1 179.735C252.304 176.186 247.234 171.593 243.496 164.691C240.887 159.873 240.664 157.266 240.06 124.623C239.368 87.2583 239.033 85.457 232.791 85.457ZM353.777 85.457C350.821 85.457 349.959 84.8747 349.959 82.8803C349.959 80.4647 350.785 80.3101 363.211 80.4093L376.464 80.5149L382.805 87.8173C386.29 91.8331 397.654 104.396 408.055 115.733C418.457 127.071 430.399 140.26 434.592 145.043C438.786 149.827 442.733 153.74 443.364 153.74C444.012 153.74 444.335 140.228 444.104 122.706L443.696 91.6721L440.068 88.5646C438.073 86.8549 435.02 85.457 433.281 85.457C430.968 85.457 430.121 84.7561 430.121 82.8442C430.121 80.328 430.781 80.2443 447.898 80.5896C462.453 80.8833 465.676 81.2892 465.676 82.8275C465.676 83.9239 463.876 85.0745 461.354 85.5885C458.978 86.073 456.359 87.1397 455.536 87.9591C454.474 89.0168 453.933 102.693 453.67 135.122L453.299 180.795H449.552C446.326 180.795 442.486 177.165 421.956 154.706C408.839 140.356 393.528 123.302 387.932 116.808C382.335 110.313 377.32 104.95 376.787 104.891C375.286 104.723 375.649 162.749 377.184 168.257C378.381 172.549 379.204 173.288 384.289 174.644C388.384 175.735 390.04 176.842 390.04 178.486C390.04 180.597 388.479 180.795 371.939 180.795C355.102 180.795 353.838 180.627 353.838 178.38C353.838 176.735 355.056 175.722 357.658 175.203C365.553 173.63 366.077 171.133 366.52 132.963C366.768 111.585 366.404 96.6272 365.557 93.4952C364.069 87.9875 360.361 85.457 353.777 85.457ZM489.349 85.457C486.579 85.457 485.717 84.8451 485.717 82.8803C485.717 80.4183 486.579 80.3036 505.111 80.3036C523.642 80.3036 524.505 80.4183 524.505 82.8803C524.505 84.7704 523.642 85.457 521.272 85.457C519.495 85.457 516.853 86.6399 515.402 88.0854C512.841 90.6376 512.775 91.9067 513.14 131.351C513.495 169.856 513.647 172.084 516.024 173.815C517.405 174.82 519.877 175.642 521.519 175.642C523.642 175.642 524.505 176.385 524.505 178.219C524.505 180.681 523.642 180.795 505.111 180.795C487.02 180.795 485.717 180.633 485.717 178.384C485.717 176.57 486.986 175.769 490.839 175.155C498.49 173.936 498.881 171.44 498.404 126.901C498.023 91.2329 497.859 89.009 495.49 87.2839C494.109 86.279 491.346 85.457 489.349 85.457ZM624.632 85.457C622.863 85.457 621.518 84.4766 621.099 82.8803C620.447 80.3887 621.061 80.3036 639.697 80.3036C658.107 80.3036 658.969 80.4183 658.969 82.8803C658.969 84.8605 658.107 85.457 655.248 85.457C647.109 85.457 647.292 86.9308 659.611 120.624C665.88 137.775 671.969 154.067 673.139 156.828L675.266 161.849L685.141 135.57C696.766 104.637 698.276 98.9165 696.302 93.2748C694.926 89.3427 689.576 85.457 685.539 85.457C684.398 85.457 683.535 84.3491 683.535 82.8803C683.535 80.4144 684.398 80.3036 703.576 80.3036C722.754 80.3036 723.616 80.4144 723.616 82.8803C723.616 84.7137 722.754 85.457 720.631 85.457C715.195 85.457 712.798 88.3456 713.579 93.9577C714.383 99.7347 736.62 161.824 737.553 160.895C739.07 159.384 763.697 92.5443 763.697 89.9392C763.697 86.8176 761.505 85.457 756.48 85.457C754.216 85.457 753.353 84.7472 753.353 82.8803C753.353 80.4466 754.216 80.3036 768.869 80.3036C782.029 80.3036 784.384 80.6078 784.384 82.3032C784.384 83.4035 782.772 84.8631 780.801 85.5472C776.369 87.0868 775.256 88.8441 769.696 103.079C767.255 109.33 759.614 128.894 752.715 146.552C745.817 164.212 739.876 179.431 739.514 180.372C739.151 181.314 737.013 182.084 734.761 182.084H730.669L721.382 157.927C716.273 144.642 710.238 128.902 707.972 122.95C704.086 112.751 703.76 112.308 702.298 115.219C701.445 116.92 695.309 132.688 688.66 150.26L676.574 182.21L672.063 181.825L667.552 181.44L650.347 136.448C640.735 111.311 631.896 90.1312 630.316 88.4564C628.76 86.806 626.203 85.457 624.632 85.457ZM883.156 86.0034C882.94 85.514 882.941 83.7552 882.941 83.7552C882.941 83.7552 882.892 83.1208 883.158 82.7824C883.423 82.4451 883.517 82.4361 884.468 82.3457L884.477 82.3448C887.968 82.0128 894.972 81.454 900.817 81.199C901.352 81.1756 901.947 81.1486 902.594 81.1193L902.607 81.1187L902.615 81.1183L902.62 81.1181C909.053 80.8262 920.564 80.4358 928.476 80.8312C943.656 81.5897 954.453 88.9274 958.132 101.053C961.812 113.178 959.866 124.56 954.851 131.805C949.835 139.05 941.402 145.288 927.384 144.882C915.812 144.547 912.715 142.38 910.241 140.649C909.718 140.283 909.223 139.936 908.682 139.631V155.094C908.804 165.64 908.892 170.705 909.709 172.58C910.809 175.104 913.296 176.659 918.142 177.851C918.142 177.851 920.334 178.365 920.9 178.913C921.465 179.461 921.465 180.678 921.465 180.678C921.465 180.678 921.581 181.816 921.127 182.396C920.672 182.976 919.795 182.86 919.795 182.86L898.335 182.687L885.396 182.653C885.396 182.653 884.038 182.913 883.529 182.367C883.02 181.82 883.067 180.681 883.067 180.681C883.067 180.681 883.179 179.454 883.773 178.905C884.367 178.355 886.576 177.741 886.576 177.741C891.566 176.34 893.73 174.858 894.861 172.066C895.772 169.815 895.778 165.641 895.769 131.578C895.76 99.2749 895.713 93.2492 894.972 91.5162C893.876 88.9509 891.131 88.2712 887.223 87.3035L887.221 87.3031C886.447 87.1112 885.626 86.908 884.764 86.6766C884.764 86.6766 883.373 86.4928 883.156 86.0034ZM945.642 112.362C945.642 117.659 945.549 125.952 939.91 131.253C934.271 136.554 923.168 138.005 915.631 136.529C913.255 136.064 911.897 135.347 910.85 134.794L910.745 134.739L908.816 133.723L908.704 115.112C908.634 103.451 908.756 95.8536 909.031 94.7675C909.282 88.6188 918.351 87.8539 922.783 88.0816C941.742 88.0816 945.089 104.056 945.642 112.362ZM823.621 81.0252C823.621 81.0252 822.695 81.3806 821.291 81.9128L816.229 84.5275L812.583 93.6283C810.579 98.6336 806.911 107.822 804.434 114.047C799.922 125.385 796.942 132.834 793.806 140.609C792.884 142.896 790.099 149.86 787.617 156.085C785.136 162.309 782.656 168.233 782.106 169.249C782.014 169.418 781.917 169.6 781.815 169.792C780.428 172.4 778.017 176.93 773.76 177.615C773.76 177.615 771.42 177.845 770.553 178.701C769.686 179.558 769.77 180.258 769.77 180.258V181.337C769.77 181.337 769.849 181.86 770.34 182.12C770.831 182.381 771.496 182.396 771.496 182.396L787.067 182.219H803.161C803.161 182.219 804.299 182.352 804.738 181.988C805.177 181.624 805.298 181.084 805.298 181.084V179.948C805.298 179.948 805.074 178.716 804.437 178.235C803.8 177.755 801.411 177.426 801.411 177.426C794.968 176.579 793.859 171.706 794.654 167.324C795.045 165.171 797.634 157.207 800.55 149.189L801.559 146.418L818.422 146.289C827.697 146.218 835.705 146.266 836.217 146.396C836.949 146.581 837.974 148.662 840.983 156.074C845.542 167.304 845.906 168.672 844.897 170.773C844.835 170.901 844.77 171.042 844.699 171.194C843.752 173.226 841.913 177.174 837.279 177.576C837.279 177.576 834.821 177.661 834.209 178.396C833.598 179.132 833.73 179.978 833.73 179.978V181.102C833.73 181.102 833.894 181.761 834.209 182.022C834.525 182.283 835.059 182.217 835.059 182.217L850.366 182.107L871.883 182.106C871.883 182.106 872.727 182.196 872.957 181.872C873.186 181.547 873.234 181.165 873.234 181.165V179.672C873.234 179.672 873.14 178.878 872.726 178.44C872.313 178.003 869.522 177.541 869.522 177.541C865.958 176.966 864.183 174.024 862.861 171.833C862.524 171.274 862.216 170.764 861.916 170.355C861.303 169.52 859.115 164.944 857.401 160.543C855.688 156.142 851.822 146.2 848.811 138.451C845.799 130.702 841.596 119.892 839.471 114.43C837.346 108.967 833.308 98.573 830.497 91.3319C830.036 90.1434 829.622 89.0759 829.252 88.1203L829.251 88.116C827.366 83.2531 826.606 81.2908 826.397 81.0252C825.72 80.1628 823.621 81.0252 823.621 81.0252ZM822.619 110.616C821.94 108.965 820.744 106.003 819.963 104.034C818.543 100.455 818.004 99.6306 817.564 100.37C817.436 100.586 816.542 103.032 815.578 105.806C809.338 123.766 806.512 131.853 805.945 133.377C805.589 134.335 805.298 135.322 805.298 135.571C805.298 135.857 810.374 136.024 819.07 136.024C826.644 136.024 832.841 135.93 832.841 135.815C832.841 135.7 832.166 133.986 831.34 132.004C830.514 130.022 828.492 125.075 826.847 121.01C825.202 116.945 823.299 112.268 822.619 110.616Z" fill="#FF007A"/>
</svg>
