<svg width="961" height="240" viewBox="0 0 961 240" fill="none" xmlns="http://www.w3.org/2000/svg">
<path fill-rule="evenodd" clip-rule="evenodd" d="M3.75893 4.70715C27.7384 34.1046 54.0674 71.0366 58.3264 77.0108C58.5535 77.3294 58.7179 77.56 58.8158 77.6967C61.0857 80.8658 62.9597 83.2217 64.3829 85.0109L64.3832 85.0112L64.3834 85.0114C67.5429 88.9832 68.4803 90.1617 66.5951 91.2444C65.0744 92.1174 63.5057 92.4053 61.9404 92.4053C60.1699 92.4053 58.1752 91.5441 56.7228 90.1525C55.6962 89.1691 48.6716 78.864 39.1062 63.8727C31.7874 52.4016 25.6624 42.8859 25.4953 42.7266C25.109 42.3581 25.1156 42.3706 38.36 66.307C46.6763 81.3375 52.365 92.4447 52.365 93.1553C52.365 94.6007 51.9745 95.3605 50.2092 97.3494C47.2664 100.666 45.9508 104.392 45.0012 112.103C43.9366 120.747 40.943 126.854 32.6468 137.304C27.7905 143.422 26.9959 144.543 25.7705 147.009C24.2271 150.114 23.8026 151.853 23.6306 155.774C23.4488 159.92 23.8029 162.598 25.0568 166.561C26.1546 170.031 27.3004 172.323 30.2297 176.905C32.7577 180.86 34.2133 183.799 34.2133 184.949C34.2133 185.864 34.3862 185.865 38.3035 184.972C47.6781 182.833 55.2902 179.073 59.5714 174.464C62.221 171.611 62.8431 170.036 62.8632 166.127C62.8765 163.57 62.7874 163.035 62.1032 161.564C60.9893 159.169 58.9615 157.179 54.4922 154.093C48.6361 150.049 46.1349 146.794 45.444 142.317C44.8773 138.644 45.5348 136.052 48.7744 129.194C52.1275 122.095 52.9585 119.07 53.5206 111.914C53.8836 107.291 54.3864 105.468 55.7014 104.005C57.0729 102.479 58.3075 101.962 61.7015 101.493C67.2349 100.73 70.7583 99.2839 73.6545 96.5882C76.1669 94.2497 77.2183 91.9963 77.3796 88.6042L77.5021 86.0331L76.0981 84.3797C71.0136 78.3916 0.353897 0 0.0409978 0C-0.0258464 0 1.64729 2.11838 3.75893 4.70715ZM37.0675 160.465C38.2171 158.408 37.6063 155.765 35.6833 154.473C33.8664 153.253 31.044 153.828 31.044 155.418C31.044 155.903 31.3096 156.256 31.9084 156.568C32.9165 157.092 32.9897 157.681 32.1965 158.885C31.3932 160.105 31.458 161.177 32.3794 161.905C33.8644 163.08 35.9665 162.434 37.0675 160.465ZM71.6691 48.3245C69.4007 47.9691 69.3051 47.9274 70.3725 47.7617C72.4182 47.4439 77.2485 47.877 80.5772 48.6765C88.3481 50.5422 95.4192 55.3218 102.967 63.8104L104.972 66.0655L107.841 65.5997C119.926 63.638 132.22 65.197 142.503 69.9951C145.332 71.3152 149.792 73.9428 150.349 74.618C150.526 74.8333 150.853 76.2184 151.073 77.6967C151.837 82.8105 151.455 86.7303 149.906 89.6581C149.064 91.2513 149.017 91.7562 149.583 93.1197C150.035 94.2076 151.296 95.0129 152.545 95.0112C155.1 95.0077 157.85 90.8353 159.125 85.0297L159.631 82.7236L160.634 83.871C166.134 90.1659 170.455 98.7506 171.197 104.861L171.39 106.454L170.466 105.006C168.874 102.514 167.276 100.817 165.228 99.4487C161.538 96.9821 157.635 96.1427 147.301 95.5926C137.967 95.0958 132.685 94.2905 127.447 92.5652C118.534 89.6302 114.042 85.7214 103.455 71.692C98.7531 65.4606 95.8468 62.0129 92.9558 59.2365C86.3866 52.9277 79.9318 49.619 71.6691 48.3245ZM152.454 62.2377C152.689 58.0621 153.25 55.3079 154.377 52.7927C154.823 51.7971 155.241 50.9822 155.305 50.9822C155.37 50.9822 155.176 51.7171 154.874 52.6151C154.055 55.0562 153.92 58.395 154.485 62.2794C155.201 67.2082 155.609 67.9194 160.766 73.2435C163.185 75.7408 165.999 78.8904 167.019 80.2426L168.874 82.7013L167.019 80.9442C164.751 78.7954 159.535 74.6047 158.383 74.0056C157.61 73.6039 157.495 73.6108 157.019 74.0899C156.58 74.5314 156.487 75.1948 156.426 78.3307C156.331 83.2184 155.672 86.3555 154.08 89.4924C153.219 91.189 153.083 90.8269 153.862 88.9119C154.444 87.4821 154.503 86.8535 154.499 82.122C154.49 72.6152 153.372 70.3297 146.819 66.4145C145.16 65.4227 142.424 63.9923 140.741 63.2357C139.059 62.479 137.722 61.82 137.77 61.7708C137.956 61.5842 144.347 63.4683 146.919 64.4676C150.745 65.9542 151.376 66.1469 151.841 65.9676C152.152 65.8473 152.303 64.9311 152.454 62.2377ZM69.2379 54.9391C68.6211 62.2789 71.4703 72.0973 76.0753 78.5011C79.6451 83.4652 85.1788 87.3227 89.2641 87.6953C91.939 87.9391 92.7429 87.0933 91.5327 85.3083C89.8527 82.8299 87.7863 79.0138 87.2394 77.38C86.8998 76.365 86.1616 73.3669 85.5989 70.7176C83.678 61.6726 81.7899 58.1502 77.4286 55.4748C75.8393 54.4997 72.4453 53.2237 70.4769 52.8611L69.4287 52.6678L69.2379 54.9391ZM146.869 126.161C125.348 117.409 117.768 109.812 117.768 96.9937C117.768 95.1074 117.833 93.564 117.911 93.564C117.99 93.564 118.822 94.1865 119.761 94.9475C124.125 98.4829 129.012 99.993 142.541 101.987C150.501 103.16 154.981 104.107 159.114 105.492C172.249 109.892 180.376 118.821 182.314 130.984C182.877 134.518 182.547 141.145 181.634 144.638C180.913 147.397 178.713 152.369 178.13 152.56C177.968 152.613 177.809 151.987 177.768 151.135C177.547 146.568 175.262 142.122 171.425 138.791C167.062 135.004 161.2 131.99 146.869 126.161ZM130.721 125.198C131.023 126.107 131.491 128.176 131.76 129.797C133.484 140.159 128.099 148.531 117.624 151.775C116.515 152.118 112.147 152.982 107.917 153.693C99.3544 155.133 95.5327 156.153 91.6935 158.021C88.9708 159.346 85.6744 161.33 85.8703 161.527C85.9334 161.591 86.5549 161.441 87.251 161.194C92.0926 159.477 97.4807 158.588 105.667 158.158C108.916 157.988 112.611 157.716 113.879 157.555C121.172 156.627 126.227 154.389 130.158 150.348C132.345 148.099 133.649 146.004 134.7 143.05C135.366 141.177 135.456 140.48 135.461 137.16C135.467 133.777 135.386 133.158 134.664 131.077C133.719 128.349 132.604 126.302 131.192 124.701L130.172 123.545L130.721 125.198ZM141.626 147.494C138.766 141.285 138.11 135.291 139.676 129.701C139.844 129.103 140.113 128.614 140.276 128.614C140.438 128.614 141.112 128.983 141.775 129.433C143.092 130.329 145.735 131.838 152.775 135.715C161.561 140.553 166.57 144.299 169.976 148.58C172.959 152.328 174.805 156.597 175.693 161.803C176.197 164.752 175.902 171.848 175.153 174.817C172.791 184.18 167.301 191.534 159.471 195.826C158.324 196.454 157.294 196.97 157.182 196.973C157.071 196.975 157.489 195.902 158.111 194.587C160.745 189.025 161.045 183.615 159.054 177.594C157.834 173.907 155.348 169.408 150.328 161.804C144.492 152.964 143.061 150.611 141.626 147.494ZM87.7664 167.858C78.7151 169.343 68.7784 174.181 60.7922 180.992L58.4146 183.02L60.5041 183.35C71.4081 185.069 74.3443 186.594 81.9078 194.464C86.2604 198.992 87.7304 200 91.3406 200.931C96.6432 202.298 101.87 199.786 103.663 195.008C104.464 192.873 104.357 189.338 103.438 187.562C101.252 183.336 94.8833 181.97 91.8036 185.066C89.2384 187.645 89.9858 191.53 93.1762 192.198C93.9066 192.352 93.8858 192.319 92.9901 191.91C91.5938 191.272 90.9873 190.388 90.9795 188.981C90.9617 185.682 94.6992 183.83 98.1762 185.414C100.722 186.575 101.733 188.091 101.733 190.749C101.733 194.842 98.2843 197.926 94.2707 197.422C92.1254 197.152 89.5018 195.766 88.0949 194.159C84.555 190.117 85.934 183.737 90.8764 181.289C94.639 179.426 99.6405 179.885 103.519 182.45C107.975 185.398 109.87 188.092 113.708 196.934C114.958 199.813 116.566 203.054 117.281 204.135C120.917 209.633 125.273 212.329 130.52 212.329C133.414 212.329 135.591 211.795 138.33 210.414C140.365 209.387 143.25 207.436 143.042 207.227C142.983 207.168 142.139 207.433 141.166 207.816C135.437 210.073 129.613 209.918 126.231 207.417C124.101 205.843 122.383 202.707 121.5 198.785C121.347 198.106 120.843 195.108 120.379 192.122C119.203 184.554 118.074 181.152 115.441 177.248C112.747 173.254 107.568 169.902 101.778 168.405C98.1656 167.471 91.6673 167.217 87.7664 167.858ZM75.0896 109.345C75.8713 106.429 78.3964 103.648 80.9941 102.842C82.6459 102.33 86.0602 102.657 87.6656 103.481C90.7767 105.079 93.0353 108.718 92.5452 111.345C91.9474 114.548 86.8047 117.111 80.889 117.153C77.8674 117.174 76.7515 116.764 75.5976 115.208C74.8834 114.244 74.6128 111.124 75.0896 109.345ZM86.8712 104.623C88.4227 105.58 88.8218 106.995 87.9096 108.304C87.2812 109.206 85.3358 110.063 83.9142 110.063C81.7784 110.063 79.4484 108.531 79.4484 107.128C79.4484 104.309 83.9165 102.8 86.8712 104.623ZM550.572 112.694C545.745 96.6415 553.705 83.3264 570.686 79.0478C575.557 77.82 597.61 78.374 601.388 79.8195C602.775 80.349 603.379 82.3821 603.392 86.5603C603.401 89.8507 603.761 93.8471 604.188 95.4408C604.839 97.8565 604.459 98.3318 601.909 98.2932C599.604 98.2571 598.21 96.9058 596.263 92.8179C593.153 86.2885 589.388 84.2116 580.616 84.1871C569.415 84.1549 561.22 91.6957 562.555 100.807C563.424 106.736 569.348 112.57 582.642 120.59C595.291 128.219 602.673 134.493 605.615 140.114C613.481 155.142 606.764 171.224 589.238 179.327C580.242 183.486 565.165 183.916 554.566 180.316L547.778 178.01V167.164C547.778 157.342 548.012 156.316 550.25 156.316C552.123 156.316 552.933 157.554 553.59 161.432C555.225 171.075 562.553 176.929 572.99 176.929C583.214 176.929 590.362 171.343 593.099 161.214C594.265 156.899 594.065 155.308 591.752 150.548C588.98 144.841 584.206 141.054 567.995 131.702C559 126.512 552.639 119.573 550.572 112.694ZM232.791 85.4561C230.579 85.4561 229.717 84.7333 229.717 82.8794C229.717 80.425 230.579 80.3027 247.912 80.3027C264 80.3027 266.06 80.5448 265.69 82.3911C265.46 83.5403 263.236 85.134 260.747 85.9341L256.222 87.3886L255.835 120.242C255.577 142.164 255.94 154.81 256.928 158.248C259.863 168.473 268.815 174.353 281.447 174.353C290.241 174.353 295.378 172.297 301.833 166.191C308.774 159.627 309.881 153.39 309.859 120.974C309.838 88.9993 309.281 86.3605 302.414 85.697C299.289 85.3942 298.242 84.6663 298.242 82.7982C298.242 80.4688 299.274 80.3027 313.757 80.3027C328.41 80.3027 329.272 80.4457 329.272 82.8794C329.272 84.4666 328.404 85.4637 327.01 85.4753C321.021 85.5282 320.911 86.0979 320.106 121.159C319.269 157.57 318.488 161.88 311.109 170.799C308.981 173.372 303.906 177.108 299.832 179.102C293.193 182.351 291.082 182.725 279.495 182.703C268.814 182.681 265.442 182.165 260.101 179.734C252.304 176.185 247.235 171.592 243.497 164.69C240.888 159.872 240.664 157.265 240.06 124.622C239.369 87.2573 239.034 85.4561 232.791 85.4561ZM353.777 85.4561C350.822 85.4561 349.959 84.8737 349.959 82.8794C349.959 80.4637 350.786 80.3091 363.212 80.4083L376.464 80.514L382.805 87.8163C386.291 91.8322 397.654 104.395 408.056 115.733C418.458 127.07 430.399 140.259 434.592 145.042C438.786 149.826 442.734 153.739 443.365 153.739C444.012 153.739 444.336 140.227 444.104 122.705L443.697 91.6712L440.069 88.5637C438.074 86.854 435.02 85.4561 433.281 85.4561C430.968 85.4561 430.121 84.7552 430.121 82.8432C430.121 80.3271 430.782 80.2433 447.899 80.5886C462.453 80.8824 465.677 81.2883 465.677 82.8266C465.677 83.9229 463.877 85.0735 461.354 85.5876C458.978 86.072 456.36 87.1388 455.536 87.9582C454.475 89.0159 453.933 102.692 453.671 135.121L453.3 180.794H449.553C446.327 180.794 442.487 177.164 421.956 154.705C408.839 140.355 393.529 123.301 387.933 116.807C382.336 110.312 377.32 104.949 376.788 104.89C375.287 104.722 375.65 162.748 377.185 168.256C378.382 172.548 379.204 173.287 384.289 174.643C388.384 175.734 390.04 176.841 390.04 178.485C390.04 180.596 388.48 180.794 371.939 180.794C355.103 180.794 353.838 180.626 353.838 178.379C353.838 176.734 355.056 175.721 357.659 175.202C365.553 173.629 366.077 171.132 366.521 132.962C366.769 111.584 366.404 96.6263 365.557 93.4943C364.069 87.9865 360.361 85.4561 353.777 85.4561ZM489.349 85.4561C486.58 85.4561 485.717 84.8441 485.717 82.8794C485.717 80.4173 486.58 80.3027 505.111 80.3027C523.643 80.3027 524.505 80.4173 524.505 82.8794C524.505 84.7694 523.643 85.4561 521.273 85.4561C519.495 85.4561 516.854 86.6389 515.403 88.0845C512.842 90.6367 512.776 91.9058 513.14 131.35C513.496 169.855 513.647 172.083 516.025 173.814C517.406 174.819 519.878 175.641 521.52 175.641C523.643 175.641 524.505 176.385 524.505 178.218C524.505 180.68 523.643 180.794 505.111 180.794C487.02 180.794 485.717 180.632 485.717 178.383C485.717 176.569 486.987 175.769 490.84 175.154C498.49 173.935 498.882 171.439 498.405 126.9C498.023 91.2319 497.859 89.008 495.49 87.2829C494.11 86.278 491.347 85.4561 489.349 85.4561ZM624.632 85.4561C622.864 85.4561 621.519 84.4756 621.1 82.8794C620.447 80.3877 621.061 80.3027 639.698 80.3027C658.108 80.3027 658.97 80.4173 658.97 82.8794C658.97 84.8596 658.108 85.4561 655.249 85.4561C647.11 85.4561 647.292 86.9299 659.611 120.623C665.881 137.774 671.969 154.066 673.139 156.827L675.266 161.848L685.141 135.569C696.766 104.636 698.276 98.9155 696.302 93.2738C694.926 89.3417 689.576 85.4561 685.54 85.4561C684.398 85.4561 683.536 84.3481 683.536 82.8794C683.536 80.4135 684.398 80.3027 703.576 80.3027C722.754 80.3027 723.617 80.4135 723.617 82.8794C723.617 84.7127 722.754 85.4561 720.631 85.4561C715.196 85.4561 712.799 88.3447 713.58 93.9568C714.384 99.7338 736.621 161.823 737.553 160.894C739.071 159.383 763.697 92.5433 763.697 89.9383C763.697 86.8166 761.506 85.4561 756.48 85.4561C754.216 85.4561 753.354 84.7462 753.354 82.8794C753.354 80.4457 754.216 80.3027 768.869 80.3027C782.03 80.3027 784.384 80.6068 784.384 82.3023C784.384 83.4026 782.772 84.8621 780.802 85.5463C776.369 87.0858 775.256 88.8432 769.697 103.078C767.256 109.329 759.614 128.893 752.715 146.551C745.818 164.211 739.876 179.43 739.514 180.371C739.151 181.313 737.014 182.083 734.762 182.083H730.669L721.382 157.926C716.274 144.641 710.239 128.901 707.972 122.949C704.087 112.75 703.761 112.307 702.299 115.218C701.445 116.919 695.309 132.687 688.661 150.259L676.575 182.209L672.063 181.824L667.552 181.439L650.347 136.447C640.736 111.31 631.896 90.1303 630.316 88.4554C628.761 86.805 626.203 85.4561 624.632 85.4561ZM883.157 86.0024C882.94 85.513 882.942 83.7542 882.942 83.7542C882.942 83.7542 882.892 83.1199 883.159 82.7814C883.424 82.4441 883.518 82.4352 884.468 82.3448L884.478 82.3439C887.968 82.0119 894.973 81.453 900.818 81.198C901.356 81.1745 901.956 81.1473 902.608 81.1177L902.615 81.1174L902.62 81.1172C909.053 80.8253 920.565 80.4349 928.477 80.8302C943.656 81.5887 954.453 88.9264 958.133 101.052C961.812 113.177 959.867 124.559 954.851 131.804C949.836 139.049 941.403 145.287 927.384 144.881C915.813 144.546 912.716 142.379 910.242 140.648C909.719 140.282 909.224 139.935 908.682 139.63V155.093C908.805 165.639 908.892 170.704 909.709 172.579C910.809 175.103 913.296 176.658 918.143 177.85C918.143 177.85 920.335 178.364 920.9 178.912C921.466 179.46 921.466 180.677 921.466 180.677C921.466 180.677 921.582 181.815 921.127 182.395C920.672 182.975 919.795 182.859 919.795 182.859L898.335 182.686L885.397 182.652C885.397 182.652 884.038 182.913 883.529 182.366C883.02 181.819 883.067 180.68 883.067 180.68C883.067 180.68 883.179 179.453 883.774 178.904C884.368 178.355 886.576 177.74 886.576 177.74C891.567 176.339 893.73 174.857 894.861 172.065C895.772 169.815 895.779 165.64 895.769 131.577C895.76 99.274 895.714 93.2482 894.973 91.5152C893.876 88.95 891.131 88.2702 887.224 87.3026L887.222 87.3021C886.447 87.1103 885.627 86.9071 884.764 86.6756C884.764 86.6756 883.374 86.4918 883.157 86.0024ZM945.643 112.361C945.643 117.658 945.55 125.951 939.91 131.252C934.271 136.553 923.168 138.004 915.631 136.528C913.256 136.063 911.897 135.346 910.85 134.793L910.746 134.738L908.816 133.722L908.704 115.111C908.634 103.45 908.756 95.8527 909.031 94.7666C909.282 88.6179 918.351 87.8529 922.784 88.0806C941.742 88.0806 945.089 104.055 945.643 112.361ZM822.915 81.2945C822.512 81.4482 821.955 81.6603 821.291 81.9118L816.229 84.5266L812.584 93.6273C810.579 98.6326 806.912 107.821 804.435 114.046C799.923 125.384 796.942 132.833 793.807 140.608C792.884 142.895 790.099 149.859 787.618 156.084C785.136 162.308 782.656 168.232 782.106 169.248C782.015 169.417 781.918 169.599 781.815 169.792C780.428 172.399 778.017 176.929 773.761 177.614C773.761 177.614 771.42 177.844 770.553 178.7C769.686 179.557 769.77 180.257 769.77 180.257V181.336C769.77 181.336 769.849 181.859 770.34 182.119C770.831 182.38 771.496 182.395 771.496 182.395L787.067 182.218H803.162C803.162 182.218 804.3 182.351 804.739 181.987C805.177 181.623 805.299 181.083 805.299 181.083V179.947C805.299 179.947 805.075 178.715 804.438 178.234C803.801 177.754 801.411 177.425 801.411 177.425C794.969 176.578 793.86 171.705 794.655 167.323C795.045 165.17 797.635 157.206 800.551 149.188L801.559 146.417L818.422 146.288C827.697 146.217 835.705 146.265 836.218 146.395C836.95 146.58 837.975 148.661 840.983 156.073C845.542 167.303 845.906 168.671 844.897 170.772C844.836 170.9 844.77 171.041 844.7 171.193C843.753 173.225 841.913 177.173 837.28 177.575C837.28 177.575 834.821 177.66 834.21 178.395C833.598 179.131 833.73 179.977 833.73 179.977V181.101C833.73 181.101 833.894 181.76 834.21 182.021C834.525 182.282 835.06 182.216 835.06 182.216L850.367 182.106L871.884 182.105C871.884 182.105 872.727 182.195 872.957 181.871C873.187 181.546 873.234 181.164 873.234 181.164V179.671C873.234 179.671 873.14 178.877 872.727 178.439C872.314 178.002 869.523 177.54 869.523 177.54C865.959 176.965 864.184 174.023 862.861 171.832C862.524 171.273 862.217 170.763 861.916 170.354C861.304 169.519 859.115 164.943 857.402 160.542C855.689 156.141 851.823 146.199 848.811 138.45C845.799 130.701 841.597 119.891 839.472 114.429C837.347 108.966 833.309 98.5721 830.498 91.3309C830.037 90.1424 829.623 89.075 829.253 88.1194L829.252 88.1168C827.367 83.2526 826.606 81.2899 826.398 81.0243C825.72 80.1618 823.621 81.0243 823.621 81.0243C823.621 81.0243 823.364 81.1231 822.915 81.2945ZM822.62 110.615C821.94 108.964 820.745 106.002 819.964 104.033C818.544 100.454 818.004 99.6296 817.565 100.369C817.436 100.585 816.542 103.031 815.579 105.805C809.338 123.765 806.512 131.852 805.946 133.376C805.59 134.334 805.299 135.321 805.299 135.57C805.299 135.856 810.375 136.023 819.07 136.023C826.645 136.023 832.842 135.929 832.842 135.814C832.842 135.699 832.166 133.985 831.34 132.003C830.514 130.022 828.493 125.074 826.848 121.009C825.203 116.944 823.3 112.267 822.62 110.615Z" fill="black"/>
</svg>
