<svg width="301" height="80" viewBox="0 0 301 80" fill="none" xmlns="http://www.w3.org/2000/svg">
<path fill-rule="evenodd" clip-rule="evenodd" d="M24.3844 29.7119C24.2733 30.1409 24.0792 30.5438 23.8133 30.8976C23.3183 31.5428 22.6632 32.0461 21.9136 32.357C21.2393 32.6489 20.5254 32.8375 19.7955 32.9166C19.6452 32.9357 19.4896 32.9476 19.3388 32.9591L19.3145 32.9609C18.8522 32.9786 18.4077 33.1444 18.046 33.4342C17.6844 33.724 17.4245 34.1225 17.3046 34.5714C17.2497 34.7947 17.2089 35.0212 17.1824 35.2498C17.1404 35.5943 17.1188 35.9471 17.0954 36.3287C17.0786 36.6025 17.0609 36.8912 17.0341 37.2024C16.8771 38.4698 16.5121 39.7024 15.954 40.85C15.8399 41.0912 15.7237 41.3251 15.6094 41.5548C14.9975 42.7858 14.4446 43.8979 14.6034 45.3873C14.7276 46.5348 15.3127 47.3038 16.0903 48.0969C16.4595 48.4763 16.9492 48.8005 17.4575 49.137C18.88 50.0788 20.4485 51.1172 19.9317 53.7334C19.5089 55.8531 16.0101 58.0775 11.0925 58.8546C11.5691 58.7819 10.5208 56.9843 10.4025 56.7816L10.4022 56.781L10.3952 56.769C10.2596 56.5557 10.1208 56.3456 9.98212 56.1358C9.58175 55.53 9.18332 54.9272 8.87223 54.2588C8.05064 52.5135 7.66989 50.4944 8.00655 48.582C8.31152 46.8512 9.45059 45.4686 10.5473 44.1373L10.5507 44.1331C10.7284 43.9176 10.9049 43.7033 11.0765 43.4891C12.5434 41.6592 14.0824 39.2617 14.423 36.8864C14.4517 36.68 14.4774 36.455 14.5044 36.2183C14.5527 35.7945 14.6053 35.3331 14.6875 34.8733C14.8098 34.0793 15.0574 33.3101 15.421 32.5945C15.6691 32.1252 15.9958 31.7024 16.3868 31.3444C16.5907 31.1544 16.7252 30.9012 16.7688 30.6252C16.8124 30.3493 16.7626 30.0667 16.6273 29.8226L8.78807 15.6589L20.0479 29.6172C20.1762 29.779 20.3383 29.9104 20.5227 30.0022C20.7072 30.0939 20.9095 30.1438 21.1152 30.1482C21.321 30.1526 21.5252 30.1115 21.7134 30.0278C21.9016 29.944 22.0692 29.8196 22.2041 29.6636C22.3468 29.4965 22.4277 29.285 22.4331 29.065C22.4386 28.845 22.3683 28.6298 22.2342 28.4557C21.7102 27.7831 21.1648 27.1011 20.622 26.4224C20.403 26.1486 20.1844 25.8752 19.9678 25.6033L17.1343 22.0805L11.4472 15.0469L0.0390625 1L12.1767 14.4169L18.2304 21.1404L21.2503 24.5102C21.5279 24.8242 21.8055 25.1354 22.0831 25.4467C22.8074 26.2587 23.5318 27.0708 24.2561 27.9324L24.4204 28.1337L24.4565 28.4457C24.5054 28.8688 24.481 29.2971 24.3844 29.7119ZM53.3251 34.446L53.3365 34.4624L53.3371 34.4642C53.3351 32.9625 52.4093 30.4844 50.5356 28.101L50.4916 28.0426C49.9145 27.326 49.2855 26.6532 48.6099 26.0295C48.4837 25.9067 48.3474 25.786 48.2091 25.6652C47.3435 24.9068 46.3973 24.2466 45.3876 23.6965L45.3155 23.6602C42.1433 21.925 38.0153 21.0312 32.9254 22.0377C32.2417 21.204 31.5055 20.4153 30.7211 19.6765C29.5199 18.5266 28.1059 17.6245 26.559 17.0212C25.0261 16.4576 23.3845 16.2564 21.7617 16.4335C23.326 16.5749 24.8497 17.012 26.2525 17.7218C27.6072 18.4509 28.8272 19.4082 29.8595 20.5521C30.9057 21.7197 31.889 22.9427 32.8052 24.2158C32.8819 24.3159 32.9585 24.4161 33.0353 24.5166L33.0358 24.5172C33.9321 25.6898 34.8445 26.8837 35.9814 27.946C36.6073 28.5377 37.3056 29.047 38.0594 29.4618C38.2598 29.5645 38.4622 29.6611 38.6606 29.7456C38.8589 29.8301 39.0453 29.9087 39.2457 29.9811C39.6325 30.1321 40.0332 30.257 40.434 30.3716C42.0371 30.8306 43.6783 30.9957 45.2814 31.0843C45.5037 31.096 45.7254 31.107 45.9463 31.1179C46.5199 31.1463 47.0881 31.1744 47.648 31.2151C48.4139 31.2609 49.1736 31.3809 49.9164 31.5734C51.0324 31.8657 52.0149 32.5336 52.6998 33.4657C52.9327 33.7761 53.1417 34.1038 53.3251 34.446ZM178.61 24.7646C173.343 26.0917 170.874 30.2219 172.371 35.2012C173.013 37.3348 174.986 39.4872 177.776 41.0969C182.804 43.9978 184.285 45.1726 185.145 46.9426C185.862 48.4192 185.924 48.9128 185.562 50.2512C184.713 53.393 182.496 55.1257 179.325 55.1257C176.088 55.1257 173.815 53.3099 173.307 50.3187C173.104 49.1158 172.853 48.7318 172.271 48.7318C171.577 48.7318 171.505 49.0499 171.505 52.0967V55.4611L173.61 56.1763C176.898 57.2928 181.574 57.1594 184.365 55.8694C189.801 53.3562 191.885 48.3676 189.445 43.7064C188.532 41.9628 186.242 40.0167 182.319 37.6501C178.195 35.1625 176.358 33.353 176.088 31.5139C175.674 28.6877 178.216 26.3487 181.69 26.3587C184.411 26.3663 185.579 27.0105 186.544 29.0358C187.148 30.3038 187.58 30.723 188.295 30.7342C189.086 30.7462 189.204 30.5987 189.002 29.8494C188.869 29.3551 188.758 28.1155 188.755 27.0948C188.751 25.7988 188.564 25.1682 188.134 25.004C186.962 24.5556 180.121 24.3837 178.61 24.7646ZM72.8477 25.9531C72.8477 26.5281 73.1152 26.7523 73.8013 26.7523C75.7376 26.7523 75.8415 27.311 76.056 38.901C76.2433 49.0263 76.3127 49.8348 77.122 51.3294C78.2814 53.4702 79.8539 54.8947 82.2722 55.9957C83.9289 56.7498 84.9748 56.9097 88.2879 56.9165C91.882 56.9233 92.5369 56.8074 94.5963 55.7995C95.86 55.1813 97.4341 54.0223 98.0942 53.2243C100.383 50.4577 100.625 49.1207 100.885 37.8268C101.135 26.9514 101.169 26.7747 103.026 26.7583C103.459 26.7547 103.728 26.4454 103.728 25.9531C103.728 25.1982 103.461 25.1538 98.9156 25.1538C94.423 25.1538 94.103 25.2054 94.103 25.9279C94.103 26.5073 94.4279 26.7332 95.3972 26.827C97.5271 27.0328 97.7 27.8514 97.7064 37.7693C97.7132 47.8243 97.3699 49.7588 95.2167 51.7949C93.2147 53.6887 91.6214 54.3265 88.8934 54.3265C84.9752 54.3265 82.1984 52.5027 81.288 49.3312C80.9816 48.2646 80.8689 44.3423 80.9492 37.5422L81.0691 27.3517L82.4727 26.9006C83.2447 26.6524 83.9345 26.1581 84.0059 25.8016C84.1206 25.2289 83.4818 25.1538 78.4916 25.1538C73.1152 25.1538 72.8477 25.1918 72.8477 25.9531ZM110.145 25.9531C110.145 26.5717 110.412 26.7523 111.329 26.7523C113.371 26.7523 114.521 27.5372 114.983 29.2456C115.246 30.2171 115.359 34.8568 115.282 41.4877C115.144 53.3275 114.982 54.1019 112.533 54.5899C111.726 54.751 111.348 55.0651 111.348 55.5754C111.348 56.2723 111.74 56.3246 116.963 56.3246C122.093 56.3246 122.577 56.2631 122.577 55.6082C122.577 55.0982 122.063 54.7549 120.793 54.4164C119.216 53.996 118.961 53.7666 118.59 52.4354C118.114 50.7271 118.001 32.7284 118.466 32.7803C118.632 32.7987 120.187 34.4623 121.923 36.4768C123.659 38.4913 128.408 43.7811 132.477 48.2322C138.845 55.1984 140.036 56.3246 141.037 56.3246H142.199L142.314 42.1575C142.396 32.0986 142.564 27.8565 142.893 27.5284C143.148 27.2743 143.96 26.9434 144.698 26.7931C145.48 26.6337 146.038 26.2768 146.038 25.9367C146.038 25.4595 145.038 25.3336 140.524 25.2426C135.215 25.1354 135.01 25.1614 135.01 25.9419C135.01 26.5349 135.272 26.7523 135.99 26.7523C136.529 26.7523 137.476 27.1859 138.095 27.7162L139.221 28.6802L139.347 38.3063C139.419 43.7412 139.318 47.9326 139.117 47.9326C138.922 47.9326 137.697 46.7188 136.396 45.235C135.096 43.7512 131.392 39.6603 128.165 36.1436C124.939 32.6268 121.414 28.73 120.333 27.4844L118.366 25.2194L114.256 25.1866C110.401 25.1558 110.145 25.2038 110.145 25.9531ZM152.254 25.9531C152.254 26.5625 152.522 26.7523 153.381 26.7523C154.001 26.7523 154.858 27.0073 155.286 27.319C156.021 27.8541 156.072 28.5439 156.19 39.6075C156.338 53.4226 156.216 54.197 153.843 54.5751C152.648 54.7657 152.254 55.0139 152.254 55.5765C152.254 56.2743 152.659 56.3246 158.27 56.3246C164.018 56.3246 164.286 56.2891 164.286 55.5254C164.286 54.9567 164.018 54.7261 163.36 54.7261C162.85 54.7261 162.084 54.4712 161.655 54.1595C160.918 53.6224 160.871 52.9315 160.761 40.9879C160.648 28.7529 160.668 28.3593 161.462 27.5676C161.912 27.1192 162.732 26.7523 163.283 26.7523C164.018 26.7523 164.286 26.5393 164.286 25.9531C164.286 25.1894 164.018 25.1538 158.27 25.1538C152.522 25.1538 152.254 25.1894 152.254 25.9531ZM194.248 25.9531C194.378 26.4482 194.795 26.7523 195.344 26.7523C195.831 26.7523 196.624 27.1707 197.107 27.6827C197.597 28.2022 200.339 34.7716 203.32 42.5687L208.657 56.5244L210.056 56.644L211.455 56.7634L215.204 46.8531C217.266 41.4026 219.17 36.5116 219.434 35.9841C219.888 35.0809 219.989 35.2184 221.194 38.3819C221.897 40.2281 223.769 45.1104 225.354 49.2313L228.234 56.7242H229.504C230.202 56.7242 230.865 56.4854 230.978 56.1932C231.09 55.9015 232.933 51.1806 235.073 45.7029C237.213 40.2257 239.583 34.1574 240.34 32.2184C242.064 27.8029 242.41 27.2579 243.785 26.7803C244.396 26.5681 244.896 26.1154 244.896 25.774C244.896 25.2482 244.165 25.1538 240.083 25.1538C235.538 25.1538 235.271 25.1982 235.271 25.9531C235.271 26.5322 235.538 26.7523 236.24 26.7523C237.799 26.7523 238.479 27.1743 238.479 28.1426C238.479 28.9507 230.84 49.6832 230.37 50.152C230.08 50.4401 223.183 31.181 222.933 29.3891C222.691 27.6483 223.435 26.7523 225.121 26.7523C225.779 26.7523 226.047 26.5217 226.047 25.9531C226.047 25.1882 225.779 25.1538 219.83 25.1538C213.882 25.1538 213.614 25.1882 213.614 25.9531C213.614 26.4086 213.882 26.7523 214.236 26.7523C215.488 26.7523 217.148 27.9576 217.574 29.1772C218.187 30.9272 217.718 32.7015 214.112 42.2965L211.049 50.4478L210.39 48.8903C210.027 48.0339 208.138 42.9803 206.193 37.6605C202.372 27.2095 202.316 26.7523 204.84 26.7523C205.727 26.7523 205.994 26.5673 205.994 25.9531C205.994 25.1894 205.727 25.1538 200.016 25.1538C194.236 25.1538 194.045 25.1802 194.248 25.9531ZM275.467 26.2238C275.467 26.2238 275.467 26.7694 275.534 26.9212C275.601 27.073 276.032 27.13 276.032 27.13C276.133 27.157 276.232 27.1827 276.329 27.2076L276.454 27.2394L276.6 27.276L276.795 27.3245C278.007 27.6246 278.859 27.8354 279.199 28.6312C279.429 29.1687 279.443 31.0378 279.446 41.0578C279.449 51.6235 279.447 52.9183 279.164 53.6163C278.813 54.4823 278.142 54.942 276.594 55.3766C276.594 55.3766 275.909 55.5672 275.725 55.7376C275.541 55.908 275.506 56.2885 275.506 56.2885C275.506 56.2885 275.491 56.6418 275.649 56.8115C275.807 56.981 276.228 56.9001 276.228 56.9001L280.242 56.9108L286.898 56.9645C286.898 56.9645 287.17 57.0005 287.311 56.8205C287.452 56.6404 287.417 56.2875 287.417 56.2875C287.417 56.2875 287.417 55.9102 287.241 55.7402C287.066 55.5702 286.386 55.4108 286.386 55.4108C284.882 55.0408 284.111 54.5587 283.77 53.7758C283.516 53.194 283.489 51.6232 283.451 48.3518V43.5554C283.479 43.5709 283.506 43.5868 283.533 43.6029C283.554 43.6157 283.575 43.6286 283.595 43.6417L283.63 43.6636C283.686 43.6996 283.741 43.737 283.797 43.7753C283.838 43.8037 283.88 43.8326 283.922 43.8621L283.932 43.8694L283.934 43.8707L283.935 43.8712C284.702 44.4081 285.663 45.0804 289.252 45.1843C293.601 45.3101 296.216 43.3753 297.772 41.1281C299.328 38.8808 299.931 35.3502 298.79 31.5892C297.649 27.8282 294.3 25.5522 289.591 25.3169C287.137 25.1943 283.566 25.3154 281.571 25.4059L281.57 25.4059C281.366 25.4152 281.18 25.4236 281.012 25.431C279.199 25.5101 277.026 25.6834 275.943 25.7864L275.94 25.7867C275.646 25.8147 275.617 25.8175 275.534 25.9221C275.452 26.0271 275.467 26.2238 275.467 26.2238ZM293.138 40.9567C294.887 39.3124 294.916 36.7404 294.916 35.0972C294.744 32.5208 293.706 27.5659 287.825 27.5659C286.45 27.4952 283.637 27.7325 283.56 29.6397C283.474 29.9766 283.436 32.3333 283.458 35.9501L283.493 41.7228L284.091 42.0381L284.124 42.0552C284.448 42.2266 284.87 42.4492 285.607 42.5935C287.945 43.0513 291.388 42.6011 293.138 40.9567ZM256.344 25.6523C256.513 25.5884 256.659 25.5328 256.775 25.4885L256.947 25.4231L257.067 25.3771C257.067 25.3771 257.718 25.1096 257.928 25.3771C257.993 25.4595 258.229 26.0684 258.813 27.5774L258.842 27.6511C258.949 27.9285 259.068 28.2355 259.2 28.574C260.072 30.8201 261.324 34.0441 261.983 35.7385L262.717 37.6241L264.111 41.2106L264.88 43.1896C265.814 45.5933 267.014 48.6768 267.545 50.042C268.076 51.4071 268.755 52.8267 268.945 53.0856C269.037 53.2106 269.131 53.366 269.234 53.5359L269.235 53.5378L269.237 53.542L269.238 53.5433L269.238 53.544C269.649 54.2238 270.199 55.1362 271.305 55.3146C271.305 55.3146 272.17 55.4578 272.299 55.5936C272.427 55.7292 272.456 55.9757 272.456 55.9757V56.4388C272.456 56.4388 272.441 56.5573 272.37 56.6578C272.299 56.7584 272.037 56.7305 272.037 56.7305L265.363 56.731L260.615 56.7651C260.615 56.7651 260.449 56.7853 260.351 56.7045C260.253 56.6236 260.203 56.4192 260.203 56.4192V56.0704C260.203 56.0704 260.162 55.808 260.351 55.5799C260.541 55.3518 261.304 55.3253 261.304 55.3253C262.741 55.2006 263.311 53.9761 263.605 53.3457C263.627 53.2986 263.647 53.2549 263.666 53.2152C263.979 52.5637 263.866 52.1391 262.452 48.6558C261.519 46.3569 261.201 45.7112 260.974 45.6539C260.815 45.6136 258.331 45.5988 255.454 45.6208L250.224 45.6607L249.911 46.5204C249.006 49.0072 248.203 51.4777 248.082 52.1456C247.835 53.5045 248.179 55.0161 250.178 55.2789C250.178 55.2789 250.919 55.3808 251.116 55.53C251.314 55.6791 251.383 56.0613 251.383 56.0613V56.4135C251.383 56.4135 251.346 56.5811 251.21 56.6939C251.074 56.8067 250.721 56.7656 250.721 56.7656H245.728L240.899 56.8206C240.899 56.8206 240.692 56.8158 240.54 56.735C240.388 56.6542 240.363 56.492 240.363 56.492V56.1573C240.363 56.1573 240.337 55.9401 240.606 55.6744C240.875 55.4088 241.601 55.3376 241.601 55.3376C242.921 55.125 243.669 53.7198 244.099 52.9111C244.131 52.8514 244.161 52.795 244.19 52.7425C244.36 52.4276 245.129 50.59 245.899 48.6592C246.669 46.7283 247.533 44.5682 247.819 43.8589C248.792 41.4472 249.716 39.1367 251.116 35.6198C251.884 33.6889 253.021 30.8389 253.643 29.2863L254.774 26.4634L256.344 25.6523ZM255.932 32.5141C256.175 33.1246 256.545 34.0435 256.756 34.5557C256.967 35.0679 257.557 36.5187 258.068 37.7797C258.578 39.0406 259.205 40.5751 259.461 41.1898C259.717 41.8044 259.927 42.3364 259.927 42.3719C259.927 42.4075 258.005 42.4366 255.655 42.4366C252.958 42.4366 251.383 42.3849 251.383 42.2962C251.383 42.219 251.474 41.9128 251.584 41.6156C251.76 41.1431 252.636 38.6345 254.572 33.0635C254.871 32.2033 255.148 31.4446 255.188 31.3775C255.324 31.1481 255.492 31.4037 255.932 32.5141ZM28.8194 34.6335C30.1159 36.9264 27.2163 37.637 25.8556 37.7678C23.7937 37.9691 23.3668 36.7754 23.7696 35.2757C23.9017 34.7388 24.1951 34.2557 24.6098 33.892C25.0246 33.5283 25.5407 33.3016 26.0881 33.2426C26.6275 33.1929 27.1699 33.2971 27.6531 33.5431C28.1362 33.7891 28.5405 34.1671 28.8194 34.6335ZM46.6588 40.8618C41.5035 38.7603 36.1109 36.5622 36.9139 30.3926C38.635 32.2388 41.3369 32.6259 44.2756 33.047C46.9413 33.429 49.8017 33.8389 52.3018 35.3909C58.2013 39.0506 57.3396 46.1606 55.3357 48.7776C55.5164 44.4723 51.1788 42.7042 46.6588 40.8618ZM48.6176 26.0265C48.5371 25.9517 48.455 25.8777 48.3734 25.804L48.3729 25.8036L48.3154 25.7516C48.2823 25.7218 48.2494 25.692 48.2168 25.6621L48.2695 25.7106L48.3366 25.7728L48.3378 25.7739L48.4031 25.8344C48.4749 25.9008 48.5466 25.9659 48.6176 26.0265ZM25.4972 19.6267C24.6436 18.6364 23.319 18.1169 22.0205 17.9277C21.9719 18.2526 21.9411 18.5798 21.9283 18.9081C21.8702 21.6116 22.826 24.5808 24.6756 26.6442C25.2673 27.3112 25.9809 27.8579 26.7777 28.2546C27.2386 28.48 28.461 29.0397 28.9138 28.5364C28.9483 28.4903 28.97 28.4359 28.9767 28.3785C28.9834 28.3212 28.9748 28.2632 28.9519 28.2103C28.8769 27.9948 28.7319 27.7993 28.588 27.6052C28.4859 27.4675 28.3843 27.3305 28.3087 27.1877C28.2321 27.0436 28.1502 26.9032 28.0683 26.7629C27.9146 26.4993 27.7611 26.236 27.6434 25.9496C27.3329 25.2001 27.1712 24.403 27.01 23.6083C26.9777 23.4491 26.9454 23.29 26.912 23.1314C26.6655 21.9055 26.3509 20.6171 25.4972 19.6267ZM43.7369 41.1934C42.4127 44.9057 44.5486 48.0413 46.6718 51.1583C49.0468 54.645 51.406 58.1085 48.889 62.3302C53.7805 60.3011 56.103 54.1714 54.073 49.3079C52.7939 46.2318 49.711 44.5641 46.8494 43.0162C45.7392 42.4156 44.6623 41.8331 43.7369 41.1934ZM29.395 50.0601C28.5086 50.4234 27.6727 50.9004 26.9082 51.4792C28.6465 50.846 30.4712 50.4842 32.3187 50.4063C32.6502 50.3866 32.9837 50.3712 33.3202 50.3557L33.3308 50.3551C33.9184 50.3279 34.5149 50.3004 35.1242 50.2493C36.1227 50.1813 37.1075 49.9781 38.0519 49.6454C39.0415 49.2976 39.9421 48.7338 40.689 47.9947C41.4435 47.2318 41.9728 46.2737 42.218 45.2268C42.4337 44.2379 42.4034 43.2107 42.1297 42.2363C41.856 41.262 41.3474 40.3704 40.6489 39.6406C40.986 40.4993 41.1933 41.4037 41.2641 42.324C41.3252 43.1807 41.2092 44.0408 40.9234 44.8503C40.6445 45.6176 40.1885 46.3074 39.5929 46.8634C38.9775 47.4247 38.2651 47.8682 37.4908 48.1719C36.4148 48.6072 35.1982 48.7855 33.9309 48.9711H33.9304C33.3521 49.0557 32.7632 49.142 32.1724 49.2549C31.2223 49.4297 30.2918 49.6995 29.395 50.0601ZM44.6879 65.441L44.6873 65.4415L44.6791 65.4481L44.6776 65.4494C44.454 65.6301 44.2267 65.8137 43.982 65.9786C43.6695 66.1855 43.3419 66.3685 43.0021 66.5262C42.2947 66.8729 41.5168 67.05 40.7297 67.0435C38.5976 67.0032 37.0907 65.4089 36.2089 63.6072C35.9779 63.1353 35.7744 62.6487 35.5708 62.1622L35.5704 62.1613C35.2445 61.3821 34.9186 60.6029 34.4796 59.8831C33.4596 58.2103 31.7142 56.8636 29.6702 57.1132C28.8366 57.2179 28.0551 57.5943 27.5922 58.321C26.3738 60.2193 28.1232 62.8785 30.3536 62.5021C30.5433 62.4731 30.7289 62.4218 30.9066 62.3491C31.0838 62.2733 31.2491 62.1723 31.3976 62.0492C31.7091 61.7886 31.944 61.4475 32.0769 61.0628C32.2234 60.6616 32.256 60.2274 32.1711 59.8087C32.0796 59.371 31.8223 58.9863 31.4537 58.7357C31.8823 58.9374 32.2164 59.2982 32.3855 59.7422C32.561 60.1992 32.6061 60.6962 32.5158 61.1776C32.4282 61.679 32.2081 62.1476 31.8785 62.5343C31.7034 62.7332 31.501 62.9061 31.2773 63.0477C31.0557 63.1876 30.8182 63.3004 30.57 63.3838C30.0667 63.5566 29.5308 63.6124 29.0029 63.5469C28.2617 63.4408 27.5626 63.1362 26.979 62.6652C26.8752 62.5827 26.7754 62.4964 26.6786 62.4072C26.2754 62.0591 25.9099 61.669 25.5881 61.2432C25.4469 61.0871 25.3034 60.9332 25.1535 60.785C24.439 60.032 23.5961 59.4136 22.6646 58.9592C22.0223 58.6758 21.35 58.4664 20.6607 58.3351C20.3141 58.2626 19.9634 58.2103 19.6127 58.166C19.5959 58.1643 19.5721 58.1608 19.543 58.1562C19.5239 58.1531 19.5025 58.1495 19.4792 58.1455L19.4098 58.1334C19.117 58.0823 18.6406 57.9992 18.5566 58.0775C19.6405 57.0751 20.8221 56.1849 22.0835 55.4203C23.3786 54.6482 24.7692 54.0505 26.2195 53.6428C27.7232 53.2176 29.2959 53.0964 30.8465 53.2864C31.6447 53.3828 32.4265 53.5859 33.171 53.8903C33.9512 54.2034 34.6713 54.6502 35.2992 55.2109C35.9206 55.799 36.4228 56.5024 36.778 57.2823C37.0988 58.0125 37.338 58.776 37.4914 59.5591C37.5737 59.9804 37.6356 60.4435 37.6998 60.9227C37.992 63.1064 38.3293 65.6261 40.8319 66.0652C40.991 66.0961 41.1515 66.119 41.3129 66.1336L41.8118 66.1457C42.1549 66.1212 42.4957 66.072 42.8318 65.9987C43.5281 65.8342 44.2066 65.6016 44.8577 65.3043C44.8012 65.3494 44.7447 65.3951 44.6879 65.441ZM25.6965 61.3639C25.7757 61.4554 25.856 61.5455 25.9376 61.6348C25.902 61.5948 25.8664 61.5549 25.8309 61.5148L25.8296 61.5134L25.829 61.5126C25.7849 61.463 25.7408 61.4134 25.6965 61.3639Z" fill="black"/>
</svg>
