<svg width="301" height="80" viewBox="0 0 301 80" fill="none" xmlns="http://www.w3.org/2000/svg">
<path fill-rule="evenodd" clip-rule="evenodd" d="M24.3844 29.7119C24.2733 30.1409 24.0792 30.5438 23.8133 30.8976C23.3183 31.5429 22.6632 32.0462 21.9136 32.357C21.2393 32.6488 20.5254 32.8375 19.7955 32.9166C19.6454 32.9357 19.4899 32.9476 19.3393 32.959L19.3392 32.959L19.3145 32.9609C18.8522 32.9786 18.4077 33.1444 18.046 33.4342C17.6844 33.724 17.4245 34.1225 17.3046 34.5713C17.2497 34.7947 17.2089 35.0212 17.1824 35.2497C17.1404 35.5943 17.1188 35.947 17.0954 36.3286C17.0786 36.6025 17.0609 36.8912 17.0341 37.2024C16.8771 38.4698 16.5121 39.7024 15.954 40.85C15.8399 41.0912 15.7237 41.325 15.6095 41.5548L15.6094 41.5548C14.9975 42.7858 14.4446 43.8979 14.6034 45.3874C14.7276 46.5348 15.3127 47.3038 16.0903 48.0969C16.4595 48.4763 16.9492 48.8005 17.4575 49.137C18.88 50.0788 20.4484 51.1172 19.9317 53.7334C19.5089 55.8531 16.0101 58.0775 11.0925 58.8545C11.5696 58.7819 10.5189 56.981 10.4022 56.781L10.3952 56.769C10.2596 56.5557 10.1207 56.3456 9.9821 56.1358L9.98204 56.1357C9.5817 55.5299 9.1833 54.9271 8.87223 54.2588C8.05064 52.5135 7.66989 50.4944 8.00655 48.582C8.31152 46.8512 9.45059 45.4685 10.5473 44.1373L10.5474 44.1372C10.7262 43.9202 10.9038 43.7046 11.0765 43.4891C12.5434 41.6592 14.0824 39.2617 14.423 36.8863C14.4517 36.68 14.4774 36.455 14.5044 36.2182C14.5527 35.7945 14.6053 35.333 14.6875 34.8733C14.8098 34.0794 15.0574 33.3101 15.421 32.5945C15.6691 32.1252 15.9958 31.7024 16.3868 31.3444C16.5907 31.1544 16.7252 30.9012 16.7688 30.6252C16.8124 30.3493 16.7626 30.0667 16.6273 29.8226L8.78807 15.6589L20.0479 29.6173C20.1762 29.779 20.3383 29.9104 20.5227 30.0022C20.7072 30.0939 20.9095 30.1438 21.1152 30.1482C21.321 30.1526 21.5252 30.1115 21.7134 30.0278C21.9016 29.944 22.0692 29.8197 22.2041 29.6636C22.3468 29.4965 22.4277 29.2851 22.4331 29.065C22.4386 28.845 22.3683 28.6298 22.2342 28.4557C21.7107 27.7837 21.1659 27.1025 20.6236 26.4245L20.6234 26.4242L20.6227 26.4233C20.4035 26.1492 20.1846 25.8756 19.9678 25.6033L17.1343 22.0805L11.4472 15.0469L0.0390625 1L12.1767 14.4169L18.2304 21.1404L21.2503 24.5102C21.5277 24.8241 21.8052 25.1351 22.0827 25.4462C22.8072 26.2584 23.5316 27.0707 24.2561 27.9324L24.4204 28.1337L24.4565 28.4457C24.5054 28.8688 24.481 29.2971 24.3844 29.7119ZM53.3251 34.446L53.3371 34.4642C53.3351 32.9624 52.4093 30.4844 50.5356 28.101L50.4916 28.0426C49.9145 27.326 49.2855 26.6532 48.6099 26.0296C48.4837 25.9068 48.3474 25.786 48.2091 25.6652C47.3435 24.9068 46.3973 24.2466 45.3876 23.6965L45.3155 23.6602C42.1433 21.925 38.0153 21.0312 32.9254 22.0377C32.2417 21.204 31.5055 20.4153 30.7211 19.6764C29.5199 18.5265 28.1059 17.6245 26.559 17.0212C25.0261 16.4576 23.3845 16.2564 21.7617 16.4334C23.326 16.5749 24.8497 17.012 26.2525 17.7218C27.6072 18.4509 28.8272 19.4082 29.8595 20.5521C30.9057 21.7197 31.889 22.9427 32.8052 24.2158C32.8816 24.3155 32.9579 24.4154 33.0344 24.5154L33.0346 24.5157L33.0348 24.516L33.035 24.5162L33.0352 24.5165L33.0352 24.5165C33.9317 25.6895 34.8443 26.8835 35.9814 27.946C36.6073 28.5376 37.3056 29.047 38.0594 29.4618C38.2598 29.5644 38.4622 29.6611 38.6606 29.7456C38.8589 29.8302 39.0453 29.9087 39.2457 29.9811C39.6325 30.1321 40.0332 30.2569 40.434 30.3717C42.0371 30.8306 43.6783 30.9957 45.2814 31.0843C45.5047 31.0961 45.7273 31.1071 45.9492 31.1181L45.9494 31.1181L45.9496 31.1181L45.9498 31.1181C46.5222 31.1465 47.0893 31.1745 47.648 31.2151C48.4139 31.2608 49.1736 31.3808 49.9164 31.5734C51.0324 31.8657 52.0149 32.5336 52.6998 33.4657C52.9327 33.7761 53.1417 34.1038 53.3251 34.446ZM178.61 24.7646C173.343 26.0917 170.874 30.2219 172.371 35.2012C173.013 37.3348 174.986 39.4872 177.776 41.0969C182.804 43.9978 184.285 45.1726 185.145 46.9426C185.862 48.4192 185.924 48.9128 185.562 50.2512C184.713 53.393 182.496 55.1257 179.325 55.1257C176.088 55.1257 173.815 53.3099 173.307 50.3187C173.104 49.1159 172.853 48.7317 172.271 48.7317C171.577 48.7317 171.505 49.0499 171.505 52.0967V55.461L173.61 56.1763C176.898 57.2929 181.574 57.1594 184.365 55.8694C189.801 53.3562 191.885 48.3676 189.445 43.7064C188.532 41.9628 186.242 40.0167 182.319 37.6501C178.195 35.1625 176.358 33.353 176.088 31.5139C175.674 28.6877 178.216 26.3487 181.69 26.3587C184.411 26.3663 185.579 27.0105 186.544 29.0358C187.148 30.3038 187.58 30.723 188.295 30.7342C189.086 30.7462 189.204 30.5987 189.002 29.8494C188.869 29.3551 188.758 28.1155 188.755 27.0948C188.751 25.7988 188.564 25.1682 188.134 25.004C186.962 24.5556 180.121 24.3837 178.61 24.7646ZM72.8477 25.9531C72.8477 26.5281 73.1152 26.7523 73.8013 26.7523C75.7376 26.7523 75.8415 27.311 76.056 38.901C76.2433 49.0263 76.3127 49.8348 77.122 51.3294C78.2814 53.4702 79.8539 54.8947 82.2722 55.9957C83.9289 56.7498 84.9748 56.9097 88.2879 56.9165C91.882 56.9233 92.5369 56.8074 94.5963 55.7995C95.86 55.1813 97.4341 54.0223 98.0942 53.2243C100.383 50.4577 100.625 49.1206 100.885 37.8268C101.135 26.9514 101.169 26.7747 103.026 26.7583C103.459 26.7547 103.728 26.4454 103.728 25.9531C103.728 25.1982 103.461 25.1538 98.9156 25.1538C94.423 25.1538 94.103 25.2054 94.103 25.9279C94.103 26.5073 94.4279 26.7331 95.3972 26.827C97.5271 27.0329 97.7 27.8514 97.7064 37.7693C97.7132 47.8243 97.3699 49.7588 95.2167 51.7949C93.2147 53.6887 91.6214 54.3266 88.8934 54.3266C84.9752 54.3266 82.1984 52.5027 81.288 49.3312C80.9816 48.2646 80.8689 44.3423 80.9492 37.5422L81.0691 27.3518L82.4727 26.9006C83.2447 26.6524 83.9345 26.1581 84.0059 25.8016C84.1206 25.2289 83.4818 25.1538 78.4916 25.1538C73.1152 25.1538 72.8477 25.1918 72.8477 25.9531ZM110.145 25.9531C110.145 26.5717 110.412 26.7523 111.329 26.7523C113.371 26.7523 114.521 27.5372 114.983 29.2456C115.246 30.2171 115.359 34.8567 115.282 41.4877C115.144 53.3274 114.982 54.102 112.533 54.5899C111.726 54.7509 111.348 55.065 111.348 55.5754C111.348 56.2723 111.74 56.3246 116.963 56.3246C122.093 56.3246 122.577 56.2631 122.577 55.6081C122.577 55.0982 122.063 54.7549 120.793 54.4164C119.216 53.996 118.961 53.7666 118.59 52.4355C118.114 50.7271 118.001 32.7284 118.466 32.7803C118.632 32.7987 120.187 34.4623 121.923 36.4768C123.659 38.4913 128.408 43.7811 132.477 48.2322C138.845 55.1984 140.036 56.3246 141.037 56.3246H142.199L142.314 42.1576C142.396 32.0986 142.564 27.8565 142.893 27.5284C143.148 27.2743 143.96 26.9434 144.698 26.7931C145.48 26.6337 146.038 26.2768 146.038 25.9367C146.038 25.4595 145.038 25.3336 140.524 25.2425C135.215 25.1354 135.01 25.1614 135.01 25.9419C135.01 26.5349 135.272 26.7523 135.99 26.7523C136.529 26.7523 137.476 27.1859 138.095 27.7162L139.221 28.6801L139.347 38.3063C139.419 43.7412 139.318 47.9326 139.117 47.9326C138.922 47.9326 137.697 46.7188 136.396 45.235C135.096 43.7512 131.392 39.6603 128.165 36.1436C124.939 32.6268 121.414 28.7301 120.333 27.4844L118.366 25.2194L114.256 25.1866C110.401 25.1558 110.145 25.2038 110.145 25.9531ZM152.254 25.9531C152.254 26.5625 152.522 26.7523 153.381 26.7523C154.001 26.7523 154.858 27.0073 155.286 27.319C156.021 27.8541 156.072 28.5439 156.19 39.6075C156.338 53.4226 156.216 54.197 153.843 54.575C152.648 54.7657 152.254 55.0139 152.254 55.5765C152.254 56.2743 152.659 56.3246 158.27 56.3246C164.018 56.3246 164.286 56.2891 164.286 55.5254C164.286 54.9567 164.018 54.7261 163.36 54.7261C162.85 54.7261 162.084 54.4712 161.655 54.1595C160.918 53.6224 160.871 52.9315 160.761 40.9879C160.648 28.7529 160.668 28.3593 161.462 27.5676C161.912 27.1192 162.732 26.7523 163.283 26.7523C164.018 26.7523 164.286 26.5393 164.286 25.9531C164.286 25.1894 164.018 25.1538 158.27 25.1538C152.522 25.1538 152.254 25.1894 152.254 25.9531ZM194.248 25.9531C194.378 26.4482 194.795 26.7523 195.344 26.7523C195.831 26.7523 196.624 27.1707 197.107 27.6827C197.597 28.2022 200.339 34.7716 203.32 42.5687L208.657 56.5244L210.056 56.644L211.455 56.7634L215.204 46.8531C217.266 41.4027 219.17 36.5116 219.434 35.9841C219.888 35.0809 219.989 35.2185 221.194 38.3819C221.897 40.2282 223.769 45.1104 225.354 49.2313L228.234 56.7242H229.504C230.202 56.7242 230.865 56.4853 230.978 56.1932C231.09 55.9015 232.933 51.1806 235.073 45.703C237.213 40.2257 239.583 34.1574 240.34 32.2184C242.064 27.8029 242.41 27.2578 243.785 26.7803C244.396 26.5681 244.896 26.1154 244.896 25.7741C244.896 25.2482 244.165 25.1538 240.083 25.1538C235.538 25.1538 235.271 25.1982 235.271 25.9531C235.271 26.5321 235.538 26.7523 236.24 26.7523C237.799 26.7523 238.479 27.1743 238.479 28.1426C238.479 28.9507 230.84 49.6832 230.37 50.152C230.08 50.4401 223.183 31.181 222.933 29.3891C222.691 27.6483 223.435 26.7523 225.121 26.7523C225.779 26.7523 226.047 26.5217 226.047 25.9531C226.047 25.1882 225.779 25.1538 219.83 25.1538C213.882 25.1538 213.614 25.1882 213.614 25.9531C213.614 26.4087 213.882 26.7523 214.236 26.7523C215.488 26.7523 217.148 27.9576 217.574 29.1772C218.187 30.9272 217.718 32.7015 214.112 42.2965L211.049 50.4478L210.39 48.8903C210.027 48.034 208.138 42.9803 206.193 37.6605C202.372 27.2095 202.316 26.7523 204.84 26.7523C205.727 26.7523 205.994 26.5673 205.994 25.9531C205.994 25.1894 205.727 25.1538 200.016 25.1538C194.236 25.1538 194.045 25.1802 194.248 25.9531ZM275.467 26.2238C275.467 26.2238 275.467 26.7694 275.534 26.9212C275.601 27.073 276.032 27.13 276.032 27.13C276.3 27.2019 276.555 27.2649 276.795 27.3245C278.007 27.6246 278.859 27.8355 279.199 28.6312C279.429 29.1687 279.443 31.0378 279.446 41.0578C279.449 51.6235 279.447 52.9182 279.164 53.6163C278.813 54.4823 278.142 54.942 276.594 55.3766C276.594 55.3766 275.909 55.5672 275.725 55.7376C275.541 55.908 275.506 56.2885 275.506 56.2885C275.506 56.2885 275.491 56.6419 275.649 56.8114C275.807 56.981 276.228 56.9001 276.228 56.9001L280.242 56.9108L286.898 56.9645C286.898 56.9645 287.17 57.0005 287.311 56.8205C287.452 56.6405 287.417 56.2876 287.417 56.2876C287.417 56.2876 287.417 55.9102 287.241 55.7402C287.066 55.5702 286.386 55.4108 286.386 55.4108C284.882 55.0408 284.111 54.5587 283.77 53.7758C283.516 53.194 283.489 51.6232 283.451 48.3518V43.5554C283.619 43.6499 283.772 43.7569 283.933 43.87L283.934 43.8703L283.934 43.8705L283.934 43.8707L283.935 43.8712C284.702 44.4081 285.663 45.0804 289.252 45.1843C293.601 45.3101 296.216 43.3753 297.772 41.128C299.328 38.8808 299.931 35.3502 298.79 31.5892C297.649 27.8282 294.3 25.5522 289.591 25.3169C287.137 25.1942 283.566 25.3153 281.571 25.4059L281.57 25.4059L281.327 25.4169L281.012 25.431C279.199 25.5101 277.026 25.6834 275.943 25.7864L275.94 25.7867C275.646 25.8147 275.617 25.8175 275.534 25.9221C275.452 26.0271 275.467 26.2238 275.467 26.2238ZM293.138 40.9568C294.887 39.3125 294.916 36.7404 294.916 35.0972C294.744 32.5207 293.706 27.5658 287.825 27.5658C286.45 27.4952 283.637 27.7325 283.56 29.6397C283.474 29.9766 283.436 32.3333 283.458 35.9502L283.493 41.7229L284.091 42.0381L284.124 42.0552C284.448 42.2267 284.87 42.4492 285.607 42.5935C287.945 43.0513 291.388 42.6011 293.138 40.9568ZM256.344 25.6524C256.78 25.4873 257.067 25.3771 257.067 25.3771C257.067 25.3771 257.718 25.1095 257.928 25.3771C257.993 25.4595 258.229 26.0684 258.813 27.5774L258.825 27.6084L258.957 27.9469L259.2 28.574C260.072 30.8201 261.324 34.0441 261.983 35.7385C262.642 37.4329 263.946 40.7859 264.88 43.1896C265.814 45.5932 267.014 48.6768 267.545 50.042C268.076 51.4071 268.755 52.8267 268.945 53.0856C269.038 53.2123 269.133 53.37 269.238 53.5428L269.238 53.544C269.649 54.2238 270.199 55.1363 271.305 55.3146C271.305 55.3146 272.17 55.4578 272.299 55.5936C272.427 55.7293 272.456 55.9757 272.456 55.9757V56.4388C272.456 56.4388 272.441 56.5573 272.37 56.6579C272.299 56.7584 272.037 56.7305 272.037 56.7305L265.363 56.731L260.615 56.7651C260.615 56.7651 260.449 56.7853 260.351 56.7045C260.253 56.6236 260.203 56.4192 260.203 56.4192V56.0704C260.203 56.0704 260.162 55.808 260.351 55.5799C260.541 55.3518 261.304 55.3253 261.304 55.3253C262.741 55.2006 263.311 53.9761 263.605 53.3457L263.607 53.3422C263.628 53.2965 263.648 53.2539 263.666 53.2152C263.979 52.5637 263.866 52.1391 262.452 48.6559C261.519 46.3569 261.201 45.7112 260.974 45.6539C260.815 45.6137 258.331 45.5988 255.454 45.6208L250.224 45.6607L249.911 46.5204C249.006 49.0072 248.203 51.4777 248.082 52.1456C247.835 53.5045 248.179 55.0161 250.178 55.2789C250.178 55.2789 250.919 55.3808 251.116 55.5299C251.314 55.6791 251.383 56.0613 251.383 56.0613V56.4135C251.383 56.4135 251.346 56.5811 251.21 56.6939C251.074 56.8067 250.721 56.7657 250.721 56.7657H245.728L240.899 56.8206C240.899 56.8206 240.692 56.8158 240.54 56.735C240.388 56.6542 240.363 56.492 240.363 56.492V56.1574C240.363 56.1574 240.337 55.9401 240.606 55.6744C240.875 55.4088 241.601 55.3376 241.601 55.3376C242.921 55.125 243.669 53.7198 244.099 52.9111C244.131 52.8514 244.161 52.795 244.19 52.7425C244.36 52.4275 245.129 50.59 245.899 48.6592C246.669 46.7283 247.533 44.5682 247.819 43.8589C248.792 41.4472 249.716 39.1367 251.116 35.6198C251.884 33.6889 253.021 30.8389 253.643 29.2863L254.774 26.4634L256.344 25.6524ZM255.932 32.5141C256.175 33.1247 256.545 34.0434 256.756 34.5557C256.967 35.068 257.557 36.5188 258.068 37.7797C258.578 39.0407 259.205 40.5752 259.461 41.1897C259.717 41.8044 259.927 42.3363 259.927 42.3719C259.927 42.4076 258.005 42.4367 255.655 42.4367C252.958 42.4367 251.383 42.3849 251.383 42.2962C251.383 42.219 251.474 41.9128 251.584 41.6156C251.76 41.143 252.636 38.6344 254.572 33.0635C254.871 32.2033 255.148 31.4446 255.188 31.3775C255.324 31.1481 255.492 31.4037 255.932 32.5141ZM28.8194 34.6335C30.1159 36.9264 27.2163 37.637 25.8556 37.7678C23.7937 37.9691 23.3668 36.7754 23.7696 35.2757C23.9017 34.7388 24.1951 34.2557 24.6098 33.892C25.0246 33.5283 25.5407 33.3016 26.0881 33.2425C26.6275 33.1929 27.1699 33.297 27.6531 33.5431C28.1362 33.7891 28.5405 34.1671 28.8194 34.6335ZM46.6588 40.8618C41.5036 38.7603 36.1109 36.5622 36.9139 30.3926C38.635 32.2387 41.3369 32.6259 44.2756 33.047C46.9412 33.429 49.8017 33.8389 52.3018 35.3909C58.2013 39.0506 57.3396 46.1606 55.3357 48.7776C55.5164 44.4723 51.1788 42.7042 46.6588 40.8618ZM48.6176 26.0265C48.5371 25.9517 48.4551 25.8777 48.3734 25.804C48.3209 25.7566 48.2685 25.7094 48.2168 25.6621C48.2568 25.6987 48.2967 25.7357 48.3366 25.7728C48.4308 25.8602 48.5247 25.9473 48.6176 26.0265ZM25.4972 19.6267C24.6436 18.6363 23.319 18.117 22.0205 17.9277C21.9719 18.2526 21.9411 18.5798 21.9283 18.9081C21.8702 21.6116 22.826 24.5808 24.6756 26.6442C25.2673 27.3112 25.9809 27.8579 26.7777 28.2546C27.2386 28.4801 28.461 29.0397 28.9138 28.5364C28.9483 28.4903 28.97 28.4358 28.9767 28.3785C28.9834 28.3212 28.9748 28.2632 28.9519 28.2103C28.8769 27.9948 28.7319 27.7992 28.588 27.6051L28.5879 27.6051C28.4859 27.4675 28.3843 27.3305 28.3087 27.1877C28.2321 27.0436 28.1502 26.9032 28.0683 26.7628C27.9146 26.4992 27.7611 26.236 27.6434 25.9497C27.3329 25.2001 27.1712 24.403 27.01 23.6084L27.01 23.6084L27.01 23.6084L27.01 23.6083L27.01 23.6083L27.01 23.6083C26.9777 23.4491 26.9454 23.29 26.912 23.1314C26.6655 21.9055 26.3509 20.6171 25.4972 19.6267ZM43.7369 41.1934C42.4127 44.9057 44.5486 48.0412 46.6718 51.1583C49.0468 54.645 51.406 58.1085 48.889 62.3302C53.7805 60.3011 56.103 54.1714 54.073 49.3079C52.7939 46.2317 49.711 44.5641 46.8494 43.0162L46.8493 43.0162L46.8493 43.0161C45.7391 42.4156 44.6622 41.8331 43.7369 41.1934ZM29.395 50.0601C28.5086 50.4234 27.6727 50.9004 26.9082 51.4793C28.6465 50.846 30.4712 50.4842 32.3187 50.4063C32.6536 50.3864 32.9906 50.3708 33.3305 50.3551L33.3307 50.3551L33.331 50.3551L33.3312 50.3551L33.3314 50.3551C33.9188 50.3279 34.5151 50.3003 35.1242 50.2493C36.1227 50.1813 37.1075 49.9781 38.0519 49.6454C39.0415 49.2976 39.9421 48.7338 40.689 47.9947C41.4435 47.2318 41.9728 46.2737 42.218 45.2268C42.4337 44.2378 42.4034 43.2107 42.1297 42.2364C41.856 41.262 41.3474 40.3704 40.6489 39.6406C40.986 40.4993 41.1933 41.4037 41.2641 42.324C41.3252 43.1807 41.2092 44.0408 40.9234 44.8504C40.6445 45.6176 40.1885 46.3074 39.5929 46.8634C38.9775 47.4247 38.2651 47.8682 37.4908 48.1719C36.4147 48.6073 35.1977 48.7855 33.9302 48.9711L33.9299 48.9711C33.3518 49.0558 32.7631 49.142 32.1724 49.2549C31.2223 49.4297 30.2918 49.6995 29.395 50.0601ZM44.7566 65.3854L44.679 65.4481C44.455 65.6292 44.2272 65.8133 43.982 65.9786C43.6695 66.1855 43.3419 66.3685 43.0021 66.5262C42.2947 66.8729 41.5168 67.05 40.7297 67.0435C38.5976 67.0032 37.0907 65.4089 36.2089 63.6073C35.9777 63.135 35.7741 62.6482 35.5705 62.1613C35.2446 61.3822 34.9186 60.6029 34.4796 59.8831C33.4596 58.2103 31.7142 56.8636 29.6702 57.1132C28.8366 57.2179 28.0551 57.5943 27.5922 58.321C26.3738 60.2193 28.1232 62.8785 30.3536 62.5021C30.5433 62.4731 30.7289 62.4217 30.9066 62.3491C31.0838 62.2733 31.2491 62.1723 31.3976 62.0492C31.7091 61.7886 31.944 61.4475 32.0769 61.0628C32.2234 60.6616 32.256 60.2274 32.1711 59.8087C32.0796 59.3711 31.8223 58.9863 31.4537 58.7357C31.8823 58.9374 32.2164 59.2982 32.3855 59.7422C32.561 60.1992 32.6061 60.6962 32.5158 61.1775C32.4282 61.679 32.2081 62.1476 31.8785 62.5343C31.7034 62.7332 31.501 62.9061 31.2773 63.0476C31.0557 63.1875 30.8182 63.3004 30.57 63.3838C30.0667 63.5566 29.5308 63.6124 29.0029 63.5469C28.2617 63.4408 27.5626 63.1362 26.979 62.6652C26.8754 62.5828 26.7757 62.4967 26.6791 62.4076C26.2758 62.0595 25.9101 61.6694 25.5883 61.2435C25.4471 61.0873 25.3035 60.9332 25.1535 60.785C24.439 60.032 23.5961 59.4136 22.6646 58.9592C22.0223 58.6758 21.35 58.4664 20.6607 58.3351C20.3141 58.2627 19.9634 58.2103 19.6127 58.166C19.5747 58.1622 19.5015 58.1495 19.4105 58.1336L19.4099 58.1335L19.4097 58.1334C19.1169 58.0823 18.6406 57.9992 18.5566 58.0775C19.6405 57.0751 20.8221 56.1849 22.0835 55.4203C23.3786 54.6482 24.7692 54.0505 26.2195 53.6427C27.7232 53.2176 29.2959 53.0965 30.8465 53.2864C31.6447 53.3828 32.4265 53.5859 33.171 53.8903C33.9512 54.2034 34.6713 54.6502 35.2992 55.2109C35.9206 55.799 36.4228 56.5024 36.778 57.2823C37.0988 58.0124 37.338 58.776 37.4914 59.5591C37.5736 59.9803 37.6356 60.4433 37.6997 60.9224L37.6997 60.9225L37.6998 60.9227L37.6998 60.9227C37.992 63.1064 38.3293 65.6261 40.8319 66.0652C40.991 66.0961 41.1515 66.119 41.3129 66.1336L41.8118 66.1457C42.1549 66.1211 42.4957 66.072 42.8318 65.9987C43.5281 65.8342 44.2066 65.6016 44.8577 65.3042L44.8205 65.3341L44.7566 65.3854ZM25.6988 61.3665C25.7767 61.4565 25.8558 61.5454 25.9361 61.6332C25.901 61.5938 25.8659 61.5543 25.8308 61.5148L25.8308 61.5148L25.8308 61.5147L25.8307 61.5147C25.7868 61.4653 25.7428 61.4158 25.6988 61.3665Z" fill="#FF007A"/>
</svg>
