<svg width="1440" height="891" viewBox="0 0 1440 891" fill="none" xmlns="http://www.w3.org/2000/svg">
  <g opacity="0.4" filter="url(#filter0_d)">
    <path
      d="M37.9393 310.285C37.3535 309.699 37.3535 308.749 37.9393 308.163L47.4853 298.617C48.071 298.032 49.0208 298.032 49.6066 298.617C50.1924 299.203 50.1924 300.153 49.6066 300.739L41.1213 309.224L49.6066 317.709C50.1924 318.295 50.1924 319.245 49.6066 319.831C49.0208 320.416 48.071 320.416 47.4853 319.831L37.9393 310.285ZM729.439 23.9394C730.025 23.3536 730.975 23.3536 731.561 23.9394L741.107 33.4853C741.692 34.0711 741.692 35.0208 741.107 35.6066C740.521 36.1924 739.571 36.1924 738.985 35.6066L730.5 27.1214L722.015 35.6066C721.429 36.1924 720.479 36.1924 719.893 35.6066C719.308 35.0208 719.308 34.0711 719.893 33.4853L729.439 23.9394ZM607.439 277.578C608.025 276.993 608.975 276.993 609.561 277.578L619.107 287.124C619.692 287.71 619.692 288.66 619.107 289.246C618.521 289.831 617.571 289.831 616.985 289.246L608.5 280.76L600.015 289.246C599.429 289.831 598.479 289.831 597.893 289.246C597.308 288.66 597.308 287.71 597.893 287.124L607.439 277.578ZM403.561 892.561C402.975 893.146 402.025 893.146 401.439 892.561L391.893 883.015C391.308 882.429 391.308 881.479 391.893 880.893C392.479 880.308 393.429 880.308 394.015 880.893L402.5 889.379L410.985 880.893C411.571 880.308 412.521 880.308 413.107 880.893C413.692 881.479 413.692 882.429 413.107 883.015L403.561 892.561ZM56.5607 912.561C55.9749 913.146 55.0251 913.146 54.4393 912.561L44.8934 903.015C44.3076 902.429 44.3076 901.479 44.8934 900.893C45.4792 900.308 46.4289 900.308 47.0147 900.893L55.5 909.379L63.9853 900.893C64.5711 900.308 65.5208 900.308 66.1066 900.893C66.6924 901.479 66.6924 902.429 66.1066 903.015L56.5607 912.561ZM1513.06 194.282C1513.65 194.868 1513.65 195.817 1513.06 196.403L1503.51 205.949C1502.93 206.535 1501.98 206.535 1501.39 205.949C1500.81 205.363 1500.81 204.413 1501.39 203.828L1509.88 195.342L1501.39 186.857C1500.81 186.271 1500.81 185.322 1501.39 184.736C1501.98 184.15 1502.93 184.15 1503.51 184.736L1513.06 194.282ZM1222.94 71.9394C1223.52 71.3536 1224.47 71.3536 1225.06 71.9394L1234.61 81.4853C1235.19 82.0711 1235.19 83.0208 1234.61 83.6066C1234.02 84.1924 1233.07 84.1924 1232.49 83.6066L1224 75.1213L1215.51 83.6066C1214.93 84.1924 1213.98 84.1924 1213.39 83.6066C1212.81 83.0208 1212.81 82.0711 1213.39 81.4853L1222.94 71.9394ZM193.939 -46.5607C194.525 -47.1465 195.475 -47.1465 196.061 -46.5607L205.607 -37.0147C206.192 -36.4289 206.192 -35.4792 205.607 -34.8934C205.021 -34.3076 204.071 -34.3076 203.485 -34.8934L195 -43.3787L186.515 -34.8934C185.929 -34.3076 184.979 -34.3076 184.393 -34.8934C183.808 -35.4792 183.808 -36.4289 184.393 -37.0147L193.939 -46.5607ZM910.939 194.282C911.525 193.696 912.475 193.696 913.061 194.282L922.607 203.828C923.192 204.413 923.192 205.363 922.607 205.949C922.021 206.535 921.071 206.535 920.485 205.949L912 197.464L903.515 205.949C902.929 206.535 901.979 206.535 901.393 205.949C900.808 205.363 900.808 204.413 901.393 203.828L910.939 194.282ZM890.75 433.656L890.75 435.156L890.75 435.156L890.75 433.656ZM1225.06 432.595C1225.65 433.181 1225.65 434.131 1225.06 434.716L1215.51 444.262C1214.93 444.848 1213.98 444.848 1213.39 444.262C1212.81 443.676 1212.81 442.727 1213.39 442.141L1221.88 433.656L1213.39 425.17C1212.81 424.585 1212.81 423.635 1213.39 423.049C1213.98 422.463 1214.93 422.463 1215.51 423.049L1225.06 432.595ZM519 617.026L519 618.526L519 618.526L519 617.026ZM699.061 615.966C699.646 616.551 699.646 617.501 699.061 618.087L689.515 627.633C688.929 628.219 687.979 628.219 687.393 627.633C686.808 627.047 686.808 626.097 687.393 625.512L695.879 617.026L687.393 608.541C686.808 607.955 686.808 607.005 687.393 606.42C687.979 605.834 688.929 605.834 689.515 606.42L699.061 615.966ZM780.439 818.56C779.854 817.975 779.854 817.025 780.439 816.439L789.985 806.893C790.571 806.307 791.521 806.307 792.107 806.893C792.692 807.479 792.692 808.429 792.107 809.015L783.621 817.5L792.107 825.985C792.692 826.571 792.692 827.521 792.107 828.106C791.521 828.692 790.571 828.692 789.985 828.106L780.439 818.56ZM1224 209.224L1225.5 209.224L1224 209.224ZM1260.5 652.166L1260.5 653.666L1260.5 652.166ZM678.952 383.608L669.5 383.608L669.5 380.608L678.952 380.608L678.952 383.608ZM730.5 435.156L727.185 435.156L727.185 432.156L730.5 432.156L730.5 435.156ZM402.5 618.526L295 618.526L295 615.526L402.5 615.526L402.5 618.526ZM95 310.724L39 310.724L39 307.724L95 307.724L95 310.724ZM401 617.026L401 411.832L404 411.832L404 617.026L401 617.026ZM506 306.832L506 284.17L509 284.17L509 306.832L506 306.832ZM582.662 207.508L630.5 207.508L630.5 210.508L582.662 210.508L582.662 207.508ZM729 109.008L729 25L732 25L732 109.008L729 109.008ZM607 321.108L607 278.639L610 278.639L610 321.108L607 321.108ZM404 617.026L404 891.5L401 891.5L401 617.026L404 617.026ZM54 911.5L54 591.47L57 591.47L57 911.5L54 911.5ZM1052.5 533.656L1052.5 552.166L1049.5 552.166L1049.5 533.656L1052.5 533.656ZM1151 650.666L1260.5 650.666L1260.5 653.666L1151 653.666L1151 650.666ZM1359 552.166L1359 295.342L1362 295.342L1362 552.166L1359 552.166ZM1460.5 193.842L1512 193.842L1512 196.842L1460.5 196.842L1460.5 193.842ZM1012 307.724L1124 307.724L1124 310.724L1012 310.724L1012 307.724ZM1222.5 209.224L1222.5 73L1225.5 73L1225.5 209.224L1222.5 209.224ZM193.5 517.026L193.5 459.546L196.5 459.546L196.5 517.026L193.5 517.026ZM193.5 459.546L193.5 409.224L196.5 409.224L196.5 459.546L193.5 459.546ZM193.5 459.546L193.5 -45.5L196.5 -45.5L196.5 459.546L193.5 459.546ZM910.5 523.97L910.5 409.224L913.5 409.224L913.5 523.97L910.5 523.97ZM910.5 523.97L910.5 195.342L913.5 195.342L913.5 523.97L910.5 523.97ZM730.5 432.156L890.75 432.156L890.75 435.156L730.5 435.156L730.5 432.156ZM890.75 432.156L951 432.156L951 435.156L890.75 435.156L890.75 432.156ZM890.75 432.156L1224 432.156L1224 435.156L890.75 435.156L890.75 432.156ZM543.815 618.526L519 618.526L519 615.526L543.815 615.526L543.815 618.526ZM519 618.526L402.5 618.526L402.5 615.526L519 615.526L519 618.526ZM519 615.526L698 615.526L698 618.526L519 618.526L519 615.526ZM910.5 717.5L910.5 523.97L913.5 523.97L913.5 717.5L910.5 717.5ZM812 819L781.5 819L781.5 816L812 816L812 819ZM1124 307.724C1178.4 307.724 1222.5 263.624 1222.5 209.224L1225.5 209.224C1225.5 265.281 1180.06 310.724 1124 310.724L1124 307.724ZM1359 295.342C1359 239.285 1404.44 193.842 1460.5 193.842L1460.5 196.842C1406.1 196.842 1362 240.942 1362 295.342L1359 295.342ZM1260.5 650.666C1314.9 650.666 1359 606.566 1359 552.166L1362 552.166C1362 608.223 1316.56 653.666 1260.5 653.666L1260.5 650.666ZM1052.5 552.166C1052.5 606.566 1096.6 650.666 1151 650.666L1151 653.666C1094.94 653.666 1049.5 608.223 1049.5 552.166L1052.5 552.166ZM1049.5 533.656C1049.5 479.256 1005.4 435.156 951 435.156L951 432.156C1007.06 432.156 1052.5 477.599 1052.5 533.656L1049.5 533.656ZM455 357.832C483.166 357.832 506 334.998 506 306.832L509 306.832C509 336.655 484.823 360.832 455 360.832L455 357.832ZM401 411.832C401 382.008 425.177 357.832 455 357.832L455 360.832C426.833 360.832 404 383.665 404 411.832L401 411.832ZM95 307.724C151.057 307.724 196.5 353.167 196.5 409.224L193.5 409.224C193.5 354.824 149.4 310.724 95 310.724L95 307.724ZM637 525.341C637 576.806 595.279 618.526 543.815 618.526L543.815 615.526C593.623 615.526 634 575.149 634 525.341L637 525.341ZM727.185 435.156C677.377 435.156 637 475.533 637 525.341L634 525.341C634 473.876 675.72 432.156 727.185 432.156L727.185 435.156ZM54 591.47C54 555.019 24.4508 525.47 -12 525.47L-12 522.47C26.1076 522.47 57 553.362 57 591.47L54 591.47ZM295 618.526C238.943 618.526 193.5 573.083 193.5 517.026L196.5 517.026C196.5 571.426 240.6 615.526 295 615.526L295 618.526ZM913.5 717.5C913.5 773.557 868.057 819 812 819L812 816C866.4 816 910.5 771.9 910.5 717.5L913.5 717.5ZM630.5 207.508C684.9 207.508 729 163.408 729 109.008L732 109.008C732 165.065 686.557 210.508 630.5 210.508L630.5 207.508ZM1012 310.724C957.6 310.724 913.5 354.824 913.5 409.224L910.5 409.224C910.5 353.167 955.943 307.724 1012 307.724L1012 310.724ZM669.5 383.608C634.982 383.608 607 355.625 607 321.108L610 321.108C610 353.969 636.639 380.608 669.5 380.608L669.5 383.608ZM506 284.17C506 241.831 540.323 207.508 582.662 207.508L582.662 210.508C541.979 210.508 509 243.488 509 284.17L506 284.17ZM678.952 380.608C708.25 380.608 732 404.358 732 433.656L729 433.656C729 406.015 706.593 383.608 678.952 383.608L678.952 380.608Z"
      fill="url(#paint0_linear)"
    />
  </g>
  <defs>
    <filter
      id="filter0_d"
      x="-16"
      y="-47.0001"
      width="1533.5"
      height="968"
      filterUnits="userSpaceOnUse"
      color-interpolation-filters="sRGB"
    >
      <feFlood flood-opacity="0" result="BackgroundImageFix" />
      <feColorMatrix in="SourceAlpha" type="matrix" values="0 0 0 0 0 0 0 0 0 0 0 0 0 0 0 0 0 0 127 0" />
      <feOffset dy="4" />
      <feGaussianBlur stdDeviation="2" />
      <feColorMatrix type="matrix" values="0 0 0 0 0 0 0 0 0 0 0 0 0 0 0 0 0 0 0.02 0" />
      <feBlend mode="normal" in2="BackgroundImageFix" result="effect1_dropShadow" />
      <feBlend mode="normal" in="SourceGraphic" in2="effect1_dropShadow" result="shape" />
    </filter>
    <linearGradient
      id="paint0_linear"
      x1="1198.5"
      y1="715.934"
      x2="167.698"
      y2="437.984"
      gradientUnits="userSpaceOnUse"
    >
      <stop stop-color="#EE15FF" />
      <stop offset="0.668508" stop-color="#F8A4FF" />
    </linearGradient>
  </defs>
</svg>
