<svg width="371" height="370" viewBox="0 0 371 370" fill="none" xmlns="http://www.w3.org/2000/svg">
<circle cx="185.5" cy="185" r="182" stroke="#FF007A" stroke-width="6"/>
<path d="M63.4096 232.043L78.0378 249.844L84.6635 244.399C90.3992 239.685 90.0959 233.722 85.9106 228.629C81.5222 223.289 75.5238 222.088 70.0353 226.598L63.4096 232.043ZM78.8759 245.924L67.4171 231.981L71.5953 228.547C75.5263 225.317 79.8538 226.399 83.3889 230.701C86.9444 235.028 86.985 239.26 83.0541 242.491L78.8759 245.924ZM80.4085 218.074L95.0367 235.874L107.571 225.574L105.966 223.62L95.8051 231.971L90.6242 225.666L97.1758 220.282L95.5708 218.329L89.0192 223.713L84.3869 218.076L94.375 209.868L92.7699 207.915L80.4085 218.074ZM112.02 201.084L114.201 198.546C110.5 195.706 105.897 196.506 102.312 199.452C97.4418 203.455 96.357 209.896 101.314 215.929C105.926 221.541 112.185 222.403 117.575 217.974C121.53 214.723 122.867 210.353 120.437 205.681L117.549 207.309C119.209 210.336 118.837 213.664 115.97 216.021C112.385 218.967 107.676 218.529 103.795 213.807C99.9758 209.159 100.308 204.372 103.868 201.446C106.538 199.252 109.647 199.306 112.02 201.084ZM112.451 191.742L127.079 209.542L139.613 199.242L138.008 197.289L127.847 205.639L122.666 199.335L129.218 193.951L127.613 191.997L121.061 197.381L116.429 191.745L126.417 183.537L124.812 181.583L112.451 191.742ZM126.649 180.074L141.277 197.874L143.502 196.046L131.922 181.954L153.861 187.533L156.111 185.684L141.483 167.884L139.258 169.712L150.838 183.804L128.899 178.225L126.649 180.074ZM160.794 155.286L159.189 153.333L143.045 166.6L144.65 168.553L151.498 162.926L164.521 178.773L166.944 176.782L153.921 160.934L160.794 155.286ZM185.838 155.374L184.248 153.49C182.574 151.553 180.761 151.262 178.57 152.276C180.163 149.931 180.205 147.411 178.478 145.31C176.284 142.64 172.735 142.201 169.1 145.188L160.719 152.075L175.347 169.876L177.77 167.885L171.37 160.097L176.636 155.77C178.639 154.124 180.487 154.055 182.248 156.046L183.471 157.484C184.821 159.026 186.102 159.879 187.091 160.225L189.662 158.112L189.479 157.89C188.416 157.604 187.106 156.817 185.838 155.374ZM169.806 158.194L164.707 151.988L170.121 147.539C172.568 145.527 174.862 146.252 176.162 147.834C177.402 149.342 177.767 151.651 175.22 153.744L169.806 158.194ZM205.742 144.898L208.462 142.663L185.898 131.384L183.425 133.416L190.117 157.738L192.837 155.503L190.946 149.271L199.97 141.855L205.742 144.898ZM190.213 146.766L186.612 134.773L197.679 140.631L190.213 146.766ZM195.031 123.879L209.659 141.679L222.045 131.5L220.44 129.547L210.477 137.735L197.454 121.888L195.031 123.879ZM223.592 130.229L226.015 128.238L211.387 110.438L208.964 112.429L223.592 130.229ZM226.404 125.475L227.603 126.933L242.511 114.682L240.946 112.779L229.475 122.206L228.611 98.7265L227.413 97.2678L213.345 108.828L214.91 110.732L225.59 101.955L226.404 125.475ZM229.465 95.5809L244.094 113.381L256.628 103.081L255.023 101.128L244.862 109.478L239.681 103.173L246.233 97.7895L244.628 95.8364L238.076 101.22L233.444 95.5835L243.432 87.3755L241.827 85.4224L229.465 95.5809ZM243.664 83.9129L258.292 101.713L264.918 96.2684C270.653 91.5549 270.35 85.5913 266.165 80.4984C261.776 75.1582 255.778 73.9576 250.289 78.468L243.664 83.9129ZM259.13 97.7939L247.671 83.8502L251.849 80.4167C255.78 77.1863 260.108 78.2689 263.643 82.5707C267.198 86.8972 267.239 91.13 263.308 94.3604L259.13 97.7939ZM167.928 217.392L170.648 215.157L148.083 203.879L145.611 205.91L152.303 230.232L155.023 227.998L153.132 221.765L162.155 214.349L167.928 217.392ZM152.399 219.261L148.798 207.268L159.865 213.125L152.399 219.261ZM169.061 207.308L167.033 209.678C170.435 213.012 174.968 212.228 178.652 209.201C182.138 206.336 184.006 202.108 181.02 198.474C178.074 194.889 173.901 196.413 171.108 198.005L169.689 198.798C168.171 199.673 165.267 201.23 163.459 199.03C161.793 197.002 162.996 194.233 165.024 192.567C167.298 190.698 170.216 190.619 172.199 192.427L174.38 189.89C170.753 186.989 166.653 187.997 163.562 190.537C159.953 193.503 158.431 197.901 161.174 201.239C163.937 204.601 167.971 203.109 170.546 201.655L172.084 200.806C173.553 199.972 176.723 198.236 178.775 200.733C180.543 202.884 179.267 205.464 177.117 207.232C174.372 209.487 171.304 209.482 169.061 207.308ZM184.394 194.707L182.366 197.078C185.768 200.412 190.301 199.628 193.985 196.6C197.471 193.736 199.339 189.508 196.353 185.874C193.407 182.289 189.234 183.813 186.441 185.404L185.022 186.197C183.504 187.072 180.6 188.63 178.792 186.429C177.126 184.402 178.329 181.632 180.357 179.966C182.631 178.097 185.549 178.019 187.532 179.827L189.713 177.289C186.086 174.388 181.986 175.397 178.896 177.936C175.286 180.903 173.764 185.301 176.507 188.638C179.27 192.001 183.304 190.508 185.879 189.055L187.417 188.205C188.886 187.371 192.056 185.635 194.108 188.132C195.876 190.283 194.601 192.864 192.45 194.631C189.705 196.887 186.637 196.882 184.394 194.707ZM187.883 171.172L202.511 188.972L215.046 178.672L213.441 176.719L203.279 185.069L198.099 178.765L204.65 173.381L203.045 171.427L196.494 176.811L191.861 171.175L201.849 162.967L200.244 161.013L187.883 171.172ZM218.817 149.023L217.212 147.07L201.067 160.337L202.673 162.29L209.521 156.662L222.544 172.51L224.967 170.519L211.944 154.671L218.817 149.023ZM134.868 256.158L149.497 273.958L162.031 263.657L160.426 261.704L150.265 270.055L145.084 263.75L151.636 258.366L150.031 256.413L143.479 261.797L138.847 256.16L148.835 247.952L147.23 245.999L134.868 256.158ZM164.509 246.296L163.703 232.462L160.686 234.941L161.543 245.71L151.143 242.783L148.152 245.241L161.567 248.714L162.335 263.408L165.351 260.929L164.489 249.295L175.76 252.375L178.776 249.897L164.509 246.296ZM182.778 225.774L184.959 223.236C181.258 220.396 176.656 221.196 173.071 224.142C168.2 228.144 167.116 234.586 172.073 240.618C176.685 246.231 182.944 247.093 188.333 242.664C192.289 239.413 193.626 235.042 191.196 230.371L188.308 231.998C189.967 235.025 189.596 238.354 186.728 240.711C183.143 243.657 178.435 243.219 174.554 238.497C170.734 233.849 171.066 229.061 174.626 226.136C177.297 223.942 180.406 223.996 182.778 225.774ZM193.536 224.058L203.326 216.012L210.051 224.196L212.474 222.204L197.845 204.404L195.422 206.395L201.761 214.109L191.971 222.154L185.632 214.441L183.209 216.432L197.838 234.232L200.26 232.241L193.536 224.058ZM229.319 208.361L232.038 206.126L209.474 194.848L207.002 196.879L213.694 221.201L216.414 218.967L214.522 212.734L223.546 205.318L229.319 208.361ZM213.79 210.23L210.188 198.237L221.256 204.094L213.79 210.23ZM218.608 187.342L233.236 205.142L235.461 203.314L223.88 189.222L245.82 194.801L248.069 192.952L233.441 175.152L231.216 176.98L242.797 191.072L220.857 185.493L218.608 187.342ZM252.387 178.842L259.359 173.113C261.695 175.956 260.886 179.81 257.623 182.492C253.271 186.068 248.447 184.482 245.278 180.625C242.007 176.645 241.322 171.326 245.847 167.608C248.937 165.068 252.02 165.393 254.437 167.175L256.436 164.87C253.173 162.209 248.667 162.018 244.291 165.614C238.456 170.409 238.417 177.317 242.826 182.682C247.133 187.923 253.546 189.073 258.836 184.725C261.877 182.226 262.922 179.214 262.306 176.448L264.712 179.275L266.764 177.589L260.04 169.406L250.966 176.862L252.387 178.842ZM254.295 158.014L268.924 175.815L281.458 165.514L279.853 163.561L269.692 171.911L264.511 165.607L271.063 160.223L269.458 158.27L262.906 163.654L258.274 158.017L268.262 149.809L266.657 147.856L254.295 158.014Z" fill="#FF007A"/>
</svg>
