<svg width="80" height="80" viewBox="0 0 80 80" fill="none" xmlns="http://www.w3.org/2000/svg">
<path d="M40 40V39H4.37114e-08L0 40H40Z" fill="url(#paint0_angular)"/>
<path d="M40 4.37114e-08V40L39 40V0L40 4.37114e-08Z" fill="url(#paint1_angular)"/>
<path d="M16 40C29.2494 39.9877 39.9877 29.2494 40 16L40 40L16 40Z" fill="url(#paint2_angular)"/>
<path d="M64 40C50.7507 40.0123 40.0123 50.7506 40 64L40 40L64 40Z" fill="url(#paint3_angular)"/>
<path d="M40 40L40 41L80 41V40L40 40Z" fill="url(#paint4_angular)"/>
<path d="M40 80L40 40L41 40V80H40Z" fill="url(#paint5_angular)"/>
<defs>
<radialGradient id="paint0_angular" cx="0" cy="0" r="1" gradientUnits="userSpaceOnUse" gradientTransform="translate(44.5 40) rotate(-65.8634) scale(100.266)">
<stop stop-color="#FF9AD6"/>
<stop offset="1" stop-color="#0F35FF" stop-opacity="0.22"/>
</radialGradient>
<radialGradient id="paint1_angular" cx="0" cy="0" r="1" gradientUnits="userSpaceOnUse" gradientTransform="translate(44.5 40) rotate(-65.8634) scale(100.266)">
<stop stop-color="#FF9AD6"/>
<stop offset="1" stop-color="#0F35FF" stop-opacity="0.22"/>
</radialGradient>
<radialGradient id="paint2_angular" cx="0" cy="0" r="1" gradientUnits="userSpaceOnUse" gradientTransform="translate(44.5 40) rotate(-65.8634) scale(100.266)">
<stop stop-color="#FF9AD6"/>
<stop offset="1" stop-color="#0F35FF" stop-opacity="0.22"/>
</radialGradient>
<radialGradient id="paint3_angular" cx="0" cy="0" r="1" gradientUnits="userSpaceOnUse" gradientTransform="translate(44.5 40) rotate(-65.8634) scale(100.266)">
<stop stop-color="#FF9AD6"/>
<stop offset="1" stop-color="#0F35FF" stop-opacity="0.22"/>
</radialGradient>
<radialGradient id="paint4_angular" cx="0" cy="0" r="1" gradientUnits="userSpaceOnUse" gradientTransform="translate(44.5 40) rotate(-65.8634) scale(100.266)">
<stop stop-color="#FF9AD6"/>
<stop offset="1" stop-color="#0F35FF" stop-opacity="0.22"/>
</radialGradient>
<radialGradient id="paint5_angular" cx="0" cy="0" r="1" gradientUnits="userSpaceOnUse" gradientTransform="translate(44.5 40) rotate(-65.8634) scale(100.266)">
<stop stop-color="#FF9AD6"/>
<stop offset="1" stop-color="#0F35FF" stop-opacity="0.22"/>
</radialGradient>
</defs>
</svg>
