<svg width="126" height="125" viewBox="0 0 126 125" fill="none" xmlns="http://www.w3.org/2000/svg">
<path d="M110.677 56.9614C104.612 55.7982 98.5279 55.0549 92.6107 55.1459C89.8438 55.1898 87.1055 55.3854 84.3946 55.7137C83.0485 55.8785 81.6949 56.0709 80.3625 56.302C77.9748 56.7076 75.7401 57.0203 74.3088 59.0322C73.2127 60.5889 72.8814 62.682 73.3873 64.6988C73.8796 66.6491 75.1265 68.4055 76.824 69.6111C78.345 70.6929 79.8157 71.865 81.1974 73.1061C84.0284 75.6209 86.4655 78.4094 88.6432 81.2371C90.8121 84.0736 92.7841 87.0469 94.3837 90.1925C95.972 93.3092 97.1791 96.6069 97.5869 99.8431C95.7771 92.9035 90.2926 86.4351 86.1181 82.2606C78.5499 74.6925 66.6126 65.9876 45.269 69.2918L45.2953 69.2655C37.3765 70.5171 29.5499 72.1771 21.8542 74.2668C30.7998 69.9662 40.1593 66.2727 49.85 63.2092C54.7643 61.6585 55.9472 54.5492 50.7611 50.6456C49.826 49.9389 48.926 49.1971 48.0324 48.4089C45.2202 45.8953 42.8219 43.1281 40.6643 40.3204C38.5342 37.5052 36.5722 34.5419 35.0039 31.4451C33.4444 28.3396 32.2585 25.0807 31.8608 21.8546C33.6705 28.7942 39.1651 35.2725 43.3296 39.437C49.6664 45.7738 58.708 52.5492 73.9156 52.5781C74.1587 52.5752 74.4018 52.5724 74.6361 52.5783C76.7037 52.5729 78.7527 52.4259 80.8267 52.3742C82.8918 52.3312 84.9607 52.3446 87.0344 52.4332C88.8363 52.5133 90.633 52.6587 92.4334 52.8604C95.5068 53.2108 98.5924 53.7491 101.643 54.4628C104.682 55.1478 107.685 56.0082 110.677 56.9614Z" fill="#00FF85"/>
</svg>
