<svg width="1096" height="296" viewBox="0 0 1096 296" fill="none" xmlns="http://www.w3.org/2000/svg">
<path d="M301.561 89.6016L271.181 5.18163H262.921L233.241 87.6416C229.461 98.2816 225.961 101.222 217.561 102.062V103.182H246.961V102.062C237.021 101.642 232.961 99.1216 237.161 87.0816L244.301 66.9216H283.081L290.781 88.9016C294.281 99.1216 293.021 101.642 283.081 102.062V103.182H314.161V102.062C307.441 101.502 305.341 100.242 301.561 89.6016ZM245.281 64.1216L263.761 11.4816L282.101 64.1216H245.281ZM376.382 92.4016V33.1816L356.922 36.8216V37.9416C365.882 36.5416 367.982 37.1016 367.982 45.9216V89.1816C364.902 96.0416 358.462 100.522 351.182 100.802C340.262 101.082 333.682 93.2416 333.682 79.3816V33.1816L314.222 36.8216V37.9416C323.182 36.5416 325.282 37.1016 325.282 45.9216V81.9016C325.282 97.1616 333.122 105.282 346.702 105.282C356.502 105.282 364.762 98.8416 367.982 91.1416V103.182H387.442V102.062C379.322 101.782 376.382 99.5416 376.382 92.4016ZM432.328 90.8616C429.808 98.2816 426.588 101.362 420.848 101.362C414.968 101.362 412.308 96.1816 412.308 88.7616V35.9816H429.248V34.5816H412.308V14.7016H411.188C409.928 28.2816 404.188 34.4416 392.988 35.0016V35.9816H403.908V90.5816C403.908 100.102 408.668 105.282 417.068 105.282C424.488 105.282 430.228 101.222 433.308 91.1416L432.328 90.8616ZM470.367 105.282C490.807 105.282 502.427 89.4616 502.427 68.8816C502.427 48.3016 490.807 32.4816 470.367 32.4816C449.927 32.4816 438.307 48.3016 438.307 68.8816C438.307 89.4616 449.927 105.282 470.367 105.282ZM470.367 103.182C454.267 103.182 447.687 89.6016 447.687 68.8816C447.687 48.1616 454.267 34.5816 470.367 34.5816C486.467 34.5816 493.047 48.1616 493.047 68.8816C493.047 89.6016 486.467 103.182 470.367 103.182ZM608.765 95.3416V55.1616C608.765 42.4216 603.445 32.4816 589.445 32.4816C578.385 32.4816 571.805 38.5016 568.025 47.1816C566.065 38.5016 560.465 32.4816 549.545 32.4816C539.185 32.4816 531.345 38.9216 528.965 46.9016V33.1816L509.505 38.0816V39.2016C518.465 37.8016 520.565 38.3616 520.565 47.1816V95.3416C520.565 100.802 518.045 101.502 509.505 102.062V103.182H540.025V102.062C531.485 101.502 528.965 100.802 528.965 95.3416V49.0016C531.205 42.4216 536.245 36.2616 544.925 36.2616C555.705 36.2616 560.465 43.5416 560.465 57.6816V95.3416C560.465 100.802 557.945 101.502 549.405 102.062V103.182H579.925V102.062C571.385 101.502 568.865 100.802 568.865 95.3416V55.1616C568.865 53.2016 568.725 51.3816 568.445 49.5616C570.685 42.9816 576.005 36.2616 584.825 36.2616C595.605 36.2616 600.365 43.5416 600.365 57.6816V95.3416C600.365 100.802 597.845 101.502 589.305 102.062V103.182H619.825V102.062C611.285 101.502 608.765 100.802 608.765 95.3416ZM691.506 92.5416C689.686 98.8416 686.746 101.502 683.246 101.502C679.466 101.502 677.646 98.0016 677.646 92.8216V57.4016C677.646 41.1616 669.946 32.4816 655.526 32.4816C641.946 32.4816 632.426 41.4416 630.746 55.7216L631.866 55.8616C633.686 44.5216 641.386 38.0816 651.606 38.0816C663.646 38.0816 669.246 44.8016 669.246 59.7816V63.8416L652.586 67.2016C637.466 70.1416 628.926 77.0016 628.926 88.9016C628.926 98.0016 635.366 105.282 648.246 105.282C660.286 105.282 667.986 96.7416 669.246 90.4416V93.5216C669.246 100.522 672.606 105.282 678.906 105.282C686.326 105.282 690.386 100.102 692.486 92.6816L691.506 92.5416ZM651.746 101.782C641.806 101.782 638.166 93.5216 638.166 86.2416C638.166 80.7816 639.006 71.6816 656.366 68.1816L669.246 65.5216V88.7616C665.886 98.0016 660.006 101.782 651.746 101.782ZM735.297 90.8616C732.777 98.2816 729.557 101.362 723.817 101.362C717.937 101.362 715.277 96.1816 715.277 88.7616V35.9816H732.217V34.5816H715.277V14.7016H714.157C712.897 28.2816 707.157 34.4416 695.957 35.0016V35.9816H706.877V90.5816C706.877 100.102 711.637 105.282 720.037 105.282C727.457 105.282 733.197 101.222 736.277 91.1416L735.297 90.8616ZM796.42 78.8216C791.94 94.9216 782.84 97.4416 774.16 97.4416C758.62 97.4416 747.84 84.2816 747.84 63.0016V61.4616H796C796.84 45.7816 788.86 32.4816 771.92 32.4816C752.04 32.4816 741.96 48.1616 741.96 70.0016C741.96 93.1016 754.42 105.282 771.36 105.282C785.5 105.282 794.46 96.3216 797.4 78.9616L796.42 78.8216ZM768.7 34.7216C778.64 34.7216 786.9 42.7016 786.2 59.6416H747.98C748.96 44.5216 757.22 34.7216 768.7 34.7216ZM864.995 92.2616V0.981638L842.035 6.72164V7.84163C853.935 5.46164 856.595 6.30164 856.595 13.5816V36.5416C851.975 34.0216 846.935 32.4816 841.195 32.4816C823.275 32.4816 807.175 45.9216 807.175 71.2616C807.175 92.8216 820.055 105.282 835.455 105.282C846.375 105.282 854.075 98.1416 856.595 91.7016V103.042H876.055V101.922C867.935 101.642 864.995 99.4016 864.995 92.2616ZM840.215 100.242C826.355 100.242 816.275 88.0616 816.275 68.7416C816.275 45.7816 825.515 34.3016 839.095 34.3016C848.755 34.3016 854.915 41.0216 856.595 47.6016V89.4616C853.795 96.6016 847.915 100.242 840.215 100.242ZM71.4194 229.762C67.4994 255.522 62.8794 263.222 40.7594 263.222H21.4394V215.902H35.4394C47.0594 215.902 51.1194 220.662 53.3594 235.502H54.4794V194.482H53.3594C51.1194 209.322 47.0594 213.942 35.4394 213.942H21.4394V169.142H41.1794C59.7994 169.142 63.8594 175.862 68.8994 197.142H70.0194L66.9394 167.182H0.859424V168.302C10.0994 168.722 11.9194 171.662 11.9194 179.362V251.602C11.9194 261.682 10.0994 263.642 0.859424 264.062V265.182H69.0394L72.5394 229.762H71.4194ZM137.331 254.822L118.571 227.662L133.411 206.942C137.751 200.922 141.951 198.122 147.411 197.702V196.582H122.771V197.702C129.491 197.982 132.291 199.382 132.291 202.602C132.291 204.142 131.451 205.822 128.511 209.882L117.311 225.842L104.011 206.522C102.891 204.842 102.331 203.442 102.331 202.042C102.331 199.382 105.411 197.982 111.991 197.702V196.582H82.311V197.702C87.211 198.262 91.411 201.342 95.191 206.942L112.131 231.442L94.911 254.822C90.291 261.122 86.371 263.642 80.911 264.062V265.182H105.691V264.062C99.811 263.782 96.311 261.822 96.311 258.882C96.311 257.482 97.291 255.662 99.671 252.442L113.391 233.402L128.511 255.242C129.491 256.642 130.051 258.182 130.051 259.722C130.051 262.382 126.971 263.782 120.531 264.062V265.182H150.211V264.062C145.311 263.502 141.251 260.562 137.331 254.822ZM183.407 267.282C197.267 267.282 206.787 258.042 208.467 242.362L207.347 242.082C205.107 255.382 196.007 259.442 186.627 259.442C170.387 259.442 159.747 244.882 159.747 227.662C159.747 207.642 168.987 197.982 183.267 197.982C198.247 197.982 203.427 208.622 204.127 222.202H205.247V198.122C200.347 195.882 193.347 194.482 185.787 194.482C166.467 194.482 153.727 207.922 153.727 232.562C153.727 253.562 165.487 267.282 183.407 267.282ZM216.842 265.182H247.362V264.062C238.822 263.502 236.302 262.802 236.302 257.342V212.402C238.542 205.402 243.862 198.402 254.222 198.402C265.702 198.402 271.302 205.962 271.302 219.962V257.342C271.302 262.802 268.782 263.502 260.242 264.062V265.182H290.762V264.062C282.222 263.502 279.702 262.802 279.702 257.342V217.442C279.702 204.002 273.962 194.482 258.982 194.482C247.082 194.482 238.262 202.042 236.302 210.722V162.982L216.842 167.882V169.002C225.802 167.602 227.902 168.162 227.902 176.982V257.342C227.902 262.802 225.382 263.502 216.842 264.062V265.182ZM362.493 254.542C360.673 260.842 357.733 263.502 354.233 263.502C350.453 263.502 348.633 260.002 348.633 254.822V219.402C348.633 203.162 340.933 194.482 326.513 194.482C312.933 194.482 303.413 203.442 301.733 217.722L302.853 217.862C304.673 206.522 312.373 200.082 322.593 200.082C334.633 200.082 340.233 206.802 340.233 221.782V225.842L323.573 229.202C308.453 232.142 299.913 239.002 299.913 250.902C299.913 260.002 306.353 267.282 319.233 267.282C331.273 267.282 338.973 258.742 340.233 252.442V255.522C340.233 262.522 343.593 267.282 349.893 267.282C357.313 267.282 361.373 262.102 363.473 254.682L362.493 254.542ZM322.733 263.782C312.793 263.782 309.153 255.522 309.153 248.242C309.153 242.782 309.993 233.682 327.353 230.182L340.233 227.522V250.762C336.873 260.002 330.993 263.782 322.733 263.782ZM431.203 257.342V217.862C431.203 204.142 425.183 194.482 410.483 194.482C398.583 194.482 389.763 202.322 387.803 211.002V195.182L368.343 200.082V201.202C377.303 199.802 379.403 200.362 379.403 209.182V257.342C379.403 262.802 376.883 263.502 368.343 264.062V265.182H398.863V264.062C390.323 263.502 387.803 262.802 387.803 257.342V212.402C390.043 205.402 395.923 198.402 406.003 198.402C417.763 198.402 422.803 206.102 422.803 220.382V257.342C422.803 262.802 420.283 263.502 411.743 264.062V265.182H442.263V264.062C433.723 263.502 431.203 262.802 431.203 257.342ZM491.437 254.262L470.157 252.862C462.177 252.302 458.397 250.342 458.397 245.862C458.397 241.522 462.037 239.002 467.777 238.162C471.137 239.562 474.777 240.262 478.977 240.262C494.097 240.262 503.617 230.182 503.617 217.302C503.617 209.042 499.697 202.042 492.837 197.982H509.217V196.582H490.037C486.817 195.182 483.177 194.482 478.977 194.482C463.857 194.482 454.337 204.422 454.337 217.302C454.337 225.982 458.677 233.542 466.237 237.322C457.697 239.282 454.057 244.182 454.057 249.642C454.057 255.942 458.257 259.862 464.697 260.982C453.777 263.782 448.597 269.382 448.597 277.222C448.597 287.862 459.937 295.282 476.737 295.282C497.597 295.282 510.477 284.642 510.477 269.242C510.477 258.322 502.077 254.962 491.437 254.262ZM478.977 195.882C488.077 196.022 495.077 203.162 495.077 217.302C495.077 231.442 488.077 238.862 478.977 238.862C469.877 238.862 462.877 231.442 462.877 217.302C462.877 203.162 469.877 195.742 478.977 195.882ZM480.517 291.362C466.237 291.362 456.577 284.922 456.577 274.842C456.577 268.122 459.097 264.482 466.657 261.262H467.077L493.257 262.942C502.357 263.502 507.677 265.042 507.677 274.002C507.677 282.262 499.277 291.362 480.517 291.362ZM573.363 240.822C568.883 256.922 559.783 259.442 551.103 259.442C535.563 259.442 524.783 246.282 524.783 225.002V223.462H572.943C573.783 207.782 565.803 194.482 548.863 194.482C528.983 194.482 518.903 210.162 518.903 232.002C518.903 255.102 531.363 267.282 548.303 267.282C562.443 267.282 571.403 258.322 574.343 240.962L573.363 240.822ZM545.643 196.722C555.583 196.722 563.843 204.702 563.143 221.642H524.923C525.903 206.522 534.163 196.722 545.643 196.722ZM648.864 221.222C668.184 221.222 684.144 213.802 684.144 194.202C684.144 174.602 668.184 167.182 648.864 167.182H615.684V168.302C624.924 168.722 626.744 171.662 626.744 179.362V251.602C626.744 261.682 624.924 263.642 615.684 264.062V265.182H652.224V264.062C638.924 263.642 636.264 261.542 636.264 250.902V221.222H648.864ZM646.204 169.142C663.424 169.142 673.644 176.282 673.644 194.202C673.644 212.122 663.424 219.262 646.204 219.262H636.264V169.142H646.204ZM731.456 194.482C719.136 194.482 711.996 203.302 710.596 219.962H710.316V195.182L691.136 200.082V201.202C700.096 199.802 702.196 200.362 702.196 209.182V257.342C702.196 262.802 699.676 263.502 691.136 264.062V265.182H724.456V264.062C711.996 263.502 710.596 262.382 710.596 257.342V229.202C710.596 209.462 716.616 203.022 725.996 203.022C727.956 203.022 730.196 203.302 731.176 203.722H731.876V194.482H731.456ZM769.576 267.282C790.016 267.282 801.636 251.462 801.636 230.882C801.636 210.302 790.016 194.482 769.576 194.482C749.136 194.482 737.516 210.302 737.516 230.882C737.516 251.462 749.136 267.282 769.576 267.282ZM769.576 265.182C753.476 265.182 746.896 251.602 746.896 230.882C746.896 210.162 753.476 196.582 769.576 196.582C785.676 196.582 792.256 210.162 792.256 230.882C792.256 251.602 785.676 265.182 769.576 265.182ZM848.021 252.862C845.501 260.282 842.281 263.362 836.541 263.362C830.661 263.362 828.001 258.182 828.001 250.762V197.982H844.941V196.582H828.001V176.702H826.881C825.621 190.282 819.881 196.442 808.681 197.002V197.982H819.601V252.582C819.601 262.102 824.361 267.282 832.761 267.282C840.181 267.282 845.921 263.222 849.001 253.142L848.021 252.862ZM886.061 267.282C906.501 267.282 918.121 251.462 918.121 230.882C918.121 210.302 906.501 194.482 886.061 194.482C865.621 194.482 854.001 210.302 854.001 230.882C854.001 251.462 865.621 267.282 886.061 267.282ZM886.061 265.182C869.961 265.182 863.381 251.602 863.381 230.882C863.381 210.162 869.961 196.582 886.061 196.582C902.161 196.582 908.741 210.162 908.741 230.882C908.741 251.602 902.161 265.182 886.061 265.182ZM957.646 267.282C971.506 267.282 981.026 258.042 982.706 242.362L981.586 242.082C979.346 255.382 970.246 259.442 960.866 259.442C944.626 259.442 933.986 244.882 933.986 227.662C933.986 207.642 943.226 197.982 957.506 197.982C972.486 197.982 977.666 208.622 978.366 222.202H979.486V198.122C974.586 195.882 967.586 194.482 960.026 194.482C940.706 194.482 927.966 207.922 927.966 232.562C927.966 253.562 939.726 267.282 957.646 267.282ZM1025.24 267.282C1045.68 267.282 1057.3 251.462 1057.3 230.882C1057.3 210.302 1045.68 194.482 1025.24 194.482C1004.8 194.482 993.181 210.302 993.181 230.882C993.181 251.462 1004.8 267.282 1025.24 267.282ZM1025.24 265.182C1009.14 265.182 1002.56 251.602 1002.56 230.882C1002.56 210.162 1009.14 196.582 1025.24 196.582C1041.34 196.582 1047.92 210.162 1047.92 230.882C1047.92 251.602 1041.34 265.182 1025.24 265.182ZM1084.51 257.342V162.982L1065.05 167.882V169.002C1074.01 167.602 1076.11 168.162 1076.11 176.982V257.342C1076.11 262.802 1073.59 263.502 1065.05 264.062V265.182H1095.57V264.062C1087.03 263.502 1084.51 262.802 1084.51 257.342Z" fill="#FF007A"/>
</svg>
