<svg width="64" height="74" viewBox="0 0 64 74" fill="none" xmlns="http://www.w3.org/2000/svg">
<path fill-rule="evenodd" clip-rule="evenodd" d="M0.144351 0.318179C-0.108155 0.703557 -0.454969 0.13478 3.20982 5.34541C11.7716 17.5183 12.9695 19.2377 12.9222 19.2851C12.8937 19.3136 12.1574 18.8251 11.2858 18.1996C9.69914 17.0605 9.51052 16.9514 9.51052 17.1735C9.51052 17.3106 12.536 22.3986 12.7318 22.5907C12.803 22.6607 12.7175 22.4602 12.5416 22.1453C10.6659 18.7872 10.624 18.695 10.8964 18.5267C10.9587 18.4882 11.7228 19.0002 12.5943 19.6646C14.1781 20.8719 14.4741 21.0333 14.4741 20.6895C14.4741 20.5888 13.2942 18.6981 11.8521 16.4879C9.44548 12.7994 9.06558 12.0908 9.49487 12.0908C9.56067 12.0908 12.0395 14.934 15.0033 18.4092C23.3588 28.2059 22.6581 27.3311 22.5724 27.8589C22.4677 28.504 22.132 28.904 21.3664 29.2959C20.4935 29.7425 19.5256 29.8546 18.2189 29.6601C17.2881 29.5217 17.1187 29.5284 16.7147 29.7201C15.9661 30.0754 14.755 31.483 14.2062 32.6357C13.5902 33.9298 13.3899 34.7138 13.0653 37.0997C12.4801 41.4028 12.4332 41.5155 10.0355 44.3541C8.69827 45.9373 7.94292 47.09 7.51376 48.2024C6.79913 50.055 7.03585 53.4217 8.04855 55.8086C8.1673 56.0886 8.77744 57.1655 9.4045 58.2018C10.1 59.3514 10.6034 60.3365 10.6957 60.7288L10.8469 61.3717L11.5236 61.2926C11.8957 61.2491 12.7548 61.0682 13.4326 60.8907C16.7878 60.0122 19.3569 58.6027 20.6136 56.9508C21.2092 56.1679 21.3886 55.5724 21.399 54.3442C21.4128 52.7 20.7551 51.726 18.6104 50.2149C17.2127 49.23 15.9362 47.94 15.5207 47.0921C14.9884 46.0063 14.9735 44.3926 15.4742 42.0633C15.6848 41.0833 15.9483 39.3651 16.0594 38.2451C16.2975 35.8467 16.5656 34.477 16.9224 33.8337C17.3814 33.0066 18.2132 32.5815 19.3727 32.5815C20.2351 32.5815 21.8401 32.1661 22.6219 31.7406C23.9445 31.0208 24.9029 29.7132 25.1621 28.2749C25.4471 26.6939 25.3828 26.5836 22.1122 23.0362C21.4345 22.3012 18.6849 19.2944 16.002 16.3544C13.3191 13.4144 10.804 10.6636 10.4127 10.2414C10.0215 9.81938 7.7557 7.3423 5.3775 4.73692C1.69261 0.699994 1.00178 0 0.703202 0C0.469913 0 0.283205 0.106272 0.144351 0.318179ZM23.8286 13.1074C28.1615 14.0929 30.5619 15.942 34.8995 21.6362C37.5315 25.0912 39.0385 26.7404 40.4473 27.7071C42.757 29.2922 46.0023 30.1408 50.5556 30.3502C55.9262 30.5972 57.6805 31.1874 59.18 33.2514C59.7897 34.0905 59.8916 33.993 59.5965 32.8538C59.0276 30.6583 57.5307 28.0504 55.5348 25.7773L55.0921 25.2731L55.0121 25.6501C54.456 28.2712 53.7305 29.6543 52.9118 29.6543C52.2113 29.6543 52.1084 29.1966 52.5855 28.2034C52.9953 27.3502 53.1792 25.9112 53.0345 24.6907C52.9722 24.1657 52.9188 23.6395 52.9157 23.5216C52.9083 23.2375 50.9019 21.9023 49.4239 21.198C47.8692 20.457 46.7695 20.0762 44.9506 19.6486C43.5182 19.3118 43.2557 19.2904 40.5011 19.2862C38.5651 19.2832 37.1951 19.3427 36.4552 19.462L35.3366 19.6425L34.4825 18.7031C31.2185 15.1131 28.3773 13.4161 24.9137 12.9878C24.3206 12.9145 23.6047 12.8593 23.3228 12.8651C22.8906 12.8742 22.9697 12.9121 23.8286 13.1074ZM22.2717 16.5596C22.3961 19.8054 23.3701 22.4731 25.2728 24.7798C26.5248 26.2976 28.6448 27.543 29.845 27.4657C30.6258 27.4153 30.6778 27.1657 30.0883 26.3C29.2068 25.0054 28.7611 23.9829 28.4083 22.4457C27.6855 19.2954 27.567 18.876 27.1549 18.0089C26.3582 16.3326 24.7876 15.2093 22.6967 14.8205L22.2014 14.7284L22.2717 16.5596ZM53.3627 15.4953C53.2484 15.8279 53.0886 16.8649 53.0075 17.7998C52.8978 19.0645 52.8128 19.5179 52.6758 19.5704C52.5745 19.6094 52.2278 19.5395 51.9054 19.4154C50.7945 18.9874 48.9001 18.3606 48.4556 18.2738C48.164 18.2168 48.4177 18.3846 49.1904 18.76C51.0721 19.6738 52.47 20.6447 52.917 21.348C53.5976 22.4194 53.7342 23.1116 53.7359 25.5001L53.7374 27.6461L53.9451 26.9638C54.1604 26.2565 54.4374 24.0823 54.4374 23.0993C54.4374 22.6739 54.4972 22.504 54.682 22.4051C54.8854 22.2963 55.1057 22.4069 55.9865 23.06C56.5694 23.4922 57.3556 24.136 57.7333 24.491C58.1111 24.8458 58.3586 25.0187 58.2834 24.8752C58.0838 24.4947 56.2532 22.4688 55.2398 21.507C54.7536 21.0454 54.248 20.4247 54.0995 20.107C53.7018 19.2556 53.5143 17.9284 53.5649 16.3225C53.5898 15.5349 53.6012 14.8905 53.5903 14.8906C53.5793 14.8906 53.4769 15.1628 53.3627 15.4953ZM40.183 31.0114C40.183 34.4551 41.8238 36.9215 45.5884 39.1371C47.0216 39.9806 48.2603 40.5586 51.4465 41.8708C56.1899 43.8242 57.4647 44.4409 58.9811 45.5165C61.0929 47.0144 62.3207 48.9654 62.331 50.8399L62.3338 51.3541L62.5843 51.0359C62.9471 50.5748 63.5452 48.9676 63.7918 47.7905C64.0692 46.4672 64.0694 44.2793 63.7924 42.9542C63.1809 40.0296 61.3926 37.4359 58.8565 35.7953C56.5155 34.2808 54.1942 33.5964 48.5829 32.7657C44.1421 32.1082 42.4522 31.5693 40.8436 30.2979L40.183 29.7756V31.0114ZM45.1683 41.9996C45.5466 43.3726 45.5513 45.3255 45.1793 46.5231C44.6152 48.3385 43.3785 49.7338 41.5193 50.6524C40.3419 51.2341 39.0786 51.555 36.4921 51.9297C33.2912 52.3935 31.2509 52.9933 29.5349 53.9751C29.1531 54.1935 28.8597 54.3914 28.8832 54.4147C28.9065 54.4381 29.411 54.3218 30.0043 54.1565C31.5107 53.7365 33.3453 53.4912 36.2375 53.323C37.6025 53.2436 39.1775 53.093 39.7375 52.9882C43.0891 52.3618 45.5528 50.3411 46.3555 47.5604C46.609 46.6823 46.6395 45.0915 46.4209 44.1434C46.2492 43.3986 45.5519 41.8661 45.1558 41.3633C44.9105 41.0516 44.9107 41.0647 45.1683 41.9996ZM48.1819 43.3044C47.9306 44.2815 47.9682 46.5865 48.2517 47.5996C48.6767 49.1177 49.7865 51.1618 51.9483 54.4086C55.0591 59.0803 55.844 60.8594 55.8784 63.3176C55.8966 64.6128 55.7139 65.4952 55.1829 66.6786C54.9816 67.1271 54.8441 67.5214 54.8775 67.5546C54.9108 67.5879 55.3271 67.3841 55.8028 67.1015C61.1522 63.9234 63.1599 56.6372 60.1856 51.1951C59.5321 49.9994 57.6427 48.1233 56.0283 47.0668C55.3283 46.6088 53.5946 45.5963 52.1758 44.8168C50.7568 44.0372 49.3823 43.2666 49.1213 43.1042C48.8601 42.9418 48.5806 42.7701 48.5 42.7228C48.4041 42.6663 48.2944 42.8667 48.1819 43.3044ZM11.0868 49.7744C11.8087 50.3423 12.0007 51.2801 11.5472 52.0239C11.023 52.8838 9.93472 53.0202 9.5165 52.2785C9.32585 51.9403 9.3779 51.7253 9.79599 51.124C9.9337 50.9258 9.90735 50.858 9.60597 50.636C9.20583 50.3414 9.16434 50.0754 9.46661 49.7414C9.76494 49.4118 10.6487 49.4299 11.0868 49.7744ZM31.3376 55.8273C29.5488 56.1151 28.5946 56.5494 25.0896 58.6717C22.4394 60.2764 19.7474 61.7417 18.3559 62.3371L17.7195 62.6093L18.6155 62.6134C20.5483 62.6224 22.2421 63.3866 23.839 64.9702C24.4049 65.5312 25.0817 66.3171 25.3432 66.7165C25.9366 67.6229 26.5428 68.1609 27.45 68.5865C28.0637 68.8743 28.322 68.9174 29.4285 68.9164C30.5289 68.9154 30.7849 68.8726 31.319 68.6009C32.5044 67.9976 33.1139 66.9152 33.0312 65.5599C32.9463 64.1666 32.2896 63.2347 31.2633 63.0508C30.8352 62.9742 30.8374 62.9777 31.3956 63.2725C32.7457 63.9857 32.9501 66.2004 31.7662 67.2887C31.0595 67.9385 29.5959 68.1693 28.6607 67.7786C27.1135 67.1321 26.4366 64.6351 27.3135 62.8085C28.1694 61.0257 30.0216 60.0933 32.4344 60.2305C33.3608 60.2832 33.6817 60.3652 34.4983 60.7579C35.0691 61.0324 35.784 61.5181 36.243 61.9432C37.7413 63.3302 38.5632 64.7802 39.791 68.2015C40.5905 70.4295 40.9639 71.1924 41.5642 71.8238C43.0434 73.3793 45.7796 73.429 48.7738 71.9548C50.2206 71.2424 50.4801 70.9489 49.2173 71.4531C45.8777 72.7865 43.0207 72.4864 42.0063 70.6958C41.6264 70.0252 41.3831 68.9701 41.1418 66.9448C40.528 61.7917 40.0097 60.1583 38.4378 58.4213C37.3904 57.2639 36.2505 56.5386 34.7103 56.0494C34.1138 55.8599 31.9999 55.7206 31.3376 55.8273Z" fill="black"/>
<path d="M29.8541 36.1702C29.9796 36.607 29.0056 37.2702 27.6786 37.6516C26.3516 38.0329 25.1741 37.988 25.0486 37.5512C24.923 37.1144 25.897 36.4511 27.224 36.0698C28.551 35.6884 29.7286 35.7334 29.8541 36.1702Z" fill="black"/>
</svg>
