<svg width="284" height="328" viewBox="0 0 284 328" fill="none" xmlns="http://www.w3.org/2000/svg">
<path d="M118.291 121.213C111.127 111.35 106.695 96.2277 107.654 84.9231L107.951 81.4248L109.582 81.7224C112.644 82.281 117.924 84.2463 120.397 85.748C127.182 89.8687 130.119 95.2939 133.108 109.225C133.983 113.306 135.131 117.923 135.66 119.487C136.511 122.003 139.725 127.88 142.339 131.698C144.222 134.447 142.971 135.75 138.81 135.374C132.454 134.8 123.845 128.859 118.291 121.213Z" fill="black"/>
<path d="M228.427 194.619C194.946 181.139 183.155 169.438 183.155 149.696C183.155 146.79 183.255 144.413 183.377 144.413C183.498 144.413 184.794 145.372 186.255 146.544C193.044 151.989 200.647 154.315 221.693 157.385C234.078 159.192 241.048 160.652 247.477 162.784C267.911 169.561 280.554 183.314 283.569 202.047C284.445 207.49 283.932 217.697 282.511 223.077C281.39 227.326 277.566 234.918 277.566 234.918C277.314 234.999 277.147 234.918 276.497 233.084C275.847 231.25 270.865 219.937 261.712 213.177C252.559 206.418 249.841 204.861 228.427 194.619Z" fill="black"/>
<path d="M204.922 200.219C204.503 197.723 203.775 194.535 203.306 193.135L202.451 190.59L204.038 192.371C206.234 194.836 207.969 197.989 209.44 202.19C210.562 205.396 210.688 206.349 210.68 211.559C210.671 216.674 210.531 217.746 209.495 220.632C207.86 225.182 205.832 228.409 202.429 231.872C196.313 238.096 188.45 241.542 177.103 242.972C175.131 243.22 169.383 243.639 164.329 243.901C151.592 244.564 143.21 245.932 135.678 248.577C134.595 248.958 133.628 249.189 133.53 249.091C133.225 248.787 138.353 245.73 142.589 243.69C148.562 240.813 154.507 239.243 167.829 237.024C174.409 235.928 181.205 234.599 182.93 234.069C199.227 229.073 207.603 216.179 204.922 200.219Z" fill="black"/>
<path d="M220.27 227.476C215.822 217.914 214.8 208.681 217.237 200.071C217.498 199.151 217.917 198.398 218.169 198.398C218.421 198.398 219.471 198.965 220.502 199.659C222.552 201.038 226.663 203.362 237.615 209.334C251.283 216.786 259.076 222.556 264.375 229.148C269.016 234.922 271.888 241.497 273.27 249.515C274.053 254.057 273.594 264.986 272.429 269.559C268.754 283.98 260.213 295.307 248.032 301.917C246.247 302.885 244.645 303.68 244.472 303.684C244.298 303.687 244.949 302.034 245.917 300.009C250.015 291.443 250.481 283.111 247.383 273.836C245.486 268.157 241.618 261.228 233.809 249.517C224.729 235.901 222.504 232.278 220.27 227.476Z" fill="black"/>
<path fill-rule="evenodd" clip-rule="evenodd" d="M5.78709 7.55565C45.0823 55.2485 88.6966 118.124 91.7042 122.281C103.076 138 105.72 139.057 101.466 141.476C99.1004 142.821 98.7367 142.629 96.3014 142.629C93.547 142.629 90.4439 141.302 88.1843 139.159C86.5872 137.644 75.6588 121.772 60.7777 98.6824C49.3916 81.0148 39.8629 66.3586 39.603 66.1133C39.0019 65.5458 39.0122 65.5649 59.6168 102.432C72.5547 125.582 81.4047 142.689 81.4047 143.784C81.4047 146.01 80.7973 147.18 78.051 150.243C73.4727 155.351 71.4261 161.09 69.9487 172.967C68.2924 186.281 63.6352 195.686 50.7287 211.782C43.1736 221.205 41.9374 222.932 40.0311 226.729C37.6299 231.512 36.9696 234.19 36.702 240.229C36.4192 246.614 36.97 250.739 38.9208 256.844C40.6285 262.188 42.4112 265.717 46.9684 272.776C50.9012 278.867 53.1658 283.394 53.1658 285.165C53.1658 286.574 53.4347 286.575 59.529 285.199C74.1133 281.906 85.9557 276.114 92.616 269.015C96.738 264.622 97.7058 262.195 97.7371 256.175C97.7578 252.236 97.6192 251.412 96.5547 249.146C94.8218 245.459 91.6671 242.393 84.7141 237.64C75.6037 231.412 71.7125 226.398 70.6376 219.503C69.7559 213.845 70.7788 209.853 75.8188 199.29C81.0354 188.356 82.3281 183.697 83.2026 172.676C83.7674 165.556 84.5495 162.748 86.5953 160.494C88.7289 158.144 90.6496 157.348 95.9299 156.626C104.538 155.45 110.02 153.223 114.525 149.071C118.434 145.469 120.07 141.999 120.321 136.774L120.511 132.814L118.327 130.267C110.417 121.045 0.489797 0.305664 0.00301075 0.305664C-0.10098 0.305664 2.50196 3.56838 5.78709 7.55565ZM57.606 247.454C59.3945 244.287 58.4442 240.215 55.4527 238.226C52.6261 236.346 48.2351 237.231 48.2351 239.681C48.2351 240.428 48.6484 240.972 49.5799 241.451C51.1482 242.259 51.2621 243.166 50.0281 245.021C48.7784 246.899 48.8793 248.551 50.3127 249.673C52.6229 251.482 55.8933 250.487 57.606 247.454Z" fill="black"/>
<path fill-rule="evenodd" clip-rule="evenodd" d="M125.944 158.703C121.903 159.945 117.974 164.228 116.758 168.719C116.016 171.459 116.437 176.264 117.548 177.749C119.344 180.146 121.08 180.778 125.78 180.745C134.983 180.68 142.984 176.733 143.914 171.799C144.677 167.754 141.163 162.149 136.323 159.688C133.825 158.418 128.514 157.915 125.944 158.703ZM136.702 167.116C138.121 165.099 137.501 162.92 135.087 161.446C130.49 158.639 123.539 160.962 123.539 165.304C123.539 167.466 127.164 169.824 130.487 169.824C132.698 169.824 135.725 168.505 136.702 167.116Z" fill="black"/>
<path d="M136.48 258.84C122.398 261.128 106.939 268.58 94.5152 279.071L90.8163 282.194L94.067 282.701C111.031 285.349 115.599 287.698 127.365 299.819C134.137 306.794 136.424 308.346 142.04 309.78C150.289 311.886 158.421 308.016 161.21 300.657C162.456 297.369 160.055 290.93 156.901 287.959C153.747 284.988 158.208 290.005 158.208 294.098C158.208 300.402 152.843 305.152 146.599 304.375C143.261 303.96 139.179 301.825 136.991 299.351C131.484 293.124 133.629 283.298 141.318 279.528C147.171 276.657 154.952 277.365 160.986 281.316C167.919 285.856 170.867 290.005 176.838 303.624C178.782 308.058 181.284 313.049 182.397 314.716C188.052 323.183 194.829 327.336 202.993 327.336C207.494 327.336 210.882 326.513 215.143 324.385C218.309 322.803 222.797 319.799 222.474 319.478C222.382 319.386 221.068 319.794 219.555 320.384C210.642 323.861 201.582 323.621 196.32 319.77C193.007 317.345 190.334 312.516 188.96 306.474C188.722 305.429 187.937 300.811 187.216 296.213C185.386 284.556 183.629 279.316 179.534 273.304C175.343 267.153 167.285 261.989 158.277 259.684C152.658 258.246 142.548 257.854 136.48 258.84Z" fill="black"/>
<path d="M109.42 73.8683C107.759 74.1235 107.908 74.1877 111.437 74.7352C124.291 76.729 134.333 81.825 144.553 91.5418C149.05 95.8181 153.572 101.128 160.887 110.726C177.357 132.334 184.346 138.354 198.211 142.875C206.36 145.532 223.234 148.647 230.51 149.696L230.858 149.748C237.342 150.73 251.689 152.902 265.137 162.036L266.575 164.267L266.275 161.813C265.12 152.402 260.892 139.581 249.841 129.484C238.791 119.387 245.031 91.5418 245.031 91.5418C233.841 108.112 237.654 116.531 233.841 115.232C230.028 113.934 226.035 110.145 221.634 108.112C205.637 100.722 186.511 98.3211 167.71 101.342L163.247 102.06L160.128 98.5865C148.385 85.5125 137.385 78.1509 125.295 75.2773C120.117 74.0459 112.602 73.3789 109.42 73.8683Z" fill="black"/>
</svg>
