<svg width="317" height="367" viewBox="0 0 317 367" fill="none" xmlns="http://www.w3.org/2000/svg">
<path d="M124.305 83.4164C120.369 82.8029 120.203 82.7309 122.055 82.4449C125.605 81.8964 133.988 82.6439 139.764 84.0239C153.25 87.2444 165.521 95.4944 178.619 110.146L182.099 114.039L187.077 113.235C208.049 109.849 229.384 112.54 247.229 120.822C252.138 123.1 259.878 127.636 260.845 128.801C261.153 129.173 261.719 131.564 262.102 134.115C263.427 142.942 262.764 149.708 260.077 154.762C258.614 157.512 258.533 158.383 259.516 160.737C260.301 162.615 262.489 164.005 264.655 164.002C269.09 163.996 273.863 156.794 276.074 146.773L276.953 142.792L278.693 144.773C288.239 155.638 295.736 170.456 297.024 181.004L297.36 183.754L295.755 181.254C292.994 176.952 290.219 174.023 286.666 171.661C280.262 167.404 273.49 165.955 255.555 165.005C239.358 164.148 230.19 162.758 221.1 159.78C205.634 154.714 197.838 147.967 179.466 123.751C171.306 112.995 166.263 107.044 161.246 102.251C149.846 91.3619 138.644 85.6509 124.305 83.4164Z" fill="black"/>
<path d="M264.498 107.432C264.906 100.224 265.879 95.4704 267.835 91.1289C268.609 89.4104 269.334 88.0039 269.446 88.0039C269.558 88.0039 269.222 89.2724 268.698 90.8224C267.276 95.0359 267.043 100.799 268.022 107.504C269.266 116.011 269.973 117.239 278.923 126.429C283.121 130.739 288.004 136.176 289.774 138.51L292.992 142.754L289.774 139.721C285.838 136.012 276.786 128.778 274.786 127.744C273.446 127.051 273.246 127.063 272.419 127.89C271.657 128.652 271.497 129.797 271.391 135.21C271.226 143.646 270.082 149.061 267.319 154.476C265.825 157.404 265.59 156.779 266.942 153.474C267.951 151.006 268.054 149.921 268.046 141.754C268.031 125.344 266.092 121.399 254.72 114.641C251.839 112.929 247.093 110.46 244.172 109.154C241.252 107.848 238.932 106.711 239.016 106.626C239.338 106.304 250.428 109.556 254.892 111.281C261.531 113.847 262.627 114.179 263.434 113.87C263.974 113.662 264.236 112.081 264.498 107.432Z" fill="black"/>
<path d="M131.952 135.504C123.96 124.45 119.016 107.503 120.086 94.8339L120.417 90.9134L122.236 91.2469C125.652 91.8729 131.542 94.0754 134.3 95.7584C141.869 100.376 145.145 106.456 148.479 122.069C149.455 126.642 150.736 131.817 151.326 133.569C152.275 136.389 155.861 142.976 158.776 147.254C160.876 150.335 159.481 151.795 154.839 151.374C147.75 150.731 138.147 144.072 131.952 135.504Z" fill="black"/>
<path d="M254.805 217.769C217.459 202.662 204.305 189.549 204.305 167.424C204.305 164.168 204.417 161.504 204.553 161.504C204.689 161.504 206.134 162.578 207.764 163.892C215.337 169.994 223.817 172.601 247.294 176.042C261.109 178.067 268.884 179.702 276.055 182.092C298.85 189.687 312.953 205.1 316.316 226.093C317.293 232.193 316.72 243.633 315.136 249.662C313.885 254.424 310.068 263.007 309.055 263.336C308.775 263.428 308.499 262.347 308.427 260.876C308.043 252.993 304.078 245.319 297.419 239.57C289.848 233.034 279.676 227.83 254.805 217.769Z" fill="black"/>
<path d="M228.587 224.045C228.119 221.248 227.307 217.675 226.783 216.106L225.83 213.254L227.6 215.25C230.05 218.012 231.985 221.546 233.626 226.254C234.878 229.847 235.019 230.915 235.009 236.754C235 242.486 234.843 243.687 233.687 246.921C231.864 252.021 229.602 255.637 225.805 259.518C218.983 266.494 210.212 270.356 197.555 271.958C195.355 272.236 188.943 272.705 183.305 272.999C169.098 273.742 159.748 275.275 151.346 278.239C150.138 278.666 149.059 278.925 148.95 278.815C148.61 278.475 154.33 275.049 159.055 272.762C165.718 269.538 172.35 267.778 187.209 265.292C194.55 264.064 202.13 262.574 204.055 261.981C222.233 256.381 231.577 241.931 228.587 224.045Z" fill="black"/>
<path d="M245.707 254.592C240.745 243.875 239.605 233.528 242.324 223.879C242.615 222.848 243.082 222.004 243.364 222.004C243.645 222.004 244.816 222.64 245.965 223.417C248.252 224.963 252.838 227.568 265.055 234.26C280.301 242.611 288.994 249.078 294.905 256.466C300.082 262.936 303.285 270.305 304.827 279.291C305.7 284.381 305.189 296.628 303.889 301.754C299.79 317.915 290.263 330.609 276.675 338.017C274.684 339.102 272.897 339.993 272.703 339.997C272.51 340.001 273.235 338.148 274.315 335.879C278.886 326.279 279.407 316.941 275.951 306.547C273.835 300.183 269.52 292.417 260.809 279.293C250.681 264.034 248.198 259.973 245.707 254.592Z" fill="black"/>
<path d="M105.43 312.413C119.289 300.657 136.533 292.305 152.24 289.741C159.01 288.636 170.287 289.075 176.555 290.687C186.603 293.27 195.592 299.057 200.266 305.951C204.835 312.689 206.795 318.56 208.835 331.624C209.64 336.778 210.516 341.953 210.781 343.124C212.313 349.895 215.295 355.307 218.991 358.025C224.86 362.341 234.967 362.609 244.91 358.713C246.597 358.051 248.062 357.594 248.165 357.697C248.526 358.057 243.519 361.424 239.987 363.197C235.235 365.582 231.456 366.504 226.434 366.504C217.328 366.504 209.768 361.85 203.46 352.36C202.218 350.493 199.428 344.899 197.259 339.93C190.599 324.667 187.31 320.018 179.576 314.929C172.846 310.502 164.167 309.709 157.637 312.925C149.06 317.15 146.667 328.162 152.81 335.141C155.252 337.914 159.805 340.307 163.528 340.772C170.493 341.642 176.478 336.319 176.478 329.254C176.478 324.667 174.723 322.049 170.305 320.046C164.271 317.31 157.785 320.508 157.816 326.203C157.83 328.631 158.882 330.156 161.305 331.258C162.86 331.964 162.896 332.02 161.628 331.756C156.092 330.602 154.795 323.897 159.246 319.445C164.591 314.101 175.642 316.459 179.437 323.754C181.032 326.818 181.217 332.92 179.827 336.605C176.716 344.852 167.645 349.189 158.443 346.829C152.178 345.222 149.627 343.482 142.073 335.666C128.948 322.082 123.852 319.45 104.93 316.482L101.304 315.913L105.43 312.413Z" fill="black"/>
<path fill-rule="evenodd" clip-rule="evenodd" d="M6.45538 8.12891C50.2884 61.5779 98.645 129.456 102 134.115C114.685 151.731 120.246 154.789 115.5 157.5C112.861 159.007 110.139 159.504 107.422 159.504C104.35 159.504 100.888 158.017 98.3679 155.615C96.5864 153.918 84.3959 136.13 67.7964 110.254C55.0954 90.4539 44.4663 74.0289 44.1763 73.7539C43.5058 73.1179 43.5173 73.1394 66.5013 114.456C80.9333 140.4 90.8054 159.572 90.8054 160.798C90.8054 163.293 90.1278 164.605 87.0643 168.038C81.9573 173.762 79.6744 180.193 78.0264 193.504C76.1789 208.425 70.9839 218.965 56.5869 237.004C48.1594 247.563 46.7804 249.499 44.6539 253.755C41.9754 259.114 41.2389 262.116 40.9404 268.884C40.6249 276.04 41.2393 280.662 43.4153 287.504C45.3203 293.493 47.3088 297.448 52.3923 305.359C56.7793 312.185 59.3054 317.258 59.3054 319.243C59.3054 320.822 59.6054 320.824 66.4034 319.282C82.6719 315.591 95.8818 309.099 103.311 301.144C107.909 296.22 108.989 293.501 109.024 286.754C109.047 282.34 108.892 281.416 107.705 278.877C105.772 274.745 102.253 271.309 94.4969 265.982C84.3344 259.002 79.9939 253.383 78.7949 245.656C77.8114 239.315 78.9523 234.842 84.5743 223.004C90.3933 210.75 91.8354 205.529 92.8109 193.178C93.4409 185.198 94.3133 182.051 96.5953 179.525C98.9753 176.891 101.118 175.999 107.008 175.191C116.61 173.873 122.725 171.377 127.751 166.724C132.111 162.687 133.935 158.798 134.215 152.943L134.428 148.505L131.991 145.651C123.168 135.315 0.546358 0.00390625 0.00335843 0.00390625C-0.112642 0.00390625 2.79088 3.66041 6.45538 8.12891ZM64.2584 276.981C66.2534 273.431 65.1934 268.868 61.8564 266.639C58.7034 264.532 53.8054 265.524 53.8054 268.269C53.8054 269.107 54.2664 269.716 55.3054 270.254C57.0549 271.158 57.1819 272.175 55.8054 274.254C54.4114 276.359 54.5239 278.21 56.1229 279.467C58.6999 281.495 62.3479 280.38 64.2584 276.981Z" fill="black"/>
<path fill-rule="evenodd" clip-rule="evenodd" d="M140.488 177.519C135.98 178.91 131.598 183.71 130.241 188.743C129.414 191.813 129.883 197.199 131.123 198.863C133.125 201.549 135.062 202.257 140.305 202.22C150.571 202.148 159.496 197.725 160.533 192.195C161.384 187.662 157.464 181.38 152.065 178.622C149.279 177.199 143.354 176.635 140.488 177.519ZM152.489 186.947C154.072 184.687 153.379 182.244 150.687 180.592C145.559 177.447 137.805 180.05 137.805 184.916C137.805 187.339 141.849 189.982 145.555 189.982C148.022 189.982 151.398 188.504 152.489 186.947Z" fill="black"/>
</svg>
