<svg width="171" height="41" viewBox="0 0 171 41" fill="none" xmlns="http://www.w3.org/2000/svg">
<path fill-rule="evenodd" clip-rule="evenodd" d="M6.64341 1.05789C6.31395 1.4232 6.07399 1.80618 6.11054 1.90877C6.26408 2.34167 7.55765 6.53757 7.55765 6.60321C7.55765 6.64276 6.98823 7.08181 6.29226 7.57889L5.02688 8.48277L5.11671 9.50285C5.20159 10.4649 5.25625 10.5716 6.07741 11.374C6.91138 12.1889 6.98636 12.2249 7.85073 12.2249C8.59981 12.2249 8.75165 12.273 8.74413 12.5085C8.73918 12.6646 8.33133 14.2508 7.83809 16.0336L6.9411 19.275L3.47046 20.8935L0 22.5118L0.102817 23.8918C0.159519 24.6508 0.2567 26.0145 0.318697 26.9223L0.431758 28.5727L2.5002 30.6213L4.56882 32.6697L5.97784 32.0631C6.75271 31.7295 7.38635 31.4141 7.38566 31.3624C7.38498 31.3107 6.80856 30.2475 6.10473 28.9999C5.40091 27.7521 4.825 26.6448 4.825 26.5393C4.825 26.4336 5.24583 25.8865 5.76008 25.3233L6.69533 24.2993L6.33581 24.0132C6.06682 23.7991 5.91926 23.7721 5.74932 23.9059C5.32747 24.2382 3.62947 26.2788 3.62947 26.4536C3.62947 26.549 4.17378 27.5863 4.83918 28.7587C5.50458 29.9311 6.02327 30.9114 5.99201 30.9371C5.96076 30.9631 5.69398 31.1003 5.39937 31.2425L4.8636 31.501L3.1791 29.8777C1.27615 28.044 1.41876 28.4075 1.16633 24.7443L1.0519 23.0823L4.43287 21.5029L7.81384 19.9233L8.96291 15.7094C9.59484 13.3918 10.1135 11.4408 10.1157 11.374C10.1178 11.3072 9.52379 11.2521 8.79588 11.2516C7.52554 11.251 7.44646 11.2284 6.83179 10.6926C6.29517 10.2249 6.19133 10.0286 6.19133 9.48178C6.19133 8.85861 6.24974 8.7873 7.47618 7.9113C8.37232 7.27127 8.73508 6.91455 8.67479 6.73238C8.21007 5.32575 7.21607 2.09224 7.21607 1.98689C7.21607 1.65124 7.63058 1.94961 8.9583 3.24101L10.3861 4.62997L11.1494 3.99368C12.0361 3.25479 14.2046 2.28786 14.483 2.50715C14.5845 2.58688 14.8495 3.02124 15.0721 3.47213C15.3272 3.98898 15.6072 4.31815 15.8297 4.36288C16.0237 4.40177 16.8358 4.5525 17.6343 4.69788C18.4327 4.8431 19.147 5.01668 19.2214 5.08345C19.2961 5.15023 19.156 6.05524 18.9103 7.09461L18.4636 8.98422L18.9852 9.83461C19.8206 11.1965 19.7666 11.1464 20.1745 10.9393C20.6544 10.6955 20.6349 10.533 20.0151 9.61663L19.4927 8.84386L19.9441 7.05264C20.3196 5.56141 20.3635 5.16951 20.205 4.71409C20.0184 4.17747 19.9844 4.16142 18.4402 3.8859C17.5743 3.73128 16.7052 3.57018 16.5088 3.52788C16.27 3.47634 15.9622 3.07878 15.5792 2.32741C15.2642 1.70942 14.9192 1.20392 14.8127 1.20392C14.4748 1.20392 11.498 2.48219 10.9647 2.85641L10.4531 3.2154L8.95933 1.80456C8.13765 1.02856 7.41538 0.393555 7.35407 0.393555C7.29275 0.393555 6.97303 0.692579 6.64341 1.05789ZM13.4499 5.0076C13.1167 5.26692 12.7172 5.40825 12.3072 5.41197C11.6037 5.41846 11.4119 5.58944 11.5717 6.06756C11.7709 6.66318 13.135 6.46723 14.1122 5.70257C14.5594 5.35266 14.5828 5.28588 14.3701 4.96271C14.0798 4.52155 14.0743 4.52187 13.4499 5.0076ZM15.0261 7.54615C14.8637 7.63237 14.7331 7.79055 14.7358 7.89752C14.7385 8.00449 15.2287 8.8403 15.8251 9.75471L16.9095 11.4174L17.2978 11.119L17.686 10.8207L16.6186 9.17255C16.0316 8.26591 15.4996 7.49396 15.4364 7.45685C15.373 7.41973 15.1884 7.45993 15.0261 7.54615ZM9.27204 7.9993C8.98648 8.50594 9.05087 8.6014 9.91729 8.95521C10.6597 9.25812 10.8138 9.27028 11.4971 9.07871C11.9137 8.96202 12.2467 8.78341 12.2373 8.68195C12.1727 7.98293 12.1941 7.99671 11.3422 8.10384C10.7414 8.17953 10.3695 8.13642 9.98236 7.94647C9.47802 7.69898 9.43993 7.70174 9.27204 7.9993ZM33.3721 10.3617L31.47 11.3915L29.7054 10.8309L27.9408 10.2701L24.8418 10.9968C22.7355 11.4908 21.0166 12.0151 19.4751 12.6339C13.6147 14.9859 11.9019 15.6897 11.7678 15.8004C11.688 15.8662 11.6759 16.0793 11.7412 16.2741C11.8319 16.5451 11.9511 16.6065 12.2493 16.5355C12.4636 16.4845 14.7044 15.6016 17.2288 14.5738C21.1044 12.9957 22.2837 12.5926 24.8075 11.984L27.7963 11.2633L29.6967 11.8539L31.5973 12.4443L33.2621 11.5242C34.1777 11.0182 35.0155 10.6041 35.1237 10.6041C35.4872 10.6041 36.0797 11.1058 36.0797 11.4135C36.0797 11.6364 35.4918 12.0257 33.8906 12.8629C32.6866 13.4926 31.5604 14.0077 31.3877 14.0077C31.2152 14.0077 30.3881 13.8124 29.5495 13.5735C28.258 13.2057 28.0011 13.1748 27.8682 13.3709C27.5326 13.8663 27.8209 14.0641 29.675 14.6106L31.5537 15.1642L34.2864 13.7333L37.019 12.3022L37.0697 11.4784L37.1204 10.6545L36.1972 9.99312L35.274 9.3317L33.3721 10.3617ZM45.3023 18.6379C45.3023 28.8903 45.3262 29.0514 47.1166 30.8678C48.4493 32.2198 50.4397 32.8076 53.6711 32.8037C57.0818 32.7995 59.051 32.2327 60.3963 30.8678C62.1867 29.0514 62.2106 28.8903 62.2106 18.6379V10.1062L60.5454 10.1526L58.8802 10.199L58.7948 18.7078C58.7034 27.8086 58.6947 27.8988 57.83 28.6286C56.8913 29.4208 53.9192 29.8007 51.7282 29.4083C50.3379 29.1595 49.5958 28.7154 49.1451 27.8628C48.8201 27.2479 48.7994 26.8044 48.7181 18.7078L48.6328 10.199L46.9675 10.1526L45.3023 10.1062V18.6379ZM85.8529 10.3327C85.8051 10.4508 85.7884 11.2348 85.8155 12.0749L85.8651 13.6025L87.7011 13.6485L89.5371 13.6945V11.9062V10.1179H87.7385C86.4027 10.1179 85.9173 10.1732 85.8529 10.3327ZM33.8918 14.7482L31.2772 16.1324L29.2805 15.6151C28.1825 15.3307 26.1166 14.7835 24.69 14.3991L22.0958 13.7L17.9865 15.5018C15.7262 16.4927 13.8769 17.3867 13.8769 17.4883C13.8769 17.5901 13.9731 17.789 14.0904 17.9301C14.2798 18.1579 14.7351 17.9963 18.1157 16.5024C20.2122 15.576 22.0567 14.8175 22.2147 14.8169C22.3727 14.8162 24.4912 15.3412 26.9224 15.9835L31.3431 17.1514L32.5585 16.535C35.5809 15.0023 37.1044 14.136 37.1044 13.95C37.1044 13.7453 36.7722 13.3574 36.6006 13.3618C36.549 13.3631 35.3301 13.9869 33.8918 14.7482ZM22.2345 16.7094C22.1414 16.9418 22.0866 17.1507 22.1128 17.1736C22.2461 17.2904 27.5145 18.8698 27.7709 18.8698C28.0839 18.8698 29.4152 18.207 29.4175 18.0499C29.4183 18.0002 29.3109 17.8193 29.1789 17.648C28.9466 17.3465 28.9186 17.3457 28.306 17.6229C27.6754 17.9083 27.666 17.9071 25.7019 17.3201C24.6177 16.9961 23.4321 16.6311 23.0673 16.5089C22.4181 16.2916 22.4002 16.296 22.2345 16.7094ZM73.039 16.4272C71.1303 16.717 69.6444 17.4703 69.1778 18.3848L68.9196 18.8904L68.812 18.2724C68.7529 17.9324 68.7035 17.4172 68.7025 17.1276L68.7006 16.6008H67.1635H65.6264V24.7045V32.8081H67.3239H69.0214L69.0745 27.4192C69.1259 22.2066 69.1401 22.0082 69.508 21.3551C70.2745 19.9948 71.941 19.4193 74.7 19.5622C76.5935 19.6603 77.608 20.0071 78.3067 20.7951C79.1013 21.6912 79.1679 22.1782 79.2457 27.668L79.3187 32.8194L80.9694 32.7733L82.62 32.7271L82.6173 27.2166C82.6149 22.5544 82.57 21.5526 82.3263 20.7095C81.7191 18.6092 80.3849 17.2948 78.2483 16.6919C77.1624 16.3854 74.279 16.2389 73.039 16.4272ZM98.8451 16.4415C96.7919 16.649 95.0826 17.2318 94.0823 18.0652C92.7517 19.1737 92.1836 21.0278 92.6791 22.6452C93.345 24.819 95.4775 25.6746 102.048 26.4044C103.341 26.548 104.752 26.7667 105.186 26.8905C106.61 27.2973 107.16 28.1793 106.524 29.0397C106.068 29.6587 105.087 29.8029 101.322 29.8049C98.3968 29.8063 97.7149 29.7615 97.1789 29.5324C96.522 29.2517 96.1979 28.7506 96.1979 28.0164C96.1979 27.6245 96.1858 27.6218 94.49 27.6218H92.7821V28.3216C92.7821 30.4028 93.9006 31.8358 96.0204 32.4707C98.6791 33.2671 103.831 33.2292 106.474 32.3938C108.296 31.8182 109.53 30.7344 109.952 29.341C110.303 28.1816 110.226 26.9445 109.749 26.0675C108.835 24.3878 106.302 23.5494 100.468 22.9954C96.8498 22.6518 95.3965 21.8502 96.0491 20.5582C96.4611 19.7424 97.1801 19.6126 101.322 19.6055C105.968 19.5976 106.435 19.7557 106.443 21.3415L106.445 21.7872H108.153H109.861V21.0063C109.861 18.1932 108.069 16.8229 103.883 16.4354C102.041 16.2647 100.577 16.2665 98.8451 16.4415ZM139.579 16.4324C137.49 16.6494 136.051 17.188 135.025 18.136C134.068 19.0212 133.79 19.6689 133.724 21.1735L133.686 22.0303L135.352 22.0766L137.017 22.123V21.6257C137.017 21.3523 137.125 20.8834 137.256 20.5841C137.627 19.7424 138.288 19.5992 141.799 19.5992C145.089 19.5992 146.122 19.7734 146.782 20.44C147.15 20.8108 147.183 20.9996 147.235 23.0466L147.292 25.2536L146.552 24.5683C145.366 23.4691 144.083 23.1635 140.689 23.1704C137.182 23.1776 135.876 23.5029 134.638 24.6776C133.672 25.5942 133.348 26.5182 133.371 28.2919C133.4 30.4848 134.304 31.7671 136.341 32.5016C138.392 33.241 143.372 33.2207 145.222 32.4653C145.724 32.2605 146.357 31.8175 146.744 31.4002C147.479 30.6078 147.489 30.6144 147.701 32.0383L147.815 32.8081H149.248H150.68V27.0247C150.68 20.2645 150.618 19.8661 149.35 18.5277C147.985 17.0869 146.169 16.4809 142.882 16.3684C141.77 16.3305 140.283 16.3592 139.579 16.4324ZM161.508 16.4272C159.545 16.7253 158.181 17.4109 157.72 18.3311L157.426 18.9164L157.318 18.4475C157.259 18.1895 157.201 17.6686 157.19 17.2896L157.17 16.6008H155.633H154.096V27.9517V39.3027L155.761 39.2563L157.426 39.21L157.512 34.915C157.594 30.7765 157.607 30.6383 157.885 31.1183C158.712 32.5507 161.722 33.3324 165.023 32.972C166.954 32.7611 167.987 32.3856 168.991 31.5298C170.658 30.1088 171 28.9482 171 24.7045C171 22.5807 170.925 21.2782 170.772 20.7337C169.955 17.8311 167.96 16.5193 164.13 16.3653C163.167 16.3266 161.987 16.3545 161.508 16.4272ZM86.0287 16.8034C85.9838 16.9149 85.9669 20.5432 85.9915 24.8665L86.0359 32.7271L87.7011 32.7734L89.3663 32.8198V24.7103V16.6008H87.7385C86.5937 16.6008 86.0862 16.661 86.0287 16.8034ZM113.325 20.4439C113.385 23.0657 113.498 24.6623 113.679 25.4338C114.103 27.2375 114.949 29.5213 115.811 31.1874L116.607 32.7271L118.343 32.7731L120.079 32.8191L120.624 31.4788C120.924 30.7415 121.299 29.5642 121.458 28.8624L121.747 27.5866L122.188 29.2655C122.431 30.1888 122.827 31.3635 123.068 31.8762L123.506 32.8081H125.193H126.881L127.672 31.2279C129.7 27.1753 130.03 25.7549 130.137 20.6121L130.22 16.6008H128.603H126.987L126.887 20.288C126.782 24.1695 126.598 25.4387 125.829 27.6177C125.182 29.448 125.148 29.4691 124.634 28.3662C123.711 26.3853 123.636 25.89 123.534 21.1389L123.439 16.6819L121.774 16.6355L120.109 16.5892V20.2204C120.109 22.7413 120.029 24.2834 119.849 25.2639C119.584 26.708 118.662 29.2425 118.402 29.2425C118.243 29.2425 117.544 27.3265 117.101 25.6769C116.896 24.9114 116.79 23.538 116.713 20.6526L116.607 16.6819L114.923 16.6352L113.237 16.5887L113.325 20.4439ZM17.0825 18.3564C15.725 18.9676 15.602 19.1008 15.9691 19.563C16.1641 19.8087 16.2927 19.7826 17.4531 19.2614L18.7238 18.6908L20.4419 19.2781C21.3871 19.6013 22.7233 20.0582 23.4116 20.2935C24.5528 20.6836 24.7021 20.7005 25.1059 20.4844C25.6555 20.1903 25.7303 19.9935 25.4367 19.6126C25.2539 19.3755 25.1381 19.3502 24.8662 19.4883C24.4867 19.681 24.482 19.6797 21.0848 18.4781C19.9297 18.0697 18.8537 17.7413 18.6937 17.7486C18.5337 17.7558 17.8087 18.0293 17.0825 18.3564ZM165.555 19.9588C166.46 20.3387 167.165 21.0805 167.413 21.9137C167.717 22.9392 167.813 25.2032 167.606 26.4873C167.358 28.0261 166.8 28.8461 165.623 29.4028C164.852 29.7675 164.566 29.8063 162.635 29.808C160.681 29.8096 160.419 29.7734 159.536 29.3806C158.768 29.0389 158.472 28.791 158.084 28.165C157.602 27.3861 157.597 27.3531 157.597 24.7045C157.597 22.2494 157.628 21.975 157.977 21.3551C158.747 19.989 160.171 19.4839 162.988 19.5781C164.306 19.6222 164.998 19.7248 165.555 19.9588ZM25.6614 21.463V21.9492H26.7606H27.86L29.495 23.162C31.7233 24.815 31.6063 24.7588 34.201 25.425C35.4691 25.7508 36.6019 26.0474 36.7184 26.0845C36.9182 26.1479 37.2313 25.4192 37.0699 25.266C37.0284 25.2267 35.8967 24.8999 34.5552 24.5401L32.1161 23.886L30.1148 22.4314L28.1135 20.9768H26.8874H25.6614V21.463ZM23.5817 21.6316C23.3243 21.7739 23.3725 21.9473 24.0541 23.3314L24.8131 24.8727L24.455 26.2067C24.1464 27.3568 23.9616 27.6971 23.1151 28.6752L22.1331 29.8098L22.8639 31.2684C23.2658 32.0707 23.5985 32.8267 23.6032 32.9485C23.6104 33.1316 22.5918 34.4176 19.307 38.373C19.0158 38.7238 19.0156 38.7238 18.6765 38.3996C18.3379 38.0761 18.339 38.0714 19.2667 35.9163C19.7779 34.7288 20.1956 33.6713 20.1949 33.5663C20.1943 33.4613 19.6988 32.7028 19.0939 31.8809L17.9941 30.3862L18.9243 28.4419C19.436 27.3725 19.8546 26.4249 19.8546 26.336C19.8546 26.1623 19.1869 25.7701 19.0739 25.8775C18.92 26.0234 16.9511 30.2788 16.9511 30.4652C16.9511 30.5762 17.373 31.2251 17.8888 31.9071C18.4044 32.5891 18.8973 33.2733 18.9842 33.4274C19.1002 33.6329 18.8934 34.2836 18.2085 35.8685C17.6949 37.0572 17.298 38.1286 17.3265 38.2495C17.382 38.486 18.8589 40.248 19.0006 40.2471C19.0476 40.2467 19.893 39.2555 20.8793 38.0442C21.8656 36.833 23.153 35.2536 23.74 34.5343C24.3272 33.8152 24.8075 33.171 24.8075 33.1027C24.8075 33.0345 24.47 32.3026 24.0574 31.4765L23.3073 29.9743L23.8439 29.3603C24.8963 28.1565 25.0686 27.8339 25.4702 26.3192L25.8768 24.7855L25.0613 23.1243C24.613 22.2106 24.1609 21.4653 24.057 21.4679C23.9532 21.4706 23.7392 21.5442 23.5817 21.6316ZM7.96106 23.4889C7.90692 23.6226 7.89974 23.8238 7.945 23.9358C7.99043 24.0477 9.17059 24.527 10.5678 25.0006C11.9651 25.4743 14.0641 26.1856 15.2321 26.5813C16.8543 27.1309 17.3882 27.2526 17.4925 27.0967C17.8949 26.495 17.6862 26.3884 13.0115 24.8084C10.4689 23.9489 8.31459 23.2458 8.2239 23.2458C8.13338 23.2458 8.01503 23.3552 7.96106 23.4889ZM145.813 26.6471C147.079 27.0093 147.595 27.8665 147.088 28.7652C146.668 29.5112 144.715 29.8908 141.298 29.8908C137.644 29.8908 136.761 29.5462 136.761 28.1205C136.761 27.1848 137.096 26.7531 138.013 26.5075C138.849 26.2835 144.921 26.3923 145.813 26.6471Z" fill="black"/>
</svg>
