<svg width="285" height="329" viewBox="0 0 285 329" fill="none" xmlns="http://www.w3.org/2000/svg">
<path d="M144.174 168C150.644 179.39 136.174 182.92 129.384 183.57C119.094 184.57 116.964 178.64 118.974 171.19C119.633 168.523 121.097 166.123 123.167 164.317C125.236 162.51 127.812 161.383 130.544 161.09C133.236 160.844 135.942 161.361 138.353 162.583C140.764 163.806 142.782 165.683 144.174 168V168Z" fill="black"/>
<path d="M184.563 146.94C177.043 204.46 278.423 192.49 276.493 238.27C286.493 225.27 290.793 189.95 261.353 171.77C235.123 155.56 200.943 164.43 184.563 146.94Z" fill="black"/>
<path d="M242.973 125.25C242.313 124.64 241.633 124.04 240.973 123.44C241.643 124.05 242.313 124.69 242.973 125.25Z" fill="#FF00F3"/>
<path d="M266.513 167.15L266.453 167.06C265.538 165.36 264.495 163.732 263.333 162.19C259.915 157.56 255.013 154.242 249.443 152.79C245.736 151.833 241.945 151.237 238.123 151.01C234.253 150.73 230.303 150.57 226.313 150.36C218.313 149.92 210.123 149.1 202.123 146.82C200.123 146.25 198.123 145.63 196.193 144.88C195.193 144.52 194.263 144.13 193.273 143.71C192.283 143.29 191.273 142.81 190.273 142.3C186.512 140.24 183.027 137.709 179.903 134.77C173.743 129.04 168.903 122.54 164.053 116.24C159.481 109.916 154.574 103.841 149.353 98.0402C144.202 92.3578 138.114 87.6021 131.353 83.9802C124.353 80.4544 116.75 78.283 108.943 77.5802C117.042 76.7009 125.234 77.7001 132.883 80.5002C140.602 83.4968 147.659 87.978 153.653 93.6902C157.567 97.3607 161.242 101.279 164.653 105.42C190.053 100.42 210.653 104.86 226.483 113.48L226.843 113.66C231.882 116.393 236.604 119.673 240.923 123.44C241.613 124.04 242.293 124.64 242.923 125.25C246.295 128.348 249.434 131.691 252.313 135.25L252.533 135.54C261.883 147.38 266.503 159.69 266.513 167.15Z" fill="black"/>
<path d="M266.513 167.15L266.453 167.03L266.513 167.15Z" fill="black"/>
<path d="M110.232 85.0195C116.712 85.9595 123.322 88.5395 127.582 93.4595C131.842 98.3795 133.412 104.78 134.642 110.87C135.642 115.59 136.432 120.4 138.292 124.87C139.192 127.05 140.512 128.96 141.612 131.02C142.522 132.73 144.182 134.269 144.822 136.099C144.937 136.362 144.979 136.651 144.946 136.935C144.913 137.22 144.804 137.49 144.632 137.72C142.372 140.22 136.272 137.44 133.972 136.32C129.996 134.349 126.435 131.633 123.482 128.32C114.252 118.07 109.482 103.32 109.772 89.8895C109.836 88.259 109.99 86.6332 110.232 85.0195Z" fill="black"/>
<path d="M218.624 200.59C204.624 239.66 268.124 265.87 244.334 305.59C268.744 295.51 280.334 265.06 270.204 240.9C261.344 219.69 235.144 211.96 218.624 200.59Z" fill="black"/>
<path d="M134.633 251.69C138.448 248.814 142.619 246.445 147.043 244.64C151.518 242.848 156.161 241.508 160.903 240.64C170.313 238.85 179.623 238.41 187.443 235.26C191.307 233.751 194.862 231.548 197.933 228.76C200.905 225.998 203.181 222.571 204.573 218.76C205.999 214.739 206.578 210.466 206.273 206.21C205.92 201.638 204.885 197.145 203.203 192.88C206.689 196.505 209.227 200.934 210.592 205.774C211.958 210.615 212.109 215.717 211.033 220.63C209.809 225.83 207.168 230.59 203.403 234.38C199.676 238.052 195.181 240.852 190.243 242.58C185.53 244.233 180.616 245.242 175.633 245.58C170.833 245.98 166.193 246.09 161.633 246.36C152.413 246.747 143.308 248.544 134.633 251.69V251.69Z" fill="black"/>
<path d="M224.213 320.36C222.803 321.48 221.393 322.67 219.843 323.71C218.283 324.738 216.649 325.647 214.953 326.43C211.423 328.152 207.541 329.032 203.613 329C192.973 328.8 185.453 320.88 181.053 311.93C178.053 305.83 175.983 299.24 172.423 293.43C167.333 285.12 158.623 278.43 148.423 279.67C144.263 280.19 140.363 282.06 138.053 285.67C131.973 295.1 140.703 308.31 151.833 306.44C152.78 306.296 153.706 306.041 154.593 305.68C155.477 305.303 156.302 304.802 157.043 304.19C158.598 302.895 159.77 301.201 160.433 299.29C161.164 297.297 161.327 295.14 160.903 293.06C160.446 290.886 159.163 288.975 157.323 287.73C159.462 288.731 161.129 290.524 161.973 292.73C162.848 295 163.074 297.469 162.623 299.86C162.186 302.351 161.088 304.679 159.443 306.6C158.569 307.588 157.559 308.447 156.443 309.15C155.337 309.845 154.152 310.405 152.913 310.82C150.401 311.678 147.727 311.955 145.093 311.63C141.394 311.103 137.905 309.59 134.993 307.25C131.553 304.53 128.993 300.97 125.883 297.91C122.318 294.169 118.111 291.097 113.463 288.84C110.257 287.432 106.903 286.392 103.463 285.74C101.733 285.38 99.9829 285.12 98.2329 284.9C97.4329 284.82 93.5129 283.95 92.9629 284.46C98.3719 279.481 104.268 275.058 110.563 271.26C117.026 267.424 123.966 264.456 131.203 262.43C138.707 260.318 146.555 259.716 154.293 260.66C158.276 261.138 162.177 262.147 165.893 263.66C169.786 265.215 173.38 267.435 176.513 270.22C179.614 273.141 182.12 276.636 183.893 280.51C185.493 284.137 186.687 287.93 187.453 291.82C189.733 303.45 188.893 321.48 204.123 324.14C204.917 324.294 205.718 324.407 206.523 324.48L209.013 324.54C210.725 324.418 212.426 324.174 214.103 323.81C217.577 322.993 220.964 321.837 224.213 320.36V320.36Z" fill="black"/>
<path d="M135.713 307.69L135.312 307.38L135.713 307.69Z" fill="#FF00FF"/>
<path d="M122.043 143.55C121.488 145.681 120.52 147.683 119.193 149.44C116.723 152.646 113.453 155.146 109.713 156.69C106.348 158.14 102.785 159.077 99.1427 159.47C98.3527 159.57 97.5328 159.63 96.7428 159.69C94.4358 159.778 92.2175 160.602 90.4126 162.041C88.6078 163.481 87.3112 165.46 86.7127 167.69C86.4387 168.799 86.235 169.925 86.1028 171.06C85.7428 174 85.6828 177.06 85.3628 180.76C84.5792 187.056 82.7578 193.179 79.9727 198.88C76.3527 206.5 72.2928 212.64 73.2328 221.42C73.8528 227.12 76.7727 230.94 80.6527 234.88C87.6527 242.04 103.323 245.24 99.8227 262.88C97.7127 273.41 80.2527 284.46 55.7127 288.32C58.1527 287.95 52.5827 278.56 52.2327 277.96C49.6027 273.84 46.7228 269.96 44.6328 265.49C40.5328 256.82 38.6327 246.79 40.3127 237.29C42.0827 227.29 49.4828 219.63 55.6328 211.99C62.9528 202.9 70.6327 190.99 72.3327 179.19C72.7327 176.33 73.0127 172.75 73.6527 169.19C74.2629 165.246 75.4984 161.425 77.3127 157.87C78.5511 155.539 80.1816 153.438 82.1327 151.66C83.15 150.716 83.8212 149.458 84.0387 148.087C84.2563 146.717 84.0077 145.313 83.3327 144.1L44.2127 73.7399L100.403 143.08C101.043 143.883 101.851 144.536 102.772 144.992C103.692 145.448 104.702 145.696 105.729 145.717C106.756 145.739 107.775 145.535 108.714 145.119C109.653 144.703 110.489 144.085 111.163 143.31V143.31C111.875 142.48 112.278 141.43 112.305 140.337C112.333 139.244 111.982 138.175 111.313 137.31C107.643 132.62 103.763 127.84 100.003 123.14L85.8628 105.64L57.4827 70.7L0.552734 0.919922L61.1227 67.5699L91.3327 100.97L106.403 117.71C111.403 123.34 116.403 128.79 121.403 134.71L122.223 135.71L122.403 137.26C122.646 139.362 122.525 141.49 122.043 143.55V143.55Z" fill="black"/>
<path d="M135.002 307.21C132.287 305.113 129.871 302.653 127.822 299.9C130.02 302.521 132.421 304.966 135.002 307.21V307.21Z" fill="black"/>
</svg>
