<svg width="22" height="24" viewBox="0 0 22 24" fill="none" xmlns="http://www.w3.org/2000/svg">
<path d="M2.72092 13.4278C2.84422 13.2994 2.94723 13.1551 3.03294 12.9934C3.11865 12.8318 3.18632 12.6527 3.24045 12.4586C3.35022 12.071 3.40887 11.6314 3.48781 11.1721C3.56676 10.7128 3.66901 10.227 3.86149 9.75566C3.95697 9.52072 4.07426 9.29107 4.21185 9.07426C4.34944 8.85745 4.50959 8.65575 4.68251 8.46992L4.69454 8.45707C4.81559 8.32714 4.99754 8.28786 5.15543 8.34225C5.29001 8.38909 5.47647 8.40419 5.66369 8.38909C5.85165 8.37398 6.04488 8.33092 6.22307 8.2652C6.4005 8.19947 6.56742 8.10731 6.6817 8.00231C6.73884 7.95094 6.78094 7.8973 6.80425 7.85122C6.82831 7.80438 6.83508 7.76963 6.83433 7.72808L6.94334 7.96907L0.0616044 0.370955L0.396932 0.0952234L4.01637 5.45424L4.01862 5.45726C4.0487 5.50183 4.03742 5.56302 3.99231 5.59324C3.95847 5.61666 3.91562 5.61515 3.88329 5.59324L2.45476 4.63384L2.54724 4.54319L4.34869 7.63743L2.43446 4.61269C2.41491 4.58172 2.42394 4.54093 2.45476 4.52129C2.47657 4.50693 2.50363 4.50769 2.52469 4.52053L2.52694 4.52204L3.9893 5.42856L3.85622 5.56831L0.0420561 0.347537C-0.0286184 0.250087 -0.00831825 0.113354 0.0886712 0.0423433C0.176638 -0.0226236 0.297687 -0.0112922 0.372121 0.0657617L0.378136 0.0718051L7.53581 7.40929C7.59896 7.47426 7.63505 7.55509 7.64407 7.63894L7.64558 7.65103C7.65535 7.74621 7.65234 7.84442 7.63656 7.93885C7.62077 8.03403 7.59069 8.12393 7.55385 8.20627C7.47867 8.37171 7.37416 8.50391 7.26364 8.61269C7.15311 8.72223 7.03507 8.80986 6.91402 8.88465C6.79297 8.95943 6.66892 9.02138 6.5426 9.07426C6.28998 9.17851 6.02834 9.24801 5.75466 9.28049C5.61782 9.29636 5.47798 9.30316 5.33362 9.29636C5.18926 9.2888 5.03964 9.26841 4.88476 9.22308L5.35693 9.09617C5.08927 9.39381 4.88476 9.73148 4.74341 10.1069C4.59981 10.4816 4.51936 10.8926 4.4547 11.3292C4.38854 11.7659 4.34042 12.2327 4.21486 12.7237C4.1517 12.9685 4.06599 13.2193 3.94494 13.4626C3.82464 13.705 3.66675 13.9385 3.48105 14.1409L3.47879 14.1432C3.28406 14.3547 2.9555 14.3683 2.74498 14.1727C2.53446 13.977 2.52093 13.6469 2.71566 13.4354C2.71566 13.4346 2.71942 13.4301 2.72092 13.4278Z" fill="black"/>
<path fill-rule="evenodd" clip-rule="evenodd" d="M2.15861 13.8741C2.35663 13.7455 2.55034 13.6198 2.71384 13.4371C2.71384 13.4371 3.7717 12.4324 4.09951 13.1002C3.48449 14.8158 4.8243 15.9353 5.82276 16.6182C6.42199 17.0277 6.40395 17.7317 6.22576 18.021C5.82502 18.6707 4.83332 19.4035 4.14537 19.7412C3.45742 20.0788 2.05747 20.6378 2.35295 19.6286C2.46009 19.2627 2.18735 18.8574 1.85727 18.3668C1.42063 17.7178 0.883656 16.9197 0.992839 15.8666C1.13021 14.5416 1.65817 14.1989 2.15861 13.8741ZM2.04226 15.9625C1.98512 15.8945 2.02196 15.8054 2.07985 15.7502C2.09263 15.7374 2.10692 15.7268 2.12196 15.7185C2.21293 15.6664 2.32195 15.649 2.4242 15.6671C2.55051 15.689 2.66555 15.7638 2.746 15.8643C2.83847 15.9806 2.89336 16.1332 2.87983 16.282C2.85878 16.5215 2.67683 16.7685 2.4242 16.7867C2.31819 16.7942 2.20692 16.7527 2.14226 16.6673C2.0979 16.6091 2.07985 16.5306 2.09339 16.4588C2.10455 16.3982 2.14141 16.3535 2.17874 16.3082C2.19168 16.2924 2.20469 16.2767 2.21669 16.2601C2.25128 16.2125 2.27308 16.1461 2.24376 16.0947C2.22202 16.0567 2.18088 16.0394 2.13927 16.022C2.10317 16.0069 2.06671 15.9916 2.04226 15.9625Z" fill="black"/>
<path d="M6.63708 18.6406C6.61453 18.6557 6.59122 18.6708 6.56641 18.6867C6.58971 18.6716 6.61377 18.6557 6.63708 18.6406Z" fill="#FF00F3"/>
<path d="M6.5 18.7328C6.52105 18.7185 6.54361 18.7034 6.56767 18.6875C6.54511 18.7026 6.52256 18.7177 6.5 18.7328Z" fill="#FF00F3"/>
<path d="M9.20691 15.662C9.19639 15.6492 9.18586 15.6371 9.17383 15.625L9.1836 15.6356C9.19112 15.6439 9.19864 15.653 9.20691 15.662Z" fill="#FF00F3"/>
<path d="M17.1824 22.4169C17.0606 22.5838 16.914 22.7342 16.7523 22.8656C16.7125 22.8996 16.6704 22.9298 16.629 22.9616C16.5862 22.9918 16.5448 23.0227 16.5005 23.0514C16.414 23.1104 16.3245 23.164 16.2328 23.2146C16.0493 23.3151 15.8584 23.402 15.6621 23.4775C15.4651 23.5523 15.2606 23.612 15.0486 23.649C14.8366 23.6853 14.6155 23.6958 14.3922 23.6633C14.281 23.6475 14.1705 23.6203 14.0629 23.5787C14.0359 23.5689 14.0096 23.5576 13.9832 23.5463C13.9569 23.5334 13.9291 23.5206 13.9035 23.5062C13.8509 23.4775 13.8005 23.4458 13.7532 23.4095C13.6569 23.3378 13.5742 23.2509 13.5036 23.1572C13.2239 22.7886 13.1637 22.2764 13.0299 21.8412C12.6998 20.7663 12.0066 19.7699 10.8337 19.5704C10.7856 19.5621 10.7375 19.5553 10.6886 19.55C9.89916 19.4609 8.88641 19.6664 8.50221 20.4482C8.23605 20.9891 8.34131 21.6909 8.78115 22.1094C8.91423 22.2363 9.07512 22.3315 9.24805 22.3768C9.42098 22.4222 9.60518 22.4146 9.77736 22.3542C9.86307 22.3247 9.94878 22.2824 10.0217 22.2333C10.0961 22.1835 10.1631 22.12 10.2217 22.0482C10.3382 21.9055 10.4172 21.7257 10.4427 21.5383C10.4563 21.4446 10.4548 21.3487 10.439 21.255C10.4315 21.2082 10.4194 21.1621 10.4044 21.1168C10.3894 21.0715 10.3713 21.0269 10.3495 20.9846C10.3052 20.9 10.2465 20.8229 10.1736 20.7602C10.1007 20.6983 10.0134 20.6522 9.91946 20.6243C9.82547 20.5955 9.72473 20.5865 9.62398 20.5933C9.52323 20.6001 9.42248 20.6227 9.32549 20.6545C9.5097 20.5653 9.72322 20.517 9.936 20.5555C10.0413 20.5759 10.1443 20.6175 10.2337 20.6809C10.324 20.7436 10.4006 20.8267 10.4608 20.9196C10.5803 21.1055 10.6345 21.3328 10.6202 21.5549C10.6067 21.7778 10.5315 21.9969 10.4014 22.1835C10.336 22.2764 10.2563 22.3602 10.1646 22.4312C10.0721 22.503 9.97209 22.5544 9.86532 22.5959C9.65255 22.679 9.4097 22.6987 9.18414 22.6465C8.95783 22.5959 8.75107 22.4803 8.58191 22.3293C8.41199 22.1782 8.27515 21.9908 8.18192 21.7838C8.13455 21.6803 8.09846 21.5716 8.0729 21.4598C8.06012 21.4039 8.05109 21.3464 8.04433 21.2905C8.03831 21.2354 8.03305 21.1802 8.03004 21.1251C8.01952 20.9038 8.03982 20.6802 8.09019 20.4641C8.19094 20.0312 8.40522 19.6309 8.69017 19.2977C8.97513 18.9638 9.32925 18.6896 9.72548 18.4992C10.121 18.3089 10.5623 18.1978 11.0112 18.2076C11.1232 18.2099 11.2345 18.219 11.348 18.2363C11.46 18.2545 11.5713 18.2817 11.6788 18.3149C11.8953 18.3829 12.0998 18.4849 12.2878 18.6125C12.4758 18.741 12.6464 18.8973 12.787 19.0802C12.8577 19.1716 12.9201 19.269 12.975 19.3717C12.9893 19.3974 13.0013 19.4239 13.0141 19.4496C13.0261 19.476 13.0367 19.5009 13.0479 19.5259C13.0592 19.5515 13.0705 19.5765 13.081 19.6022L13.1111 19.68C13.1893 19.887 13.2449 20.0992 13.2855 20.3107C13.3261 20.5215 13.3547 20.7323 13.3765 20.94L13.4366 21.5557C13.4584 21.7589 13.4787 21.9614 13.5118 22.154C13.5457 22.3474 13.5908 22.5362 13.6614 22.7077C13.7321 22.8785 13.8299 23.0303 13.9607 23.1421C14.0885 23.2531 14.2629 23.3242 14.4434 23.365C14.6253 23.405 14.8193 23.4088 15.0133 23.3914C15.208 23.374 15.4027 23.3325 15.596 23.2796C15.7892 23.2252 15.9802 23.1587 16.1659 23.0786C16.3516 22.9986 16.5328 22.9087 16.7035 22.7976C16.7892 22.7432 16.8719 22.6836 16.9523 22.6209C17.0335 22.5597 17.1087 22.4902 17.1824 22.4169Z" fill="black"/>
<path d="M8.78262 16.7697C8.72548 16.9586 8.63526 17.1263 8.52925 17.2683C8.42323 17.4111 8.30219 17.5289 8.17663 17.6332C8.05107 17.7374 7.92024 17.8273 7.78641 17.9082C7.65258 17.989 7.5165 18.0623 7.37891 18.1302C7.48191 18.0162 7.58116 17.8998 7.67288 17.7805C7.76461 17.6611 7.84731 17.5372 7.91724 17.4111C7.98641 17.2849 8.04355 17.1565 8.07588 17.0303C8.10896 16.9042 8.11948 16.7826 8.10746 16.6715C8.08715 16.4781 8.22625 16.3044 8.41948 16.2832C8.61195 16.2628 8.78488 16.4026 8.80593 16.5967C8.81119 16.6443 8.80593 16.6912 8.79315 16.735L8.78262 16.7697Z" fill="black"/>
<path d="M6.06146 1.57423C6.79076 1.68603 7.53434 1.99122 8.01327 2.57441C8.48845 3.15383 8.66964 3.9153 8.80799 4.63598C8.9155 5.19576 9.00873 5.76459 9.2185 6.29793C9.32 6.55553 9.46887 6.78216 9.59217 7.02616C9.69442 7.22862 9.88164 7.41143 9.95381 7.62824C9.97487 7.69245 9.97562 7.76875 9.93201 7.82012C9.67788 8.11625 8.99144 7.78688 8.7328 7.65392C8.27943 7.42201 7.8817 7.08811 7.55163 6.70133C6.51332 5.4866 5.97274 3.73853 6.00958 2.14835C6.01108 2.10378 6.04492 1.57196 6.06146 1.57423Z" fill="black"/>
<path fill-rule="evenodd" clip-rule="evenodd" d="M10.1048 10.7391C10.1048 11.445 9.53527 12.0173 8.83269 12.0173C8.1301 12.0173 7.56055 11.445 7.56055 10.7391C7.56055 10.0332 8.1301 9.46094 8.83269 9.46094C9.53527 9.46094 10.1048 10.0332 10.1048 10.7391ZM8.83244 10.6215C9.1854 10.6215 9.47152 10.4141 9.47152 10.1584C9.47152 9.90264 9.1854 9.69531 8.83244 9.69531C8.47949 9.69531 8.19336 9.90264 8.19336 10.1584C8.19336 10.4141 8.47949 10.6215 8.83244 10.6215Z" fill="black"/>
<path d="M20.2273 9.52391C20.2483 9.67348 20.0837 9.77773 19.9574 9.69615C19.7679 9.57377 19.5724 9.46423 19.3717 9.37056C19.2145 9.29879 19.0551 9.23458 18.8927 9.18095C18.7303 9.12807 18.5657 9.08198 18.3988 9.04497C17.7319 8.89615 17.0432 8.87802 16.3349 8.83496C15.9808 8.81078 15.6207 8.78359 15.2575 8.72013C15.0756 8.68916 14.8936 8.65063 14.7124 8.60078C14.5312 8.55092 14.3515 8.48897 14.1756 8.41569C13.9997 8.34317 13.8267 8.25781 13.6621 8.15809C13.6207 8.13392 13.5801 8.10823 13.5395 8.08179C13.4982 8.05611 13.4606 8.02967 13.4222 8.00323L13.3072 7.92391L13.1952 7.84081C13.1192 7.78642 13.0478 7.72599 12.9741 7.66857C12.938 7.63836 12.9027 7.60738 12.8674 7.57717C12.832 7.54695 12.7967 7.51598 12.7629 7.48349C12.623 7.35809 12.4929 7.22212 12.3659 7.08312C12.114 6.80361 11.8945 6.49539 11.7035 6.17736C11.5103 5.85932 11.3509 5.5292 11.2005 5.20512C11.0486 4.88179 10.9125 4.56225 10.7554 4.26612C10.6765 4.11806 10.5945 3.97528 10.5043 3.84081C10.411 3.7003 10.3118 3.56357 10.2096 3.42986C9.79904 2.89653 9.30732 2.42665 8.72764 2.0716C8.43893 1.89407 8.12992 1.74298 7.80587 1.62136C7.48182 1.49974 7.14348 1.40531 6.79688 1.33203C7.50437 1.30332 8.23292 1.4325 8.90433 1.73165C9.57649 2.02778 10.1765 2.49388 10.6682 3.04383C10.7907 3.18208 10.9065 3.32561 11.0186 3.47141C11.1328 3.624 11.2351 3.7834 11.3276 3.94431C11.3937 4.05989 11.4569 4.17622 11.517 4.29105C11.6531 4.55318 11.9448 4.69445 12.2335 4.63628C13.8696 4.30842 15.6199 4.58113 17.0687 5.32901C17.5108 5.75658 17.5815 6.18416 17.5815 6.5596C17.5815 6.90484 17.5221 7.1851 17.4131 7.34827C17.2514 7.59077 17.3048 7.91711 17.5341 8.09539C17.6341 8.1732 17.7529 8.21097 17.8717 8.21097C18.0243 8.21097 18.1755 8.14827 18.2845 8.02514C18.4416 7.84837 18.5544 7.65347 18.6657 7.36489C18.71 7.24856 18.7446 7.12769 18.7709 7.01891C18.8063 6.87009 18.995 6.82552 19.0912 6.94412C19.6829 7.67084 20.0897 8.53883 20.2273 9.52391Z" fill="black"/>
<path d="M20.2685 6.53668C20.0588 6.26397 19.8302 6.00636 19.5731 5.78653C19.4528 5.6838 19.3272 5.58786 19.1971 5.49796C19.1325 5.45339 19.0663 5.40957 18.9994 5.36803C18.8798 5.29324 18.7708 5.22072 18.6235 5.24263C18.5099 5.26 18.4062 5.32648 18.3415 5.42166C18.2791 5.51382 18.2573 5.62714 18.2784 5.73668C18.2972 5.83488 18.3099 5.9346 18.316 6.03356C18.3295 6.23526 18.3144 6.43243 18.2866 6.62128C18.2581 6.81014 18.2152 6.99673 18.149 7.17577C18.0836 7.3533 17.9942 7.52327 17.8731 7.66076C18.0927 7.33063 18.1348 6.87964 18.1348 6.56463C18.1348 5.99352 17.9964 5.21467 16.9416 4.53403H16.9438C16.5513 4.28247 16.1453 4.0498 15.7266 3.83828C16.2935 4.01354 16.8521 4.22733 17.3979 4.47737C17.6746 4.60429 18.0295 4.38068 17.9746 4.03771C17.9648 3.97577 17.9581 3.91382 17.9536 3.85037C17.9408 3.64942 17.9566 3.45452 17.9844 3.26718C18.0137 3.08059 18.0566 2.89475 18.122 2.71873C18.1881 2.54272 18.2769 2.37501 18.3979 2.23828C18.1784 2.5684 18.1363 3.02015 18.1363 3.33441C18.1363 3.8126 18.2332 4.40939 18.8828 4.98427C18.8934 4.99333 18.9039 5.0024 18.9137 5.01146C19.0024 5.08927 19.0964 5.16104 19.1874 5.23734C19.2776 5.31364 19.3655 5.3922 19.4505 5.47379C19.5242 5.5448 19.5949 5.61807 19.6633 5.69362C19.7798 5.82279 19.8888 5.95953 19.9888 6.10155C20.0896 6.24206 20.1813 6.38786 20.2685 6.53668Z" fill="black"/>
<path d="M16.1576 12.9727C15.0508 16.5111 19.1943 17.5347 17.5109 21.7742C20.0274 21.2529 21.1905 19.1687 20.8146 17.2386C20.3379 14.7948 17.6703 14.6301 16.1576 12.9727Z" fill="black"/>
<path d="M15.4408 14.893C15.3927 15.2027 15.3047 15.5041 15.1649 15.7852C14.8694 16.3774 14.3634 16.771 13.7657 17.0271C13.5258 17.1298 13.2777 17.2114 13.0266 17.2809C12.6153 17.395 12.2063 17.4826 11.8018 17.5823C11.3966 17.6813 10.9951 17.7916 10.5996 17.9313C10.9695 17.7342 11.3545 17.5627 11.7439 17.4025C12.1319 17.2424 12.5244 17.0928 12.8995 16.9243C13.274 16.7566 13.6311 16.5655 13.9213 16.3208C14.398 15.9196 14.6874 15.3402 14.8995 14.7638C14.9897 14.5183 15.0581 14.2592 15.1032 13.9948C15.1476 13.7304 15.1694 13.4607 15.1536 13.1903C15.1378 12.9213 15.0859 12.6486 14.9506 12.4023C15.1371 12.6116 15.2581 12.8813 15.3386 13.157C15.419 13.435 15.4619 13.7236 15.4784 14.0144C15.4949 14.3068 15.4852 14.6029 15.4408 14.893Z" fill="black"/>
<path d="M13.0672 8.35547C12.4109 13.3511 20.9444 12.3532 21.3677 16.3917C22.7812 14.1073 21.5557 12.329 19.0039 10.834C16.5183 9.37756 14.3935 9.69031 13.0672 8.35547Z" fill="black"/>
</svg>
