<svg width="252" height="287" viewBox="0 0 252 287" fill="none" xmlns="http://www.w3.org/2000/svg">
<path fill-rule="evenodd" clip-rule="evenodd" d="M0.5671 1.25C-0.4249 2.764 -1.7874 0.529499 12.6101 21C46.2461 68.8225 50.9521 75.5775 50.7661 75.7635C50.6541 75.8755 47.7616 73.9565 44.3376 71.499C38.1041 67.024 37.3631 66.5955 37.3631 67.468C37.3631 68.0065 49.2491 87.9955 50.0181 88.75C50.2981 89.025 49.9621 88.2375 49.2711 87C41.9021 73.8075 41.7376 73.4455 42.8076 72.784C43.0526 72.633 46.0541 74.6445 49.4781 77.2545C55.7001 81.9975 56.8631 82.6315 56.8631 81.281C56.8631 80.8855 52.2276 73.4575 46.5621 64.7745C37.1076 50.284 35.6151 47.5 37.3016 47.5C37.5601 47.5 47.2986 58.67 58.9421 72.3225C91.7676 110.81 89.0146 107.373 88.6781 109.447C88.2666 111.981 86.9481 113.552 83.9401 115.092C80.5111 116.846 76.7086 117.287 71.5751 116.523C67.9181 115.979 67.2526 116.005 65.6656 116.758C62.7246 118.154 57.9666 123.684 55.8106 128.213C53.3906 133.297 52.6036 136.377 51.3286 145.75C49.0296 162.656 48.8451 163.098 39.4256 174.25C34.1721 180.47 31.2046 184.998 29.5186 189.368C26.7111 196.646 27.6411 209.873 31.6196 219.25C32.0861 220.35 34.4831 224.581 36.9466 228.652C39.6791 233.168 41.6566 237.038 42.0191 238.579L42.6131 241.105L45.2716 240.794C46.7336 240.623 50.1086 239.913 52.7716 239.216C65.9526 235.765 76.0456 230.227 80.9826 223.738C83.3226 220.662 84.0276 218.322 84.0681 213.497C84.1226 207.037 81.5386 203.211 73.1131 197.275C67.6221 193.406 62.6071 188.338 60.9746 185.007C58.8836 180.741 58.8251 174.401 60.7921 165.25C61.6196 161.4 62.6546 154.65 63.0911 150.25C64.0266 140.828 65.0796 135.446 66.4816 132.919C68.2846 129.67 71.5526 128 76.1076 128C79.4956 128 85.8011 126.368 88.8726 124.697C94.0686 121.869 97.8336 116.731 98.8521 111.081C99.9716 104.87 99.7191 104.436 86.8701 90.5C84.2076 87.6125 73.4056 75.8 62.8656 64.25C52.3256 52.7 42.4446 41.893 40.9076 40.2345C39.3706 38.5765 30.4691 28.845 21.1261 18.6095C6.6496 2.75 3.9356 0 2.7626 0C1.8461 0 1.1126 0.4175 0.5671 1.25ZM93.6131 51.494C110.636 55.3655 120.066 62.63 137.107 85C147.447 98.5735 153.367 105.052 158.902 108.85C167.976 115.077 180.725 118.411 198.613 119.234C219.712 120.204 226.604 122.523 232.495 130.632C234.89 133.928 235.291 133.545 234.131 129.07C231.896 120.445 226.016 110.199 218.175 101.269L216.435 99.288L216.121 100.769C213.936 111.066 211.086 116.5 207.87 116.5C205.118 116.5 204.714 114.702 206.588 110.8C208.198 107.448 208.92 101.795 208.352 97C208.107 94.9375 207.897 92.8705 207.885 92.407C207.856 91.291 199.974 86.0455 194.167 83.2785C188.059 80.3675 183.739 78.8715 176.593 77.1915C170.966 75.8685 169.935 75.7845 159.113 75.768C151.507 75.756 146.125 75.99 143.218 76.4585L138.824 77.1675L135.468 73.477C122.645 59.3735 111.483 52.7065 97.8761 51.024C95.5461 50.736 92.7336 50.519 91.6261 50.542C89.9281 50.5775 90.2391 50.7265 93.6131 51.494ZM87.4966 65.056C87.9856 77.8075 91.8121 88.288 99.2871 97.35C104.206 103.313 112.534 108.205 117.249 107.902C120.317 107.704 120.521 106.724 118.205 103.323C114.742 98.2365 112.991 94.2195 111.605 88.1805C108.766 75.804 108.3 74.1565 106.681 70.75C103.551 64.1645 97.3806 59.7515 89.1666 58.224L87.2206 57.862L87.4966 65.056ZM209.641 60.875C209.192 62.1815 208.564 66.2555 208.246 69.9285C207.815 74.897 207.481 76.678 206.943 76.8845C206.545 77.0375 205.183 76.763 203.916 76.2755C199.552 74.594 192.109 72.1315 190.363 71.7905C189.218 71.5665 190.214 72.226 193.25 73.7005C200.642 77.2905 206.134 81.105 207.89 83.868C210.564 88.077 211.101 90.7965 211.107 100.18L211.113 108.611L211.929 105.93C212.775 103.152 213.863 94.61 213.863 90.748C213.863 89.077 214.098 88.4095 214.824 88.021C215.623 87.5935 216.489 88.028 219.949 90.5935C222.239 92.2915 225.328 94.821 226.812 96.2155C228.296 97.6095 229.268 98.2885 228.973 97.725C228.189 96.23 220.997 88.271 217.016 84.4925C215.106 82.679 213.119 80.2405 212.536 78.9925C210.973 75.6475 210.237 70.4335 210.436 64.1245C210.533 61.0305 210.578 58.499 210.535 58.4995C210.492 58.4995 210.09 59.5685 209.641 60.875ZM102.579 112.173C103.32 122.564 109.959 128.422 129.863 136.251C144.484 142.001 151.301 147.508 152.285 154.361L152.628 156.75L153.568 154.771C156.209 149.214 156.681 140.626 154.66 134.9C152.486 128.741 147.828 123.501 141.871 120.512C137.146 118.142 133.264 117.294 119.898 115.713C116.205 115.276 111.93 114.453 110.398 113.885C107.33 112.747 103.706 110.456 102.85 109.113C102.434 108.461 102.367 109.212 102.579 112.173ZM157.863 121.831C157.863 135.36 164.309 145.05 179.099 153.755C184.73 157.068 189.596 159.339 202.113 164.494C220.748 172.168 225.756 174.591 231.714 178.816C240.01 184.701 244.834 192.366 244.874 199.73L244.885 201.75L245.869 200.5C247.295 198.689 249.644 192.374 250.613 187.75C251.703 182.551 251.704 173.956 250.615 168.75C248.213 157.26 241.188 147.071 231.224 140.626C222.027 134.676 212.908 131.987 190.863 128.723C173.417 126.14 166.778 124.024 160.459 119.029L157.863 116.977V121.831ZM177.449 165C178.935 170.394 178.953 178.066 177.492 182.771C175.276 189.903 170.417 195.384 163.113 198.993C158.488 201.278 153.525 202.54 143.363 204.012C130.788 205.834 122.773 208.19 116.031 212.047C114.531 212.905 113.379 213.683 113.471 213.774C113.562 213.866 115.544 213.409 117.875 212.76C123.793 211.11 131.001 210.146 142.363 209.485C147.726 209.173 153.913 208.581 156.113 208.17C169.28 205.709 178.959 197.77 182.113 186.846C183.109 183.396 183.228 177.147 182.37 173.422C181.695 170.496 178.956 164.475 177.4 162.5C176.436 161.276 176.437 161.327 177.449 165ZM189.288 170.126C188.301 173.965 188.448 183.02 189.562 187C191.232 192.964 195.592 200.995 204.085 213.75C216.306 232.104 219.389 239.092 219.524 248.75C219.596 253.839 218.878 257.305 216.792 261.954C216.001 263.716 215.461 265.265 215.592 265.396C215.723 265.527 217.359 264.726 219.227 263.616C240.243 251.13 248.131 222.506 236.446 201.126C233.878 196.428 226.456 189.057 220.113 184.907C217.363 183.107 210.552 179.13 204.978 176.068C199.404 173.005 194.004 169.977 192.978 169.339C191.952 168.701 190.854 168.027 190.538 167.841C190.161 167.619 189.73 168.407 189.288 170.126ZM43.5556 195.544C46.3916 197.775 47.1461 201.46 45.3646 204.382C43.3051 207.76 39.0296 208.296 37.3866 205.382C36.6376 204.053 36.8421 203.208 38.4846 200.846C39.0256 200.067 38.9221 199.801 37.7381 198.929C36.1661 197.772 36.0031 196.727 37.1906 195.415C38.3626 194.12 41.8346 194.191 43.5556 195.544ZM123.113 219.324C116.086 220.454 112.337 222.161 98.5671 230.498C88.1556 236.803 77.5796 242.559 72.1131 244.898L69.6131 245.967L73.1331 245.983C80.7261 246.019 87.3806 249.021 93.6541 255.242C95.8771 257.446 98.5361 260.534 99.5636 262.103C101.895 265.664 104.276 267.777 107.84 269.449C110.251 270.58 111.266 270.75 115.613 270.746C119.936 270.742 120.942 270.574 123.04 269.506C127.697 267.136 130.092 262.883 129.767 257.559C129.433 252.085 126.853 248.424 122.821 247.702C121.14 247.401 121.148 247.414 123.341 248.573C128.645 251.374 129.448 260.076 124.797 264.351C122.021 266.904 116.271 267.811 112.597 266.276C106.518 263.736 103.859 253.926 107.304 246.75C110.667 239.746 117.943 236.083 127.422 236.622C131.062 236.829 132.322 237.151 135.53 238.694C137.773 239.773 140.581 241.68 142.385 243.35C148.271 248.799 151.5 254.496 156.323 267.937C159.464 276.69 160.931 279.687 163.29 282.168C169.101 288.279 179.85 288.474 191.613 282.682C197.297 279.884 198.317 278.73 193.356 280.711C180.236 285.949 169.012 284.77 165.026 277.736C163.534 275.101 162.578 270.957 161.63 263C159.219 242.756 157.183 236.338 151.007 229.514C146.892 224.967 142.414 222.118 136.363 220.196C134.02 219.451 125.715 218.905 123.113 219.324Z" fill="black"/>
</svg>
