<svg width="68" height="79" viewBox="0 0 68 79" fill="none" xmlns="http://www.w3.org/2000/svg">
<path fill-rule="evenodd" clip-rule="evenodd" d="M0 0L11.5 14.5C11.5 14.5 15.5362 20.0248 18.5 23.5C26.1934 33.7009 26.6577 32.3312 26.5721 32.859C26.4673 33.5042 26.1317 33.9042 25.3661 34.2961C24.4932 34.7427 23.5253 34.8548 22.2186 34.6603C21.2878 34.5218 19.6957 32.859 20.7144 34.7203C19.9658 35.0756 18.7547 36.4832 18.2059 37.6359C17.5899 38.93 17.3896 39.714 17.065 42.0998C16.4798 46.403 16.4329 46.5157 14.0352 49.3543C12.698 50.9375 11.9426 52.0902 11.5134 53.2026C10.7988 55.0552 11.0355 58.4219 12.0482 60.8088C12.167 61.0888 12.7771 62.1657 13.4042 63.202C14.0997 64.3516 14.6031 65.3367 14.6954 65.729L14.8466 66.3719L15.5233 66.2928C15.8954 66.2493 16.7545 66.0684 17.4323 65.8909C20.7875 65.0124 23.3566 63.6029 24.6133 61.951C25.2089 61.1681 25.3883 60.5725 25.3986 59.3444C25.4125 57.7002 24.7548 56.7262 22.6101 55.2151C21.2124 54.2302 19.9359 52.9402 19.5204 52.0923C18.9881 51.0064 18.9732 49.3928 19.4739 47.0634C19.6845 46.0834 19.948 44.3653 20.0591 43.2453C20.2972 40.8469 20.5653 39.4772 20.9221 38.8339C21.3811 38.0068 22.2129 37.5817 23.3724 37.5817C24.2347 37.5817 25.8398 37.1663 26.6216 36.7408C27.9442 36.021 28.9026 34.7134 29.1618 33.2751C29.4468 31.6941 29.3825 31.5838 26.1119 28.0363C25.4342 27.3013 22.6846 24.2946 20.0017 21.3546C17.3188 18.4146 14.8037 15.6638 14.4124 15.2416C14.0212 14.8196 11.7554 12.3425 9.37719 9.73711C5.6923 5.70018 0 0 0 0ZM15.5469 57.0241C16.0004 56.2803 15.8084 55.3425 15.0865 54.7746C14.6484 54.43 13.7646 54.412 13.4663 54.7416C13.164 55.0756 13.2055 55.3416 13.6057 55.6362C13.907 55.8582 13.9334 55.926 13.7957 56.1242C13.3776 56.7255 13.3255 56.9405 13.5162 57.2786C13.9344 58.0204 15.0227 57.8839 15.5469 57.0241Z" fill="black"/>
<path fill-rule="evenodd" clip-rule="evenodd" d="M38.8992 26.6364C34.5616 20.9422 32.1612 19.0931 27.8283 18.1076C26.9694 17.9123 26.8903 17.8743 27.3225 17.8653C27.6044 17.8595 28.3203 17.9147 28.9134 17.988C32.3769 18.4163 35.2182 20.1133 38.4822 23.7032L39.3363 24.6426L40.4549 24.4622C41.1948 24.3429 42.5648 24.2834 44.5008 24.2864C47.2554 24.2906 47.5179 24.312 48.9502 24.6488C50.7692 25.0764 51.8688 25.4572 53.4236 26.1982C54.9016 26.9025 55.908 28.2377 55.9154 28.5218C55.9185 28.6397 55.9719 29.1659 56.0342 29.6909C56.1789 30.9114 55.995 32.3503 55.5851 33.2036C55.1081 34.1968 56.211 34.6545 56.9115 34.6545C57.7302 34.6545 58.4556 33.2714 59.0118 30.6502L59.0918 30.2733L59.5345 30.7775C61.5304 33.0506 63.0272 35.6585 63.5961 37.8539C63.8913 38.9932 63.7893 39.0906 63.1797 38.2515C61.6802 36.1876 59.9259 35.5974 54.5553 35.3504C50.002 35.141 46.7567 34.2924 44.447 32.7073C43.0382 31.7406 41.5312 30.0914 38.8992 26.6364ZM29.2725 29.78C27.3698 27.4733 26.3958 24.8056 26.2713 21.5597L26.2011 19.7286L26.6964 19.8207C28.7873 20.2095 30.3579 21.3328 31.1546 23.0091C31.5667 23.8762 31.6852 24.2956 32.408 27.4459C32.7608 28.9831 33.2065 30.0056 34.088 31.3002C34.6775 32.1659 34.6254 32.4155 33.8446 32.4659C32.6445 32.5432 30.5245 31.2978 29.2725 29.78ZM57.0072 22.8C57.0882 21.8651 57.2481 20.8281 57.3624 20.4955C57.4766 20.1629 57.579 19.8908 57.5899 19.8908C57.6009 19.8907 57.5894 20.5351 57.5646 21.3226C57.514 22.9286 57.7014 24.2557 58.0992 25.1072C58.2477 25.4249 58.7533 26.0456 59.2395 26.5072C60.2528 27.469 62.0835 29.4949 62.2831 29.8754C62.3583 30.0188 62.1108 29.846 61.733 29.4912C61.3553 29.1362 60.5691 28.4924 59.9862 28.0601C59.1054 27.4071 58.8851 27.2965 58.6817 27.4053C58.4969 27.5042 58.4371 27.6741 58.4371 28.0995C58.4371 29.0825 58.0992 30.2733 56.9115 32.7073C57.5 29.5 57.5973 27.4196 56.9167 26.3482C56.4697 25.6449 55.0718 24.674 53.19 23.7601C52.4174 23.3848 52.1637 23.2169 52.4553 23.274C52.8997 23.3608 54.7942 23.9876 55.9051 24.4156C56.2275 24.5397 56.5742 24.6096 56.6755 24.5706C56.8124 24.518 56.8975 24.0647 57.0072 22.8ZM49.5881 44.1373C45.8234 41.9217 44.1827 39.4553 44.1827 36.0116V34.7758L44.8433 35.2981C46.4519 36.5695 48.1418 37.1084 52.5826 37.7659C58.1939 38.5966 60.5152 39.281 62.8562 40.7954C65.3923 42.4361 67.1806 45.0298 67.7921 47.9543C68.0691 49.2795 68.0689 51.4674 67.7915 52.7907C67.5449 53.9678 66.9468 55.575 66.584 56.0361L66.3335 56.3543L66.3307 55.8401C66.3204 53.9656 65.0926 52.0146 62.9808 50.5167C61.4643 49.4411 60.1896 48.8244 55.4462 46.871C52.2599 45.5588 51.0213 44.9808 49.5881 44.1373ZM49.179 51.5233C49.551 50.3257 49.5463 48.3728 49.168 46.9998C48.9104 46.0649 48.9102 46.0518 49.1555 46.3634C49.5516 46.8663 50.2489 48.3988 50.4206 49.1436C50.6391 50.0917 50.6087 51.6825 50.3552 52.5606C49.5525 55.3413 47.0888 57.362 43.7372 57.9884C43.1772 58.0932 41.6022 58.2437 40.2372 58.3232C37.345 58.4914 35.5104 58.7367 34.004 59.1567C33.4106 59.322 32.9061 59.4383 32.8828 59.4149C32.8594 59.3916 33.1528 59.1937 33.5346 58.9753C35.2506 57.9935 37.2909 57.3937 40.4918 56.9299C43.0783 56.5552 44.3416 56.2342 45.519 55.6526C47.3782 54.734 48.6149 53.3387 49.179 51.5233ZM52.2514 52.5998C51.9679 51.5867 51.9303 49.2817 52.1815 48.3046C52.2941 47.8669 52.4038 47.6665 52.4997 47.723C52.5803 47.7703 52.8598 47.942 53.1209 48.1044C53.382 48.2668 54.7565 49.0374 56.1755 49.817C57.5943 50.5965 59.328 51.6089 60.028 52.067C61.6424 53.1235 63.5317 54.9996 64.1853 56.1953C67.1596 61.6374 65.1519 68.9236 59.8024 72.1017C59.3268 72.3843 58.9105 72.5881 58.8772 72.5548C58.8438 72.5216 58.9813 72.1273 59.1826 71.6788C59.7136 70.4954 59.8962 69.6131 59.878 68.3178C59.8437 65.8596 59.0588 64.0805 55.948 59.4088C53.7862 56.162 52.6764 54.1178 52.2514 52.5998ZM29.0893 63.6719C32.5943 61.5496 33.5485 61.1152 35.3373 60.8275C35.9996 60.7208 38.1135 60.8601 38.71 61.0496C40.2502 61.5388 41.3901 62.2641 42.4375 63.4215C44.0094 65.1585 44.5277 66.7919 45.1415 71.945C45.3828 73.9703 45.626 75.0254 46.0059 75.696C47.0204 77.4866 49.8774 77.7867 53.217 76.4533C54.4798 75.9491 54.2203 76.2426 52.7735 76.955C49.7793 78.4292 47.0431 78.3795 45.5639 76.824C44.9636 76.1926 44.5902 75.4297 43.7907 73.2017C42.5629 69.7804 41.7409 68.3304 40.2427 66.9434C39.7836 66.5183 39.0688 66.0326 38.4979 65.7581C37.6814 65.3654 37.3605 65.2834 36.4341 65.2307C34.0213 65.0935 32.1691 66.0259 31.3132 67.8087C30.4363 69.6353 31.1131 72.1323 32.6604 72.7788C33.5956 73.1695 35.0592 72.9387 35.7659 72.2889C36.9498 71.2006 36.7454 68.9859 35.3953 68.2728C34.8371 67.9779 34.8349 67.9744 35.263 68.051C36.2893 68.2349 36.946 69.1668 37.0309 70.5601C37.1136 71.9154 36.5041 72.9978 35.3187 73.6011C34.7845 73.8728 34.5286 73.9156 33.4282 73.9166C32.3217 73.9176 32.0634 73.8745 31.4496 73.5867C30.5425 73.1611 29.9363 72.6231 29.3429 71.7167C29.0814 71.3173 28.4045 70.5314 27.8387 69.9704C26.2418 68.3868 24.548 67.6226 22.6152 67.6136L21.7192 67.6095L22.3556 67.3373C23.747 66.7419 26.4391 65.2766 29.0893 63.6719Z" fill="black"/>
<path fill-rule="evenodd" clip-rule="evenodd" d="M34.615 40.7738C35.2463 42.3057 34.3092 44.1446 32.5219 44.881C30.7347 45.6175 28.7742 44.9726 28.143 43.4407C27.5117 41.9088 28.4488 40.07 30.236 39.3335C32.0232 38.5971 33.9838 39.2419 34.615 40.7738ZM31 41C31.8978 40.63 32.7134 40.7324 32.4847 40.1774C32.256 39.6225 31.3428 39.4725 30.445 39.8424C29.5471 40.2124 29.0047 40.9622 29.2334 41.5172C29.4621 42.0722 30.1022 41.37 31 41Z" fill="black"/>
<path d="M21.2298 24.3681C21.395 25.1609 21.4399 25.9086 21.4015 26.5744C21.3645 27.2431 21.2474 27.8321 21.0962 28.3736C20.945 28.915 20.7565 29.4068 20.5452 29.8669C20.3339 30.327 20.1044 30.7604 19.8622 31.175C19.939 30.6205 20.0023 30.0614 20.0413 29.4989C20.0803 28.9364 20.0885 28.3664 20.06 27.8017C20.0296 27.2378 19.9644 26.6785 19.839 26.1553C19.7156 25.6313 19.5415 25.1497 19.3267 24.7339C18.9544 24.009 19.0255 23.184 19.4886 22.889C19.9511 22.5977 20.6281 22.9469 21.0036 23.6738C21.0959 23.8519 21.1599 24.0387 21.1994 24.2222L21.2298 24.3681Z" fill="black"/>
<path d="M14.9969 16.6178C15.124 17.2841 15.151 17.9109 15.1095 18.468C15.069 19.0276 14.9626 19.5193 14.8283 19.9706C14.694 20.4219 14.5291 20.8311 14.3457 21.2135C14.1622 21.5958 13.9638 21.9555 13.7551 22.2993C13.8272 21.836 13.8882 21.3686 13.9288 20.8981C13.9695 20.4276 13.9844 19.9503 13.9686 19.4769C13.9511 19.0043 13.9044 18.5349 13.8068 18.0949C13.7108 17.6543 13.5718 17.2485 13.3978 16.8972C13.0963 16.2848 13.1675 15.5949 13.5596 15.3544C13.951 15.117 14.5131 15.419 14.8173 16.0332C14.8921 16.1836 14.943 16.341 14.9735 16.4951L14.9969 16.6178Z" fill="black"/>
<path d="M8.5088 8.93131C8.58135 9.31699 8.59606 9.67963 8.57123 10.0018C8.54697 10.3255 8.4847 10.6097 8.40635 10.8706C8.32799 11.1315 8.23202 11.368 8.12533 11.5889C8.01864 11.8098 7.90333 12.0176 7.78207 12.2162C7.82451 11.9483 7.86047 11.678 7.88466 11.4059C7.90884 11.1337 7.9182 10.8577 7.90972 10.5838C7.9003 10.3103 7.87399 10.0388 7.81817 9.7841C7.76329 9.52906 7.68348 9.2941 7.58335 9.09061C7.4098 8.73591 7.45202 8.33691 7.67918 8.19834C7.90598 8.06157 8.2307 8.23711 8.40578 8.59285C8.44882 8.68 8.47803 8.7711 8.49546 8.86034L8.5088 8.93131Z" fill="black"/>
</svg>
