<svg width="68" height="78" viewBox="0 0 68 78" fill="none" xmlns="http://www.w3.org/2000/svg">
<path fill-rule="evenodd" clip-rule="evenodd" d="M36.1373 40.6772C36.1373 42.6332 33.0491 43.5 31.0019 43.5C28.9546 43.5 28.7235 42.6332 28.7235 40.6772C28.7235 38.7213 30.3831 37.1357 32.4304 37.1357C34.4777 37.1357 36.1373 38.7213 36.1373 40.6772ZM32.4297 40.3513C33.4581 40.3513 34.2919 39.7767 34.2919 39.0681C34.2919 38.3595 33.4581 37.7852 32.4297 37.7852C31.4012 37.7852 30.5675 38.3595 30.5675 39.0681C30.5675 39.7767 31.4012 40.3513 32.4297 40.3513Z" fill="black"/>
<path fill-rule="evenodd" clip-rule="evenodd" d="M26.8304 17.6074C31.1634 18.5929 33.5637 20.4421 37.9014 26.1362C40.5334 29.5913 42.0404 31.2403 43.4492 32.207C45.7589 33.7921 49.0042 34.6407 53.5575 34.8501C58.9281 35.0971 60.6824 35.6875 62.1819 37.7515C62.7915 38.5906 62.8935 38.493 62.5983 37.3538C62.0294 35.1583 60.5326 32.5504 58.5367 30.2773L58.0939 29.7732L58.014 30.1502C57.4578 32.7713 56.7324 34.1543 55.9137 34.1543C55.2131 34.1543 55.1103 33.6966 55.5873 32.7034C55.9971 31.8501 56.1811 30.4112 56.0363 29.1907C55.9741 28.6657 55.9207 28.1395 55.9176 28.0215C55.9102 27.7374 53.9038 26.4023 52.4258 25.698C50.871 24.957 49.7714 24.5763 47.9524 24.1487C46.5201 23.8119 46.2576 23.7903 43.503 23.7861C41.567 23.7831 40.197 23.8427 39.4571 23.9619L38.3385 24.1426L37.4843 23.2031C34.2203 19.6132 31.3791 17.9161 27.9156 17.4878C27.3225 17.4145 26.6066 17.3594 26.3247 17.3652C25.8925 17.3743 25.9716 17.4121 26.8304 17.6074ZM25.2735 21.0596C25.398 24.3054 26.372 26.9731 28.2747 29.2798C29.5267 30.7976 31.6467 32.0431 32.8468 31.9658C33.6276 31.9154 33.6797 31.6658 33.0902 30.8001C32.2087 29.5054 31.763 28.483 31.4102 26.9458C30.6874 23.7955 30.5689 23.3761 30.1568 22.509C29.3601 20.8327 27.7894 19.7094 25.6986 19.3206L25.2033 19.2283L25.2735 21.0596ZM56.3646 19.9954C56.2503 20.3279 56.0904 21.3649 56.0094 22.2998C55.8997 23.5645 55.8146 24.0178 55.6777 24.0703C55.5764 24.1093 55.2297 24.0394 54.9073 23.9153C53.7964 23.4873 51.9019 22.8605 51.4575 22.7737C51.1659 22.7167 51.4196 22.8847 52.1922 23.26C54.0739 24.1738 55.4719 25.1448 55.9189 25.8481C56.5995 26.9195 56.7361 27.6117 56.7377 30.0002L56.7393 32.146L56.947 31.4639C57.1623 30.7566 57.4393 28.5824 57.4393 27.5994C57.4393 27.174 57.4991 27.0039 57.6839 26.905C57.8872 26.7962 58.1076 26.907 58.9884 27.5601C59.5713 27.9923 60.3575 28.636 60.7352 28.991C61.113 29.3458 61.3605 29.5187 61.2853 29.3752C61.0857 28.9947 59.255 26.9689 58.2417 26.0071C57.7555 25.5455 57.2499 24.9246 57.1013 24.6069C56.7036 23.7555 56.5162 22.4284 56.5668 20.8225C56.5916 20.035 56.6031 19.3905 56.5921 19.3906C56.5812 19.3906 56.4787 19.6628 56.3646 19.9954ZM43.1848 35.5115C43.1848 38.9552 44.8256 41.4215 48.5903 43.6372C50.0235 44.4806 51.2621 45.0587 54.4484 46.3708C59.1918 48.3242 60.4665 48.941 61.983 50.0166C64.0948 51.5145 65.3226 53.4654 65.3329 55.3398L65.3357 55.854L65.5862 55.5359C65.949 55.0748 66.5471 53.4677 66.7937 52.2905C67.071 50.9673 67.0713 48.7793 66.7942 47.4541C66.1828 44.5295 64.3945 41.9358 61.8584 40.2952C59.5173 38.7808 57.196 38.0963 51.5848 37.2656C47.144 36.6081 45.4541 36.0693 43.8455 34.7979L43.1848 34.2756V35.5115ZM48.1702 46.4995C48.5484 47.8725 48.5532 49.8256 48.1811 51.0232C47.6171 52.8386 46.3804 54.2337 44.5212 55.1523C43.3438 55.734 42.0805 56.055 39.494 56.4297C36.2931 56.8935 34.2528 57.4933 32.5368 58.4751C32.155 58.6935 31.8616 58.8915 31.885 58.9148C31.9083 58.9382 32.4128 58.8218 33.0062 58.6565C34.5126 58.2365 36.3472 57.9913 39.2394 57.823C40.6044 57.7436 42.1794 57.593 42.7394 57.4883C46.091 56.8619 48.5547 54.8411 49.3574 52.0603C49.6109 51.1823 49.6413 49.5915 49.4228 48.6433C49.2511 47.8985 48.5538 46.3661 48.1577 45.8633C47.9123 45.5516 47.9126 45.5646 48.1702 46.4995ZM51.1837 47.8044C50.9325 48.7815 50.9701 51.0865 51.2536 52.0996C51.6786 53.6177 52.7884 55.6619 54.9502 58.9087C58.061 63.5804 58.8459 65.3594 58.8802 67.8176C58.8984 69.1129 58.7158 69.9953 58.1848 71.1787C57.9835 71.6272 57.846 72.0215 57.8794 72.0547C57.9127 72.088 58.329 71.8841 58.8046 71.6016C64.1541 68.4235 66.1618 61.1372 63.1875 55.6951C62.5339 54.4994 60.6446 52.6234 59.0302 51.5669C58.3302 51.1088 56.5965 50.0964 55.1776 49.3169C53.7587 48.5374 52.3842 47.7666 52.1231 47.6042C51.862 47.4418 51.5825 47.27 51.5019 47.2227C51.4059 47.1661 51.2962 47.3668 51.1837 47.8044Z" fill="black"/>
<path d="M34.3395 60.3274C32.5507 60.6152 31.5965 61.0494 28.0914 63.1716C26.9506 63.8625 24.9715 64.4969 23.5 65.5L21.5 67C25.5053 64.5183 33.0062 62 39.2449 66.4431C40.7431 67.8301 41.5651 69.2801 42.7928 72.7014C43.5924 74.9294 43.9658 75.6923 44.5661 76.3237C46.0453 77.8792 48.7815 77.929 51.7757 76.4548C53.2225 75.7425 53.482 75.449 52.2192 75.9531C48.8796 77.2865 46.0226 76.9864 45.0081 75.1958C44.6282 74.5252 44.385 73.4701 44.1437 71.4448C43.5299 66.2917 43.0116 64.6584 41.4397 62.9214C40.3923 61.764 39.2524 61.0385 37.7122 60.5493C37.1157 60.3598 35.0018 60.2207 34.3395 60.3274Z" fill="black"/>
<path fill-rule="evenodd" clip-rule="evenodd" d="M9.49675 12.5908C9.56255 12.5908 12.0414 15.434 15.0052 18.9092C20.2235 26.1362 25.6599 31.8311 25.5743 32.3589C25.4695 33.004 25.1339 33.404 24.3683 33.7959C23.4954 34.2425 22.5275 34.3546 21.2208 34.1602C20.29 34.0217 -1 0 19.0613 34.1543C18.3127 34.5096 17.7569 35.983 17.2081 37.1357C16.5921 38.4298 16.3918 39.2138 16.0672 41.5996C15.482 45.9028 13.4351 48.0156 11.0374 50.8542C9.70016 52.4374 8.9448 53.5899 8.51564 54.7024C7.80101 56.555 8.03773 59.9217 9.05043 62.3086C9.16917 62.5886 10.7793 63.6657 11.4064 64.7019C12.1019 65.8515 12.6053 66.8365 12.6976 67.2288L12.8488 67.8718L13.5255 67.7925C13.8976 67.749 14.7567 67.5682 15.4345 67.3906C18.7897 66.5122 20.3588 65.1028 21.6154 63.4509C22.2111 62.668 22.3905 62.0724 22.4008 60.8442C22.4147 59.2 21.757 58.2259 19.6123 56.7148C18.2146 55.73 16.9381 54.4399 16.5225 53.592C15.9903 52.5062 15.9754 50.8926 16.4761 48.5632C16.6867 47.5832 18.9502 43.8651 19.0613 42.7451C19.2994 40.3467 19.5674 38.977 19.9243 38.3337C20.3833 37.5066 21.2151 37.0815 22.3745 37.0815C23.2369 37.0815 24.842 36.6662 25.6238 36.2407C26.9464 35.5209 27.9048 34.2132 28.164 32.7749C28.449 31.1939 28.3847 31.0836 25.1141 27.5361C24.4363 26.8011 18.6868 19.7945 16.0039 16.8545C15.5852 16.3957 15 16.5 14.7675 15.5C12.5877 13.1126 10.7448 11.0977 10.4146 10.7415C10.2678 10.5831 9.49675 10.5 9.27543 9.5C8.30709 8.44223 6.86516 6.86453 5.37938 5.23682C1.69449 1.19989 1.5 1.5 0 0L9.49675 12.5908ZM12.5491 58.5239C13.0026 57.7802 12.8105 56.8423 12.0887 56.2744C11.6506 55.9299 10.7668 55.9118 10.4685 56.2415C10.1662 56.5754 10.2077 56.8414 10.6078 57.136C10.9092 57.3579 10.9356 57.4259 10.7979 57.624C10.3798 58.2254 10.3277 58.4404 10.5184 58.7786C10.9366 59.5203 12.0249 59.3838 12.5491 58.5239Z" fill="black"/>
</svg>
