<svg width="893" height="141" viewBox="0 0 893 141" fill="none" xmlns="http://www.w3.org/2000/svg">
<path fill-rule="evenodd" clip-rule="evenodd" d="M0.150779 1.54095C0.00627857 1.91745 -0.0432204 3.43644 0.0412796 4.91595L0.194779 7.60645L3.86078 8.00545C9.35278 8.60345 11.9528 9.73145 13.2763 12.0914C15.2783 15.6599 15.4448 18.7334 15.4463 52.1474C15.4483 84.4429 15.7053 90.8309 17.4073 100.862C18.9828 110.148 23.5003 119.704 29.1948 125.796C38.7903 136.063 52.1363 140.859 71.0953 140.855C86.7713 140.851 96.8813 137.955 106.447 130.728C117.664 122.253 124.059 111.162 127.043 95.0049C128.079 89.3979 128.147 87.3024 128.414 52.6064L128.695 16.1064L130.078 13.2894C131.258 10.8869 131.81 10.3224 133.828 9.45594C135.13 8.89644 137.826 8.27894 139.82 8.08294L143.445 7.72745V4.29194V0.856445H120.945H98.4448V4.28745V7.71844L102.165 8.05544C107.663 8.55394 110.865 9.65945 113.004 11.7974C116.481 15.2749 116.445 14.8409 116.445 53.1444C116.445 88.2309 116.192 94.2474 114.425 101.219C111.129 114.221 102.044 124.36 90.3403 128.096C82.6758 130.543 67.4793 130.661 59.0143 128.339C52.7728 126.626 48.7843 124.202 43.4213 118.861C38.2163 113.676 36.6538 111.045 34.2368 103.395C31.9313 96.0959 31.7343 92.2459 31.7138 54.1064C31.6933 15.4464 31.7173 15.0734 34.4813 11.7204C36.2308 9.59794 39.1233 8.51695 44.3198 8.04345L47.9448 7.71295V4.28445V0.856445H24.1793C4.52428 0.856445 0.367779 0.974945 0.150779 1.54095ZM156.151 1.54095C156.006 1.91745 155.957 3.42795 156.041 4.89695L156.195 7.56845L161.096 8.18195C166.8 8.89595 168.683 9.81595 170.146 12.6064C171.189 14.5959 171.195 14.8854 171.331 67.5984C171.427 104.858 171.303 121.381 170.914 123.254C170.567 124.924 169.808 126.546 168.878 127.606C167.319 129.381 165.579 129.944 159.195 130.739L156.195 131.112V134.359V137.606L178.57 137.736L200.945 137.867V134.433V131L196.896 130.662C190.156 130.1 187.911 129.438 185.887 127.414C184.571 126.098 183.926 124.886 183.512 122.957C182.864 119.929 182.677 25.8364 183.32 25.8849C183.526 25.9004 203.832 51.0999 228.445 81.8839L273.195 137.855L277.806 137.855L282.418 137.856L282.569 76.9814C282.69 28.2099 282.851 15.7164 283.379 14.1459C284.731 10.1284 287.406 8.63245 294.32 8.02695L297.945 7.70995V4.28295V0.856445H275.695H253.445V4.28745V7.71894L257.691 8.06345C267.8 8.88395 269.748 10.6909 270.927 20.3434C271.582 25.7009 271.642 109.356 270.991 109.356C270.742 109.356 262.232 98.9504 252.082 86.2314C241.931 73.5129 222.448 49.1004 208.785 31.9814L183.945 0.856445H170.179C158.989 0.856445 156.364 0.984445 156.151 1.54095ZM311.945 4.29194V7.72745L315.853 8.06845C321.5 8.56095 324.46 10.0509 325.998 13.1749L327.195 15.6064L327.329 67.8564C327.423 104.464 327.298 120.901 326.912 122.761C325.868 127.795 322.831 129.818 315.07 130.65L311.945 130.985V134.421V137.856H335.195H358.445V134.421V130.985L354.928 130.639C349.178 130.072 346.618 129.102 345.223 126.96C342.93 123.438 342.884 122.204 343.044 67.8564L343.195 16.6064L344.695 13.6294C346.55 9.94794 348.371 8.90944 354.25 8.18094L358.445 7.66145V4.25895V0.856445H335.195H311.945V4.29194ZM466.651 1.54095C466.506 1.91745 466.457 3.42244 466.541 4.88494L466.695 7.54395L470.231 8.13745C474.554 8.86345 475.931 9.55944 477.858 11.9914C479.398 13.9354 482.709 21.3994 485.339 28.8564C486.164 31.1939 487.414 34.5689 488.117 36.3564C488.82 38.1439 491.892 46.3564 494.943 54.6064C497.995 62.8564 501.143 71.2939 501.939 73.3564C503.19 76.5964 509.223 92.7425 522.116 127.356C523.908 132.169 525.527 136.5 525.713 136.981C526 137.723 526.723 137.856 530.449 137.856C534.795 137.856 534.853 137.84 535.334 136.481C535.602 135.725 537.292 131.056 539.09 126.106C542.295 117.284 544.796 110.36 549.293 97.8564C550.529 94.4189 553.864 85.1939 556.703 77.3564C559.542 69.5189 563.356 58.9439 565.178 53.8564C570.776 38.2319 571.297 36.9764 571.718 38.1064C572.108 39.1524 578.106 54.8639 587.18 78.6064C598.016 106.962 601.229 115.352 605.464 126.356L609.795 137.606L614.245 137.744L618.695 137.882L627.31 113.744C634.948 92.3444 643.542 68.3279 655.182 35.8564C662.193 16.2974 663.97 12.6774 667.804 10.1399C669.738 8.85995 673.676 7.85645 676.763 7.85645H678.445V4.35645V0.856445H655.695H632.945V4.25545V7.65395L638.184 8.23944C643.327 8.81394 646.531 9.90245 647.886 11.5354C648.92 12.7809 649.095 17.3244 648.26 21.2619C647.611 24.3269 642.609 39.2809 631.921 70.1064C630.873 73.1314 627.169 83.9314 623.691 94.1064C620.212 104.281 617.204 112.775 617.006 112.981C616.808 113.187 616.347 112.512 615.983 111.481C615.354 109.701 603.615 79.0554 588.419 39.5204C581.106 20.4939 580.477 18.5369 580.457 14.7594C580.433 10.2494 583.426 8.68645 593.32 8.04295L598.445 7.70895V4.28295V0.856445H573.945H549.445V4.32045V7.78444L552.32 8.10995C558.715 8.83345 560.539 10.3989 563.89 18.0399L566.044 22.9519L561.926 34.2794C559.66 40.5094 556.702 48.6439 555.352 52.3564C554.002 56.0689 552.023 61.4689 550.954 64.3564C549.885 67.2439 547.055 75.0064 544.666 81.6064C542.276 88.2064 539.206 96.6439 537.845 100.356C536.483 104.069 535.018 108.119 534.59 109.356C534.162 110.594 533.652 111.785 533.456 112.003C533.024 112.486 532.643 111.491 513.216 59.1064C510.564 51.9564 507.743 44.4189 506.945 42.3564C502.181 30.0334 498.869 20.4314 498.361 17.4719C497.105 10.1454 498.942 8.74495 510.76 8.02195L515.945 7.70444V4.28045V0.856445H491.429C471.139 0.856445 466.868 0.974445 466.651 1.54095ZM702.445 1.07644C702.445 1.27644 704.301 5.26495 708.346 13.7524L709.845 16.8984L707.116 24.0024C705.615 27.9099 702.612 35.8314 700.444 41.6064C698.275 47.3814 695.119 55.7064 693.429 60.1064C691.739 64.5064 689.605 70.1314 688.687 72.6064C687.769 75.0814 684.623 83.4064 681.695 91.1064C678.768 98.8064 675.241 108.144 673.858 111.856C668.465 126.327 665.683 129.393 656.82 130.637L654.445 130.97V134.413V137.856H674.695H694.945V134.408V130.96L690.82 130.607C685.712 130.171 683.776 129.314 682.681 127.006C681.353 124.208 681.847 122.34 689.604 100.856L690.236 99.1064L716.55 98.9769L742.864 98.8474L744.716 103.727C745.735 106.411 747.449 110.845 748.525 113.58C749.601 116.316 750.738 120.05 751.052 121.878C751.582 124.971 751.546 125.325 750.525 126.976C749.125 129.242 747.098 130.167 742.57 130.606L738.945 130.958V134.407V137.856H761.445H783.945V134.392V130.928L781.07 130.575C776.977 130.071 774.16 129.139 772.189 127.635C770.258 126.163 767.588 121.883 766.07 117.827C765.51 116.33 764.007 112.406 762.73 109.106C759.286 100.209 756.784 93.6849 748.444 71.8564C744.294 60.9939 740.02 49.8564 738.945 47.1064C735.275 37.7159 722.065 3.10895 721.721 1.98145C721.38 0.866446 721.293 0.856445 711.911 0.856445C706.705 0.856445 702.445 0.955445 702.445 1.07644ZM793.312 1.15595C793.11 1.35795 792.945 2.91594 792.945 4.61794V7.71245L796.82 8.03794C804.41 8.67544 806.903 10.2169 807.906 14.8919C808.661 18.4159 808.656 119.821 807.9 123.346C807.283 126.226 805.653 128.442 803.494 129.336C802.685 129.671 800.036 130.207 797.609 130.526L793.195 131.106V134.356V137.606L816.32 137.736L839.445 137.866V134.426V130.985L835.82 130.642C828.858 129.982 826.647 128.902 825.005 125.356C824.304 123.842 824.174 120.573 824.038 101.045L823.881 78.4829L838.538 78.2159C851.629 77.9774 853.819 77.8159 859.041 76.7049C869.431 74.4939 878.55 69.3309 884.26 62.4244C889.857 55.6564 892.536 47.8774 892.551 38.3564C892.565 28.7704 890.664 21.8869 886.459 16.3024C880.984 9.03044 872.746 4.76295 858.945 2.04795C855.34 1.33895 850.066 1.17994 824.187 1.00044C807.408 0.883945 793.514 0.953945 793.312 1.15595ZM852.935 11.5904C866.404 14.6694 871.914 18.5429 875.008 27.1064C876.683 31.7429 876.942 43.2644 875.491 48.5554C873.95 54.1699 872.231 57.1934 868.494 60.8564C864.73 64.5469 861.456 66.3579 855.695 67.9369C852.137 68.9114 850.16 69.0554 837.82 69.2359L823.945 69.4389V39.8479V10.2564L836.57 10.4959C845.981 10.6744 850.147 10.9534 852.935 11.5904ZM716.945 30.9574C716.945 31.2984 728.336 61.2609 733.445 74.3564C735.275 79.0484 738.945 88.9369 738.945 89.1769C738.945 89.2759 728.82 89.3564 716.445 89.3564C704.07 89.3564 693.945 89.2834 693.945 89.1944C693.945 89.1049 695.43 84.8864 697.246 79.8194C699.061 74.7524 701.292 68.4689 702.203 65.8564C703.114 63.2439 705.357 56.9439 707.188 51.8564C709.019 46.7689 711.384 40.1314 712.443 37.1064C715.638 27.9804 715.403 28.4474 716.232 29.5769C716.624 30.1109 716.945 30.7319 716.945 30.9574Z" fill="black"/>
<path d="M374.524 23.8399C379.817 11.9382 394.926 2.81292 411.829 1.31042C439.571 -1.15476 457.902 11.2303 457.999 32.506C458.043 42.0325 461.314 51.5094 466.735 57.8159L470 61.6141L467.943 62.3832C464.718 63.5885 456.791 63.9926 452.63 63.163C443.072 61.2571 434.603 55.713 431.531 49.3521C428.504 43.0846 429.582 36.8971 434.923 29.87C438.407 25.2872 439.227 22.9995 438.934 18.6796C438.361 10.2589 431.357 5.01592 420.753 5.07239C409.513 5.13222 401.492 12.3503 398.339 25.2408C394.943 39.1291 401.636 57.0434 410.22 57.0434C412.723 57.0434 415.61 55.3614 415.746 53.824C415.769 53.5611 415.861 50.3208 415.951 46.6234C416.071 41.6278 416.466 38.9408 417.487 36.163C419.279 31.2851 421.232 28.3756 419.715 32.8421C419.078 34.717 418.665 38.1671 418.628 41.9176C418.576 47.2325 418.789 48.4795 420.382 52.1783C423.084 58.4511 428.997 64.1069 437.292 68.3508C440.867 70.1801 446.208 72.9094 449.159 74.416C458.813 79.3443 465.732 86.6887 468.747 95.211C469.873 98.3921 470.067 100.121 469.866 105.179C469.656 110.474 469.337 111.918 467.491 115.911C462.204 127.348 449.013 136.36 432.45 139.852C423.89 141.657 408.36 141.28 401.185 139.093C392.824 136.546 386.741 132.877 381.708 127.349C373.867 118.737 371.423 110.621 372.713 97.4738C374.19 82.4064 373.228 74.8765 369.182 69.8426L367 67.1273H369.505C373.182 67.1273 381.837 68.9538 387.613 70.9484C401.263 75.663 406.845 81.4115 406.86 90.7727C406.869 96.1461 405.274 97.935 396.475 102.423C388.75 106.363 387.203 108.076 388.959 110.746C389.473 111.529 390.253 112.169 390.691 112.169C391.129 112.169 392.992 112.645 394.831 113.226C398.67 114.44 401.185 116.94 401.185 119.542C401.185 125.141 405.718 132.616 410.723 135.272C416.686 138.437 425.727 137.458 431.829 132.987C447.218 121.713 449.707 96.1515 436.857 81.3698C431.605 75.3282 426.118 73.0842 422.747 75.5985C420.715 77.1144 420.196 79.0465 420.778 82.9254C421.493 87.6776 420.402 94.9797 418.244 99.9C417.23 102.211 416.288 104.102 416.149 104.102C416.011 104.102 416.412 102.513 417.042 100.572C418.606 95.7515 418.597 87.7058 417.022 82.9335C414.286 74.6418 408.724 69.3061 396.159 62.9163C382.913 56.1809 378.451 52.2085 374.478 43.6124C372.721 39.8127 372.464 38.5691 372.464 33.8646C372.464 29.1709 372.731 27.8721 374.524 23.8399Z" fill="black"/>
</svg>
