<svg width="192" height="28" viewBox="0 0 192 28" fill="none" xmlns="http://www.w3.org/2000/svg">
<path fill-rule="evenodd" clip-rule="evenodd" d="M90.269 0.857554C85.8196 1.96986 83.7342 5.43136 84.9988 9.60459C85.5405 11.3928 87.2072 13.1968 89.564 14.5459C93.8115 16.9771 95.0622 17.9618 95.7885 19.4452C96.3946 20.6827 96.4471 21.0964 96.1416 22.2181C95.4244 24.8513 93.5517 26.3036 90.8727 26.3036C88.1381 26.3036 86.218 24.7817 85.7895 22.2748C85.6174 21.2666 85.4053 20.9447 84.9144 20.9447C84.328 20.9447 84.2667 21.2114 84.2667 23.7649V26.5846L86.0452 27.1841C88.8225 28.1199 92.7728 28.008 95.13 26.9269C99.722 24.8205 101.482 20.6395 99.4208 16.7329C98.6501 15.2716 96.7158 13.6405 93.4016 11.6571C89.9184 9.57214 88.3661 8.05558 88.1385 6.51423C87.7889 4.1456 89.936 2.18524 92.8708 2.19361C95.1693 2.19998 96.1558 2.7399 96.9705 4.43733C97.4807 5.50006 97.8459 5.85135 98.4499 5.86073C99.118 5.87078 99.2176 5.74721 99.0472 5.11921C98.935 4.7049 98.8409 3.66597 98.8385 2.81056C98.8351 1.72438 98.6769 1.19583 98.3134 1.05818C97.3235 0.682385 91.5451 0.538365 90.269 0.857554ZM0.929688 1.85365C0.929688 2.33561 1.15565 2.52351 1.73528 2.52351C3.37085 2.52351 3.45859 2.99176 3.63984 12.7054C3.79804 21.1916 3.85664 21.8692 4.54028 23.1218C5.51966 24.916 6.84797 26.11 8.89074 27.0327C10.2902 27.6647 11.1737 27.7987 13.9723 27.8044C17.0083 27.8101 17.5615 27.713 19.3011 26.8683C20.3686 26.3501 21.6982 25.3788 22.2558 24.7099C24.1892 22.3912 24.3938 21.2706 24.613 11.8052C24.824 2.69035 24.8528 2.54225 26.422 2.52851C26.7872 2.5255 27.0148 2.26628 27.0148 1.85365C27.0148 1.22096 26.7889 1.18379 22.9496 1.18379C19.1547 1.18379 18.8844 1.22698 18.8844 1.83253C18.8844 2.31818 19.1588 2.50742 19.9776 2.58613C21.7768 2.75862 21.9228 3.44463 21.9282 11.7569C21.934 20.1841 21.644 21.8055 19.8252 23.5119C18.134 25.0992 16.7881 25.6338 14.4838 25.6338C11.174 25.6338 8.82841 24.1051 8.05941 21.4471C7.80059 20.5532 7.70539 17.2658 7.77315 11.5666L7.87444 3.02589L9.06013 2.64778C9.71226 2.43978 10.2949 2.02545 10.3552 1.72669C10.4521 1.24674 9.91247 1.18379 5.69717 1.18379C1.15565 1.18379 0.929688 1.2156 0.929688 1.85365ZM32.4351 1.85365C32.4351 2.37212 32.6611 2.52351 33.4355 2.52351C35.1605 2.52351 36.1321 3.18134 36.522 4.61317C36.7439 5.42739 36.8395 9.31589 36.7744 14.8734C36.6582 24.7964 36.521 25.4455 34.4525 25.8545C33.7706 25.9894 33.4514 26.2527 33.4514 26.6804C33.4514 27.2645 33.7828 27.3083 38.1942 27.3083C42.5281 27.3083 42.937 27.2568 42.937 26.7079C42.937 26.2805 42.503 25.9928 41.4301 25.7091C40.0977 25.3567 39.8823 25.1645 39.5686 24.0488C39.1665 22.617 39.0713 7.53209 39.4646 7.57563C39.6042 7.59104 40.9182 8.9853 42.3848 10.6737C43.851 12.3621 47.8627 16.7955 51.2995 20.526C56.6788 26.3645 57.6849 27.3083 58.5301 27.3083H59.5119L59.6091 15.4348C59.6779 7.00425 59.8198 3.44894 60.098 3.17396C60.3137 2.96094 60.9997 2.68362 61.6224 2.55769C62.2833 2.42405 62.7549 2.12494 62.7549 1.83992C62.7549 1.44001 61.9104 1.33449 58.0968 1.25813C53.6119 1.16837 53.4388 1.19013 53.4388 1.84425C53.4388 2.34129 53.6607 2.52351 54.2667 2.52351C54.7224 2.52351 55.5226 2.88692 56.0453 3.33137L56.9958 4.13923L57.1026 12.207C57.1632 16.7621 57.0785 20.2749 56.9088 20.2749C56.7435 20.2749 55.7092 19.2576 54.6102 18.014C53.5116 16.7704 50.3828 13.3418 47.6574 10.3944C44.932 7.447 41.9545 4.18107 41.0412 3.1371L39.3799 1.23872L35.9075 1.21125C32.6516 1.18546 32.4351 1.22565 32.4351 1.85365ZM68.0058 1.85365C68.0058 2.36442 68.2318 2.52351 68.9574 2.52351C69.4808 2.52351 70.2048 2.73718 70.5666 2.99842C71.1872 3.4469 71.2302 4.02503 71.3302 13.2976C71.4552 24.8761 71.3525 25.5252 69.348 25.842C68.3385 26.0018 68.0058 26.2098 68.0058 26.6814C68.0058 27.2662 68.3473 27.3083 73.0873 27.3083C77.9429 27.3083 78.1689 27.2786 78.1689 26.6385C78.1689 26.1619 77.9429 25.9686 77.3867 25.9686C76.9564 25.9686 76.3087 25.755 75.9469 25.4938C75.3239 25.0436 75.2843 24.4645 75.1911 14.4544C75.0956 4.20021 75.1128 3.8703 75.7839 3.2068C76.164 2.83101 76.8561 2.52351 77.322 2.52351C77.9429 2.52351 78.1689 2.34499 78.1689 1.85365C78.1689 1.2136 77.9429 1.18379 73.0873 1.18379C68.2318 1.18379 68.0058 1.2136 68.0058 1.85365ZM103.478 1.85365C103.588 2.26863 103.94 2.52351 104.404 2.52351C104.815 2.52351 105.485 2.87419 105.893 3.30323C106.307 3.73864 108.623 9.24457 111.142 15.7794L115.65 27.4758L116.831 27.576L118.013 27.6761L121.18 19.3702C122.922 14.8021 124.53 10.7028 124.754 10.2607C125.137 9.50378 125.222 9.61905 126.24 12.2704C126.834 13.8177 128.415 17.9096 129.754 21.3634L132.187 27.6433H133.259C133.85 27.6433 134.41 27.4431 134.505 27.1982C134.6 26.9537 136.156 22.9971 137.964 18.4062C139.771 13.8157 141.773 8.72977 142.413 7.10469C143.87 3.40404 144.161 2.94719 145.323 2.54695C145.839 2.3691 146.261 1.98965 146.261 1.70362C146.261 1.26285 145.644 1.18379 142.196 1.18379C138.357 1.18379 138.131 1.22096 138.131 1.85365C138.131 2.33896 138.357 2.52351 138.95 2.52351C140.267 2.52351 140.841 2.87719 140.841 3.68873C140.841 4.36596 134.388 21.7421 133.991 22.135C133.747 22.3765 127.92 6.23524 127.709 4.73341C127.505 3.27445 128.133 2.52351 129.557 2.52351C130.113 2.52351 130.339 2.33025 130.339 1.85365C130.339 1.21259 130.113 1.18379 125.088 1.18379C120.063 1.18379 119.837 1.21259 119.837 1.85365C119.837 2.23547 120.063 2.52351 120.362 2.52351C121.42 2.52351 122.822 3.53365 123.182 4.55586C123.7 6.02252 123.304 7.50956 120.258 15.5512L117.671 22.3829L117.113 21.0776C116.807 20.3599 115.212 16.1243 113.569 11.6658C110.341 2.90664 110.293 2.52351 112.426 2.52351C113.175 2.52351 113.401 2.36844 113.401 1.85365C113.401 1.2136 113.175 1.18379 108.351 1.18379C103.468 1.18379 103.307 1.20589 103.478 1.85365Z" fill="black"/>
<path fill-rule="evenodd" clip-rule="evenodd" d="M172.085 2.08063C172.085 2.08063 172.085 2.53786 172.141 2.66509C172.198 2.79232 172.562 2.8401 172.562 2.8401C172.789 2.90032 173.004 2.95317 173.207 3.00308C174.231 3.25464 174.95 3.43135 175.237 4.09824C175.431 4.54876 175.444 6.11525 175.446 14.5131C175.448 23.3683 175.447 24.4535 175.208 25.0386C174.912 25.7643 174.345 26.1496 173.037 26.5139C173.037 26.5139 172.459 26.6736 172.303 26.8164C172.147 26.9592 172.118 27.2781 172.118 27.2781C172.118 27.2781 172.105 27.5743 172.239 27.7164C172.372 27.8585 172.728 27.7907 172.728 27.7907L176.118 27.7997L181.741 27.8447C181.741 27.8447 181.971 27.8749 182.09 27.724C182.209 27.5731 182.179 27.2773 182.179 27.2773C182.179 27.2773 182.179 26.9611 182.031 26.8186C181.883 26.6761 181.308 26.5425 181.308 26.5425C180.038 26.2325 179.387 25.8284 179.098 25.1722C178.884 24.6846 178.861 23.3681 178.829 20.6263V16.6064C179.642 17.0615 181.76 17.9716 183.73 17.9716C186.403 18.077 188.508 16.6413 189.822 14.7578C191.136 12.8744 191.75 9.72954 190.786 6.57739C189.822 3.42523 186.993 1.51768 184.016 1.32049C181.945 1.18332 178.927 1.3192 177.241 1.39508C177.069 1.40283 176.911 1.40995 176.769 1.4161C175.237 1.4824 173.402 1.62768 172.487 1.71398L172.485 1.71423C172.236 1.73772 172.211 1.74004 172.142 1.82773C172.072 1.91572 172.085 2.08063 172.085 2.08063ZM185.908 14.6143C187.219 13.2531 187.327 11.0802 187.327 9.70302C187.182 7.54366 186.492 3.20536 182.524 3.20536C181.363 3.14615 178.987 3.34501 178.921 4.94348C178.849 5.22582 178.817 7.20101 178.835 10.2323L178.864 15.0705L179.37 15.3347L179.397 15.349C179.672 15.4927 180.028 15.6793 180.65 15.8002C181.647 15.984 184.596 15.9755 185.908 14.6143Z" fill="black"/>
<path fill-rule="evenodd" clip-rule="evenodd" d="M156.542 1.37113C156.542 1.37113 156.3 1.46353 155.932 1.60186L154.605 2.28161L153.65 4.64752C153.125 5.94873 152.164 8.33738 151.515 9.95563C150.333 12.9032 149.552 14.8397 148.73 16.861C148.488 17.4554 147.759 19.2658 147.108 20.8841C146.458 22.5023 145.809 24.0424 145.664 24.3064C145.315 24.9461 144.675 26.2901 143.478 26.4814C143.478 26.4814 142.864 26.541 142.637 26.7637C142.41 26.9863 142.432 27.1684 142.432 27.1684V27.4489C142.432 27.4489 142.453 27.5848 142.582 27.6525C142.71 27.7202 142.884 27.7243 142.884 27.7243L146.964 27.6782H151.181C151.181 27.6782 151.48 27.7127 151.594 27.6181C151.709 27.5235 151.741 27.3831 151.741 27.3831V27.0879C151.741 27.0879 151.683 26.7676 151.516 26.6426C151.349 26.5176 150.723 26.4321 150.723 26.4321C149.035 26.2119 148.744 24.945 148.952 23.8061C149.055 23.2463 149.733 21.1758 150.497 19.0916L150.761 18.371L155.18 18.3377C157.61 18.3192 159.708 18.3316 159.842 18.3654C160.034 18.4134 160.303 18.9546 161.091 20.8813C162.286 23.8007 162.381 24.1565 162.117 24.7026C161.885 25.182 161.425 26.3588 160.121 26.471C160.121 26.471 159.477 26.4933 159.316 26.6845C159.156 26.8756 159.191 27.0955 159.191 27.0955V27.3879C159.191 27.3879 159.234 27.5592 159.316 27.627C159.399 27.6947 159.539 27.6778 159.539 27.6778L163.55 27.6492L169.188 27.6488C169.188 27.6488 169.409 27.6722 169.469 27.5879C169.529 27.5036 169.541 27.4043 169.541 27.4043V27.0162C169.541 27.0162 169.517 26.8096 169.408 26.6959C169.3 26.5821 168.569 26.4621 168.569 26.4621C167.397 26.2745 166.963 25.1181 166.576 24.5939C166.415 24.3769 165.842 23.1872 165.393 22.043C164.944 20.8989 163.931 18.3145 163.142 16.3C162.353 14.2854 161.252 11.4753 160.695 10.0552C160.138 8.63506 159.08 5.93298 158.344 4.05053C157.607 2.16807 157.335 1.45376 157.269 1.37113C157.092 1.14692 156.542 1.37113 156.542 1.37113ZM156.28 9.06384C156.102 8.63451 155.788 7.86446 155.584 7.35275C155.212 6.42215 155.07 6.20791 154.955 6.40018C154.921 6.45638 154.687 7.09228 154.435 7.81319C152.8 12.4823 152.059 14.5848 151.911 14.9808C151.818 15.2299 151.741 15.4865 151.741 15.5512C151.741 15.6256 153.071 15.669 155.35 15.669C157.334 15.669 158.958 15.6446 158.958 15.6147C158.958 15.5849 158.781 15.1391 158.565 14.6239C158.348 14.1088 157.818 12.8227 157.387 11.7659C156.956 10.7091 156.458 9.49317 156.28 9.06384Z" fill="black"/>
</svg>
