<svg width="86" height="16" viewBox="0 0 86 16" fill="none" xmlns="http://www.w3.org/2000/svg">
<path d="M13.34 0.999999H8.82V1.16C10.48 1.2 11.16 1.82 11.16 3.34V9.38C11.16 12.9 9.88 14.66 7.2 14.66C4.56 14.66 3.22 12.88 3.22 9.48V2.74C3.22 1.48 3.48 1.22 4.8 1.16V0.999999H0.2V1.16C1.52 1.22 1.78 1.64 1.78 2.74V9.78C1.78 13.5 3.68 15.4 6.84 15.4C10.1 15.4 11.56 13.44 11.56 9.68V3.34C11.56 1.8 12.08 1.2 13.34 1.16V0.999999ZM23.2752 0.999999V1.16C24.8352 1.22 25.4352 1.72 25.4352 3.38V12.26L16.9552 0.999999H14.1352V1.16C15.1352 1.18 15.6152 1.64 16.0952 2.26V12.4C16.0952 14.2 15.5752 14.8 14.1352 14.84V15H18.6552V14.84C17.0952 14.78 16.4952 14.28 16.4952 12.4V2.8L25.7752 15.2H25.8352V3.38C25.8352 1.8 26.3552 1.22 27.7952 1.16V0.999999H23.2752ZM33.2059 1.16V0.999999H28.6859V1.16C30.0059 1.22 30.2659 1.64 30.2659 2.74V13.06C30.2659 14.5 30.0059 14.78 28.6859 14.84V15H33.2059V14.84C31.8859 14.78 31.6259 14.5 31.6259 13.06V2.74C31.6259 1.48 31.8859 1.22 33.2059 1.16ZM38.7486 15.4C41.6886 15.4 43.5086 13.9 43.5086 11.36C43.5086 9.52 42.5286 8.44 40.6086 7.6L38.4286 6.62C36.3886 5.72 35.6086 5.14 35.6086 3.66C35.6086 1.94 36.8886 0.979999 38.8086 0.979999C41.4086 0.979999 42.6486 2.5 42.8486 5.6H42.9886V1.46C41.6086 0.76 40.3086 0.599999 39.3086 0.599999C36.5886 0.599999 34.7686 1.98 34.7686 4.26C34.7686 6.22 35.8486 7.24 37.9086 8.12L39.8086 8.96C41.5886 9.72 42.4486 10.46 42.4486 12C42.4486 13.94 41.2086 15.02 39.2086 15.02C36.4086 15.02 35.0686 13.08 34.8686 10.22H34.7086V14.4C35.8886 15.02 37.3486 15.4 38.7486 15.4ZM59.0811 0.999999V1.16C60.2011 1.18 60.6611 1.5 60.6611 2.24C60.6611 2.56 60.5811 2.94 60.4211 3.42L57.4011 12.58L54.0411 2.88C53.9411 2.6 53.9011 2.34 53.9011 2.14C53.9011 1.52 54.3211 1.2 55.3011 1.16V0.999999H50.7211V1.16C51.8411 1.2 52.1411 1.62 52.6411 3.02L53.2611 4.8L50.6811 12.64L47.5611 3.42C47.4011 2.94 47.3211 2.54 47.3211 2.22C47.3211 1.5 47.7811 1.2 48.8411 1.16V0.999999H44.2211V1.16C45.1411 1.2 45.4611 1.62 46.0211 3.24L50.2011 15.2H50.2811L53.4811 5.4L56.9211 15.2H57.0011L60.8611 3.36C61.3611 1.82 61.8211 1.2 62.8411 1.16V0.999999H59.0811ZM73.3523 13.06L69.0123 0.999999H67.8323L63.5923 12.78C63.0523 14.3 62.5523 14.72 61.3523 14.84V15H65.5523V14.84C64.1323 14.78 63.5523 14.42 64.1523 12.7L65.1723 9.82H70.7123L71.8123 12.96C72.3123 14.42 72.1323 14.78 70.7123 14.84V15H75.1523V14.84C74.1923 14.76 73.8923 14.58 73.3523 13.06ZM65.3123 9.42L67.9523 1.9L70.5723 9.42H65.3123ZM80.6916 8.72C83.4516 8.72 85.7316 7.66 85.7316 4.86C85.7316 2.06 83.4516 0.999999 80.6916 0.999999H75.9516V1.16C77.2716 1.22 77.5316 1.64 77.5316 2.74V13.06C77.5316 14.5 77.2716 14.78 75.9516 14.84V15H81.1716V14.84C79.2716 14.78 78.8916 14.48 78.8916 12.96V8.72H80.6916ZM80.3116 1.28C82.7716 1.28 84.2316 2.3 84.2316 4.86C84.2316 7.42 82.7716 8.44 80.3116 8.44H78.8916V1.28H80.3116Z" fill="#FF007A"/>
</svg>
