<svg width="94" height="18" viewBox="0 0 94 18" fill="none" xmlns="http://www.w3.org/2000/svg">
<path fill-rule="evenodd" clip-rule="evenodd" d="M42.5813 0.0904697C40.3112 0.662512 39.2472 2.44272 39.8924 4.58895C40.1688 5.5086 41.0191 6.43633 42.2216 7.13016C44.3887 8.38052 45.0268 8.88694 45.3974 9.64983C45.7066 10.2863 45.7334 10.499 45.5775 11.0759C45.2116 12.4301 44.2561 13.177 42.8893 13.177C41.4941 13.177 40.5145 12.3943 40.2958 11.105C40.208 10.5865 40.0998 10.421 39.8494 10.421C39.5502 10.421 39.5189 10.5581 39.5189 11.8713V13.3215L40.4263 13.6298C41.8433 14.1111 43.8588 14.0536 45.0614 13.4976C47.4042 12.4143 48.3022 10.2641 47.2506 8.25495C46.8574 7.50343 45.8705 6.66457 44.1795 5.6445C42.4024 4.57224 41.6104 3.7923 41.4943 2.9996C41.3159 1.78145 42.4114 0.773269 43.9087 0.777575C45.0814 0.780848 45.5847 1.05851 46.0004 1.93148C46.2607 2.47803 46.4471 2.65872 46.7552 2.66354C47.0961 2.66871 47.1469 2.60515 47.0599 2.28218C47.0027 2.06911 46.9547 1.53479 46.9535 1.09486C46.9517 0.536253 46.871 0.264442 46.6856 0.193647C46.1805 0.000382781 43.2324 -0.0736846 42.5813 0.0904697ZM75.5876 0.268059C74.4438 0.492846 72.7202 1.39027 71.9412 2.1666C70.7 3.40353 70.8067 4.75828 72.1158 4.38398C72.8279 4.18055 73.1241 3.90581 73.1241 3.44917C73.1241 2.84423 73.8321 1.95697 74.6636 1.5198C75.4103 1.12741 76.7185 0.98462 77.351 1.22646C77.9188 1.44367 78.1934 2.3516 78.2757 4.28183C78.3664 6.41343 78.345 6.45235 77.0798 6.45666C75.0911 6.46321 72.9853 7.18597 71.7621 8.28199C70.2702 9.61883 69.9936 11.1686 70.9816 12.6565C71.6049 13.5949 72.4174 13.9521 73.9292 13.9521C75.0594 13.9521 75.3028 13.8831 76.7379 13.1546C77.8629 12.5838 78.3094 12.4284 78.3094 12.6081C78.3094 12.746 78.5366 13.0855 78.8146 13.3625C79.2584 13.8048 79.4432 13.866 80.3363 13.866C81.1671 13.866 81.501 13.7723 82.1644 13.353C83.3727 12.5893 83.2469 11.8674 82.0144 12.4935C81.165 12.9252 80.9825 12.9193 80.6526 12.4496C80.4246 12.1252 80.3835 11.3291 80.3835 7.23247C80.3835 2.56174 80.3703 2.37227 79.9946 1.6297C79.316 0.288729 77.8252 -0.171867 75.5876 0.268059ZM0 0.602741C0 0.850609 0.115285 0.947242 0.411016 0.947242C1.24549 0.947242 1.29026 1.18805 1.38273 6.18364C1.46344 10.5479 1.49335 10.8964 1.84214 11.5406C2.34182 12.4634 3.01953 13.0774 4.06176 13.552C4.77577 13.877 5.22654 13.9459 6.65438 13.9489C8.20338 13.9518 8.48563 13.9018 9.37317 13.4674C9.91779 13.2009 10.5962 12.7014 10.8807 12.3574C11.8671 11.1649 11.9715 10.5886 12.0833 5.72064C12.191 1.03302 12.2057 0.956887 13.0063 0.949825C13.1926 0.948275 13.3088 0.814953 13.3088 0.602741C13.3088 0.277361 13.1935 0.258241 11.2347 0.258241C9.2985 0.258241 9.16057 0.280461 9.16057 0.591889C9.16057 0.841652 9.30057 0.938973 9.71833 0.979452C10.6363 1.06816 10.7108 1.42093 10.7136 5.69583C10.7165 10.0298 10.5685 10.8637 9.64055 11.7413C8.77773 12.5576 8.09103 12.8325 6.91537 12.8325C5.22671 12.8325 4.02996 12.0463 3.63761 10.6794C3.50556 10.2196 3.45699 8.529 3.49156 5.59799L3.54324 1.20562L4.14818 1.01115C4.4809 0.904179 4.77819 0.691106 4.80896 0.537459C4.85839 0.290625 4.58305 0.258241 2.43239 0.258241C0.115285 0.258241 0 0.274605 0 0.602741ZM15.0742 0.602741C15.0742 0.869384 15.1895 0.947242 15.5846 0.947242C16.4647 0.947242 16.9604 1.28554 17.1594 2.02191C17.2726 2.44065 17.3213 4.44047 17.2881 7.29862C17.2289 12.4019 17.1589 12.7357 16.1035 12.946C15.7556 13.0154 15.5927 13.1508 15.5927 13.3708C15.5927 13.6712 15.7618 13.6937 18.0125 13.6937C20.2237 13.6937 20.4323 13.6672 20.4323 13.3849C20.4323 13.1651 20.2109 13.0172 19.6635 12.8713C18.9837 12.69 18.8738 12.5912 18.7137 12.0174C18.5086 11.281 18.46 3.52307 18.6607 3.54546C18.7319 3.55339 19.4023 4.27046 20.1506 5.13878C20.8986 6.00709 22.9454 8.28716 24.6989 10.2057C27.4434 13.2083 27.9567 13.6937 28.388 13.6937H28.8889L28.9385 7.58731C28.9736 3.2516 29.046 1.42317 29.1879 1.28175C29.298 1.1722 29.648 1.02958 29.9657 0.964811C30.3029 0.896083 30.5435 0.742264 30.5435 0.595679C30.5435 0.390012 30.1126 0.335754 28.1669 0.296481C25.8787 0.250318 25.7904 0.261514 25.7904 0.597918C25.7904 0.853538 25.9036 0.947242 26.2128 0.947242C26.4453 0.947242 26.8535 1.13413 27.1202 1.36271L27.6052 1.77818L27.6596 5.92734C27.6906 8.26994 27.6474 10.0765 27.5608 10.0765C27.4764 10.0765 26.9487 9.55337 26.388 8.91381C25.8275 8.27424 24.2312 6.51092 22.8407 4.99512C21.4501 3.47932 19.931 1.79971 19.4651 1.2628L18.6175 0.28649L16.8458 0.272366C15.1847 0.259103 15.0742 0.279772 15.0742 0.602741ZM32.2225 0.602741C32.2225 0.865423 32.3378 0.947242 32.708 0.947242C32.9751 0.947242 33.3444 1.05714 33.529 1.19149C33.8457 1.42213 33.8676 1.71944 33.9186 6.48818C33.9824 12.4429 33.93 12.7767 32.9073 12.9396C32.3923 13.0218 32.2225 13.1288 32.2225 13.3713C32.2225 13.672 32.3967 13.6937 34.8151 13.6937C37.2925 13.6937 37.4077 13.6784 37.4077 13.3492C37.4077 13.1041 37.2925 13.0047 37.0087 13.0047C36.7892 13.0047 36.4587 12.8949 36.2741 12.7605C35.9562 12.529 35.936 12.2312 35.8885 7.08313C35.8397 1.80953 35.8486 1.63986 36.1909 1.29863C36.3849 1.10537 36.738 0.947242 36.9756 0.947242C37.2925 0.947242 37.4077 0.855432 37.4077 0.602741C37.4077 0.273571 37.2925 0.258241 34.8151 0.258241C32.3378 0.258241 32.2225 0.273571 32.2225 0.602741ZM49.3207 0.602741C49.3767 0.816159 48.5565 0.947242 48.7929 0.947242C49.0029 0.947242 49.3448 1.12759 49.5527 1.34824C49.7639 1.57217 50.9456 4.40378 52.2305 7.76456L54.5305 13.7799L55.1336 13.8314L55.7366 13.8829L57.3523 9.61125C58.2411 7.26193 59.0614 5.15376 59.1755 4.92639C59.3709 4.53711 59.4145 4.59636 59.9339 5.95989C60.2369 6.75569 61.0437 8.86007 61.7266 10.6363L62.9681 13.866H63.5152C63.8162 13.866 64.102 13.763 64.1505 13.6371C64.1989 13.5113 64.9931 11.4765 65.9152 9.11551C66.8375 6.75465 67.859 4.13904 68.1853 3.30328C68.9285 1.40009 69.0774 1.16514 69.6699 0.959299C69.9333 0.867834 70.1488 0.672675 70.1488 0.525574C70.1488 0.298893 69.834 0.258241 68.0747 0.258241C66.1159 0.258241 66.0006 0.277361 66.0006 0.602741C66.0006 0.852332 66.1159 0.947242 66.4185 0.947242C67.0904 0.947242 67.3833 1.12914 67.3833 1.5465C67.3833 1.89479 64.0912 10.8311 63.8883 11.0332C63.7637 11.1574 60.791 2.85612 60.6835 2.08375C60.5791 1.33343 60.8996 0.947242 61.6262 0.947242C61.91 0.947242 62.0253 0.847853 62.0253 0.602741C62.0253 0.273055 61.91 0.258241 59.3462 0.258241C56.7825 0.258241 56.6672 0.273055 56.6672 0.602741C56.6672 0.799106 56.7825 0.947242 56.9351 0.947242C57.4747 0.947242 58.1899 1.46675 58.3738 1.99246C58.6378 2.74674 58.4359 3.51153 56.8819 7.64725L55.5617 11.1606L55.2774 10.4894C55.121 10.1202 54.3071 7.94197 53.4689 5.64898C51.8221 1.1443 51.7977 0.947242 52.8858 0.947242C53.2679 0.947242 53.3832 0.86749 53.3832 0.602741C53.3832 0.273571 53.2679 0.258241 50.8068 0.258241C48.3155 0.258241 49.2334 0.26961 49.3207 0.602741ZM83.8773 0.602741C83.8773 0.868868 83.9926 0.947242 84.3836 0.947242C85.4607 0.947242 85.4329 0.732101 85.4329 9.05523C85.4329 16.3924 85.4224 16.6325 85.0872 16.9665C84.8952 17.1579 84.5111 17.311 84.223 17.311C83.8198 17.311 83.7045 17.3875 83.7045 17.6555C83.7045 17.986 83.8198 18 86.5564 18C89.2281 18 89.4082 17.9797 89.4082 17.6775C89.4082 17.4336 89.2371 17.3277 88.7065 17.2431C87.4977 17.0506 87.4966 17.043 87.5483 8.48439L87.5934 1.03337L88.4402 1.07764C90.2527 1.17255 91.6097 2.49956 91.7772 4.34057C91.9749 6.51195 90.9463 8.02913 89.0626 8.34469C88.6087 8.42066 88.4576 8.53124 88.4576 8.78755C88.4576 9.0585 88.5928 9.14032 89.111 9.18286C91.0715 9.34426 93.2555 7.80211 93.8235 5.85551C94.5266 3.44487 93.0799 1.21285 90.3658 0.520923C89.6561 0.339888 88.4865 0.258241 86.6065 0.258241C83.9926 0.258241 83.8773 0.27271 83.8773 0.602741ZM78.3094 9.29896V11.2773L77.292 11.7892C75.1682 12.8575 73.8739 12.8483 73.096 11.7594C72.579 11.0361 72.5593 9.76386 73.0545 9.09898C73.7531 8.16107 75.7454 7.40059 77.6612 7.34082L78.3094 7.32049V9.29896Z" fill="#FF007A"/>
</svg>
