<svg width="89" height="14" viewBox="0 0 89 14" fill="none" xmlns="http://www.w3.org/2000/svg">
<path d="M8.34529 0.186667V8.61333C8.34529 9.88667 7.42526 10.8 6.14259 10.8C4.85992 10.8 3.93989 9.88667 3.93989 8.61333V0.186667H0.206055V8.93333C0.206055 12.0533 2.58336 14 6.14259 14C9.67496 14 12.0791 12.0533 12.0791 8.93333V0.186667H8.34529Z" fill="black"/>
<path d="M25.619 0.186667H21.8851V7.33333H21.7777L16.8888 0.186667H13.719V13.84H17.4529V6.66667H17.5335L22.503 13.84H25.619V0.186667Z" fill="black"/>
<path d="M30.9843 0.186667H27.2505V13.84H30.9843V0.186667Z" fill="black"/>
<path d="M40.0332 4.45333H43.6059C43.5924 1.77333 41.5106 0 38.1797 0C34.9092 0 32.5991 1.74667 32.6192 4.34667C32.6125 6.48 34.1034 7.66667 36.5411 8.18667L37.9111 8.48C39.4422 8.81333 39.966 9.19333 39.9795 9.81333C39.966 10.4867 39.3482 10.96 38.1528 10.96C36.7224 10.96 35.8763 10.2933 35.8158 9.04H32.27C32.2835 12.4667 34.6205 14 38.2066 14C41.6919 14 43.7805 12.5067 43.7939 9.81333C43.7805 7.73333 42.5314 6.27333 39.4959 5.62667L38.3677 5.38667C37.0649 5.11333 36.4807 4.73333 36.5142 4.08C36.521 3.48 37.0246 3.04 38.1797 3.04C39.3885 3.04 39.9593 3.56667 40.0332 4.45333Z" fill="black"/>
<path d="M48.1777 13.84H51.7503L54.2843 6.21333H54.3918L56.5318 13.84H60.1045L64.5374 0.155547L60.7925 0.186667L58.1167 8.61333H58.0092L55.9766 0.186667H52.6995L50.2729 8.58667H50.1655L48.2851 0.186667H44.1215L48.1777 13.84Z" fill="black"/>
<path d="M65.8218 13.84L66.6143 11.2267H71.154L71.9464 13.84H75.9757L71.436 0.186667H66.3322L61.7925 13.84H65.8218ZM67.4604 8.45333L68.8304 3.94667H68.9379L70.3078 8.45333H67.4604Z" fill="black"/>
<path d="M77.1657 13.84H80.8996V9.78667H82.9679C86.1041 9.78667 88.2061 7.95333 88.2061 5.01333C88.2061 2.10667 86.1578 0.186667 83.1022 0.186667H77.1657V13.84ZM80.8996 6.90667V3.14667H82.2158C83.5253 3.14667 84.3111 3.84 84.3111 5.01333C84.3111 6.18 83.5253 6.90667 82.2158 6.90667H80.8996Z" fill="black"/>
</svg>
