<svg width="290" height="53" viewBox="0 0 290 53" fill="none" xmlns="http://www.w3.org/2000/svg">
<path fill-rule="evenodd" clip-rule="evenodd" d="M132.359 0.512612C125.792 2.17311 122.714 7.34061 124.581 13.5706C125.38 16.2401 127.84 18.9331 131.318 20.9471C137.587 24.5766 139.433 26.0466 140.505 28.2611C141.4 30.1086 141.478 30.7261 141.027 32.4006C139.968 36.3316 137.204 38.4996 133.25 38.4996C129.214 38.4996 126.38 36.2276 125.747 32.4851C125.493 30.9801 125.18 30.4996 124.456 30.4996C123.59 30.4996 123.5 30.8976 123.5 34.7096V38.9191L126.125 39.8141C130.224 41.2111 136.054 41.0441 139.533 39.4301C146.311 36.2856 148.909 30.0441 145.867 24.2121C144.729 22.0306 141.874 19.5956 136.982 16.6346C131.841 13.5221 129.55 11.2581 129.214 8.95711C128.698 5.42111 131.868 2.49461 136.199 2.50711C139.592 2.51661 141.048 3.32261 142.25 5.85661C143.003 7.44311 143.542 7.96761 144.434 7.98161C145.42 7.99661 145.567 7.81211 145.315 6.87461C145.15 6.25611 145.011 4.70511 145.007 3.42811C145.002 1.80661 144.768 1.01761 144.232 0.812111C142.771 0.251111 134.242 0.0361116 132.359 0.512612ZM233.626 1.02811C230.317 1.68061 225.332 4.28561 223.078 6.53911C219.488 10.1296 219.796 14.0621 223.583 12.9756C225.643 12.3851 226.5 11.5876 226.5 10.2621C226.5 8.50611 228.548 5.93061 230.954 4.66161C233.114 3.52261 236.898 3.10811 238.728 3.81011C240.37 4.44061 241.164 7.07611 241.402 12.6791C241.665 18.8666 241.603 18.9796 237.943 18.9921C232.19 19.0111 226.098 21.1091 222.56 24.2906C218.244 28.1711 217.444 32.6696 220.302 36.9886C222.105 39.7126 224.455 40.7496 228.829 40.7496C232.098 40.7496 232.803 40.5491 236.954 38.4346C240.209 36.7776 241.5 36.3266 241.5 36.8481C241.5 37.2486 242.157 38.2341 242.961 39.0381C244.245 40.3221 244.78 40.4996 247.363 40.4996C249.767 40.4996 250.733 40.2276 252.652 39.0106C256.148 36.7936 255.783 34.6981 252.218 36.5156C249.761 37.7686 249.233 37.7516 248.279 36.3881C247.619 35.4466 247.5 33.1356 247.5 21.2441C247.5 7.68611 247.462 7.13611 246.375 4.98061C244.412 1.08811 240.099 -0.248889 233.626 1.02811ZM0.5 1.99961C0.5 2.71911 0.833499 2.99961 1.689 2.99961C4.103 2.99961 4.2325 3.69861 4.5 18.1996C4.7335 30.8681 4.82 31.8796 5.829 33.7496C7.2745 36.4281 9.235 38.2106 12.25 39.5881C14.3155 40.5316 15.6195 40.7316 19.75 40.7401C24.231 40.7486 25.0475 40.6036 27.615 39.3426C29.1905 38.5691 31.153 37.1191 31.976 36.1206C34.8295 32.6591 35.1315 30.9861 35.455 16.8556C35.7665 3.24861 35.809 3.02761 38.125 3.00711C38.664 3.00261 39 2.61561 39 1.99961C39 1.05511 38.6665 0.999611 33 0.999611C27.399 0.999611 27 1.06411 27 1.96811C27 2.69311 27.405 2.97561 28.6135 3.09311C31.269 3.35061 31.4845 4.37461 31.4925 16.7836C31.501 29.3641 31.073 31.7846 28.3885 34.3321C25.8925 36.7016 23.906 37.4996 20.505 37.4996C15.62 37.4996 12.158 35.2176 11.023 31.2496C10.641 29.9151 10.5005 25.0076 10.6005 16.4996L10.75 3.74961L12.5 3.18511C13.4625 2.87461 14.3225 2.25611 14.4115 1.81011C14.5545 1.09361 13.758 0.999611 7.5365 0.999611C0.833501 0.999611 0.5 1.04711 0.5 1.99961ZM47 1.99961C47 2.77361 47.3335 2.99961 48.4765 2.99961C51.0225 2.99961 52.4565 3.98161 53.032 6.11911C53.3595 7.33461 53.5005 13.1396 53.4045 21.4361C53.233 36.2496 53.0305 37.2186 49.9775 37.8291C48.971 38.0306 48.5 38.4236 48.5 39.0621C48.5 39.9341 48.989 39.9996 55.5 39.9996C61.8965 39.9996 62.5 39.9226 62.5 39.1031C62.5 38.4651 61.8595 38.0356 60.276 37.6121C58.3095 37.0861 57.9915 36.7991 57.5285 35.1336C56.935 32.9961 56.7945 10.4766 57.375 10.5416C57.581 10.5646 59.5205 12.6461 61.685 15.1666C63.849 17.6871 69.77 24.3056 74.8425 29.8746C82.782 38.5906 84.267 39.9996 85.5145 39.9996H86.9635L87.107 22.2741C87.2085 9.68861 87.418 4.38111 87.8285 3.97061C88.147 3.65261 89.1595 3.23861 90.0785 3.05061C91.054 2.85111 91.75 2.40461 91.75 1.97911C91.75 1.38211 90.5035 1.22461 84.875 1.11061C78.2555 0.976611 78 1.00911 78 1.98561C78 2.72761 78.3275 2.99961 79.222 2.99961C79.8945 2.99961 81.0755 3.54211 81.847 4.20561L83.25 5.41161L83.4075 17.4556C83.497 24.2556 83.372 29.4996 83.1215 29.4996C82.8775 29.4996 81.351 27.9811 79.729 26.1246C78.1075 24.2681 73.4895 19.1496 69.467 14.7496C65.4445 10.3496 61.05 5.47411 59.702 3.91561L57.25 1.08161L52.125 1.04061C47.3195 1.00211 47 1.06211 47 1.99961ZM99.5 1.99961C99.5 2.76211 99.8335 2.99961 100.905 2.99961C101.677 2.99961 102.746 3.31861 103.28 3.70861C104.196 4.37811 104.259 5.24111 104.407 19.0836C104.591 36.3686 104.44 37.3376 101.481 37.8106C99.991 38.0491 99.5 38.3596 99.5 39.0636C99.5 39.9366 100.004 39.9996 107 39.9996C114.167 39.9996 114.5 39.9551 114.5 38.9996C114.5 38.2881 114.167 37.9996 113.346 37.9996C112.711 37.9996 111.755 37.6806 111.221 37.2906C110.301 36.6186 110.242 35.7541 110.105 20.8106C109.964 5.50261 109.989 5.01011 110.98 4.01961C111.541 3.45861 112.562 2.99961 113.25 2.99961C114.166 2.99961 114.5 2.73311 114.5 1.99961C114.5 1.04411 114.167 0.999611 107 0.999611C99.8335 0.999611 99.5 1.04411 99.5 1.99961ZM151.855 1.99961C152.017 2.61911 152.537 2.99961 153.221 2.99961C153.828 2.99961 154.818 3.52311 155.419 4.16361C156.03 4.81361 159.448 13.0331 163.165 22.7886L169.819 40.2496L171.564 40.3991L173.308 40.5486L177.982 28.1491C180.553 21.3296 182.926 15.2101 183.256 14.5501C183.821 13.4201 183.947 13.5921 185.45 17.5501C186.326 19.8601 188.661 25.9686 190.636 31.1246L194.227 40.4996H195.81C196.681 40.4996 197.507 40.2006 197.648 39.8351C197.788 39.4701 200.086 33.5636 202.753 26.7101C205.421 19.8571 208.376 12.2646 209.32 9.83861C211.47 4.31411 211.901 3.63211 213.615 3.03461C214.377 2.76911 215 2.20261 215 1.77561C215 1.11761 214.089 0.999611 209 0.999611C203.333 0.999611 203 1.05511 203 1.99961C203 2.72411 203.333 2.99961 204.209 2.99961C206.152 2.99961 207 3.52761 207 4.73911C207 5.75011 197.476 31.6901 196.889 32.2766C196.529 32.6371 187.929 8.54061 187.618 6.29861C187.316 4.12061 188.244 2.99961 190.346 2.99961C191.167 2.99961 191.5 2.71111 191.5 1.99961C191.5 1.04261 191.167 0.999611 183.75 0.999611C176.333 0.999611 176 1.04261 176 1.99961C176 2.56961 176.333 2.99961 176.775 2.99961C178.336 2.99961 180.405 4.50761 180.937 6.03361C181.7 8.22311 181.117 10.4431 176.621 22.4481L172.802 32.6466L171.98 30.6981C171.527 29.6266 169.173 23.3036 166.748 16.6476C161.984 3.57161 161.914 2.99961 165.061 2.99961C166.167 2.99961 166.5 2.76811 166.5 1.99961C166.5 1.04411 166.166 0.999611 159.047 0.999611C151.84 0.999611 151.602 1.03261 151.855 1.99961ZM260.5 1.99961C260.5 2.77211 260.834 2.99961 261.965 2.99961C265.081 2.99961 265 2.37511 265 26.5351C265 47.8331 264.97 48.5301 264 49.4996C263.445 50.0551 262.334 50.4996 261.5 50.4996C260.334 50.4996 260 50.7216 260 51.4996C260 52.4591 260.333 52.4996 268.25 52.4996C275.979 52.4996 276.5 52.4406 276.5 51.5636C276.5 50.8556 276.005 50.5481 274.47 50.3026C270.973 49.7436 270.97 49.7216 271.12 24.8781L271.25 3.24961L273.699 3.37811C278.943 3.65361 282.868 7.50561 283.353 12.8496C283.925 19.1526 280.95 23.5566 275.5 24.4726C274.187 24.6931 273.75 25.0141 273.75 25.7581C273.75 26.5446 274.141 26.7821 275.64 26.9056C281.312 27.3741 287.629 22.8976 289.272 17.2471C291.306 10.2496 287.121 3.77061 279.27 1.76211C277.217 1.23661 273.833 0.999611 268.395 0.999611C260.833 0.999611 260.5 1.04161 260.5 1.99961ZM241.5 27.2426V32.9851L238.557 34.4711C232.413 37.5721 228.669 37.5456 226.419 34.3846C224.923 32.2851 224.866 28.5921 226.298 26.6621C228.319 23.9396 234.083 21.7321 239.625 21.5586L241.5 21.4996V27.2426Z" fill="black"/>
</svg>
