<svg width="300" height="53" viewBox="0 0 300 53" fill="none" xmlns="http://www.w3.org/2000/svg">
<path fill-rule="evenodd" clip-rule="evenodd" d="M137.668 0.490154C131.387 1.82715 127.988 7.19615 129.481 13.4212C130.276 16.7342 132.67 19.4347 137.415 22.3717C144.05 26.4772 145 27.5122 145 30.6362C145 34.8307 142.219 37.2927 137.945 36.8822C134.859 36.5857 133.067 35.3772 132.114 32.9492C131.436 31.2242 131.156 31.0002 129.674 31.0002C128.037 31.0002 128 31.0472 128.005 33.1252C128.008 34.2942 128.149 36.0862 128.318 37.1077C128.589 38.7492 128.886 39.0647 130.867 39.8217C134.005 41.0202 140.465 41.0177 143.921 39.8172C149.315 37.9437 152.225 33.9547 152.207 28.4612C152.189 23.0832 149.861 20.0992 142.26 15.7087C140.891 14.9177 138.922 13.4222 137.885 12.3852C136.333 10.8337 136 10.1467 136 8.50015C136 6.32265 137.101 4.81765 139.305 3.97915C141.629 3.09565 145.723 4.51415 146.786 6.57065C147.348 7.65715 147.883 8.00015 149.013 8.00015H150.5V4.76765C150.5 2.13715 150.328 1.44315 149.577 1.04165C148.265 0.339153 140.143 -0.0368459 137.668 0.490154ZM240.75 0.979153C233.156 2.60365 227.154 6.67615 226.283 10.7957C225.781 13.1692 226.875 13.8162 230.125 13.0662C233.168 12.3637 234.5 11.3107 234.5 9.60665C234.5 7.85865 237.429 5.26265 240.184 4.56865C245.894 3.13115 246.573 3.90565 246.893 12.2232L247.133 18.4477L245.941 18.6922C245.286 18.8262 243.026 19.0587 240.919 19.2082C236.885 19.4942 233.334 20.6452 230.009 22.7442C223.832 26.6437 223.316 35.5532 229.048 39.3387C230.932 40.5832 231.635 40.7477 234.982 40.7287C238.478 40.7087 239.089 40.5387 242.728 38.5757C246.329 36.6337 246.723 36.5222 247.169 37.3202C249.359 41.2322 254.108 41.9387 259.625 39.1737C262.208 37.8792 262.338 37.6542 261.317 36.2572C260.705 35.4202 260.468 35.3922 259.031 35.9872C257.569 36.5927 257.333 36.5557 256.34 35.5627C255.283 34.5062 255.243 34.0397 255 19.8622C254.725 3.82015 254.734 3.86815 251.563 1.89265C249.661 0.708154 244.181 0.245153 240.75 0.979153ZM0.5 2.14065C0.5 3.03365 0.961 3.44015 2.625 4.01565L4.75 4.75015L5.0525 17.5002C5.3785 31.2497 5.666 32.9072 8.3315 36.4012C9.0775 37.3797 10.8515 38.6827 12.4465 39.4237C14.924 40.5747 15.8895 40.7277 20.75 40.7382C25.5245 40.7487 26.5365 40.5997 28.423 39.6082C33.7445 36.8117 36.148 33.4672 36.982 27.6977C37.256 25.8017 37.4845 20.0662 37.49 14.9527C37.499 6.73465 37.6015 5.56515 38.375 4.87915C38.8565 4.45265 39.7 4.02215 40.25 3.92265C40.9105 3.80315 41.3035 3.27615 41.408 2.37065L41.5665 1.00015H34.75H27.9335L28.092 2.35515C28.205 3.32315 28.606 3.79365 29.496 4.00215C31.72 4.52215 31.985 5.92815 31.99 17.2502C31.9925 23.0252 31.7685 28.5642 31.492 29.5592C30.7005 32.4092 28.9305 34.6547 26.515 35.8752C22.019 38.1467 17.1875 36.6257 15 32.2502C13.796 29.8422 13.744 29.3367 13.5875 18.5002C13.4265 7.33815 13.7085 4.71415 15.1175 4.27915C15.4655 4.17165 16.3685 3.94815 17.125 3.78215C18.1745 3.55265 18.5 3.18765 18.5 2.24065V1.00015H9.5H0.5V2.14065ZM49.5 2.20265C49.5 3.17715 49.901 3.53265 51.614 4.07765C54.982 5.14915 55.027 5.38315 54.8795 21.0737C54.7595 33.8617 54.6785 34.9757 53.7975 35.9487C53.2735 36.5272 52.3175 37.0002 51.6725 37.0002C50.703 37.0002 50.5 37.2602 50.5 38.5002V40.0002H57.75H65V38.5002C65 37.2667 64.795 37.0002 63.8455 37.0002C63.2105 37.0002 62.2545 36.6812 61.7205 36.2912C60.817 35.6317 60.741 34.8087 60.6185 24.4162L60.4865 13.2502L62.6185 15.5222C63.7905 16.7717 68.575 21.9152 73.25 26.9527C77.925 31.9897 82.6705 37.0986 83.7955 38.3056C85.4825 40.1151 86.1575 40.5002 87.646 40.5002H89.451L89.6005 23.3022C89.739 7.37615 89.8185 6.02815 90.677 5.07965C91.187 4.51665 92.087 3.98715 92.677 3.90315C93.4275 3.79615 93.7975 3.33715 93.908 2.37515L94.0665 1.00015H87.033H80V2.21115C80 3.15115 80.39 3.55115 81.7405 3.99715C84.2595 4.82815 84.5805 6.47515 84.401 17.6477L84.25 27.0447L72.26 14.0227L60.2705 1.00015H54.885C49.531 1.00015 49.5 1.00715 49.5 2.20265ZM102 2.26265C102 3.26865 102.309 3.58665 103.518 3.82865C106.429 4.41115 106.5 4.80715 106.5 20.5002C106.5 36.3362 106.378 37.0002 103.471 37.0002C102.17 37.0002 102 37.1732 102 38.5002V40.0002H110.783H119.566L119.408 38.6432C119.281 37.5502 118.921 37.2191 117.561 36.9426C116.631 36.7541 115.678 36.2962 115.443 35.9252C115.208 35.5537 115.012 28.7192 115.008 20.7367C114.999 4.78365 115.064 4.41215 117.982 3.82865C119.191 3.58665 119.5 3.26865 119.5 2.26265V1.00015H110.75H102V2.26265ZM157 2.22665C157 3.13515 157.451 3.66715 158.738 4.27815C160.851 5.28065 161.183 5.96166 169.293 25.8822L175.25 40.5147L177.75 40.3822L180.25 40.2502L184.694 28.3752C187.139 21.8442 189.292 16.5002 189.48 16.5002C189.667 16.5002 192.043 21.9102 194.76 28.5227L199.698 40.5457L202.133 40.3977L204.566 40.2502L211.158 23.4622C217.9 6.29315 218.972 4.00015 220.262 4.00015C220.749 4.00015 221 3.48965 221 2.50015V1.00015H215.75H210.5V2.26265C210.5 3.14915 210.872 3.66665 211.75 4.00015C212.438 4.26165 213 4.80465 213 5.20715C213 5.60965 211 11.2767 208.555 17.7997C203.353 31.6772 204.619 31.7652 198.777 17.1172C194.612 6.67515 194.365 5.17965 196.625 4.10165C197.572 3.65015 198 3.06415 198 2.22265V1.00015H190.25H182.5V2.26065C182.5 3.11115 182.896 3.70215 183.716 4.07565C185.299 4.79715 186.276 7.18265 186.143 10.0002C186.082 11.2982 184.676 15.9512 182.819 20.9982L179.601 29.7462L178.807 27.9982C177 24.0187 170.542 8.09165 170.228 6.84015C169.835 5.27515 170.658 4.00015 172.061 4.00015C172.771 4.00015 173 3.63415 173 2.50015V1.00015H165H157V2.22665ZM267 2.22765C267 3.23215 267.314 3.51365 268.732 3.77965C269.685 3.95865 270.753 4.45315 271.107 4.87915C271.608 5.48315 271.75 10.2962 271.75 26.7502C271.75 49.7972 271.813 49.3082 268.838 49.5962C267.524 49.7237 267.223 49.9872 267.092 51.1252L266.934 52.5002H275.75H284.566L284.408 51.1252C284.289 50.0927 283.938 49.7072 283 49.5772C280.551 49.2387 280.5 49.0137 280.5 38.5287V28.6796L284.349 28.0812C288.873 27.3777 293.079 25.5822 295.436 23.3482C301.155 17.9292 300.768 8.09065 294.68 4.05765C291.118 1.69865 286.913 1.00015 276.276 1.00015H267V2.22765ZM284.609 5.02215C290.419 6.63565 292.694 13.9172 289.234 19.8212C287.778 22.3067 284.424 24.5002 282.081 24.5002H280.5V14.5002V4.50015L281.625 4.50315C282.243 4.50465 283.587 4.73815 284.609 5.02215ZM247 26.9647C247 32.0792 246.789 32.4452 242.766 34.3192C239.146 36.0047 237.277 35.8767 235.2 33.8002C233.888 32.4877 233.5 31.6842 233.5 30.2752C233.5 28.0467 234.545 25.9137 236.151 24.8612C237.968 23.6702 241.963 22.5742 244.625 22.5352L247 22.5002V26.9647Z" fill="#FF007A"/>
</svg>
