<svg width="986" height="144" viewBox="0 0 986 144" fill="none" xmlns="http://www.w3.org/2000/svg">
<path fill-rule="evenodd" clip-rule="evenodd" d="M784.75 1.79029C782.55 2.75679 780.075 3.84229 779.25 4.20229C777.604 4.92029 769.915 7.88829 766.75 9.02729C764.491 9.83979 763.876 10.8393 760.477 19.2213C759.362 21.9713 758.246 24.6713 757.997 25.2213C757.748 25.7713 755.724 30.6088 753.499 35.9713C751.275 41.3338 748.8 47.2963 748 49.2213C747.2 51.1463 744.725 57.1088 742.5 62.4713C740.275 67.8338 737.8 73.7963 737 75.7213C736.2 77.6463 733.725 83.6088 731.5 88.9713C729.275 94.3338 726.799 100.296 725.998 102.221C717.263 123.218 716.814 124.163 714.636 126.109C713.241 127.356 708.795 128.821 705.25 129.202C699.525 129.816 700 129.272 700 135.231V140.471H725.25H750.5V135.231C750.5 129.269 750.962 129.798 745.25 129.22C740.967 128.787 737.33 127.664 736.213 126.43C734.344 124.365 734.986 121.354 740.736 105.221C742.304 100.821 743.926 96.2628 744.342 95.0918L745.097 92.9618L769.878 93.0918L794.657 93.2213L799.86 105.471C802.721 112.209 805.37 118.889 805.746 120.316C807.217 125.901 804.913 128.159 796.823 129.059C789.212 129.906 790 129.194 790 135.231V140.471H824H858V135.255C858 129.35 858.334 129.775 853.25 129.235C849.597 128.847 845.723 127.662 843.877 126.368C842.118 125.135 840.218 121.893 837.935 116.226C836.936 113.749 833.48 105.196 830.256 97.2213C827.032 89.2463 822.531 78.1088 820.253 72.4713C814.11 57.2688 806.065 37.3688 800.243 22.9713C797.407 15.9588 794.268 8.19629 793.268 5.72129C791.546 1.45929 790.48 -0.0677106 789.279 0.00228935C788.988 0.0187893 786.95 0.823789 784.75 1.79029ZM0 8.35879V13.7458L4.286 14.6858C9.1335 15.7483 13.7305 17.7658 15.327 19.5308C15.9195 20.1853 16.8195 21.6213 17.327 22.7213C18.1895 24.5898 18.2695 27.1853 18.5465 62.2213C18.868 102.861 18.7525 101.086 21.743 111.221C23.458 117.034 26.926 122.784 31.8915 128.048C36.038 132.443 40.1855 135.432 45.579 137.91C51.0415 140.42 53.619 141.23 60.25 142.52C67.9405 144.016 82.9065 144.036 90.3075 142.56C99.8285 140.662 105.693 138.065 111.73 133.075C119.216 126.887 124.21 118.119 126.74 106.721C129.568 93.9843 129.581 93.8018 130.02 59.2213C130.268 39.7343 130.646 25.7398 130.965 24.2693C132.055 19.2553 134.859 17.2858 144.117 15.0293L149.484 13.7213L149.492 8.34629L149.5 2.97129H122.5H95.5V8.23679C95.5 12.0138 95.6765 13.5573 96.125 13.6948C96.469 13.8008 99 14.3943 101.75 15.0138C110.01 16.8753 112.844 18.6648 113.954 22.7213C114.982 26.4823 115.61 46.8963 115.361 68.4713C115.145 87.1793 114.988 90.4608 114.049 95.9048C112.808 103.096 112.021 105.741 109.492 111.221C106.314 118.107 101.639 122.167 94.25 124.455C89.409 125.954 78.854 125.999 73.899 124.541C62.846 121.29 55.5365 113.371 52.6035 101.471C50.6875 93.6983 50.43 87.8353 50.594 55.7213L50.75 25.2213L52.0545 22.4403C54.048 18.1893 57.6565 16.1143 66.0815 14.3743L69 13.7713V8.37129V2.97129H34.5H0V8.35879ZM159 5.89879V8.82679L163.125 9.70379C171.016 11.3808 174.62 14.3613 176.257 20.5643C177.132 23.8798 177.239 26.4618 177.404 48.2213C177.573 70.4983 177.026 96.0073 176.02 112.721C175.538 120.745 174.637 123.553 171.87 125.664C170.046 127.055 166.046 128.594 162.75 129.173C158.763 129.874 159 129.489 159 135.255V140.471H183.5H208V135.762C208 130.275 207.782 129.471 206.292 129.471C204.363 129.471 196.818 127.4 194.919 126.35C192.674 125.108 191.241 123.237 190.566 120.669C189.872 118.031 189.645 49.8398 190.329 49.6118C190.601 49.5208 192.149 50.8583 193.768 52.5838C200.538 59.8013 212.572 72.5643 216.999 77.2213C219.613 79.9713 225.352 86.0453 229.751 90.7188C234.151 95.3923 239.888 101.467 242.501 104.219C245.115 106.97 250.752 112.934 255.029 117.471C259.305 122.009 266.701 129.828 271.464 134.846L280.124 143.971H283.328C285.454 143.971 286.596 143.761 286.725 143.346C286.832 143.003 287.175 117.184 287.487 85.9713C287.8 54.7588 288.238 27.7193 288.46 25.8838C289.251 19.3433 291.786 16.7498 299.092 15.0068C301.48 14.4373 303.787 13.9713 304.217 13.9713C304.88 13.9713 305 13.1298 305 8.47129V2.97129H280.5H256V8.47129V13.9713H257.271C259.915 13.9713 266.346 15.6048 268.75 16.8873C270.899 18.0343 271.495 18.7108 273 21.7088L274.75 25.1958L274.914 56.6443C275.013 75.5918 274.894 88.2773 274.614 88.5573C274.328 88.8433 269.466 84.1658 261.949 76.3718C255.24 69.4143 249.525 63.4693 249.25 63.1613C248.975 62.8528 246.274 60.0403 243.247 56.9108C240.221 53.7818 227.315 40.3653 214.567 27.0963L191.389 2.97129H175.195H159V5.89879ZM318 8.47129C318 13.4373 318.087 13.9713 318.901 13.9713C320.931 13.9713 328.89 16.3898 330.752 17.5723C333.322 19.2048 334.213 20.2283 335.461 22.9803C336.46 25.1813 336.478 26.0498 336.489 71.7688L336.5 118.316L334.875 121.519C333.387 124.451 332.976 124.859 330 126.357C328.212 127.256 324.838 128.398 322.5 128.894L318.25 129.797L318.108 135.134L317.966 140.471H352.75H387.534L387.392 135.107L387.25 129.743L384.75 129.34C377.561 128.181 372.388 125.402 370.5 121.683L369.25 119.221V71.7213V24.2213L370.327 22.2213C372.377 18.4108 375.324 16.6298 382.612 14.7983L387.25 13.6328L387.392 8.30179L387.534 2.97129H352.767H318V8.47129ZM500.5 8.21179V13.4523L501.875 13.7593C511.088 15.8168 514.983 17.4303 517.411 20.1958C519.639 22.7333 520.092 23.7433 524.574 36.1318C536.8 69.9303 541.693 83.4518 547.492 99.4713C551.026 109.234 555.909 122.734 558.345 129.471L562.773 141.721L573.114 141.856C582.581 141.98 583.493 141.917 583.912 141.106C584.165 140.62 590.035 123.23 596.958 102.463C603.882 81.6963 609.748 64.3778 609.996 63.9778C610.243 63.5778 610.592 63.3968 610.771 63.5758C610.95 63.7548 612.4 67.4608 613.991 71.8113C615.583 76.1618 617.719 81.8588 618.737 84.4713C623.754 97.3473 640.319 139.01 641.151 140.846C641.656 141.96 641.76 141.971 652.05 141.971H662.439L664.198 136.346C667.477 125.857 670.897 114.739 672.232 110.221C672.964 107.746 673.755 105.159 673.99 104.471C674.224 103.784 675.47 99.6213 676.758 95.2213C678.045 90.8213 679.764 84.9713 680.578 82.2213C681.392 79.4713 682.485 75.7588 683.008 73.9713C690.344 48.9183 696.811 28.8483 699.102 24.0223C702.004 17.9118 706.602 14.9108 714.25 14.1368C719.085 13.6478 719.058 13.6828 718.893 8.06929L718.75 3.22129L695.108 3.09129L671.466 2.96129L671.608 8.33629L671.75 13.7108L674.084 14.0438C681.675 15.1268 685.5 17.6793 685.5 21.6633C685.5 23.5653 681.903 37.8168 677.281 54.2213C676.352 57.5213 674.535 64.0463 673.245 68.7213C671.954 73.3963 670.341 79.1338 669.661 81.4713C668.981 83.8088 667.752 88.0838 666.93 90.9713C662.151 107.78 662.117 107.873 661.25 106.47C661.079 106.195 659.714 102.483 658.216 98.2218C656.718 93.9603 654.235 86.9293 652.698 82.5973C646.743 65.8198 636.814 37.0873 629.275 14.8153C628.029 11.1333 626.712 8.12079 626.179 7.73029C625.358 7.13029 624.668 7.36029 620.25 9.70529C617.5 11.1648 614.448 12.6128 613.469 12.9228C611.728 13.4738 611.656 13.6038 610.267 18.6043C603.951 41.3508 600.565 52.5158 592.716 76.4713C590.96 81.8338 588.11 90.8153 586.385 96.4303C584.659 102.045 583 106.721 582.698 106.822C582.396 106.923 581.799 105.816 581.372 104.363C580.671 101.984 578.175 94.0523 573.145 78.2213C565.865 55.3063 557.368 26.7373 557.144 24.4193C556.81 20.9483 557.585 18.4663 559.429 17.1028C561.06 15.8973 566.954 13.9713 569.012 13.9713C571.917 13.9713 572 13.8088 572 8.16779V2.97129H536.25H500.5V8.21179ZM865.5 8.33029V13.7498L869.125 14.6568C875.72 16.3078 879.278 18.8158 880.869 22.9383C881.688 25.0598 881.75 28.5083 881.75 71.7213C881.75 115.443 881.696 118.362 880.843 120.573C879.208 124.809 875.311 127.312 867.862 128.913L863.75 129.797L863.608 135.134L863.466 140.471H898H932.534L932.392 135.139L932.25 129.807L927.5 128.646C924.888 128.007 921.513 126.85 920 126.075C917.639 124.865 917.038 124.246 915.75 121.694L914.25 118.721L914.099 103.346C914.015 94.8898 914.078 87.9713 914.24 87.9713C914.401 87.9713 915.594 88.5068 916.891 89.1613C921.513 91.4933 926.312 92.5493 933.563 92.8308C941.32 93.1323 944.865 92.6583 951.656 90.4118C967.409 85.2013 979.865 72.8268 984.102 58.1788C985.625 52.9158 985.756 40.4693 984.339 35.7213C982.306 28.9133 979.846 24.7378 975.039 19.9373C966.966 11.8758 957.299 7.41429 941.25 4.34229C936.053 3.34779 933.815 3.27929 900.625 3.09979L865.5 2.91029V8.33029ZM935.5 17.2508C943.193 19.5408 948.585 25.1328 951.257 33.5893C954.759 44.6718 953.629 62.4933 948.998 69.2243C941.96 79.4538 928.526 82.3033 916.358 76.1473L913.966 74.9373L914.108 48.5793L914.25 22.2213L915.396 20.0763C916.582 17.8548 917.76 17.1203 921.25 16.4263C924.2 15.8393 932.343 16.3108 935.5 17.2508ZM768.992 32.0963C769.549 33.4293 774.579 45.3523 778.01 53.4713C779.347 56.6338 781.499 61.6963 782.792 64.7213C785.518 71.0988 788.5 78.4278 788.5 78.7493C788.5 78.8713 779.95 78.9713 769.5 78.9713C754.599 78.9713 750.5 78.8358 750.5 78.3443C750.5 77.9993 751.083 76.1428 751.795 74.2193C752.507 72.2953 753.269 70.1588 753.488 69.4713C753.872 68.2608 764.313 39.6638 766.494 33.8463C767.656 30.7478 768.253 30.3293 768.992 32.0963Z" fill="black"/>
<path d="M407.086 26.003C412.07 14.0163 426.3 4.82586 442.217 3.31263C468.344 0.829848 485.607 13.3034 485.698 34.731C485.74 44.3256 488.82 53.8702 493.925 60.2217L497 64.0471L495.063 64.8216C492.026 66.0356 484.56 66.4425 480.642 65.607C471.64 63.6875 463.665 58.1038 460.772 51.6975C457.921 45.3852 458.936 39.1536 463.966 32.0762C467.248 27.4607 468.019 25.1567 467.744 20.8059C467.204 12.325 460.608 7.0446 450.622 7.10147C440.037 7.16173 432.483 14.4313 429.514 27.414C426.315 41.4014 432.618 59.4437 440.703 59.4437C443.06 59.4437 445.778 57.7497 445.906 56.2013C445.928 55.9366 446.015 52.6731 446.099 48.9493C446.213 43.918 446.585 41.2118 447.546 38.4142C449.234 33.5015 451.073 30.5711 449.644 35.0695C449.044 36.9578 448.655 40.4325 448.621 44.2099C448.572 49.5627 448.773 50.8186 450.272 54.5438C452.817 60.8615 458.386 66.5576 466.197 70.8319C469.564 72.6742 474.594 75.4231 477.373 76.9404C486.465 81.9039 492.98 89.3008 495.82 97.8839C496.88 101.088 497.063 102.829 496.874 107.923C496.676 113.256 496.375 114.71 494.637 118.731C489.658 130.25 477.236 139.327 461.637 142.844C453.576 144.662 438.951 144.282 432.194 142.08C424.32 139.514 418.591 135.819 413.851 130.251C406.467 121.578 404.165 113.404 405.38 100.163C406.771 84.9879 405.866 77.4041 402.055 72.3343L400 69.5997H402.359C405.822 69.5997 413.973 71.4392 419.413 73.4481C432.267 78.1963 437.524 83.9859 437.538 93.4139C437.546 98.8257 436.045 100.627 427.758 105.147C420.483 109.116 419.026 110.841 420.68 113.53C421.164 114.318 421.898 114.963 422.311 114.963C422.723 114.963 424.478 115.442 426.21 116.028C429.825 117.251 432.194 119.769 432.194 122.389C432.194 128.027 436.462 135.556 441.176 138.231C446.791 141.419 455.306 140.432 461.053 135.929C475.545 124.575 477.889 98.8311 465.788 83.9439C460.841 77.8591 455.674 75.5991 452.5 78.1313C450.586 79.6581 450.097 81.604 450.646 85.5106C451.319 90.2967 450.291 97.651 448.259 102.606C447.304 104.934 446.417 106.838 446.286 106.838C446.156 106.838 446.534 105.238 447.127 103.283C448.6 98.4282 448.591 90.3252 447.108 85.5187C444.531 77.1678 439.293 71.794 427.461 65.3585C414.986 58.5751 410.784 54.5743 407.042 45.9167C405.388 42.09 405.146 40.8374 405.146 36.0993C405.146 31.3721 405.397 30.064 407.086 26.003Z" fill="black"/>
</svg>
