<svg width="120" height="80" viewBox="0 0 120 80" fill="none" xmlns="http://www.w3.org/2000/svg">
<g opacity="0.24">
<path d="M40.0001 40.0001H41.0001L41.0001 6.10789e-05L40.0001 6.10352e-05L40.0001 40.0001Z" fill="black"/>
<path d="M120 40.0001L40.0001 40.0001L40.0001 39.0001L120 39.0001V40.0001Z" fill="black"/>
<path d="M40.0001 16.0001C40.0124 29.2494 50.7507 39.9878 64.0001 40.0001L40.0001 40.0001L40.0001 16.0001Z" fill="black"/>
<path d="M40.0001 64.0001C39.9878 50.7507 29.2494 40.0124 16.0001 40.0001L40.0001 40.0001L40.0001 64.0001Z" fill="black"/>
<path d="M40.0001 40.0001L39 40.0001L39 80.0001H40L40.0001 40.0001Z" fill="black"/>
<path d="M6.10352e-05 40.0001L40.0001 40.0001L40.0001 41.0001L6.10352e-05 41.0001V40.0001Z" fill="black"/>
</g>
</svg>
