<svg xmlns="http://www.w3.org/2000/svg" viewBox="0 0 122.82 106.11"><defs><style>.cls-1{fill:none;stroke:#000;stroke-miterlimit:10;stroke-width:6px;}</style></defs><title>Asset 2</title><g id="Layer_2" data-name="Layer 2"><g id="Layer_1-2" data-name="Layer 1"><polyline class="cls-1" points="94.69 63.67 88.82 54.24 94.28 30.91 92.67 26.71 70.16 22.27 63.02 8.68 37.7 22.74 8.19 3.95 3.72 9.36 24.09 40.73 8.55 52.69 9.21 62.99 18.17 71.83 32.19 71.83 44.69 78.67 48.69 105.67"/><polyline class="cls-1" points="30.14 49.19 39.91 53.3 48.36 50.63"/><polyline class="cls-1" points="44.48 35.27 53.74 34.67 61.15 28.93"/><line class="cls-1" x1="71.69" y1="56.67" x2="64.98" y2="45.64"/><polyline class="cls-1" points="78.8 75.11 101.69 73.67 107.69 81.67"/><polyline class="cls-1" points="92.93 92.72 113.69 90.67 120.44 99.46"/></g></g></svg>